<svg height="496pt" viewBox="0 0 496 496" width="496pt" xmlns="http://www.w3.org/2000/svg"><path d="m8 496v-160h74.832031c-6.640625 5.863281-10.832031 14.441406-10.832031 24 0 17.671875 14.328125 32 32 32s32-14.328125 32-32c0-9.558594-4.191406-18.136719-10.832031-24h74.832031v74.832031c5.863281-6.640625 14.441406-10.832031 24-10.832031 17.671875 0 32 14.328125 32 32s-14.328125 32-32 32c-9.558594 0-18.136719-4.191406-24-10.832031v42.832031" fill="#5789d6"/><path d="m216 462.886719v-9.71875c4.152344 4.703125 9.703125 8.089843 15.96875 9.710937 13.792969-3.558594 24.03125-15.976562 24.03125-30.878906s-10.238281-27.320312-24.03125-30.878906c-6.257812 1.621094-11.816406 5.007812-15.96875 9.710937v-9.726562c-6.273438 1.621093-11.839844 5.007812-16 9.726562v-74.832031h-58.832031c6.640625 5.863281 10.832031 14.441406 10.832031 24 0 17.671875-14.328125 32-32 32-2.777344 0-5.433594-.464844-8-1.128906-2.566406.664062-5.222656 1.128906-8 1.128906-17.671875 0-32-14.328125-32-32 0-9.558594 4.191406-18.136719 10.832031-24h-58.832031v160h176v-42.832031c4.160156 4.710937 9.726562 8.097656 16 9.71875zm0 0" fill="#699ce6"/><path d="m125.167969 248c6.640625 5.863281 10.832031 14.441406 10.832031 24 0 17.671875-14.328125 32-32 32s-32-14.328125-32-32c0-9.558594 4.191406-18.136719 10.832031-24h-74.832031v-192h192v74.832031c-5.863281-6.640625-14.441406-10.832031-24-10.832031-17.671875 0-32 14.328125-32 32s14.328125 32 32 32c9.558594 0 18.136719-4.191406 24-10.832031v74.832031zm0 0" fill="#ca5057"/><path d="m192 184c-2.769531 0-5.40625-.464844-7.96875-1.121094-2.574219.671875-5.238281 1.121094-8.03125 1.121094-17.671875 0-32-14.328125-32-32s14.328125-32 32-32c2.792969 0 5.457031.449219 8.03125 1.121094 2.5625-.65625 5.199219-1.121094 7.96875-1.121094 2.777344 0 5.433594.449219 8 1.113281v-65.113281h-176v192h74.839844c-6.65625 5.863281-10.839844 14.441406-10.839844 24 0 14.894531 10.222656 27.304688 24 30.871094 13.777344-3.566406 24-15.976563 24-30.871094 0-9.558594-4.191406-18.136719-10.832031-24h74.832031v-65.113281c-2.566406.664062-5.222656 1.113281-8 1.113281zm0 0" fill="#dc6068"/><path d="m344 248h-48v-74.832031c-5.863281 6.640625-14.441406 10.832031-24 10.832031-17.671875 0-32-14.328125-32-32s14.328125-32 32-32c9.558594 0 18.136719 4.191406 24 10.832031v-74.832031h68.28125c-2.722656-4.703125-4.28125-10.167969-4.28125-16 0-17.671875 14.328125-32 32-32s32 14.328125 32 32c0 5.832031-1.558594 11.296875-4.28125 16h68.28125v192h-112" fill="#98be61"/><path d="m419.71875 56h-16c2.722656-4.703125 4.28125-10.167969 4.28125-16 0-14.894531-10.222656-27.304688-24-30.871094-13.777344 3.566406-24 15.976563-24 30.871094 0 5.832031 1.558594 11.296875 4.28125 16h-68.28125v74.832031c-4.160156-4.710937-9.726562-8.105469-16-9.726562v9.726562c-4.152344-4.703125-9.703125-8.089843-15.96875-9.710937-13.792969 3.558594-24.03125 15.976562-24.03125 30.878906s10.238281 27.320312 24.03125 30.878906c6.257812-1.621094 11.816406-5.007812 15.96875-9.710937v9.726562c6.273438-1.621093 11.839844-5.007812 16-9.726562v74.832031h176v-192zm0 0" fill="#abd176"/><path d="m488 256h-112v-16h104v-176h-60.28125c-2.855469 0-5.503906-1.527344-6.925781-4.007812-1.425781-2.480469-1.433594-5.527344.007812-8.007813 2.085938-3.609375 3.199219-7.761719 3.199219-11.984375 0-13.230469-10.769531-24-24-24s-24 10.769531-24 24c0 4.222656 1.113281 8.375 3.199219 11.984375 1.441406 2.480469 1.441406 5.527344.007812 8.007813-1.429687 2.480468-4.0625 4.007812-6.925781 4.007812h-60.28125v66.832031c0 3.328125-2.0625 6.304688-5.167969 7.488281-3.113281 1.167969-6.625.304688-8.832031-2.191406-4.550781-5.167968-11.113281-8.128906-18-8.128906-13.230469 0-24 10.769531-24 24s10.769531 24 24 24c6.886719 0 13.449219-2.960938 18-8.128906 2.199219-2.496094 5.734375-3.34375 8.832031-2.191406 3.105469 1.175781 5.167969 4.152343 5.167969 7.488281v66.832031h40v16h-48c-4.425781 0-8-3.574219-8-8v-59.34375c-4.992188 2.175781-10.433594 3.34375-16 3.34375-22.054688 0-40-17.945312-40-40s17.945312-40 40-40c5.566406 0 11.007812 1.167969 16 3.34375v-59.34375c0-4.425781 3.574219-8 8-8h56.808594c-.535156-2.617188-.808594-5.304688-.808594-8 0-22.054688 17.945312-40 40-40s40 17.945312 40 40c0 2.695312-.273438 5.382812-.808594 8h56.808594c4.425781 0 8 3.574219 8 8v192c0 4.425781-3.574219 8-8 8zm0 0"/><path d="m104 312c-22.054688 0-40-17.945312-40-40 0-5.566406 1.167969-11.007812 3.34375-16h-59.34375c-4.425781 0-8-3.574219-8-8v-192c0-4.425781 3.574219-8 8-8h192c4.425781 0 8 3.574219 8 8v74.832031c0 3.328125-2.0625 6.304688-5.167969 7.488281-3.105469 1.167969-6.632812.304688-8.832031-2.191406-4.550781-5.167968-11.113281-8.128906-18-8.128906-13.230469 0-24 10.769531-24 24s10.769531 24 24 24c6.886719 0 13.449219-2.960938 18-8.128906 2.199219-2.496094 5.726562-3.34375 8.832031-2.191406 3.105469 1.175781 5.167969 4.152343 5.167969 7.488281v74.832031c0 4.425781-3.574219 8-8 8h-59.34375c2.175781 4.992188 3.34375 10.433594 3.34375 16 0 22.054688-17.945312 40-40 40zm-88-72h66.832031c3.328125 0 6.304688 2.0625 7.488281 5.167969 1.167969 3.121093.304688 6.632812-2.191406 8.832031-5.167968 4.550781-8.128906 11.113281-8.128906 18 0 13.230469 10.769531 24 24 24s24-10.769531 24-24c0-6.886719-2.960938-13.449219-8.128906-18-2.496094-2.191406-3.367188-5.710938-2.191406-8.832031 1.175781-3.105469 4.152343-5.167969 7.488281-5.167969h66.832031v-51.34375c-4.992188 2.175781-10.433594 3.34375-16 3.34375-22.054688 0-40-17.945312-40-40s17.945312-40 40-40c5.566406 0 11.007812 1.167969 16 3.34375v-51.34375h-176zm0 0"/><path d="m208 496h-16v-42.832031c0-3.328125 2.0625-6.304688 5.167969-7.488281 3.121093-1.160157 6.632812-.296876 8.832031 2.191406 4.550781 5.167968 11.113281 8.128906 18 8.128906 13.230469 0 24-10.769531 24-24s-10.769531-24-24-24c-6.886719 0-13.449219 2.960938-18 8.128906-2.199219 2.503906-5.734375 3.359375-8.832031 2.191406-3.105469-1.175781-5.167969-4.152343-5.167969-7.488281v-66.832031h-51.34375c2.175781 4.992188 3.34375 10.433594 3.34375 16 0 22.054688-17.945312 40-40 40s-40-17.945312-40-40c0-5.566406 1.167969-11.007812 3.34375-16h-51.34375v152h-16v-160c0-4.425781 3.574219-8 8-8h74.832031c3.328125 0 6.304688 2.0625 7.488281 5.167969 1.167969 3.121093.304688 6.632812-2.191406 8.832031-5.167968 4.550781-8.128906 11.113281-8.128906 18 0 13.230469 10.769531 24 24 24s24-10.769531 24-24c0-6.886719-2.960938-13.449219-8.128906-18-2.496094-2.191406-3.367188-5.710938-2.191406-8.832031 1.175781-3.105469 4.152343-5.167969 7.488281-5.167969h74.832031c4.425781 0 8 3.574219 8 8v59.34375c4.992188-2.175781 10.433594-3.34375 16-3.34375 22.054688 0 40 17.945312 40 40s-17.945312 40-40 40c-5.566406 0-11.007812-1.167969-16-3.34375zm0 0"/><path d="m464 224h-16v-128h-128v-16h136c4.425781 0 8 3.574219 8 8zm0 0"/><path d="m48 224h-16v-136c0-4.425781 3.574219-8 8-8h136v16h-128zm0 0"/><path d="m32 360h16v136h-16zm0 0"/><path d="m368 496v-40l-32-40-8-40 24-16-8-24v-104c0-8.839844 7.160156-16 16-16s16 7.160156 16 16v88l16-24h16l16 24h16l16 24h16l16 24v48l-32 40v40" fill="#e5c7bd"/><path d="m456 368-16-24h-16l-16-24h-16l-16 24v-88c0-8.839844-7.160156-16-16-16s-16 7.160156-16 16v80l8 24-6.542969 4.359375 6.542969 19.640625-19.769531 13.175781 3.769531 18.824219 32 40v40h88v-40l32-40v-24l-16-24zm0 0" fill="#edd5cd"/><path d="m376 496h-16v-37.191406l-30.246094-37.808594c-.800781-1-1.347656-2.175781-1.59375-3.433594l-8-40c-.632812-3.175781.710938-6.429687 3.40625-8.222656l24-16 8.875 13.3125-19.539062 13.03125 6.5625 32.832031 30.792968 38.480469c1.125 1.425781 1.742188 3.175781 1.742188 5zm0 0"/><path d="m464 496h-16v-40c0-1.824219.617188-3.574219 1.753906-5l30.246094-37.808594v-42.777344l-12.28125-18.414062h-11.71875c-2.671875 0-5.167969-1.335938-6.65625-3.558594l-13.625-20.441406h-11.71875c-2.671875 0-5.167969-1.335938-6.65625-3.558594l-13.625-20.441406h-7.4375l-13.625 20.441406c-1.953125 2.925782-5.609375 4.238282-8.976562 3.214844-3.375-1.023438-5.679688-4.136719-5.679688-7.65625v-88c0-4.414062-3.585938-8-8-8s-8 3.585938-8 8v102.703125l15.585938 46.769531-15.171876 5.0625-16-48c-.269531-.824218-.414062-1.679687-.414062-2.535156v-104c0-13.230469 10.769531-24 24-24s24 10.769531 24 24v61.574219l1.34375-2.015625c1.488281-2.222656 3.984375-3.558594 6.65625-3.558594h16c2.671875 0 5.167969 1.335938 6.65625 3.558594l13.625 20.441406h11.71875c2.671875 0 5.167969 1.335938 6.65625 3.558594l13.625 20.441406h11.71875c2.671875 0 5.167969 1.335938 6.65625 3.558594l16 24c.871094 1.3125 1.34375 2.867187 1.34375 4.441406v48c0 1.824219-.617188 3.574219-1.753906 5l-30.246094 37.808594zm0 0"/></svg>