<svg height="496pt" viewBox="0 0 496 496" width="496pt" xmlns="http://www.w3.org/2000/svg"><path d="m488 256c4.425781 0 8-3.574219 8-8v-192c0-4.425781-3.574219-8-8-8h-56.808594c.535156-2.617188.808594-5.304688.808594-8 0-22.054688-17.945312-40-40-40s-40 17.945312-40 40c0 2.695312.273438 5.382812.808594 8h-56.808594c-4.425781 0-8 3.574219-8 8v59.34375c-4.992188-2.175781-10.433594-3.34375-16-3.34375-22.054688 0-40 17.945312-40 40s17.945312 40 40 40c5.566406 0 11.007812-1.167969 16-3.34375v59.34375c0 4.425781 3.574219 8 8 8h40v80c0 .855469.144531 1.710938.414062 2.527344l6.066407 18.199218-18.921875 12.617188c-2.695313 1.800781-4.039063 5.046875-3.40625 8.222656l8 40c.246094 1.25.800781 2.433594 1.589844 3.433594l30.257812 37.808594v37.191406h16v-40c0-1.824219-.617188-3.574219-1.753906-5l-30.789063-38.480469-6.5625-32.832031 10.824219-7.222656 4.6875 14.0625 15.167969-5.0625-15.574219-46.761719v-102.703125c0-4.414062 3.585938-8 8-8s8 3.585938 8 8v88c0 3.519531 2.304688 6.632812 5.679688 7.65625 3.367187 1.023438 7.023437-.289062 8.976562-3.214844l13.625-20.441406h7.4375l13.625 20.441406c1.488281 2.222656 3.984375 3.558594 6.65625 3.558594h11.71875l13.625 20.441406c1.488281 2.222656 3.984375 3.558594 6.65625 3.558594h11.71875l12.28125 18.425781v42.773438l-30.246094 37.808593c-1.136718 1.417969-1.753906 3.167969-1.753906 4.992188v40h16v-37.191406l30.246094-37.808594c1.136718-1.425781 1.753906-3.175781 1.753906-5v-48c0-1.574219-.472656-3.128906-1.34375-4.441406l-16-24c-1.488281-2.222656-3.984375-3.558594-6.65625-3.558594h-11.71875l-13.625-20.441406c-1.488281-2.222656-3.984375-3.558594-6.65625-3.558594h-11.71875l-13.625-20.441406c-1.488281-2.222656-3.984375-3.558594-6.65625-3.558594h-16c-2.671875 0-5.167969 1.335938-6.65625 3.558594l-1.34375 2.015625v-37.574219zm-128-48c-13.230469 0-24 10.769531-24 24v8h-32v-66.832031c0-3.328125-2.0625-6.304688-5.167969-7.488281-3.097656-1.152344-6.625-.304688-8.832031 2.191406-4.550781 5.167968-11.113281 8.128906-18 8.128906-13.230469 0-24-10.769531-24-24s10.769531-24 24-24c6.886719 0 13.449219 2.960938 18 8.128906 2.199219 2.496094 5.71875 3.367188 8.832031 2.191406 3.105469-1.175781 5.167969-4.152343 5.167969-7.488281v-66.832031h60.28125c2.855469 0 5.503906-1.527344 6.925781-4.007812 1.425781-2.480469 1.433594-5.527344-.007812-8.007813-2.085938-3.609375-3.199219-7.761719-3.199219-11.984375 0-13.230469 10.769531-24 24-24s24 10.769531 24 24c0 4.222656-1.113281 8.375-3.199219 11.984375-1.441406 2.480469-1.441406 5.527344-.007812 8.007813 1.429687 2.480468 4.0625 4.007812 6.925781 4.007812h60.28125v176h-96v-8c0-13.230469-10.769531-24-24-24zm0 0"/><path d="m8 256h59.34375c-2.175781 4.992188-3.34375 10.433594-3.34375 16 0 22.054688 17.945312 40 40 40s40-17.945312 40-40c0-5.566406-1.167969-11.007812-3.34375-16h59.34375c4.425781 0 8-3.574219 8-8v-74.832031c0-3.328125-2.0625-6.304688-5.167969-7.488281-3.105469-1.152344-6.625-.304688-8.832031 2.191406-4.550781 5.167968-11.113281 8.128906-18 8.128906-13.230469 0-24-10.769531-24-24s10.769531-24 24-24c6.886719 0 13.449219 2.960938 18 8.128906 2.191406 2.496094 5.726562 3.367188 8.832031 2.191406 3.105469-1.175781 5.167969-4.152343 5.167969-7.488281v-74.832031c0-4.425781-3.574219-8-8-8h-192c-4.425781 0-8 3.574219-8 8v192c0 4.425781 3.574219 8 8 8zm8-192h176v51.34375c-4.992188-2.175781-10.433594-3.34375-16-3.34375-22.054688 0-40 17.945312-40 40s17.945312 40 40 40c5.566406 0 11.007812-1.167969 16-3.34375v51.34375h-66.832031c-3.328125 0-6.304688 2.0625-7.488281 5.167969-1.167969 3.121093-.304688 6.632812 2.191406 8.832031 5.167968 4.550781 8.128906 11.113281 8.128906 18 0 13.230469-10.769531 24-24 24s-24-10.769531-24-24c0-6.886719 2.960938-13.449219 8.128906-18 2.496094-2.191406 3.367188-5.710938 2.191406-8.832031-1.175781-3.105469-4.152343-5.167969-7.488281-5.167969h-66.832031zm0 0"/><path d="m224 392c-5.566406 0-11.007812 1.167969-16 3.34375v-59.34375c0-4.425781-3.574219-8-8-8h-74.832031c-3.328125 0-6.304688 2.0625-7.488281 5.167969-1.167969 3.121093-.304688 6.632812 2.191406 8.832031 5.167968 4.550781 8.128906 11.113281 8.128906 18 0 13.230469-10.769531 24-24 24s-24-10.769531-24-24c0-6.886719 2.960938-13.449219 8.128906-18 2.496094-2.191406 3.367188-5.710938 2.191406-8.832031-1.175781-3.105469-4.152343-5.167969-7.488281-5.167969h-74.832031c-4.425781 0-8 3.574219-8 8v160h16v-152h51.34375c-2.175781 4.992188-3.34375 10.433594-3.34375 16 0 22.054688 17.945312 40 40 40s40-17.945312 40-40c0-5.566406-1.167969-11.007812-3.34375-16h51.34375v66.832031c0 3.328125 2.0625 6.304688 5.167969 7.488281 3.097656 1.167969 6.625.3125 8.832031-2.191406 4.550781-5.167968 11.113281-8.128906 18-8.128906 13.230469 0 24 10.769531 24 24s-10.769531 24-24 24c-6.886719 0-13.449219-2.960938-18-8.128906-2.191406-2.496094-5.710938-3.351563-8.832031-2.191406-3.105469 1.175781-5.167969 4.152343-5.167969 7.488281v42.832031h16v-27.34375c4.992188 2.175781 10.433594 3.34375 16 3.34375 22.054688 0 40-17.945312 40-40s-17.945312-40-40-40zm0 0"/><path d="m448 224h16v-136c0-4.425781-3.574219-8-8-8h-136v16h128zm0 0"/><path d="m176 80h-136c-4.425781 0-8 3.574219-8 8v136h16v-128h128zm0 0"/><path d="m32 360h16v136h-16zm0 0"/></svg>