<svg id="Layer_3" enable-background="new 0 0 64 64" height="512" viewBox="0 0 64 64" width="512" xmlns="http://www.w3.org/2000/svg"><path d="m36 58-8 4 4-8z" fill="#fdd089"/><path d="m2 2h38v52h-38z" fill="#b2b0b2"/><path d="m2 2h35v52h-35z" fill="#edebed"/><path d="m36 58 25.293-25.293c.453-.453.707-1.067.707-1.707 0-.64-.254-1.254-.707-1.707l-.586-.586c-.453-.453-1.067-.707-1.707-.707-.64 0-1.254.254-1.707.707l-25.293 25.293z" fill="#b9917d"/><path d="m52.379 32.672h4.243v5.657h-4.243z" fill="#8b6d5e" transform="matrix(.707 -.707 .707 .707 -9.14 48.935)"/><path d="m6 32h30v4h-30z" fill="#8b6d5e"/><path d="m6 32h27v4h-27z" fill="#b9917d"/><path d="m6 40h30v4h-30z" fill="#8b6d5e"/><path d="m6 40h27v4h-27z" fill="#b9917d"/><path d="m6 20h18v8h-18z" fill="#8b6d5e"/><path d="m6 20h15v8h-15z" fill="#b9917d"/><path d="m6.707 11.293 4.586-4.586c.453-.453 1.067-.707 1.707-.707.64 0 1.254.254 1.707.707l.586.586c.453.453.707 1.067.707 1.707 0 .64-.254 1.254-.707 1.707l-4.586 4.586c-.453.453-1.067.707-1.707.707-.64 0-1.254-.254-1.707-.707l-.586-.586c-.453-.453-.707-1.067-.707-1.707 0-.64.254-1.254.707-1.707z" fill="#fff"/><path d="m13 13-2.293 2.293c-.453.453-1.067.707-1.707.707-.64 0-1.254-.254-1.707-.707l-.586-.586c-.453-.453-.707-1.067-.707-1.707 0-.64.254-1.254.707-1.707l2.293-2.293z" fill="#ff8087"/><path d="m32 55h-30c-.552 0-1-.447-1-1v-52c0-.553.448-1 1-1h38c.552 0 1 .447 1 1v44h-2v-43h-36v50h29z"/><path d="m24 29h-18c-.552 0-1-.447-1-1v-8c0-.553.448-1 1-1h18c.552 0 1 .447 1 1v8c0 .553-.448 1-1 1zm-17-2h16v-6h-16z"/><path d="m27 19h10v2h-10z"/><path d="m27 23h10v2h-10z"/><path d="m27 27h10v2h-10z"/><path d="m36 37h-30c-.552 0-1-.447-1-1v-4c0-.553.448-1 1-1h30c.552 0 1 .447 1 1v4c0 .553-.448 1-1 1zm-29-2h28v-2h-28z"/><path d="m36 45h-30c-.552 0-1-.447-1-1v-4c0-.553.448-1 1-1h30c.552 0 1 .447 1 1v4c0 .553-.448 1-1 1zm-29-2h28v-2h-28z"/><path d="m5 47h28v2h-28z"/><path d="m36 59c-.256 0-.512-.098-.707-.293l-4-4c-.391-.391-.391-1.023 0-1.414l25.293-25.293c1.288-1.289 3.54-1.289 4.829 0l.585.586c.645.646 1 1.503 1 2.414s-.355 1.769-1 2.414l-25.293 25.293c-.195.195-.451.293-.707.293zm-2.586-5 2.586 2.586 24.586-24.586c.267-.268.414-.622.414-1s-.147-.732-.415-1l-.585-.586c-.534-.535-1.466-.535-2 0z"/><path d="m28 63c-.26 0-.516-.101-.708-.293-.304-.305-.38-.77-.188-1.154l4-8 1.789.895-2.659 5.316 5.317-2.658.895 1.789-8 4c-.141.071-.294.105-.446.105z"/><path d="m55 31.172h2v5.657h-2z" transform="matrix(.707 -.707 .707 .707 -7.64 49.556)"/><path d="m52 34.172h2v5.657h-2z" transform="matrix(.707 -.707 .707 .707 -10.64 48.314)"/><path d="m9 17c-.913 0-1.77-.355-2.415-1l-.585-.586c-.645-.645-1-1.503-1-2.414s.355-1.769 1-2.414l4.586-4.586c1.288-1.289 3.54-1.289 4.829 0l.585.586c.645.645 1 1.503 1 2.414s-.355 1.769-1 2.414l-4.586 4.586c-.644.645-1.501 1-2.414 1zm-1.586-5c-.267.268-.414.623-.414 1 0 .378.147.732.415 1l.585.586c.534.535 1.466.535 2 0l4.586-4.586c.267-.268.414-.622.414-1s-.147-.732-.415-1l-.585-.586c-.534-.535-1.466-.535-2 0z"/><path d="m10 8.172h2v5.657h-2z" transform="matrix(.707 -.707 .707 .707 -4.556 11)"/><path d="m19 7h18v2h-18z"/><path d="m19 11h18v2h-18z"/><path d="m19 15h18v2h-18z"/><path d="m37 61h18v2h-18z"/><path d="m57 61h2v2h-2z"/></svg>