<svg id="Layer_3" enable-background="new 0 0 64 64" height="512" viewBox="0 0 64 64" width="512" xmlns="http://www.w3.org/2000/svg"><path d="m36 58-8 4 4-8z" fill="#fdd089"/><path d="m2 2h38v52h-38z" fill="#b2b0b2"/><path d="m2 2h35v52h-35z" fill="#edebed"/><path d="m36 58 25.293-25.293c.453-.453.707-1.067.707-1.707 0-.64-.254-1.254-.707-1.707l-.586-.586c-.453-.453-1.067-.707-1.707-.707-.64 0-1.254.254-1.707.707l-25.293 25.293z" fill="#b9917d"/><path d="m52.379 32.672h4.243v5.657h-4.243z" fill="#8b6d5e" transform="matrix(.707 -.707 .707 .707 -9.14 48.935)"/><path d="m6 32h30v4h-30z" fill="#8b6d5e"/><path d="m6 32h27v4h-27z" fill="#b9917d"/><path d="m6 40h30v4h-30z" fill="#8b6d5e"/><path d="m6 40h27v4h-27z" fill="#b9917d"/><path d="m6 20h18v8h-18z" fill="#8b6d5e"/><path d="m6 20h15v8h-15z" fill="#b9917d"/><path d="m6.707 11.293 4.586-4.586c.453-.453 1.067-.707 1.707-.707.64 0 1.254.254 1.707.707l.586.586c.453.453.707 1.067.707 1.707 0 .64-.254 1.254-.707 1.707l-4.586 4.586c-.453.453-1.067.707-1.707.707-.64 0-1.254-.254-1.707-.707l-.586-.586c-.453-.453-.707-1.067-.707-1.707 0-.64.254-1.254.707-1.707z" fill="#fff"/><path d="m13 13-2.293 2.293c-.453.453-1.067.707-1.707.707-.64 0-1.254-.254-1.707-.707l-.586-.586c-.453-.453-.707-1.067-.707-1.707 0-.64.254-1.254.707-1.707l2.293-2.293z" fill="#ff8087"/><g fill="#858485"><path d="m27 19h10v2h-10z"/><path d="m27 23h10v2h-10z"/><path d="m27 27h10v2h-10z"/><path d="m5 47h28v2h-28z"/><path d="m19 7h18v2h-18z"/><path d="m19 11h18v2h-18z"/><path d="m19 15h18v2h-18z"/><path d="m37 60h18v2h-18z"/><path d="m57 60h2v2h-2z"/></g></svg>