<svg xmlns="http://www.w3.org/2000/svg" viewBox="0 0 500 217.72"><defs><style>.cls-1{fill:#191716;}</style></defs><title>Asset 11</title><g id="Layer_2" data-name="Layer 2"><g id="Layer_1-2" data-name="Layer 1"><polygon class="cls-1" points="38.84 1.35 38.84 28.27 16.02 28.27 16.02 1.35 0 1.35 0 71.24 16.02 71.24 16.02 42.46 38.84 42.46 38.84 71.24 54.86 71.24 54.86 1.35 38.84 1.35"/><polygon class="cls-1" points="249.35 57.41 249.35 1.35 233.33 1.35 233.33 71.24 276.79 71.24 276.79 57.41 249.35 57.41"/><path class="cls-1" d="M141.88,121.33c-16.11,0-27.36,13.61-27.36,33.12s11.25,33.12,27.36,33.12,27.36-13.62,27.36-33.12S158,121.33,141.88,121.33Zm19,33.12c0,11.93-5,25.86-19,25.86s-19-13.93-19-25.86,5-25.86,19-25.86S160.87,142.52,160.87,154.45Z"/><path class="cls-1" d="M500,38.83c0-19.07-11.1-32.38-27-32.38-16.36,0-27.36,13.31-27.36,33.12,0,19.5,11.5,33.12,28,33.12,12.16,0,21.4-6,24.72-16.18l.54-1.63H490.6l-.33.74c-2.76,6.23-8.82,9.81-16.65,9.81-12.95,0-18.52-11.47-19.51-22.66H500Zm-8.27-3.2H454.12c1-10.83,6.46-21.92,18.89-21.92C486.17,13.71,491.31,26.38,491.73,35.63Z"/><path class="cls-1" d="M29.4,121.26c-10.76,0-16.6,6.68-19.49,11.79v-10H2.28v62.57h8.13V154.26c0-8.4,4.43-25.74,18.13-25.74,14,0,15.92,12,15.92,25v32.15h8.13V153.52C52.59,137.57,49.83,121.26,29.4,121.26Z"/><polygon class="cls-1" points="133.27 57.83 133.27 41.85 156 41.85 156 28.85 133.27 28.85 133.27 14.76 163.95 14.76 163.95 1.35 117.55 1.35 117.55 71.24 164.9 71.24 164.9 57.83 133.27 57.83"/><polygon class="cls-1" points="465.67 172.26 465.67 156.27 488.4 156.27 488.4 143.28 465.67 143.28 465.67 129.19 496.36 129.19 496.36 115.78 449.95 115.78 449.95 185.66 497.3 185.66 497.3 172.26 465.67 172.26"/><polygon class="cls-1" points="245.72 139.4 245.72 123.1 238.09 123.1 238.09 185.67 246.21 185.67 246.21 148.01 273.47 128.45 273.47 119.47 245.72 139.4"/><path class="cls-1" d="M392.54,119.47,377.83,130a23.57,23.57,0,0,0-18.78-8.72c-13.65,0-23.56,9.8-23.56,23.31,0,10.61,6.21,19.14,16,22.24l-16,17.46c-4.05,4.65-5.71,8.33-5.71,12.71,0,12.6,11.08,20.74,28.22,20.74,16.95,0,28.34-8.34,28.34-20.74s-11.12-20.62-28.34-20.62a40.71,40.71,0,0,0-5.62.47l8-9c12.91-.66,22.21-10.37,22.21-23.29a24.26,24.26,0,0,0-1.21-7.77l-.09-.26,11.24-8.1Zm-34.49,64.16c12.13,0,20,5.24,20,13.35s-7.84,13.47-20,13.47S338.2,205.16,338.2,197C338.2,189.24,346.55,183.63,358.05,183.63Zm1-23c-8.81,0-15.19-6.75-15.19-16.05s6.38-16,15.19-16,15.19,6.75,15.19,16S367.85,160.62,359.05,160.62Z"/><path class="cls-1" d="M365.72,29.19c-6.58-2.27-13.49-4.74-13.49-9.2,0-4.82,4.21-7,9.32-7a8.91,8.91,0,0,1,9,8.48v.82H386.8v-.59C386.8,8.72,376.58,0,361.38,0s-24.87,7.81-24.87,20.38c0,14.75,13.09,18.35,22.91,21.9C366,44.64,373,46.54,373,50.94c0,4.58-3.38,8-10.61,8-6.48,0-10.91-3.84-10.91-9.37v-.82H334.74v.82c0,14.46,10.27,23.09,27.48,23.09,16.51,0,26-7.63,26-21.53C388.2,36.78,375.73,32.65,365.72,29.19Z"/></g></g></svg>