<svg height="496pt" viewBox="-96 0 496 496" width="496pt" xmlns="http://www.w3.org/2000/svg"><path d="m83.375 56.183594-7.902344-5.832032c-12.191406-9.007812-19.472656-23.449218-19.472656-38.597656v-3.753906c0-3.480469-2.246094-6.550781-5.558594-7.617188-3.3125-1.054687-6.929687.144532-8.953125 2.96875l-26.585937 37.222657c-9.75 13.648437-14.902344 29.722656-14.902344 46.496093v3.136719c0 15.839844 4.648438 31.183594 13.441406 44.378907l2.382813 3.582031-7.808594 109.273437c-.023437.367188-.023437.734375 0 1.101563l16 240c.28125 4.191406 3.777344 7.457031 7.984375 7.457031h32c4.207031 0 7.703125-3.265625 7.984375-7.472656l16-240c.023437-.367188.023437-.734375 0-1.101563l-7.984375-111.722656v-1.167969c0-7.917968 2.328125-15.589844 6.71875-22.183594l2.5625-3.839843c4.390625-6.589844 6.71875-14.265625 6.71875-22.183594v-1.054687c0-10.6875-4.160156-20.738282-11.710938-28.289063-.289062-.296875-.59375-.558594-.914062-.800781zm-26.863281 423.816406h-17.03125l-12.800781-192h42.632812zm13.871093-208h-44.757812l-1.066406-16h46.898437zm-3.542968-96 4.566406 64h-46.8125l4.566406-64zm-36.535156-16 1.144531-16h33.101562l1.144531 16zm49.695312-73.6875c0 4.75-1.390625 9.351562-4.03125 13.3125l-2.5625 3.839844c-4.933594 7.398437-7.902344 15.78125-8.925781 24.527344h-8.480469v-32h-16v32h-11.71875l-1.527344-2.296876c-7.035156-10.535156-10.753906-22.816406-10.753906-35.496093v-3.136719c0-13.414062 4.121094-26.269531 11.921875-37.191406l14.589844-20.429688c3.871093 13.367188 12.046875 25.351563 23.457031 33.78125l7.390625 5.457032c4.289063 4.488281 6.640625 10.351562 6.640625 16.578124zm0 0"/><path d="m296 144h-176c-4.414062 0-8 3.574219-8 8v128c0 22.054688 17.945312 40 40 40h23.40625l-7.40625 104v32c0 22.054688 17.945312 40 40 40s40-17.945312 40-40l-.015625-32.566406-7.390625-103.433594h23.40625c22.054688 0 40-17.945312 40-40v-128c0-4.425781-3.585938-8-8-8zm-136 16h48v8c0 4.414062-3.59375 8-8 8h-16c-4.414062 0-8 3.574219-8 8 0 4.414062-3.59375 8-8 8s-8-3.585938-8-8zm72 296c0 13.230469-10.769531 24-24 24s-24-10.769531-24-24l-.015625-31.433594 5.183594-72.566406h37.679687l5.152344 72zm-41.695312-120 1.144531-16h33.101562l1.144531 16zm97.695312-56c0 13.230469-10.769531 24-24 24h-112c-13.230469 0-24-10.769531-24-24v-8h160zm0-24h-160v-16h160zm0-32h-160v-64h16v24c0 13.230469 10.769531 24 24 24 10.433594 0 19.328125-6.6875 22.632812-16h9.367188c13.230469 0 24-10.769531 24-24v-8h64zm0 0"/><path d="m200 448h16v16h-16zm0 0"/><path d="m144 96c13.230469 0 24-10.769531 24-24v-16c0-4.414062 3.59375-8 8-8s8 3.585938 8 8v32c0 13.230469 10.769531 24 24 24s24-10.769531 24-24v-16c0-4.414062 3.59375-8 8-8s8 3.585938 8 8v16c0 13.230469 10.769531 24 24 24s24-10.769531 24-24v-88h-16v88c0 4.414062-3.59375 8-8 8s-8-3.585938-8-8v-16c0-13.230469-10.769531-24-24-24s-24 10.769531-24 24v16c0 4.414062-3.59375 8-8 8s-8-3.585938-8-8v-32c0-13.230469-10.769531-24-24-24s-24 10.769531-24 24v16c0 4.414062-3.59375 8-8 8s-8-3.585938-8-8v-72h-16v72c0 13.230469 10.769531 24 24 24zm0 0"/></svg>