<svg height="496pt" viewBox="0 0 496 496" width="496pt" xmlns="http://www.w3.org/2000/svg"><path d="m104 208c57.34375 0 104-46.65625 104-104s-46.65625-104-104-104-104 46.65625-104 104 46.65625 104 104 104zm0-192c48.519531 0 88 39.480469 88 88s-39.480469 88-88 88-88-39.480469-88-88 39.480469-88 88-88zm0 0"/><path d="m104 176c39.703125 0 72-32.304688 72-72s-32.296875-72-72-72-72 32.304688-72 72 32.296875 72 72 72zm0-128c30.871094 0 56 25.121094 56 56s-25.128906 56-56 56-56-25.121094-56-56 25.128906-56 56-56zm0 0"/><path d="m104 120h24v-16h-16v-40h-16v48c0 4.414062 3.574219 8 8 8zm0 0"/><path d="m16 360c0-66.167969 53.832031-120 120-120h240c30.871094 0 56-25.121094 56-56s-25.128906-56-56-56h-144v16h144c22.054688 0 40 17.945312 40 40s-17.945312 40-40 40h-240c-74.992188 0-136 61.007812-136 136s61.007812 136 136 136h232v-16h-232c-66.167969 0-120-53.832031-120-120zm0 0"/><path d="m136 304h240c66.167969 0 120-53.832031 120-120s-53.832031-120-120-120h-144v16h144c57.34375 0 104 46.65625 104 104s-46.65625 104-104 104h-240c-39.703125 0-72 32.296875-72 72s32.296875 72 72 72h232v-16h-232c-30.871094 0-56-25.128906-56-56s25.128906-56 56-56zm0 0"/><path d="m477.191406 350.136719c-11.933594-10.609375-27.933594-15.601563-43.960937-13.738281-28.0625 3.304687-49.230469 28.082031-49.230469 57.800781 0 15.839843 4.648438 31.183593 13.441406 44.375l35.902344 53.859375c1.488281 2.230468 3.984375 3.566406 6.65625 3.566406s5.167969-1.335938 6.65625-3.558594l35.902344-53.855468c8.792968-13.1875 13.441406-28.53125 13.441406-44.378907v-2.207031c0-15.984375-6.847656-31.238281-18.808594-41.863281zm2.808594 44.0625c0 12.671875-3.71875 24.945312-10.753906 35.503906l-29.246094 43.871094-29.246094-43.871094c-7.035156-10.550781-10.753906-22.832031-10.753906-35.6875 0-21.078125 15.425781-39.40625 35.113281-41.726563 1.65625-.191406 3.300781-.289062 4.933594-.289062 9.832031 0 19.105469 3.503906 26.511719 10.097656 8.546875 7.589844 13.441406 18.488282 13.441406 29.902344zm0 0"/><path d="m440 368c-13.230469 0-24 10.769531-24 24s10.769531 24 24 24 24-10.769531 24-24-10.769531-24-24-24zm0 32c-4.414062 0-8-3.585938-8-8s3.585938-8 8-8 8 3.585938 8 8-3.585938 8-8 8zm0 0"/><path d="m344 448h24v16h-24zm0 0"/><path d="m280 448h32v16h-32zm0 0"/><path d="m216 448h32v16h-32zm0 0"/><path d="m152 448h32v16h-32zm0 0"/><path d="m92.007812 436.230469-8.015624 13.839843c10.75 6.226563 22.414062 10.425782 34.679687 12.488282l2.65625-15.78125c-10.375-1.738282-20.230469-5.28125-29.320313-10.546875zm0 0"/><path d="m51.519531 420.671875 12.984375-9.34375c-6.390625-8.871094-11.007812-18.742187-13.734375-29.328125l-15.503906 4c3.230469 12.503906 8.703125 24.175781 16.253906 34.671875zm0 0"/><path d="m32.351562 351.34375 15.953126 1.3125c.832031-10.191406 3.421874-20.0625 7.671874-29.320312l-14.542968-6.671876c-5.027344 10.953126-8.082032 22.625-9.082032 34.679688zm0 0"/><path d="m77.800781 294c8.503907-7.511719 18.214844-13.230469 28.863281-17l-5.328124-15.078125c-12.59375 4.445313-24.078126 11.199219-34.136719 20.078125zm0 0"/><path d="m136 256h32v16h-32zm0 0"/><path d="m200 256h32v16h-32zm0 0"/><path d="m264 256h32v16h-32zm0 0"/><path d="m328 256h32v16h-32zm0 0"/><path d="m393.585938 270.238281c12.847656-2.605469 24.703124-7.933593 35.222656-15.847656l-9.609375-12.78125c-8.605469 6.460937-18.289063 10.824219-28.792969 12.949219zm0 0"/><path d="m456.671875 219.207031c4.863281-11.128906 7.328125-22.976562 7.328125-35.207031h-16c0 10.015625-2.015625 19.703125-5.984375 28.800781zm0 0"/><path d="m428.816406 113.601562-9.617187 12.789063c9.953125 7.480469 17.839843 17.449219 22.816406 28.816406l14.65625-6.40625c-6.070313-13.898437-15.703125-26.066406-27.855469-35.199219zm0 0"/><path d="m390.40625 113.441406 3.1875-15.679687c-5.761719-1.167969-11.671875-1.761719-17.59375-1.761719h-16v16h16c4.847656 0 9.703125.488281 14.40625 1.441406zm0 0"/><path d="m296 96h32v16h-32zm0 0"/><path d="m232 96h32v16h-32zm0 0"/></svg>