<?xml version="1.0" encoding="utf-8"?>
<!-- Generator: Adobe Illustrator 23.1.1, SVG Export Plug-In . SVG Version: 6.00 Build 0)  -->
<svg version="1.1" id="Layer_1" xmlns="http://www.w3.org/2000/svg" xmlns:xlink="http://www.w3.org/1999/xlink" x="0px" y="0px"
	 viewBox="0 0 600 135.2" enable-background="new 0 0 600 135.2" xml:space="preserve">
<g>
	<path d="M27.7,63V46.7c0-0.6,0.4-0.9,1-0.9c0.6,0,0.9,0.3,0.9,0.9V63c0,0.6-0.3,0.9-0.9,0.9C28.2,63.9,27.7,63.5,27.7,63z
		 M27.7,83.4V68.1c0-0.5,0.4-1,1-1h16.8c0.6,0,0.9,0.4,0.9,1c0,0.6-0.3,0.9-0.9,0.9H29.5v14.4c0,0.6-0.3,1-0.9,1
		C28.2,84.4,27.7,83.9,27.7,83.4z M49,64H33.6c-0.5,0-1-0.4-1-1V46.7c0-0.6,0.3-0.9,1-0.9s0.9,0.3,0.9,0.9v15.4h15.4
		c0.6,0,1,0.3,1,0.9v17.2c0,0.6-0.3,1-1,1c-0.5,0-0.9-0.4-0.9-1V64z M32.7,72.3c0-0.6,0.3-0.9,1-0.9s0.9,0.3,0.9,0.9v11.3
		c0,0.6-0.3,0.9-0.9,0.9s-1-0.3-1-0.9V72.3z M50.3,82.4c0.3,0.1,0.4,0.3,0.6,0.5c0.1,0.3,0.1,0.5,0.1,0.8v0.1
		c-0.2,0.4-0.5,0.7-1,0.7c-0.4-0.1-0.7-0.3-0.8-0.6c-0.2-0.3-0.2-0.5-0.1-0.8c0.1-0.5,0.4-0.7,1-0.7L50.3,82.4z M49,58.6V46.8
		c0-0.5,0.4-1,0.9-1c0.6,0,1,0.3,1,1v11.9c0,0.6-0.3,0.9-1,0.9C49.3,59.5,49,59.3,49,58.6z M54,83.4V50.7c0-0.6,0.3-0.9,0.9-0.9
		c0.6,0,1,0.3,1,0.9v32.8c0,0.5-0.4,1-1,1S54,83.9,54,83.4z"/>
	<path d="M65.6,63.7c-0.5,0-1-0.4-1-1V46.5c0-0.5,0.4-1,1-1c0.6,0,0.9,0.4,0.9,1v15.4h14.4c0.6,0,1,0.3,1,0.9c0,0.5-0.4,1-1,1H65.6z
		 M65.6,84.9c-0.5,0-1-0.4-1-1V67.7c0-0.5,0.4-1,1-1h15.3c0.5,0,1,0.4,1,1c0,0.5-0.4,0.9-1,0.9H66.5V83h19.4c0.6,0,0.9,0.3,0.9,0.9
		c0,0.6-0.3,1-0.9,1H65.6z M70.2,47.5c-0.5,0-0.9-0.4-0.9-1c0-0.6,0.3-0.9,0.9-0.9h15.7c0.6,0,1,0.3,1,0.9c0,0.5-0.4,1-1,1H70.2z
		 M85.8,50.5c0.5,0,1,0.4,1,1c0,0.5-0.4,0.9-1,0.9H71.3v6.3c0,0.5-0.4,1-1,1s-0.9-0.4-0.9-1v-7.2c0-0.5,0.4-1,0.9-1H85.8z
		 M71.3,71.7v6.6h11.2c0.5,0,1,0.4,1,1c0,0.5-0.4,0.9-1,0.9H70.4c-0.6,0-0.9-0.3-0.9-0.9v-7.5c0-0.6,0.3-1,0.9-1
		S71.3,71.1,71.3,71.7z M86,78.2c0.3,0.1,0.4,0.2,0.6,0.4c0.1,0.3,0.1,0.5,0.1,0.8v0.1c-0.2,0.4-0.5,0.7-1,0.7
		c-0.4-0.1-0.7-0.3-0.8-0.6c-0.2-0.2-0.2-0.5-0.1-0.8c0.2-0.4,0.5-0.7,1-0.7L86,78.2z"/>
	<path d="M94.5,79.5c-0.6,0-0.9-0.3-0.9-0.9V46.2c0-0.6,0.3-0.9,0.9-0.9s1,0.3,1,0.9v31.4h14.9c0.6,0,1,0.3,1,1s-0.3,0.9-1,0.9H94.5
		z M98.6,51.3c0-0.6,0.3-0.9,0.9-0.9c0.6,0,1,0.3,1,0.9v22.9c0,0.5-0.4,0.9-1,0.9c-0.6,0-0.9-0.3-0.9-0.9V51.3z M99.6,82.5h13.8
		c0.6,0,0.9,0.3,0.9,0.9c0,0.6-0.3,1-0.9,1H99.6c-0.5,0-1-0.4-1-1C98.6,82.9,99,82.5,99.6,82.5z M112.6,79.1
		c-0.2-0.3-0.2-0.5-0.1-0.8v-0.1c0.2-0.4,0.5-0.7,1-0.7c0.6,0.1,0.8,0.3,1,0.6c0.1,0.3,0.1,0.5,0,0.8v0.1c-0.1,0.4-0.4,0.7-1,0.7
		C113,79.5,112.7,79.3,112.6,79.1z"/>
	<path d="M133.8,84.9c-5.4-0.3-10.3-3.1-12.2-8.3c-0.6-1.5-0.8-3.1-0.8-4.8c0.1-0.6,0.4-0.9,1-0.9c0.3,0.1,0.5,0.1,0.7,0.3
		c0.2,0.2,0.2,0.4,0.2,0.7c-0.1,2.9,0.8,5.4,2.9,7.5c2.2,2.2,5.1,3.5,8.3,3.6c0.3,0,0.6,0.1,0.7,0.3c0.2,0.2,0.2,0.4,0.2,0.7
		c0,0.3-0.1,0.4-0.3,0.6C134.3,84.8,134.1,84.9,133.8,84.9L133.8,84.9z M121.2,57c0-0.1,0-0.3,0.1-0.6c0-0.3,0.1-0.7,0.2-1.1
		c0.3-1.1,0.8-2,1.7-2.7c2.4-2.4,5.9-2.6,9.1-2.6c0.5,0.1,1.3,0.1,2.5,0.3c1.1,0.2,2.2,0.6,3.4,1.2c2.8,1.5,4.1,3.9,4,7.2
		c-0.1,0.6-0.4,0.8-1,0.8c-0.3,0-0.5-0.1-0.7-0.3c-0.2-0.2-0.3-0.4-0.2-0.7c0.1-1.4-0.2-2.5-0.8-3.4c-1-1.8-3.2-2.6-5.2-3.1
		c-0.7-0.1-1.4-0.2-2-0.2c-2.7,0-5.6,0.1-7.7,2c-0.9,0.8-1.4,1.9-1.4,3.1c-0.1,1.1,0.1,2,0.4,2.9c0.8,1.9,2.4,3.2,4.1,4.1
		c1,0.6,2.1,1.2,3.3,1.7l0.8,0.4c1.5,0.6,2.8,1.2,4,1.8c1.2,0.6,2.2,1.2,3.1,1.8c1,0.6,1.7,1.3,2.1,2.1c0.5,0.9,0.7,1.8,0.4,2.8
		c-0.1,0.4-0.4,0.7-0.9,0.7c-0.4-0.1-0.6-0.2-0.8-0.4c-0.2-0.2-0.2-0.4-0.1-0.7c0.3-1.1-0.3-2.1-1.8-3.1c-1.5-1-3.7-2.1-6.7-3.4
		l-0.8-0.3c-1.1-0.5-2.1-1-3.2-1.6c-1.1-0.6-2.1-1.3-3-2.1C122,61.8,121.1,59.5,121.2,57z M127.7,72.3c-0.2,0.4-0.5,0.7-1,0.7
		c-0.4-0.1-0.7-0.3-0.9-0.6s-0.2-0.5-0.1-0.8v-0.1c0.1-0.4,0.4-0.7,1-0.7c0.6,0.1,0.8,0.3,0.9,0.6C127.7,71.8,127.7,72,127.7,72.3
		L127.7,72.3z M135.6,80.6c-3.7-0.2-7.7-1.6-9.3-5.2c-0.1-0.2-0.1-0.4,0.1-0.7c0.1-0.2,0.2-0.4,0.4-0.5c0.1,0,0.2,0,0.3,0
		c0.5,0,0.8,0.2,1,0.5c1.1,2.9,4.8,3.9,7.6,4.1c3.9,0,8.4-0.7,9.5-5c0.1-1,0-1.7-0.1-2.2c-0.3-1.7-2.2-2.9-3.5-3.7
		c-1.2-0.7-2.9-1.6-5.1-2.5c-1.6-0.7-3-1.4-4.2-2c-1.3-0.6-2.3-1.3-3.2-1.9c-2.2-1.6-3.1-3.4-2.8-5.2c0.1-0.3,0.2-0.6,0.4-0.6
		c0.2-0.1,0.4-0.1,0.7-0.1c0.3,0.1,0.4,0.2,0.6,0.3c0.1,0.2,0.2,0.4,0.1,0.7c-0.1,0.6,0.1,1.2,0.5,1.8c1.6,2.1,6.1,4.1,8.7,5.3
		c2.5,1.1,6.5,3,8.3,5.1c0.7,0.8,1.2,1.6,1.3,2.5c0.1,0.8,0.1,1.7,0.1,2.7c0,0.1-0.1,0.5-0.3,1.2c-0.7,2.4-3.5,4.5-5.9,5
		C139.1,80.4,137.4,80.6,135.6,80.6z M147,58.9c-0.1,0.6-0.4,0.9-1,0.9c-0.7-0.1-1-0.4-0.9-1c0.1-1.5-0.1-2.9-0.6-4.1
		c-1.7-4.8-5.9-6.8-10.6-7c-0.3,0-0.5-0.1-0.7-0.3s-0.3-0.4-0.2-0.7c0-0.6,0.4-0.9,1-0.9c4.2,0.2,7.5,1.6,10,4.2
		C146.2,52.4,147.2,55.3,147,58.9z"/>
	<path d="M156.5,63.7c-0.5,0-1-0.4-1-1V46.5c0-0.5,0.4-1,1-1c0.6,0,0.9,0.4,0.9,1v15.4h14.4c0.6,0,1,0.3,1,0.9c0,0.5-0.4,1-1,1
		H156.5z M156.5,84.9c-0.5,0-1-0.4-1-1V67.7c0-0.5,0.4-1,1-1h15.3c0.5,0,1,0.4,1,1c0,0.5-0.4,0.9-1,0.9h-14.4V83h19.4
		c0.6,0,0.9,0.3,0.9,0.9c0,0.6-0.3,1-0.9,1H156.5z M161.1,47.5c-0.5,0-0.9-0.4-0.9-1c0-0.6,0.3-0.9,0.9-0.9h15.7c0.6,0,1,0.3,1,0.9
		c0,0.5-0.4,1-1,1H161.1z M176.7,50.5c0.5,0,1,0.4,1,1c0,0.5-0.4,0.9-1,0.9h-14.5v6.3c0,0.5-0.4,1-1,1s-0.9-0.4-0.9-1v-7.2
		c0-0.5,0.4-1,0.9-1H176.7z M162.2,71.7v6.6h11.2c0.5,0,1,0.4,1,1c0,0.5-0.4,0.9-1,0.9h-12.1c-0.6,0-0.9-0.3-0.9-0.9v-7.5
		c0-0.6,0.3-1,0.9-1S162.2,71.1,162.2,71.7z M176.9,78.2c0.3,0.1,0.4,0.2,0.6,0.4c0.1,0.3,0.1,0.5,0.1,0.8v0.1
		c-0.2,0.4-0.5,0.7-1,0.7c-0.4-0.1-0.7-0.3-0.8-0.6c-0.2-0.2-0.2-0.5-0.1-0.8c0.2-0.4,0.5-0.7,1-0.7L176.9,78.2z"/>
	<path d="M185.5,84V46.6c0-0.5,0.2-0.8,0.7-0.9c0.4,0,0.7,0,1,0.4l23,37.3c0.3,0.5,0.2,1-0.3,1.3c-0.2,0.1-0.4,0.1-0.5,0.1
		c-0.3,0-0.6-0.2-0.8-0.4l-21.3-34.6V84c0,0.3-0.1,0.4-0.3,0.6c-0.2,0.2-0.4,0.3-0.7,0.3C185.8,84.9,185.5,84.6,185.5,84z
		 M192.3,81.2c0,0.6-0.3,0.9-1,0.9c-0.6,0-0.9-0.3-0.9-0.9V65.4c0-0.6,0.3-1,0.9-1c0.6,0,1,0.3,1,1V81.2z M193.7,49.8
		c-0.3-0.5-0.2-1,0.3-1.3c0.1-0.1,0.3-0.1,0.5-0.1c0.4,0,0.6,0.1,0.8,0.4L208.5,70V46.6c0-0.5,0.4-1,0.9-1c0.5,0,1,0.4,1,1v26.6
		c0,0.5-0.2,0.8-0.7,0.9c-0.5,0-0.9-0.1-1.1-0.4L193.7,49.8z M214.1,47.6c-0.3-0.1-0.5-0.2-0.6-0.5c-0.1-0.3-0.1-0.5-0.1-0.8h0.1
		c0.1-0.5,0.4-0.7,1-0.7c0.9,0.3,1.1,0.7,1,1.3l-0.1,0.1c-0.1,0.4-0.4,0.7-1,0.7L214.1,47.6z M215.3,49.8V84c0,0.6-0.3,0.9-1,0.9
		c-0.6,0-0.9-0.3-0.9-0.9V49.8c0-0.5,0.4-1,0.9-1C215,48.8,215.3,49.1,215.3,49.8z"/>
	<path d="M230.9,47.4c0.1-0.1,0.2-0.1,0.4-0.1c0.3,0,0.6,0.2,0.8,0.4c0.2,0.3,0.2,0.5,0.1,0.7c-0.1,0.3-0.3,0.4-0.5,0.6
		c-5.9,3.2-9.2,9.3-9.2,16c0,9.2,6.8,17.7,16.3,17.7c9.6,0,16.2-8.7,16.2-17.7c0-8.9-6.2-17.1-15.3-17.7v4c0,0.6-0.3,0.9-0.9,0.9
		c-6.9,0-11.4,6.3-11.4,12.7c0,6.5,4.6,12.7,11.4,12.7c6.9,0,11.5-6.2,11.5-12.7c0-5-2.4-9.8-7.2-11.9c-0.2-0.1-0.4-0.2-0.4-0.5
		c-0.1-0.2-0.1-0.4,0-0.7c0.1-0.4,0.4-0.6,0.8-0.6c5.6,2.1,8.6,7.8,8.6,13.6c0,7.6-5.4,14.5-13.3,14.5s-13.2-7.1-13.2-14.5
		c0-7.1,4.9-14.1,12.3-14.5v-4c0-0.6,0.3-0.9,1-0.9c10.6,0,18.1,9.5,18.1,19.6c0,10.2-7.5,19.6-18.1,19.6
		c-10.6,0-18.1-9.4-18.1-19.6C220.7,57.8,224.5,50.7,230.9,47.4z M233.3,46.6c0.1-0.4,0.4-0.7,1-0.7c0.6,0.1,0.8,0.3,0.9,0.6
		c0.1,0.3,0.1,0.5,0.1,0.8c-0.2,0.5-0.5,0.7-1,0.7c-0.4-0.2-0.7-0.3-0.9-0.6C233.2,47.2,233.2,47,233.3,46.6L233.3,46.6z"/>
	<path d="M265.8,52v31.6c0,0.6-0.3,1-0.9,1s-1-0.3-1-1V51.2c0-0.5,0.4-1,1-1h11.1c1.3,0,2.6,0.1,3.7,0.3c3.9,1,5.4,3.6,5.4,7.4
		c0,5.3-3,7.9-8.8,7.9h-1.7c-0.5,0-1-0.4-1-1c0-0.6,0.4-0.9,1-0.9h1.7c4.3,0,7-1.4,7-6c0-1.2-0.2-2.2-0.5-3
		c-0.4-0.7-0.9-1.3-1.5-1.8c-1.6-1-3.5-1.1-5.3-1.1H265.8z M281.2,80.6c0.2,0.2,0.2,0.4,0.2,0.7c-0.1,0.3-0.2,0.4-0.4,0.6
		c-0.2,0.1-0.3,0.2-0.6,0.2c-0.3,0-0.6-0.2-0.7-0.4l-10.8-16.1c-0.3-0.5-0.2-1,0.3-1.3c0.1-0.1,0.3-0.2,0.5-0.2
		c0.3,0,0.5,0.1,0.8,0.4L281.2,80.6z M270.8,74v9.7c0,0.6-0.3,1-0.9,1c-0.5,0-1-0.4-1-1V74c0-0.6,0.4-0.9,1-0.9
		C270.5,73.1,270.8,73.3,270.8,74z M288.5,83.2c0.3,0.5,0.3,1-0.2,1.3c-0.2,0.1-0.3,0.2-0.5,0.2c-0.3,0-0.6-0.1-0.8-0.4l-10-14.6
		c-0.2-0.3-0.2-0.6-0.1-1c0.2-0.3,0.4-0.5,0.8-0.5c6.5,0,10.6-4.1,10.6-10.3c0-7.2-3.6-10.1-10.6-10.1h-7.9c-0.6,0-0.9-0.3-0.9-1
		s0.3-0.9,0.9-0.9h7.9c8.1,0,12.4,3.7,12.4,12c0,6.9-4,11.2-10.8,12.1L288.5,83.2z M282.5,82.7c0.3,0.1,0.5,0.2,0.6,0.4
		c0.1,0.3,0.1,0.6,0.1,0.8h-0.1c-0.1,0.4-0.4,0.7-1,0.7c-0.4-0.1-0.7-0.3-0.8-0.6c-0.2-0.2-0.2-0.4-0.1-0.7v-0.1
		c0.2-0.4,0.5-0.7,1-0.7L282.5,82.7z"/>
	<path d="M297.5,65.2c0-10.7,7.7-19.5,18.5-19.5c6.4,0,12.7,3.6,15.9,9.2c0.2,0.2,0.2,0.4,0.1,0.7c-0.1,0.3-0.2,0.4-0.4,0.6
		c-0.1,0.1-0.3,0.1-0.5,0.1c-0.3,0-0.6-0.2-0.8-0.4c-2.9-4.9-8.7-8.3-14.4-8.3c-10,0-16.6,8.2-16.6,17.7c0,9.4,6.7,17.9,16.4,17.9
		c10.6,0,15.2-8.6,16.3-17.8c0.2-0.7,0.4-0.8,1-0.8c0.6,0.1,0.8,0.4,0.8,1C332.8,76,327,85,315.8,85C304.9,85,297.5,75.5,297.5,65.2
		z M315.7,78.1c6.9,0,10.4-5.5,10.8-11.7h-13c-0.6,0-0.9-0.3-0.9-0.9c0-0.5,0.4-1,0.9-1h14c0.6,0,0.9,0.4,0.9,1
		c0,7.8-4.6,14.5-12.7,14.5c-8.6,0-13.4-6.8-13.4-14.8c0-7.5,5.5-14.6,13.4-14.6c2.6,0,5.2,0.8,7.4,2.1c0.2,0.1,0.3,0.3,0.4,0.6
		c0.1,0.3,0.1,0.5-0.1,0.7c-0.2,0.3-0.4,0.4-0.8,0.4c-0.2,0-0.4-0.1-0.4-0.1c-1-0.6-2-1.1-3.1-1.4c-1.2-0.3-2.3-0.4-3.4-0.4
		c-6.9,0-11.5,6.3-11.5,12.7C304.2,72.4,308.3,78.1,315.7,78.1z M313.5,71.3c-0.5,0-0.9-0.4-0.9-1c0-0.6,0.3-0.9,0.9-0.9h8.1
		c0.6,0,1,0.3,1,0.9c0,0.6-0.3,1-1,1H313.5z M324.3,55.9c-0.2-0.2-0.2-0.4-0.1-0.7v-0.1c0.1-0.4,0.4-0.7,1-0.7
		c0.6,0.1,0.8,0.3,0.9,0.5c0.1,0.3,0.1,0.6,0.1,0.8c-0.2,0.5-0.5,0.7-1,0.7C324.7,56.3,324.4,56.1,324.3,55.9z"/>
	<path d="M341.8,63.7c-0.5,0-1-0.4-1-1V46.5c0-0.5,0.4-1,1-1c0.6,0,0.9,0.4,0.9,1v15.4h14.4c0.6,0,1,0.3,1,0.9c0,0.5-0.4,1-1,1
		H341.8z M341.8,84.9c-0.5,0-1-0.4-1-1V67.7c0-0.5,0.4-1,1-1h15.3c0.5,0,1,0.4,1,1c0,0.5-0.4,0.9-1,0.9h-14.4V83h19.4
		c0.6,0,0.9,0.3,0.9,0.9c0,0.6-0.3,1-0.9,1H341.8z M346.4,47.5c-0.5,0-0.9-0.4-0.9-1c0-0.6,0.3-0.9,0.9-0.9h15.7c0.6,0,1,0.3,1,0.9
		c0,0.5-0.4,1-1,1H346.4z M362,50.5c0.5,0,1,0.4,1,1c0,0.5-0.4,0.9-1,0.9h-14.5v6.3c0,0.5-0.4,1-1,1s-0.9-0.4-0.9-1v-7.2
		c0-0.5,0.4-1,0.9-1H362z M347.5,71.7v6.6h11.2c0.5,0,1,0.4,1,1c0,0.5-0.4,0.9-1,0.9h-12.1c-0.6,0-0.9-0.3-0.9-0.9v-7.5
		c0-0.6,0.3-1,0.9-1S347.5,71.1,347.5,71.7z M362.2,78.2c0.3,0.1,0.4,0.2,0.6,0.4c0.1,0.3,0.1,0.5,0.1,0.8v0.1
		c-0.2,0.4-0.5,0.7-1,0.7c-0.4-0.1-0.7-0.3-0.8-0.6c-0.2-0.2-0.2-0.5-0.1-0.8c0.2-0.4,0.5-0.7,1-0.7L362.2,78.2z"/>
	<path d="M385.4,83.7V51.5c0-0.5,0.4-1,0.9-1h9.7c5.1,0,9.3,3.1,11.4,7.7c0.8,2.1,1.3,4.4,1.3,6.9c0,6.3-2.9,12.3-9.2,14.3
		c-0.7,0-1.1-0.2-1.2-0.6c-0.1-0.3-0.1-0.5,0.1-0.7c0.1-0.2,0.3-0.4,0.6-0.4c5.6-1.5,7.9-7.2,7.9-12.5c0-5.4-2.1-9.8-7.2-12
		c-1.2-0.4-2.5-0.7-3.7-0.7h-8.7v31.4c0,0.5-0.4,1-1,1C385.8,84.7,385.4,84.3,385.4,83.7z M391.1,47.6c-0.5,0-1-0.4-1-0.9s0.4-1,1-1
		h6c6.4,0,12.1,4.4,14.6,10.2c1.2,2.8,1.8,6,1.8,9.5c0,10.5-5.4,19.2-16.4,19.2h-6c-0.5,0-1-0.4-1-0.9v-28c0-0.6,0.3-1,1-1
		s0.9,0.3,0.9,1v27.1h5.1c10.4,0,14.5-8.2,14.5-17.3c0-7.3-3-14.5-10.2-17.1c-1.7-0.5-3.1-0.8-4.3-0.8H391.1z M395.2,79.4
		c-0.2-0.2-0.2-0.5-0.1-0.8c0.1-0.3,0.2-0.6,0.5-0.6c0.3-0.1,0.5-0.1,0.8-0.1c0.3,0.1,0.4,0.3,0.6,0.5c0.1,0.3,0.1,0.5,0.1,0.8v0.1
		c-0.2,0.4-0.5,0.7-1,0.7C395.7,79.8,395.4,79.7,395.2,79.4z"/>
	<path d="M423.2,63.7c-0.5,0-1-0.4-1-1V46.5c0-0.5,0.4-1,1-1c0.6,0,0.9,0.4,0.9,1v15.4h14.4c0.6,0,1,0.3,1,0.9c0,0.5-0.4,1-1,1
		H423.2z M423.2,84.9c-0.5,0-1-0.4-1-1V67.7c0-0.5,0.4-1,1-1h15.3c0.5,0,1,0.4,1,1c0,0.5-0.4,0.9-1,0.9H424V83h19.4
		c0.6,0,0.9,0.3,0.9,0.9c0,0.6-0.3,1-0.9,1H423.2z M427.7,47.5c-0.5,0-0.9-0.4-0.9-1c0-0.6,0.3-0.9,0.9-0.9h15.7c0.6,0,1,0.3,1,0.9
		c0,0.5-0.4,1-1,1H427.7z M443.3,50.5c0.5,0,1,0.4,1,1c0,0.5-0.4,0.9-1,0.9h-14.5v6.3c0,0.5-0.4,1-1,1s-0.9-0.4-0.9-1v-7.2
		c0-0.5,0.4-1,0.9-1H443.3z M428.9,71.7v6.6H440c0.5,0,1,0.4,1,1c0,0.5-0.4,0.9-1,0.9h-12.1c-0.6,0-0.9-0.3-0.9-0.9v-7.5
		c0-0.6,0.3-1,0.9-1S428.9,71.1,428.9,71.7z M443.5,78.2c0.3,0.1,0.4,0.2,0.6,0.4c0.1,0.3,0.1,0.5,0.1,0.8v0.1
		c-0.2,0.4-0.5,0.7-1,0.7c-0.4-0.1-0.7-0.3-0.8-0.6c-0.2-0.2-0.2-0.5-0.1-0.8c0.2-0.4,0.5-0.7,1-0.7L443.5,78.2z"/>
	<path d="M464.9,84.9c-5.4-0.3-10.3-3.1-12.2-8.3c-0.6-1.5-0.8-3.1-0.8-4.8c0.1-0.6,0.4-0.9,1-0.9c0.3,0.1,0.5,0.1,0.7,0.3
		s0.2,0.4,0.2,0.7c-0.1,2.9,0.8,5.4,2.9,7.5c2.2,2.2,5.1,3.5,8.3,3.6c0.3,0,0.6,0.1,0.7,0.3s0.2,0.4,0.2,0.7c0,0.3-0.1,0.4-0.3,0.6
		C465.4,84.8,465.2,84.9,464.9,84.9L464.9,84.9z M452.3,57c0-0.1,0-0.3,0.1-0.6c0-0.3,0.1-0.7,0.2-1.1c0.3-1.1,0.8-2,1.7-2.7
		c2.4-2.4,5.9-2.6,9.1-2.6c0.5,0.1,1.3,0.1,2.5,0.3c1.1,0.2,2.2,0.6,3.4,1.2c2.8,1.5,4.1,3.9,4,7.2c-0.1,0.6-0.4,0.8-1,0.8
		c-0.3,0-0.5-0.1-0.7-0.3c-0.2-0.2-0.3-0.4-0.2-0.7c0.1-1.4-0.2-2.5-0.8-3.4c-1-1.8-3.2-2.6-5.2-3.1c-0.7-0.1-1.4-0.2-2-0.2
		c-2.7,0-5.6,0.1-7.7,2c-0.9,0.8-1.4,1.9-1.4,3.1c-0.1,1.1,0.1,2,0.4,2.9c0.8,1.9,2.4,3.2,4.1,4.1c1,0.6,2.1,1.2,3.3,1.7l0.8,0.4
		c1.5,0.6,2.8,1.2,4,1.8c1.2,0.6,2.2,1.2,3.1,1.8c1,0.6,1.7,1.3,2.1,2.1c0.5,0.9,0.7,1.8,0.4,2.8c-0.1,0.4-0.4,0.7-0.9,0.7
		c-0.4-0.1-0.6-0.2-0.8-0.4c-0.2-0.2-0.2-0.4-0.1-0.7c0.3-1.1-0.3-2.1-1.8-3.1c-1.5-1-3.7-2.1-6.7-3.4l-0.8-0.3
		c-1.1-0.5-2.1-1-3.2-1.6c-1.1-0.6-2.1-1.3-3-2.1C453.1,61.8,452.2,59.5,452.3,57z M458.8,72.3c-0.2,0.4-0.5,0.7-1,0.7
		c-0.4-0.1-0.7-0.3-0.9-0.6c-0.2-0.3-0.2-0.5-0.1-0.8v-0.1c0.1-0.4,0.4-0.7,1-0.7c0.6,0.1,0.8,0.3,0.9,0.6
		C458.8,71.8,458.8,72,458.8,72.3L458.8,72.3z M466.7,80.6c-3.7-0.2-7.7-1.6-9.3-5.2c-0.1-0.2-0.1-0.4,0.1-0.7
		c0.1-0.2,0.2-0.4,0.4-0.5c0.1,0,0.2,0,0.3,0c0.5,0,0.8,0.2,1,0.5c1.1,2.9,4.8,3.9,7.6,4.1c3.9,0,8.4-0.7,9.5-5c0.1-1,0-1.7-0.1-2.2
		c-0.3-1.7-2.2-2.9-3.5-3.7c-1.2-0.7-2.9-1.6-5.1-2.5c-1.6-0.7-3-1.4-4.2-2c-1.3-0.6-2.3-1.3-3.2-1.9c-2.2-1.6-3.1-3.4-2.8-5.2
		c0.1-0.3,0.2-0.6,0.4-0.6c0.2-0.1,0.4-0.1,0.7-0.1c0.3,0.1,0.4,0.2,0.6,0.3c0.1,0.2,0.2,0.4,0.1,0.7c-0.1,0.6,0.1,1.2,0.5,1.8
		c1.6,2.1,6.1,4.1,8.7,5.3c2.5,1.1,6.5,3,8.3,5.1c0.7,0.8,1.2,1.6,1.3,2.5c0.1,0.8,0.1,1.7,0.1,2.7c0,0.1-0.1,0.5-0.3,1.2
		c-0.7,2.4-3.5,4.5-5.9,5C470.2,80.4,468.5,80.6,466.7,80.6z M478.1,58.9c-0.1,0.6-0.4,0.9-1,0.9c-0.7-0.1-1-0.4-0.9-1
		c0.1-1.5-0.1-2.9-0.6-4.1c-1.7-4.8-5.9-6.8-10.6-7c-0.3,0-0.5-0.1-0.7-0.3s-0.3-0.4-0.2-0.7c0-0.6,0.4-0.9,1-0.9
		c4.2,0.2,7.5,1.6,10,4.2C477.3,52.4,478.3,55.3,478.1,58.9z"/>
	<path d="M491.6,66.2h-4.2c-0.6,0-0.9-0.3-0.9-0.9V46.6c0-0.5,0.4-1,0.9-1c0.5,0,1,0.4,1,1v17.8h4.1c0.5,0,1,0.4,1,1v15.4
		c0,0.5-0.4,0.9-1,0.9c-0.6,0-0.9-0.3-0.9-0.9V66.2z M486.5,70.3c0-0.6,0.3-0.9,0.9-0.9s1,0.3,1,0.9v13.5c0,0.6-0.3,0.9-1,0.9
		s-0.9-0.3-0.9-0.9V70.3z M492.1,84.8c-0.3-0.1-0.4-0.2-0.6-0.5c-0.1-0.3-0.1-0.5-0.1-0.8v-0.1c0.2-0.4,0.5-0.7,1-0.7
		c0.6,0.1,0.8,0.3,1,0.6c0.1,0.3,0.1,0.5,0,0.8v0.1c-0.1,0.4-0.4,0.7-1,0.7L492.1,84.8z M493.4,60.3c0,0.5-0.4,0.9-1,0.9
		c-0.6,0-0.9-0.3-0.9-0.9v-9.6c0-0.5,0.4-1,0.9-1c0.5,0,1,0.4,1,1V60.3z"/>
	<path d="M500.6,65.2c0-10.7,7.7-19.5,18.5-19.5c6.4,0,12.7,3.6,15.9,9.2c0.2,0.2,0.2,0.4,0.1,0.7c-0.1,0.3-0.2,0.4-0.4,0.6
		c-0.1,0.1-0.3,0.1-0.5,0.1c-0.3,0-0.6-0.2-0.8-0.4c-2.9-4.9-8.7-8.3-14.4-8.3c-10,0-16.6,8.2-16.6,17.7c0,9.4,6.7,17.9,16.4,17.9
		c10.6,0,15.2-8.6,16.3-17.8c0.2-0.7,0.4-0.8,1-0.8c0.6,0.1,0.8,0.4,0.8,1C535.9,76,530.2,85,518.9,85
		C508.1,85,500.6,75.5,500.6,65.2z M518.9,78.1c6.9,0,10.4-5.5,10.8-11.7h-13c-0.6,0-0.9-0.3-0.9-0.9c0-0.5,0.4-1,0.9-1h14
		c0.6,0,0.9,0.4,0.9,1c0,7.8-4.6,14.5-12.7,14.5c-8.6,0-13.4-6.8-13.4-14.8c0-7.5,5.5-14.6,13.4-14.6c2.6,0,5.2,0.8,7.4,2.1
		c0.2,0.1,0.3,0.3,0.4,0.6c0.1,0.3,0.1,0.5-0.1,0.7c-0.2,0.3-0.4,0.4-0.8,0.4c-0.2,0-0.4-0.1-0.4-0.1c-1-0.6-2-1.1-3.1-1.4
		c-1.2-0.3-2.3-0.4-3.4-0.4c-6.9,0-11.5,6.3-11.5,12.7C507.3,72.4,511.5,78.1,518.9,78.1z M516.7,71.3c-0.5,0-0.9-0.4-0.9-1
		c0-0.6,0.3-0.9,0.9-0.9h8.1c0.6,0,1,0.3,1,0.9c0,0.6-0.3,1-1,1H516.7z M527.4,55.9c-0.2-0.2-0.2-0.4-0.1-0.7v-0.1
		c0.1-0.4,0.4-0.7,1-0.7c0.6,0.1,0.8,0.3,0.9,0.5c0.1,0.3,0.1,0.6,0.1,0.8c-0.2,0.5-0.5,0.7-1,0.7C527.9,56.3,527.6,56.1,527.4,55.9
		z"/>
	<path d="M543.5,84V46.6c0-0.5,0.2-0.8,0.7-0.9c0.4,0,0.7,0,1,0.4l23,37.3c0.3,0.5,0.2,1-0.3,1.3c-0.2,0.1-0.4,0.1-0.5,0.1
		c-0.3,0-0.6-0.2-0.8-0.4l-21.3-34.6V84c0,0.3-0.1,0.4-0.3,0.6c-0.2,0.2-0.4,0.3-0.7,0.3C543.8,84.9,543.5,84.6,543.5,84z
		 M550.3,81.2c0,0.6-0.3,0.9-1,0.9s-0.9-0.3-0.9-0.9V65.4c0-0.6,0.3-1,0.9-1s1,0.3,1,1V81.2z M551.7,49.8c-0.3-0.5-0.2-1,0.3-1.3
		c0.1-0.1,0.3-0.1,0.5-0.1c0.4,0,0.6,0.1,0.8,0.4L566.5,70V46.6c0-0.5,0.4-1,0.9-1s1,0.4,1,1v26.6c0,0.5-0.2,0.8-0.7,0.9
		c-0.5,0-0.9-0.1-1.1-0.4L551.7,49.8z M572.1,47.6c-0.3-0.1-0.5-0.2-0.6-0.5c-0.1-0.3-0.1-0.5-0.1-0.8h0.1c0.1-0.5,0.4-0.7,1-0.7
		c0.9,0.3,1.1,0.7,1,1.3l-0.1,0.1c-0.1,0.4-0.4,0.7-1,0.7L572.1,47.6z M573.3,49.8V84c0,0.6-0.3,0.9-1,0.9c-0.6,0-0.9-0.3-0.9-0.9
		V49.8c0-0.5,0.4-1,0.9-1C573,48.8,573.3,49.1,573.3,49.8z"/>
</g>
</svg>
