<?xml version="1.0" encoding="UTF-8"?>
<svg width="64px" height="64px" viewBox="0 0 64 64" version="1.1" xmlns="http://www.w3.org/2000/svg" xmlns:xlink="http://www.w3.org/1999/xlink">
    <!-- Generator: Sketch 55.1 (78136) - https://sketchapp.com -->
    <title>Behandlingssted</title>
    <desc>Created with Sketch.</desc>
    <defs>
        <polygon id="path-1" points="8 54.3795556 55.3694815 54.3795556 55.3694815 9 8 9"></polygon>
    </defs>
    <g id="Behandlingssted" stroke="none" stroke-width="1" fill="none" fill-rule="evenodd">
        <path d="M28.2366815,25.689837 L25.8414222,25.689837 L25.8414222,23.2945778 C25.8414222,22.6403556 25.3116444,22.1093926 24.656237,22.1093926 C24.0020148,22.1093926 23.4710519,22.6403556 23.4710519,23.2945778 L23.4710519,25.689837 L21.0757926,25.689837 C20.4215704,25.689837 19.8906074,26.2196148 19.8906074,26.8750222 C19.8906074,27.5304296 20.4215704,28.0602074 21.0757926,28.0602074 L23.4710519,28.0602074 L23.4710519,30.4554667 C23.4710519,31.1096889 24.0020148,31.6406519 24.656237,31.6406519 C25.3116444,31.6406519 25.8414222,31.1096889 25.8414222,30.4554667 L25.8414222,28.0602074 L28.2366815,28.0602074 C28.8909037,28.0602074 29.4218667,27.5304296 29.4218667,26.8750222 C29.4218667,26.2196148 28.8909037,25.689837 28.2366815,25.689837" id="Fill-1" fill="#000000"></path>
        <mask id="mask-2" fill="white">
            <use xlink:href="#path-1"></use>
        </mask>
        <g id="Clip-4"></g>
        <path d="M41.0168889,51.3052444 L52.1102222,51.3052444 L52.1102222,34.2326519 L41.0168889,34.2326519 L41.0168889,51.3052444 Z M37.4613333,31.7686519 L37.4613333,51.3052444 L32.6708148,51.3052444 L32.6708148,39.0433185 C32.6708148,38.3879111 32.141037,37.8581333 31.4856296,37.8581333 L17.8275556,37.8581333 C17.1721481,37.8581333 16.6423704,38.3879111 16.6423704,39.0433185 L16.6423704,51.3052444 L11.8518519,51.3052444 L11.8518519,19.0243556 L37.4613333,19.0243556 L37.4613333,31.7686519 Z M19.0115556,51.3052444 L23.4714074,51.3052444 L23.4714074,40.2285037 L19.0115556,40.2285037 L19.0115556,51.3052444 Z M25.8417778,51.3052444 L30.3004444,51.3052444 L30.3004444,40.2285037 L25.8417778,40.2285037 L25.8417778,51.3052444 Z M54.7591111,30.6770963 L41.0168889,30.6770963 L41.0168889,17.4290963 C41.0168889,16.345837 40.2868148,15.4688 39.3872593,15.4688 L9.92592593,15.4688 C9.02637037,15.4688 8.2962963,16.345837 8.2962963,17.4290963 L8.2962963,54.8489481 C8.2962963,54.8560593 8.30222222,54.8608 8.30814815,54.8608 L37.4731852,54.8608 L41.005037,54.8608 L55.6539259,54.8608 C55.661037,54.8608 55.6657778,54.8560593 55.6657778,54.8489481 L55.6657778,31.7686519 C55.6657778,31.1665778 55.2604444,30.6770963 54.7591111,30.6770963 L54.7591111,30.6770963 Z" id="Fill-3" fill="#000000" mask="url(#mask-2)"></path>
        <path d="M13.7586963,13.037037 L35.5542519,13.037037 C36.5367704,13.037037 37.3320296,12.2405926 37.3320296,11.2592593 C37.3320296,10.2779259 36.5367704,9.48148148 35.5542519,9.48148148 L13.7586963,9.48148148 C12.7761778,9.48148148 11.9809185,10.2779259 11.9809185,11.2592593 C11.9809185,12.2405926 12.7761778,13.037037 13.7586963,13.037037" id="Fill-5" fill="#000000" mask="url(#mask-2)"></path>
    </g>
</svg>