<?xml version="1.0" encoding="UTF-8"?>
<svg width="64px" height="64px" viewBox="0 0 64 64" version="1.1" xmlns="http://www.w3.org/2000/svg" xmlns:xlink="http://www.w3.org/1999/xlink">
    <!-- Generator: Sketch 55.1 (78136) - https://sketchapp.com -->
    <title>Donorkort</title>
    <desc>Created with Sketch.</desc>
    <defs>
        <polygon id="path-1" points="0 0 47 0 47 32 0 32"></polygon>
    </defs>
    <g id="Donorkort" stroke="none" stroke-width="1" fill="none" fill-rule="evenodd">
        <g id="Group-2" transform="translate(9.000000, 16.000000)">
            <mask id="mask-2" fill="white">
                <use xlink:href="#path-1"></use>
            </mask>
            <g id="Clip-2"></g>
            <g id="Group" mask="url(#mask-2)" fill="#000000">
                <path d="M45.4984205,-3.19744231e-14 L1.90802051,-3.19744231e-14 C0.854646154,-3.19744231e-14 1.0658141e-14,0.848711111 1.0658141e-14,1.89477037 L1.0658141e-14,30.311763 C1.0658141e-14,31.3578222 0.854646154,32.2065333 1.90802051,32.2065333 L45.4984205,32.2065333 C46.5517949,32.2065333 47.406441,31.3578222 47.406441,30.311763 L47.406441,1.89477037 C47.406441,0.848711111 46.5517949,-3.19744231e-14 45.4984205,-3.19744231e-14 L45.4984205,-3.19744231e-14 Z M3.44615385,28.7843111 L43.9602872,28.7843111 L43.9602872,3.42222222 L3.44615385,3.42222222 L3.44615385,28.7843111 Z" id="Fill-1"></path>
                <path d="M30.9248517,16.0888884 L24.4713542,23.3964736 C24.2450568,23.7341329 23.6787388,23.7341329 23.4524414,23.3964736 L16.998944,16.0888884 C13.602185,11.9286069 19.6019388,7.20594028 24.0176106,11.5909477 C28.5470055,6.98121435 34.5479081,12.1544736 30.9248517,16.0888884" id="Fill-4"></path>
            </g>
        </g>
    </g>
</svg>