<?xml version="1.0" encoding="UTF-8"?>
<svg width="64px" height="64px" viewBox="0 0 64 64" version="1.1" xmlns="http://www.w3.org/2000/svg" xmlns:xlink="http://www.w3.org/1999/xlink">
    <!-- Generator: Sketch 55.1 (78136) - https://sketchapp.com -->
    <title>Fastlege</title>
    <desc>Created with Sketch.</desc>
    <g id="Fastlege" stroke="none" stroke-width="1" fill="none" fill-rule="evenodd">
        <path d="M48,54.4956 L43.022,54.4956 L43.022,49.0046 C43.022,48.4526 42.574,48.0046 42.022,48.0046 C41.469,48.0046 41.022,48.4526 41.022,49.0046 L41.022,54.4956 L22.978,54.4956 L22.978,49.0046 C22.978,48.4526 22.531,48.0046 21.978,48.0046 C21.426,48.0046 20.978,48.4526 20.978,49.0046 L20.978,54.4956 L16,54.4956 L16,47.3636 C16,41.8856 18.796,37.0596 23.03,34.2086 C24.369,36.6966 26.839,39.7096 31,40.1386 L31,44.6666 C29.558,45.0996 28.5,46.4216 28.5,48.0046 C28.5,49.9376 30.067,51.5046 32,51.5046 C33.933,51.5046 35.5,49.9376 35.5,48.0046 C35.5,46.4216 34.442,45.0996 33,44.6666 L33,40.1386 C37.161,39.7096 39.63,36.6966 40.97,34.2086 C45.204,37.0596 48,41.8856 48,47.3636 L48,54.4956 Z M32,46.5046 C32.827,46.5046 33.5,47.1776 33.5,48.0046 C33.5,48.8316 32.827,49.5046 32,49.5046 C31.173,49.5046 30.5,48.8316 30.5,48.0046 C30.5,47.1776 31.173,46.5046 32,46.5046 L32,46.5046 Z M32,37.2106 C28.712,37.2106 26.738,34.7946 25.659,32.7836 C26.21,32.5486 26.771,32.3316 27.352,32.1596 C28.773,33.0066 30.34,33.5046 32,33.5046 C33.66,33.5046 35.226,33.0066 36.648,32.1596 C37.229,32.3316 37.789,32.5476 38.34,32.7836 C37.261,34.7956 35.288,37.2106 32,37.2106 L32,37.2106 Z M24.023,17.7886 C26.285,17.8346 31.743,17.3906 35.161,12.4266 C35.161,12.4266 36.846,14.7226 39.579,15.5076 C39.848,16.3876 40,17.3256 40,18.3046 C40,23.2416 36.233,29.5046 32,29.5046 C27.766,29.5046 24,23.2416 24,18.3046 C24,18.1306 24.014,17.9596 24.023,17.7886 L24.023,17.7886 Z M40.048,29.1446 L40.047,29.1446 C42.485,26.1556 44,22.0716 44,18.3046 C44,11.2466 38.616,5.5046 32,5.5046 C25.383,5.5046 20,11.2466 20,18.3046 C20,22.0716 21.515,26.1556 23.952,29.1446 L23.952,29.1446 C16.921,32.2046 12,39.2056 12,47.3636 L12,56.4956 C12,57.5956 12.9,58.4956 14,58.4956 L50,58.4956 C51.1,58.4956 52,57.5956 52,56.4956 L52,47.3636 C52,39.2056 47.079,32.2046 40.048,29.1446 L40.048,29.1446 Z" id="Icon_Bytt-fastlege" fill="#000000"></path>
    </g>
</svg>