<?xml version="1.0" encoding="UTF-8"?>
<svg width="64px" height="64px" viewBox="0 0 64 64" version="1.1" xmlns="http://www.w3.org/2000/svg" xmlns:xlink="http://www.w3.org/1999/xlink">
    <!-- Generator: Sketch 55.1 (78136) - https://sketchapp.com -->
    <title>Forskning</title>
    <desc>Created with Sketch.</desc>
    <g id="Forskning" stroke="none" stroke-width="1" fill="none" fill-rule="evenodd">
        <path d="M32.613,49.817 C33.215,49.817 33.703,49.329 33.703,48.726 C33.703,48.124 33.215,47.636 32.613,47.636 C32.011,47.636 31.523,48.124 31.523,48.726 C31.523,49.329 32.011,49.817 32.613,49.817 L32.613,49.817 Z M30.058,56.705 L35.168,56.705 L35.168,45.929 L30.058,45.929 L30.058,56.705 Z M26.058,48.753 C18.028,47.374 12,40.415 12,32.056 C12,22.705 19.608,15.098 28.959,15.098 C30.006,15.098 31.039,15.197 32.05,15.384 L32.05,18.548 C31.041,18.316 30.006,18.183 28.959,18.183 C21.31,18.183 15.087,24.406 15.087,32.056 C15.087,38.709 19.798,44.28 26.058,45.618 L26.058,48.753 Z M36.05,11.556 C36.058,10.598 36.439,9.7 37.122,9.028 C37.805,8.357 38.706,8.001 39.667,8 L40.494,8.007 C42.472,8.023 44.067,9.646 44.05,11.624 L44.05,27.703 L36.05,27.703 L36.05,11.556 Z M41.771,33.205 L38.183,33.205 L38.183,31.653 L41.771,31.683 L41.771,33.205 Z M53.022,41.929 L28.959,41.929 C23.516,41.929 19.087,37.5 19.087,32.056 C19.087,26.612 23.516,22.183 28.959,22.183 C30.015,22.183 31.058,22.358 32.05,22.687 L32.05,31.601 L35.162,31.628 L35.162,33.096 C35.162,34.813 36.554,36.205 38.271,36.205 L41.689,36.205 C43.406,36.205 44.798,34.813 44.798,33.096 L44.798,31.709 L48.05,31.736 L48.05,11.657 C48.085,7.474 44.711,4.043 40.527,4.007 L39.701,4 C37.661,4.013 35.763,4.756 34.318,6.176 C32.918,7.552 32.126,9.378 32.061,11.334 C31.041,11.182 30.006,11.098 28.959,11.098 C17.403,11.098 8,20.499 8,32.056 C8,42.623 15.791,51.392 26.058,52.809 L26.058,56.705 L18.309,56.705 C17.204,56.705 16.309,57.6 16.309,58.705 C16.309,59.809 17.204,60.705 18.309,60.705 L46.917,60.705 C48.021,60.705 48.917,59.809 48.917,58.705 C48.917,57.6 48.021,56.705 46.917,56.705 L39.168,56.705 L39.168,45.929 L53.022,45.929 C54.127,45.929 55.022,45.033 55.022,43.929 C55.022,42.824 54.127,41.929 53.022,41.929 L53.022,41.929 Z" id="Icon_Forskning" fill="#000000"></path>
    </g>
</svg>