<?xml version="1.0" encoding="UTF-8"?>
<svg width="64px" height="64px" viewBox="0 0 64 64" version="1.1" xmlns="http://www.w3.org/2000/svg" xmlns:xlink="http://www.w3.org/1999/xlink">
    <!-- Generator: Sketch 55.1 (78136) - https://sketchapp.com -->
    <title>Frikort</title>
    <desc>Created with Sketch.</desc>
    <g id="Frikort" stroke="none" stroke-width="1" fill="none" fill-rule="evenodd">
        <path d="M23.4549661,21.71 C24.2829648,21.71 24.9549638,21.038 24.9549638,20.21 C24.9549638,19.382 24.2829648,18.71 23.4549661,18.71 L12.6539824,18.71 C11.8249837,18.71 11.1539847,19.382 11.1539847,20.21 C11.1539847,21.038 11.8249837,21.71 12.6539824,21.71 L23.4549661,21.71 Z M12.6539824,26.5 C11.8249837,26.5 11.1539847,27.172 11.1539847,28 C11.1539847,28.828 11.8249837,29.5 12.6539824,29.5 L43.0439365,29.5 C43.8729352,29.5 44.5439342,28.828 44.5439342,28 C44.5439342,27.172 43.8729352,26.5 43.0439365,26.5 L12.6539824,26.5 Z M55.2329181,51 C52.1749227,51 50.1639257,50.179 50.1049258,50.16 C48.9699275,49.794 47.9219291,50.195 47.4849298,51.207 C47.0469305,52.22 47.5139297,53.397 48.5279282,53.835 C48.6369281,53.883 51.2669241,55 55.2329181,55 C59.1979121,55 61.8269081,53.883 61.937908,53.835 C62.9469064,53.399 63.4099057,52.231 62.9789064,51.218 C62.548907,50.206 61.5639085,49.825 60.3609103,50.16 C60.3399104,50.165 58.3199134,51 55.2329181,51 Z M12.6539824,33.5 C11.8249837,33.5 11.1539847,34.172 11.1539847,35 C11.1539847,35.828 11.8249837,36.5 12.6539824,36.5 L43.0439365,36.5 C43.8729352,36.5 44.5439342,35.828 44.5439342,35 C44.5439342,34.172 43.8729352,33.5 43.0439365,33.5 L12.6539824,33.5 Z M55.2329181,45.167 C52.1749227,45.167 50.1619257,44.35 50.1049258,44.327 C49.0939274,43.894 47.9219291,44.363 47.4849298,45.374 C47.0469305,46.387 47.5139297,47.564 48.5279282,48.002 C48.6369281,48.05 51.2669241,49.167 55.2329181,49.167 C59.1979121,49.167 61.8269081,48.05 61.937908,48.002 C62.9469064,47.566 63.4099057,46.398 62.9789064,45.385 C62.548907,44.373 61.3759088,43.901 60.3609103,44.327 C60.3409104,44.335 58.3199134,45.167 55.2329181,45.167 Z M47.7049295,40.31 C47.7049295,41.069 48.1559288,41.756 48.8529277,42.057 C48.9579276,42.103 51.4589238,43.165 55.2329181,43.165 C59.0049124,43.165 61.5069086,42.103 61.6119085,42.057 C62.3089074,41.756 62.7599067,41.069 62.7599067,40.31 L62.7599067,39.359 C62.7599067,38.6 62.3089074,37.913 61.6119085,37.612 C61.5069086,37.567 59.0049124,36.505 55.2329181,36.505 C51.4589238,36.505 48.9579276,37.567 48.8529277,37.612 C48.1559288,37.913 47.7049295,38.6 47.7049295,39.359 L47.7049295,40.31 Z M4.99999396,14 L50.6979249,14 L50.6999249,33.961 C51.7959233,33.736 53.1469212,33.55 54.6979189,33.514 L54.6979189,14 C54.6979189,11.794 52.9039216,10 50.6979249,10 L4.99999396,10 C2.79399729,10 1,11.794 1,14 L1,44 C1,46.206 2.79399729,48 4.99999396,48 L44.673934,48 C44.2059347,46.812 44.1859348,45.446 44.730934,44.183 C44.7589339,44.119 44.7969339,44.062 44.8269338,44 L4.99999396,44 L4.99999396,14 Z" id="Icon_Frikort-og-egenandeler" fill="#000000"></path>
    </g>
</svg>