<?xml version="1.0" encoding="UTF-8"?>
<svg width="64px" height="64px" viewBox="0 0 64 64" version="1.1" xmlns="http://www.w3.org/2000/svg" xmlns:xlink="http://www.w3.org/1999/xlink">
    <!-- Generator: Sketch 55.1 (78136) - https://sketchapp.com -->
    <title>Helseregister</title>
    <desc>Created with Sketch.</desc>
    <defs>
        <polygon id="path-1" points="-2.13162821e-14 46.2222222 45.0903704 46.2222222 45.0903704 0 -2.13162821e-14 0"></polygon>
    </defs>
    <g id="Helseregister" stroke="none" stroke-width="1" fill="none" fill-rule="evenodd">
        <g id="Group" transform="translate(9.481481, 9.481481)">
            <path d="M35.7904593,31.6035556 L22.9987556,31.6035556 C22.3445333,31.6035556 21.8135704,31.0737778 21.8135704,30.4183704 C21.8135704,29.762963 22.3445333,29.2331852 22.9987556,29.2331852 L35.7904593,29.2331852 C36.4446815,29.2331852 36.9756444,29.762963 36.9756444,30.4183704 C36.9756444,31.0737778 36.4446815,31.6035556 35.7904593,31.6035556" id="Fill-1" fill="#000000"></path>
            <path d="M35.7904593,37.2644741 L22.9987556,37.2644741 C22.3445333,37.2644741 21.8135704,36.7346963 21.8135704,36.0792889 C21.8135704,35.4238815 22.3445333,34.8941037 22.9987556,34.8941037 L35.7904593,34.8941037 C36.4446815,34.8941037 36.9756444,35.4238815 36.9756444,36.0792889 C36.9756444,36.7346963 36.4446815,37.2644741 35.7904593,37.2644741" id="Fill-3" fill="#000000"></path>
            <mask id="mask-2" fill="white">
                <use xlink:href="#path-1"></use>
            </mask>
            <g id="Clip-6"></g>
            <path d="M18.3881481,42.6666667 L41.5348148,42.6666667 L41.5348148,3.55555556 L18.3881481,3.55555556 L18.3881481,42.6666667 Z M42.4888889,0 L7.77244444,0 C6.336,0 5.17096296,1.16503704 5.17096296,2.60148148 L5.17096296,7.30548148 L8.17303704,7.30548148 C10.1368889,7.30548148 11.7285926,8.896 11.7285926,10.861037 C11.7285926,12.8248889 10.1368889,14.4165926 8.17303704,14.4165926 L5.17096296,14.4165926 L5.17096296,31.8056296 L8.17303704,31.8056296 C10.1368889,31.8056296 11.7285926,33.3973333 11.7285926,35.3611852 C11.7285926,37.3262222 10.1368889,38.9167407 8.17303704,38.9167407 L5.17096296,38.9167407 L5.17096296,43.6207407 C5.17096296,45.0571852 6.336,46.2222222 7.77244444,46.2222222 L42.4888889,46.2222222 C43.9253333,46.2222222 45.0903704,45.0571852 45.0903704,43.6207407 L45.0903704,2.60148148 C45.0903704,1.16503704 43.9253333,0 42.4888889,0 L42.4888889,0 Z" id="Fill-5" fill="#000000" mask="url(#mask-2)"></path>
            <path d="M8.17362963,33.5838815 L5.17155556,33.5838815 L1.77837037,33.5838815 C0.795851852,33.5838815 0.000592592593,34.3803259 0.000592592593,35.3616593 C0.000592592593,36.3429926 0.795851852,37.139437 1.77837037,37.139437 L5.17155556,37.139437 L8.17362963,37.139437 C9.15614815,37.139437 9.95140741,36.3429926 9.95140741,35.3616593 C9.95140741,34.3803259 9.15614815,33.5838815 8.17362963,33.5838815" id="Fill-7" fill="#000000" mask="url(#mask-2)"></path>
            <path d="M8.17362963,9.08278519 L5.17155556,9.08278519 L1.77837037,9.08278519 C0.795851852,9.08278519 0.000592592593,9.87922963 0.000592592593,10.860563 C0.000592592593,11.8418963 0.795851852,12.6383407 1.77837037,12.6383407 L5.17155556,12.6383407 L8.17362963,12.6383407 C9.15614815,12.6383407 9.95140741,11.8418963 9.95140741,10.860563 C9.95140741,9.87922963 9.15614815,9.08278519 8.17362963,9.08278519" id="Fill-8" fill="#000000" mask="url(#mask-2)"></path>
            <path d="M34.8577185,19.8542222 C34.8577185,18.5232593 34.1466074,17.3416296 33.0420148,16.5262222 C32.1590519,17.5727407 30.9632,18.2814815 29.5646815,18.2814815 C28.1626074,18.2814815 26.9632,17.568 26.0790519,16.5167407 C24.9673481,17.3333333 24.2503111,18.5173333 24.2503111,19.8542222 C24.2503111,20.1374815 24.2645333,24.3780741 24.2645333,24.3780741 L34.8790519,24.3780741 C34.8790519,24.3780741 34.8577185,20.1481481 34.8577185,19.8542222" id="Fill-9" fill="#000000" mask="url(#mask-2)"></path>
            <path d="M29.5648,8.6592 C27.8154667,8.6592 26.409837,10.2272 26.409837,12.1472 C26.409837,13.4734222 27.0368,14.8375704 27.9304296,15.6399407 C28.4151704,16.0749037 28.975763,16.352237 29.5648,16.352237 C30.1514667,16.352237 30.7096889,16.0760889 31.1944296,15.6434963 C32.0904296,14.8423111 32.719763,13.4757926 32.719763,12.1472 C32.719763,10.2272 31.3141333,8.6592 29.5648,8.6592" id="Fill-10" fill="#000000" mask="url(#mask-2)"></path>
        </g>
    </g>
</svg>