<?xml version="1.0" encoding="UTF-8"?>
<svg width="64px" height="64px" viewBox="0 0 64 64" version="1.1" xmlns="http://www.w3.org/2000/svg" xmlns:xlink="http://www.w3.org/1999/xlink">
    <!-- Generator: Sketch 55.1 (78136) - https://sketchapp.com -->
    <title>Helsehistorikk</title>
    <desc>Created with Sketch.</desc>
    <g id="Helsehistorikk" stroke="none" stroke-width="1" fill="none" fill-rule="evenodd">
        <path d="M30.344,33.566 C29.849,32.987 28.997,32.873 28.365,33.3 L21.115,38.21 C20.428,38.674 20.249,39.607 20.713,40.293 C21.177,40.979 22.111,41.16 22.796,40.694 L28.939,36.535 L32.295,40.446 C32.59,40.79 33.01,40.969 33.434,40.969 C33.733,40.969 34.034,40.88 34.295,40.697 L40.612,36.262 L40.614,40.985 L43.613,38.81 L43.61,32.249 L37.355,30.275 L34.333,32.467 L38.792,33.874 L33.685,37.46 L30.344,33.566 Z M48,11.848 L42,11.848 L42,15.848 L48,15.848 L48,54.848 L16,54.848 L16,15.848 L22,15.848 L22,11.848 L16,11.848 C13.795,11.848 12,13.642 12,15.848 L12,54.848 C12,57.054 13.795,58.848 16,58.848 L48,58.848 C50.206,58.848 52,57.054 52,54.848 L52,15.848 C52,13.642 50.206,11.848 48,11.848 L48,11.848 Z M32.009,11.187 C31.293,11.187 30.712,10.606 30.712,9.89 C30.712,9.174 31.293,8.593 32.009,8.593 C32.725,8.593 33.305,9.174 33.305,9.89 C33.305,10.606 32.725,11.187 32.009,11.187 L32.009,11.187 Z M39.772,12.456 C39.772,10.97 38.56,9.761 37.065,9.761 L35.331,9.761 L35.331,9.322 C35.331,7.49 33.84,6 32,6 C30.165,6 28.67,7.487 28.67,9.322 L28.67,9.761 L26.936,9.761 C25.449,9.761 24.229,10.968 24.229,12.456 L24.229,17.284 L39.772,17.284 L39.772,12.456 Z" id="Icon_Helsehistorikk" fill="#000000"></path>
    </g>
</svg>