<?xml version="1.0" encoding="UTF-8"?>
<svg width="64px" height="64px" viewBox="0 0 64 64" version="1.1" xmlns="http://www.w3.org/2000/svg" xmlns:xlink="http://www.w3.org/1999/xlink">
    <!-- Generator: Sketch 55.1 (78136) - https://sketchapp.com -->
    <title>Helsekontakter</title>
    <desc>Created with Sketch.</desc>
    <g id="Helsekontakter" stroke="none" stroke-width="1" fill="none" fill-rule="evenodd">
        <g id="Group" transform="translate(7.000000, 7.000000)" fill="#000000">
            <path d="M4,40 L9.634,40 L9.634,4 L4,4 L4,40 Z M36,0 L2,0 C0.9,0 0,0.9 0,2 L0,42 C0,43.1 0.9,44 2,44 L20.016,44 L20.016,40 L12.634,40 L12.634,4 L34,4 L34,12.49 L38,12.49 L38,2 C38,0.9 37.1,0 36,0 L36,0 Z" id="Fill-1"></path>
            <path d="M46.1628,47.363 L43.1398,47.363 L43.1398,44.159 C43.1398,43.883 42.9158,43.659 42.6398,43.659 C42.3628,43.659 42.1398,43.883 42.1398,44.159 L42.1398,47.363 L30.0378,47.363 L30.0378,44.159 C30.0378,43.883 29.8148,43.659 29.5378,43.659 C29.2618,43.659 29.0378,43.883 29.0378,44.159 L29.0378,47.363 L26.0158,47.363 L26.0158,43.172 C26.0158,39.723 27.7598,36.675 30.4108,34.859 C31.2848,36.337 32.7588,37.973 35.0888,38.347 L35.0888,41.456 C34.3288,41.829 33.8008,42.602 33.8008,43.505 C33.8008,44.769 34.8258,45.793 36.0888,45.793 C37.3528,45.793 38.3768,44.769 38.3768,43.505 C38.3768,42.602 37.8488,41.828 37.0888,41.456 L37.0888,38.347 C39.4198,37.973 40.8928,36.337 41.7668,34.859 C44.4188,36.675 46.1628,39.723 46.1628,43.172 L46.1628,47.363 Z M36.3768,43.505 C36.3768,43.664 36.2478,43.793 36.0888,43.793 C35.9308,43.793 35.8008,43.664 35.8008,43.505 C35.8008,43.346 35.9308,43.217 36.0888,43.217 C36.2478,43.217 36.3768,43.346 36.3768,43.505 L36.3768,43.505 Z M36.0888,36.43 C34.1388,36.43 32.8988,35.121 32.1608,33.897 C32.5318,33.739 32.9178,33.611 33.3088,33.498 C34.1718,33.95 35.1038,34.22 36.0888,34.22 C37.0738,34.22 38.0058,33.95 38.8688,33.498 C39.2608,33.611 39.6458,33.739 40.0168,33.897 C39.2798,35.121 38.0388,36.43 36.0888,36.43 L36.0888,36.43 Z M31.0678,23.756 C32.6478,23.754 36.0168,23.355 38.1558,20.248 C38.1558,20.248 39.1668,21.605 40.8118,22.176 C41.0118,22.774 41.1258,23.417 41.1258,24.091 C41.1258,27.233 38.7538,31.22 36.0888,31.22 C33.4238,31.22 31.0518,27.233 31.0518,24.091 C31.0518,23.978 31.0618,23.867 31.0678,23.756 L31.0678,23.756 Z M41.5038,31.283 C43.1218,29.294 44.1258,26.588 44.1258,24.091 C44.1258,19.371 40.5208,15.531 36.0888,15.531 C31.6568,15.531 28.0518,19.371 28.0518,24.091 C28.0518,26.588 29.0568,29.294 30.6738,31.283 C26.1588,33.343 23.0158,37.886 23.0158,43.172 L23.0158,48.363 C23.0158,49.463 23.9158,50.363 25.0158,50.363 L47.1628,50.363 C48.2628,50.363 49.1628,49.463 49.1628,48.363 L49.1628,43.172 C49.1628,37.886 46.0188,33.343 41.5038,31.283 L41.5038,31.283 Z" id="Fill-3"></path>
        </g>
    </g>
</svg>