<?xml version="1.0" encoding="UTF-8"?>
<svg width="64px" height="64px" viewBox="0 0 64 64" version="1.1" xmlns="http://www.w3.org/2000/svg" xmlns:xlink="http://www.w3.org/1999/xlink">
    <!-- Generator: Sketch 55.1 (78136) - https://sketchapp.com -->
    <title>Henvisninger</title>
    <desc>Created with Sketch.</desc>
    <g id="Henvisninger" stroke="none" stroke-width="1" fill="none" fill-rule="evenodd">
        <path d="M38.636,41.484 L22.605,41.484 C21.776,41.484 21.105,42.155 21.105,42.984 C21.105,43.813 21.776,44.484 22.605,44.484 L38.636,44.484 C39.465,44.484 40.136,43.813 40.136,42.984 C40.136,42.155 39.465,41.484 38.636,41.484 L38.636,41.484 Z M45,50 L15,50 L15,14 L45,14 L45,20.734 L49,20.734 L49,12 C49,10.9 48.1,10 47,10 L13,10 C11.9,10 11,10.9 11,12 L11,52 C11,53.1 11.9,54 13,54 L47,54 C48.1,54 49,53.1 49,52 L49,37.234 L45,37.234 L45,50 Z M38.636,34.484 L22.605,34.484 C21.776,34.484 21.105,35.155 21.105,35.984 C21.105,36.813 21.776,37.484 22.605,37.484 L38.636,37.484 C39.465,37.484 40.136,36.813 40.136,35.984 C40.136,35.155 39.465,34.484 38.636,34.484 L38.636,34.484 Z M48.698,34.234 L52.526,28.953 L48.659,23.734 L44.926,23.734 L47.704,27.484 L30,27.484 C29.172,27.484 28.5,28.155 28.5,28.984 C28.5,29.813 29.172,30.484 30,30.484 L47.711,30.484 L44.994,34.234 L48.698,34.234 Z" id="Icon_Henvisniger" fill="#000000"></path>
    </g>
</svg>