<?xml version="1.0" encoding="UTF-8"?>
<svg width="64px" height="64px" viewBox="0 0 64 64" version="1.1" xmlns="http://www.w3.org/2000/svg" xmlns:xlink="http://www.w3.org/1999/xlink">
    <!-- Generator: Sketch 55.1 (78136) - https://sketchapp.com -->
    <title>Kjernejournal</title>
    <desc>Created with Sketch.</desc>
    <g id="Kjernejournal" stroke="none" stroke-width="1" fill="none" fill-rule="evenodd">
        <path d="M19.0089,34.8453 C19.0089,30.1893 20.9189,25.9753 24.0059,22.9243 C20.9189,25.9753 19.0079,30.1893 19.0079,34.8453 C19.0079,40.6973 22.0279,45.8443 26.6059,48.8673 C22.0279,45.8443 19.0089,40.6973 19.0089,34.8453" id="Fill-1" fill="#33393C"></path>
        <g id="Group" transform="translate(10.000000, 8.000000)" fill="#000000">
            <path d="M27.064,9.155 C31.022,9.155 34.649,10.471 37.616,12.629 L42.96,5.088 C38.5,1.917 33.071,0 27.158,0 C12.158,0 -9.59232693e-14,12.019 -9.59232693e-14,26.845 C-9.59232693e-14,36.051 4.697,44.165 11.844,49 L17.128,41.544 C12.332,38.367 9.167,32.967 9.167,26.845 C9.167,17.091 17.196,9.155 27.064,9.155 Z" id="Fill-3"></path>
            <path d="M37.3153,30.1277 C37.3153,31.5257 36.7153,32.8657 35.6723,33.8037 C34.7133,34.6677 33.4943,35.1037 32.2753,35.1037 C31.0173,35.1037 29.7633,34.6447 28.7943,33.7297 L23.6513,27.5277 L18.7703,34.5937 L16.8173,34.5937 L16.8173,19.4787 L18.5003,19.4787 L18.5003,31.9197 L27.1253,19.4787 L29.2083,19.4787 L24.6383,26.0977 L30.0253,32.6017 C31.2273,33.7227 33.2393,33.7457 34.5403,32.5787 C35.2323,31.9487 35.6323,31.0617 35.6323,30.1277 L35.6323,19.4787 L37.3153,19.4787 L37.3153,30.1277 Z M27.0643,9.9857 C22.3553,9.9857 18.0913,11.8727 15.0053,14.9237 C11.9183,17.9757 10.0083,22.1887 10.0083,26.8447 C10.0083,36.1567 17.6443,43.7047 27.0643,43.7047 C31.7763,43.7047 36.0393,41.8167 39.1263,38.7657 C40.2513,37.6547 41.1513,36.3467 41.9283,34.9627 C43.2833,32.5437 44.1223,29.8047 44.1223,26.8447 C44.1223,17.5327 36.4853,9.9857 27.0643,9.9857 L27.0643,9.9857 Z" id="Fill-6"></path>
        </g>
    </g>
</svg>