<?xml version="1.0" encoding="UTF-8"?>
<svg width="64px" height="64px" viewBox="0 0 64 64" version="1.1" xmlns="http://www.w3.org/2000/svg" xmlns:xlink="http://www.w3.org/1999/xlink">
    <!-- Generator: Sketch 55.1 (78136) - https://sketchapp.com -->
    <title>Pasientreiser</title>
    <desc>Created with Sketch.</desc>
    <g id="Pasientreiser" stroke="none" stroke-width="1" fill="none" fill-rule="evenodd">
        <path d="M25.5,16.191 L38.5,16.191 C39.328,16.191 40,15.519 40,14.691 C40,13.863 39.328,13.191 38.5,13.191 L25.5,13.191 C24.672,13.191 24,13.863 24,14.691 C24,15.519 24.672,16.191 25.5,16.191 L25.5,16.191 Z M15.5,37.25 L48.5,37.25 L48.5,11.25 L15.5,11.25 L15.5,37.25 Z M45.932,45.654 C44.552,45.654 43.432,44.534 43.432,43.154 C43.432,41.773 44.552,40.654 45.932,40.654 C47.313,40.654 48.432,41.773 48.432,43.154 C48.432,44.534 47.313,45.654 45.932,45.654 L45.932,45.654 Z M18.067,45.654 C16.687,45.654 15.567,44.534 15.567,43.154 C15.567,41.773 16.687,40.654 18.067,40.654 C19.448,40.654 20.567,41.773 20.567,43.154 C20.567,44.534 19.448,45.654 18.067,45.654 L18.067,45.654 Z M50.5,7.25 L13.5,7.25 C12.4,7.25 11.5,8.15 11.5,9.25 L11.5,48.871 C11.5,49.971 12.4,50.871 13.5,50.871 L15.067,50.871 L15.067,53.75 C15.067,55.407 16.411,56.75 18.067,56.75 C19.724,56.75 21.067,55.407 21.067,53.75 L21.067,50.871 L42.932,50.871 L42.932,53.75 C42.932,55.407 44.276,56.75 45.932,56.75 C47.589,56.75 48.932,55.407 48.932,53.75 L48.932,50.871 L50.5,50.871 C51.6,50.871 52.5,49.971 52.5,48.871 L52.5,9.25 C52.5,8.15 51.6,7.25 50.5,7.25 L50.5,7.25 Z" id="Icon_Pasientreiser" fill="#000000"></path>
    </g>
</svg>