<?xml version="1.0" encoding="UTF-8"?>
<svg width="64px" height="64px" viewBox="0 0 64 64" version="1.1" xmlns="http://www.w3.org/2000/svg" xmlns:xlink="http://www.w3.org/1999/xlink">
    <!-- Generator: Sketch 55.1 (78136) - https://sketchapp.com -->
    <title>Prøvesvar</title>
    <desc>Created with Sketch.</desc>
    <g id="Prøvesvar" stroke="none" stroke-width="1" fill="none" fill-rule="evenodd">
        <path d="M28.5,20.7575 L34.5,20.7575 L34.5,49.2285 C34.5,50.8825 33.154,52.2285 31.5,52.2285 C29.846,52.2285 28.5,50.8825 28.5,49.2285 L28.5,20.7575 Z M25.5,49.2285 C25.5,52.5425 28.186,55.2285 31.5,55.2285 C34.814,55.2285 37.5,52.5425 37.5,49.2285 L37.5,17.7575 L25.5,17.7575 L25.5,49.2285 Z M35.816,8.7715 L27.185,8.7715 C26.254,8.7715 25.5,9.5255 25.5,10.4555 L25.5,14.7715 L37.5,14.7715 L37.5,10.4555 C37.5,9.5255 36.746,8.7715 35.816,8.7715 L35.816,8.7715 Z M53.59,10.4555 C53.59,9.5255 52.836,8.7715 51.906,8.7715 L43.274,8.7715 C42.344,8.7715 41.59,9.5255 41.59,10.4555 L41.59,14.7715 L53.59,14.7715 L53.59,10.4555 Z M48.59,51.2285 C49.692,51.2285 50.59,50.3315 50.59,49.2285 L50.59,35.0615 L46.59,35.0615 L46.59,49.2285 C46.59,50.3315 47.487,51.2285 48.59,51.2285 L48.59,51.2285 Z M51.59,49.2285 C51.59,50.8825 50.244,52.2285 48.59,52.2285 C46.935,52.2285 45.59,50.8825 45.59,49.2285 L45.59,20.7575 L51.59,20.7575 L51.59,49.2285 Z M42.59,17.7575 L42.59,49.2285 C42.59,52.5425 45.276,55.2285 48.59,55.2285 C51.903,55.2285 54.59,52.5425 54.59,49.2285 L54.59,17.7575 L42.59,17.7575 Z M12.41,20.7575 L18.41,20.7575 L18.41,49.2285 C18.41,50.8825 17.065,52.2285 15.41,52.2285 C13.756,52.2285 12.41,50.8825 12.41,49.2285 L12.41,20.7575 Z M9.41,49.2285 C9.41,52.5425 12.097,55.2285 15.41,55.2285 C18.724,55.2285 21.41,52.5425 21.41,49.2285 L21.41,17.7575 L9.41,17.7575 L9.41,49.2285 Z M15.411,51.2285 C16.513,51.2285 17.411,50.3315 17.411,49.2285 L17.411,41.0615 L13.411,41.0615 L13.411,49.2285 C13.411,50.3315 14.308,51.2285 15.411,51.2285 L15.411,51.2285 Z M31.5,51.2285 C32.603,51.2285 33.5,50.3315 33.5,49.2285 L33.5,29.0615 L29.5,29.0615 L29.5,49.2285 C29.5,50.3315 30.398,51.2285 31.5,51.2285 L31.5,51.2285 Z M19.726,8.7715 L11.095,8.7715 C10.165,8.7715 9.41,9.5255 9.41,10.4555 L9.41,14.7715 L21.41,14.7715 L21.41,10.4555 C21.41,9.5255 20.656,8.7715 19.726,8.7715 L19.726,8.7715 Z" id="Icon_Prøvesvar" fill="#000000"></path>
    </g>
</svg>