<?xml version="1.0" encoding="UTF-8"?>
<svg width="64px" height="64px" viewBox="0 0 64 64" version="1.1" xmlns="http://www.w3.org/2000/svg" xmlns:xlink="http://www.w3.org/1999/xlink">
    <!-- Generator: Sketch 55.1 (78136) - https://sketchapp.com -->
    <title>Resepter</title>
    <desc>Created with Sketch.</desc>
    <g id="Resepter" stroke="none" stroke-width="1" fill="none" fill-rule="evenodd">
        <path d="M8,52.0144 L8,24.4544 C8,23.4624 8.077,22.6474 8.18,22.0004 L27.812,22.0004 C27.916,22.6484 27.992,23.4634 27.992,24.4554 L28,52.0144 L8,52.0144 Z M30.713,18.0004 L5.279,18.0004 C5.279,18.0004 4,19.9764 4,24.4544 L4,54.0144 C4,55.1144 4.9,56.0144 6,56.0144 L30,56.0144 C31.1,56.0144 32,55.1144 32,54.0144 L31.992,24.4544 C31.992,19.9764 30.713,18.0004 30.713,18.0004 L30.713,18.0004 Z M51.99,46.0004 L41.852,46.0004 L41.056,22.0004 L52.786,22.0004 L51.99,46.0004 Z M57.139,17.9544 L36.702,17.9544 C35.597,17.9544 34.702,18.8494 34.702,19.9544 C34.702,21.0584 35.597,21.9544 36.702,21.9544 L37.052,21.9544 L37.916,48.0014 C37.953,49.1004 38.882,50.0004 39.982,50.0004 L53.859,50.0004 C54.959,50.0004 55.889,49.1004 55.926,48.0014 L56.79,21.9544 L57.139,21.9544 C58.244,21.9544 59.139,21.0584 59.139,19.9544 C59.139,18.8494 58.244,17.9544 57.139,17.9544 L57.139,17.9544 Z M23.821,35.5074 L19.5,35.5074 L19.5,31.1864 C19.5,30.3574 18.828,29.6864 18,29.6864 C17.171,29.6864 16.5,30.3574 16.5,31.1864 L16.5,35.5074 L12.179,35.5074 C11.35,35.5074 10.679,36.1784 10.679,37.0074 C10.679,37.8354 11.35,38.5074 12.179,38.5074 L16.5,38.5074 L16.5,42.8284 C16.5,43.6574 17.171,44.3284 18,44.3284 C18.828,44.3284 19.5,43.6574 19.5,42.8284 L19.5,38.5074 L23.821,38.5074 C24.65,38.5074 25.321,37.8354 25.321,37.0074 C25.321,36.1784 24.65,35.5074 23.821,35.5074 L23.821,35.5074 Z M30.724,10.0964 C30.724,8.3864 29.338,7.0004 27.628,7.0004 L8.442,7.0004 C6.732,7.0004 5.345,8.3864 5.345,10.0964 L5.345,15.0004 L30.724,15.0004 L30.724,10.0964 Z M40.921,52.9034 C40.921,54.6134 42.307,56.0004 44.017,56.0004 L49.825,56.0004 C51.535,56.0004 52.921,54.6134 52.921,52.9034 L52.921,52.0004 L40.921,52.0004 L40.921,52.9034 Z" id="Icon_Resepter" fill="#000000"></path>
    </g>
</svg>