<?xml version="1.0" encoding="UTF-8"?>
<svg width="64px" height="64px" viewBox="0 0 64 64" version="1.1" xmlns="http://www.w3.org/2000/svg" xmlns:xlink="http://www.w3.org/1999/xlink">
    <!-- Generator: Sketch 55.1 (78136) - https://sketchapp.com -->
    <title>Skjema</title>
    <desc>Created with Sketch.</desc>
    <g id="Skjema" stroke="none" stroke-width="1" fill="none" fill-rule="evenodd">
        <path d="M21.7904,29.632 L23.3888,29.632 C24.0944,29.632 24.6672,29.0592 24.6672,28.352 C24.6672,27.6464 24.0944,27.072 23.3888,27.072 L21.7904,27.072 C21.0832,27.072 20.5104,27.6464 20.5104,28.352 C20.5104,29.0592 21.0832,29.632 21.7904,29.632 L21.7904,29.632 Z M23.3888,34.4848 L21.7904,34.4848 C21.0832,34.4848 20.5104,35.0592 20.5104,35.7648 C20.5104,36.4704 21.0832,37.0448 21.7904,37.0448 L23.3888,37.0448 C24.0944,37.0448 24.6672,36.4704 24.6672,35.7648 C24.6672,35.0592 24.0944,34.4848 23.3888,34.4848 L23.3888,34.4848 Z M31.6592,12.0016 C30.9968,12.0016 30.4592,11.4688 30.4592,10.8096 C30.4592,10.5744 30.5456,10.368 30.6656,10.184 C30.672,10.1744 30.6768,10.1664 30.6832,10.1584 C30.7472,10.064 30.816,9.9792 30.9024,9.9056 C30.9424,9.8736 30.9872,9.848 31.0304,9.8208 C31.0976,9.7792 31.16,9.7328 31.2352,9.704 C31.368,9.6544 31.5088,9.6192 31.6592,9.6192 C31.8096,9.6192 31.952,9.6544 32.0848,9.704 C32.16,9.7328 32.2208,9.7792 32.288,9.8208 C32.3312,9.848 32.376,9.8736 32.416,9.9056 C32.504,9.9792 32.5728,10.064 32.6368,10.1584 C32.6416,10.1664 32.648,10.1744 32.6544,10.184 C32.7728,10.368 32.8592,10.5744 32.8592,10.8096 C32.8592,11.4688 32.3232,12.0016 31.6592,12.0016 L31.6592,12.0016 Z M40.1344,12.5536 C40.1344,11.44 39.224,10.5344 38.1008,10.5344 L34.864,10.5344 C34.7232,8.8928 33.3504,7.6 31.6592,7.6 C29.968,7.6 28.5968,8.8928 28.4544,10.5344 L25.8992,10.5344 C24.776,10.5344 23.8656,11.44 23.8656,12.5536 L23.8656,18.6144 L40.1344,18.6144 L40.1344,12.5536 Z M48.92,13.2592 L43.1936,13.2592 L43.1936,17.2592 L47.32,17.2592 L47.32,52.4 L16.68,52.4 L16.68,17.2592 L20.8064,17.2592 L20.8064,13.2592 L15.08,13.2592 C13.76,13.2592 12.68,14.3392 12.68,15.6592 L12.68,54 C12.68,55.32 13.76,56.4 15.08,56.4 L48.92,56.4 C50.24,56.4 51.32,55.32 51.32,54 L51.32,15.6592 C51.32,14.3392 50.24,13.2592 48.92,13.2592 L48.92,13.2592 Z M23.3888,41.896 L21.7904,41.896 C21.0832,41.896 20.5104,42.4688 20.5104,43.176 C20.5104,43.8816 21.0832,44.456 21.7904,44.456 L23.3888,44.456 C24.0944,44.456 24.6672,43.8816 24.6672,43.176 C24.6672,42.4688 24.0944,41.896 23.3888,41.896 L23.3888,41.896 Z M28.432,28.352 C28.432,29.0592 29.0048,29.632 29.712,29.632 L42.2096,29.632 C42.9168,29.632 43.4896,29.0592 43.4896,28.352 C43.4896,27.6464 42.9168,27.072 42.2096,27.072 L29.712,27.072 C29.0048,27.072 28.432,27.6464 28.432,28.352 L28.432,28.352 Z M42.2096,34.4848 L29.712,34.4848 C29.0048,34.4848 28.432,35.0592 28.432,35.7648 C28.432,36.4704 29.0048,37.0448 29.712,37.0448 L42.2096,37.0448 C42.9168,37.0448 43.4896,36.4704 43.4896,35.7648 C43.4896,35.0592 42.9168,34.4848 42.2096,34.4848 L42.2096,34.4848 Z M42.2096,41.896 L29.712,41.896 C29.0048,41.896 28.432,42.4688 28.432,43.176 C28.432,43.8816 29.0048,44.456 29.712,44.456 L42.2096,44.456 C42.9168,44.456 43.4896,43.8816 43.4896,43.176 C43.4896,42.4688 42.9168,41.896 42.2096,41.896 L42.2096,41.896 Z" id="Fill-11" fill="#000000"></path>
    </g>
</svg>