<?xml version="1.0" encoding="UTF-8"?>
<svg width="64px" height="64px" viewBox="0 0 64 64" version="1.1" xmlns="http://www.w3.org/2000/svg" xmlns:xlink="http://www.w3.org/1999/xlink">
    <!-- Generator: Sketch 55.1 (78136) - https://sketchapp.com -->
    <title>Sykdomsinformasjon</title>
    <desc>Created with Sketch.</desc>
    <g id="Sykdomsinformasjon" stroke="none" stroke-width="1" fill="none" fill-rule="evenodd">
        <path d="M32,39.443 C32.497,39.443 32.9,39.846 32.9,40.343 C32.9,40.84 32.497,41.243 32,41.243 C31.503,41.243 31.1,40.84 31.1,40.343 C31.1,39.846 31.503,39.443 32,39.443 L32,39.443 Z M31.25,32.633 C31.25,32.219 31.586,31.883 32,31.883 C32.414,31.883 32.75,32.219 32.75,32.633 L32.75,36.852 C32.75,37.266 32.414,37.602 32,37.602 C31.586,37.602 31.25,37.266 31.25,36.852 L31.25,32.633 Z M23.885,43.919 L40.115,43.919 C41.471,43.919 42.318,42.45 41.639,41.276 L33.755,27.657 C33.087,26.503 31.427,26.482 30.73,27.619 L22.384,41.238 C21.665,42.411 22.509,43.919 23.885,43.919 L23.885,43.919 Z M48,11.849 L42,11.849 L42,15.849 L48,15.849 L48,54.849 L16,54.849 L16,15.849 L22,15.849 L22,11.849 L16,11.849 C13.794,11.849 12,13.642 12,15.849 L12,54.849 C12,57.055 13.794,58.849 16,58.849 L48,58.849 C50.205,58.849 52,57.055 52,54.849 L52,15.849 C52,13.642 50.205,11.849 48,11.849 L48,11.849 Z M32.008,11.187 C31.292,11.187 30.712,10.606 30.712,9.89 C30.712,9.174 31.292,8.594 32.008,8.594 C32.724,8.594 33.305,9.174 33.305,9.89 C33.305,10.606 32.724,11.187 32.008,11.187 L32.008,11.187 Z M39.771,12.456 C39.771,10.97 38.559,9.761 37.064,9.761 L35.331,9.761 L35.331,9.322 C35.331,7.49 33.839,6 32,6 C30.164,6 28.669,7.487 28.669,9.322 L28.669,9.761 L26.936,9.761 C25.448,9.761 24.228,10.968 24.228,12.456 L24.228,17.284 L39.771,17.284 L39.771,12.456 Z" id="Fill-1" fill="#000000"></path>
    </g>
</svg>