<?xml version="1.0" encoding="UTF-8"?>
<svg width="64px" height="64px" viewBox="0 0 64 64" version="1.1" xmlns="http://www.w3.org/2000/svg" xmlns:xlink="http://www.w3.org/1999/xlink">
    <!-- Generator: Sketch 55.1 (78136) - https://sketchapp.com -->
    <title>Timeavtaler</title>
    <desc>Created with Sketch.</desc>
    <g id="Timeavtaler" stroke="none" stroke-width="1" fill="none" fill-rule="evenodd">
        <path d="M34.088,41.245 C35.358,41.245 36.388,40.215 36.388,38.945 C36.388,37.675 35.358,36.645 34.088,36.645 C32.818,36.645 31.788,37.675 31.788,38.945 C31.788,40.215 32.818,41.245 34.088,41.245 L34.088,41.245 Z M11,50.448 L53,50.448 L53,25.123 L11,25.123 L11,50.448 Z M55,14 L49,14 L49,17.5 C49,19.981 46.981,22 44.5,22 C42.019,22 40,19.981 40,17.5 L40,14 L24,14 L24,17.5 C24,19.981 21.981,22 19.5,22 C17.019,22 15,19.981 15,17.5 L15,14 L9,14 C7.9,14 7,14.9 7,16 L7,52.448 C7,53.548 7.9,54.448 9,54.448 L55,54.448 C56.1,54.448 57,53.548 57,52.448 L57,16 C57,14.9 56.1,14 55,14 L55,14 Z M40.538,35.131 C41.808,35.131 42.838,34.101 42.838,32.831 C42.838,31.561 41.808,30.531 40.538,30.531 C39.268,30.531 38.238,31.561 38.238,32.831 C38.238,34.101 39.268,35.131 40.538,35.131 L40.538,35.131 Z M44.5,19 C45.328,19 46,18.328 46,17.5 L46,10.5 C46,9.671 45.328,9 44.5,9 C43.671,9 43,9.671 43,10.5 L43,17.5 C43,18.328 43.671,19 44.5,19 L44.5,19 Z M19.5,19 C20.328,19 21,18.328 21,17.5 L21,10.5 C21,9.671 20.328,9 19.5,9 C18.671,9 18,9.671 18,10.5 L18,17.5 C18,18.328 18.671,19 19.5,19 L19.5,19 Z" id="Icon_Timeavtaler" fill="#000000"></path>
    </g>
</svg>