<?xml version="1.0" encoding="UTF-8"?>
<svg width="64px" height="64px" viewBox="0 0 64 64" version="1.1" xmlns="http://www.w3.org/2000/svg" xmlns:xlink="http://www.w3.org/1999/xlink">
    <!-- Generator: Sketch 55.1 (78136) - https://sketchapp.com -->
    <title>Vaksiner</title>
    <desc>Created with Sketch.</desc>
    <g id="Vaksiner" stroke="none" stroke-width="1" fill="none" fill-rule="evenodd">
        <path d="M36.1343136,18.6735729 L29.7473136,34.3305729 L20.0273136,34.3305729 L21.9463136,29.6255729 L25.3313136,31.0065729 C25.3933136,31.0315729 25.4563136,31.0435729 25.5203136,31.0435729 C25.7173136,31.0435729 25.9043136,30.9265729 25.9833136,30.7315729 C26.0873136,30.4765729 25.9643136,30.1845729 25.7083136,30.0805729 L22.3243136,28.6995729 L23.4573136,25.9225729 L26.8423136,27.3035729 C26.9043136,27.3285729 26.9673136,27.3405729 27.0313136,27.3405729 C27.2283136,27.3405729 27.4143136,27.2225729 27.4943136,27.0285729 C27.5983136,26.7735729 27.4753136,26.4815729 27.2193136,26.3775729 L23.8353136,24.9965729 L24.9683136,22.2185729 L28.3533136,23.5985729 C28.4143136,23.6245729 28.4783136,23.6365729 28.5413136,23.6365729 C28.7393136,23.6365729 28.9253136,23.5185729 29.0043136,23.3245729 C29.1093136,23.0695729 28.9863136,22.7775729 28.7303136,22.6735729 L25.3453136,21.2925729 L27.8013136,15.2745729 L36.1343136,18.6735729 Z M36.5663136,9.66957286 L37.9553136,10.2365729 C38.1413136,10.3125729 38.3323136,10.3475729 38.5213136,10.3475729 C39.1133136,10.3475729 39.6733136,9.99657286 39.9113136,9.41457286 C40.2243136,8.64757286 39.8563136,7.77157286 39.0883136,7.45957286 L33.5343136,5.19257286 C32.7663136,4.87857286 31.8923136,5.24757286 31.5793136,6.01457286 C31.2653136,6.78157286 31.6333136,7.65757286 32.4013136,7.97057286 L33.7893136,8.53657286 L31.7123136,13.6295729 L26.1563136,11.3635729 L16.5243136,34.9745729 C15.2893136,38.0025729 16.1833136,41.3635729 18.5003136,43.4165729 L18.2983136,44.8215729 C18.2513136,45.1525729 18.4353136,45.4735729 18.7443136,45.5995729 L19.1433136,45.7625729 L14.4223136,57.3365729 C14.2133136,57.8475729 14.4593136,58.4315729 14.9703136,58.6395729 C15.0943136,58.6905729 15.2223136,58.7145729 15.3483136,58.7145729 C15.7423136,58.7145729 16.1163136,58.4795729 16.2743136,58.0925729 L20.9953136,46.5175729 L21.3943136,46.6805729 C21.7043136,46.8075729 22.0603136,46.7065729 22.2573136,46.4365729 L23.0973136,45.2915729 C23.2203136,45.2975729 23.3433136,45.3085729 23.4663136,45.3085729 C26.4243136,45.3085729 29.2273136,43.5475729 30.4133136,40.6395729 L40.0453136,17.0285729 L34.4893136,14.7625729 L36.5663136,9.66957286 Z M35.3133136,52.7075729 C33.6563136,52.7075729 32.3133136,54.0515729 32.3133136,55.7075729 C32.3133136,57.3645729 33.6563136,58.7075729 35.3133136,58.7075729 C36.9703136,58.7075729 38.3133136,57.3645729 38.3133136,55.7075729 C38.3133136,54.0515729 36.9703136,52.7075729 35.3133136,52.7075729 L35.3133136,52.7075729 Z M45.7103136,46.3615729 C45.1343136,44.9975729 43.5623136,44.3595729 42.1993136,44.9345729 C40.8353136,45.5105729 40.1973136,47.0825729 40.7723136,48.4455729 L42.4433136,52.4035729 L47.3813136,50.3185729 L45.7103136,46.3615729 Z M49.4403136,55.1965729 L47.7693136,51.2395729 L42.8323136,53.3245729 L44.5033136,57.2815729 C45.0793136,58.6445729 46.6503136,59.2835729 48.0143136,58.7075729 C49.3773136,58.1325729 50.0163136,56.5605729 49.4403136,55.1965729 L49.4403136,55.1965729 Z" id="Icon_Vaksiner" fill="#000000"></path>
    </g>
</svg>