<?xml version="1.0" encoding="UTF-8"?>
<svg width="64px" height="64px" viewBox="0 0 64 64" version="1.1" xmlns="http://www.w3.org/2000/svg" xmlns:xlink="http://www.w3.org/1999/xlink">
    <!-- Generator: Sketch 55.1 (78136) - https://sketchapp.com -->
    <title>Verktøy</title>
    <desc>Created with Sketch.</desc>
    <g id="Verktøy" stroke="none" stroke-width="1" fill="none" fill-rule="evenodd">
        <path d="M19.0089,34.8453 C19.0089,30.1893 20.9189,25.9753 24.0059,22.9243 C20.9189,25.9753 19.0079,30.1893 19.0079,34.8453 C19.0079,40.6973 22.0279,45.8443 26.6059,48.8673 C22.0279,45.8443 19.0089,40.6973 19.0089,34.8453" id="Fill-1" fill="#33393C"></path>
        <g id="Group-3" transform="translate(7.000000, 1.000000)" fill="#000000">
            <g id="Group" transform="translate(5.748870, 0.000000)">
                <path d="M6.82092962,12.3682019 C8.45192962,11.6992019 10.5479296,12.3302019 12.4239296,14.0642019 L13.7809296,15.3192019 L15.1389296,14.0642019 C17.0129296,12.3312019 19.1079296,11.6982019 20.7409296,12.3682019 C23.5449296,13.5212019 24.3919296,18.1932019 22.5919296,22.5692019 C21.0719296,26.2642019 18.0189296,28.8642019 15.3209296,28.7632019 C14.8099296,28.7422019 14.2959296,28.7322019 13.7809296,28.7322019 C13.2669296,28.7322019 12.7529296,28.7422019 12.2409296,28.7632019 C9.55092962,28.8662019 6.48992962,26.2642019 4.96992962,22.5692019 C3.16992962,18.1932019 4.01792962,13.5212019 6.82092962,12.3682019 M12.3979296,32.7592019 C13.3159296,32.7232019 14.2469296,32.7232019 15.1639296,32.7592019 C15.2659296,32.7642019 15.3669296,32.7652019 15.4689296,32.7652019 C19.7559296,32.7652019 24.1719296,29.2442019 26.2909296,24.0912019 C29.0069296,17.4902019 27.2379296,10.7162019 22.2639296,8.66920188 L22.2629296,8.66920188 C20.0359296,7.75320188 17.5199296,7.97720188 15.1499296,9.20520188 C15.0089296,5.80020188 13.6439296,1.95820188 11.3709296,0.644201881 C10.8919296,0.368201881 10.2799296,0.531201881 10.0049296,1.01120188 C9.72792962,1.48820188 9.89192962,2.10020188 10.3699296,2.37720188 C11.9399296,3.28420188 13.1459296,6.65520188 13.1729296,9.64120188 C10.5889296,8.03920188 7.76792962,7.65520188 5.29892962,8.66920188 C0.324929616,10.7162019 -1.44407038,17.4902019 1.27092962,24.0912019 C3.44192962,29.3652019 8.00792962,32.9092019 12.3979296,32.7592019" id="Fill-1"></path>
                <path d="M22.1749296,5.57060188 C24.4389296,3.91160188 24.5929296,0.270601881 24.5929296,0.270601881 C24.5929296,0.270601881 21.0749296,-0.679398119 18.8109296,0.980601881 C16.5469296,2.63960188 15.4639296,5.01260188 16.3929296,6.27960188 C17.3219296,7.54760188 19.9109296,7.22960188 22.1749296,5.57060188" id="Fill-3"></path>
                <path d="M11.1004296,21.3091019 C11.6544296,20.7551019 11.7644296,19.9681019 11.3464296,19.5501019 C10.9294296,19.1321019 10.1414296,19.2431019 9.58742962,19.7961019 C9.03442962,20.3501019 8.92342962,21.1381019 9.34142962,21.5551019 C9.75942962,21.9731019 10.5464296,21.8631019 11.1004296,21.3091019" id="Fill-6"></path>
                <path d="M18.2211296,21.5555019 C18.6391296,21.1375019 18.5281296,20.3505019 17.9751296,19.7965019 C17.4211296,19.2425019 16.6331296,19.1325019 16.2161296,19.5505019 C15.7981296,19.9675019 15.9081296,20.7555019 16.4621296,21.3095019 C17.0161296,21.8625019 17.8031296,21.9735019 18.2211296,21.5555019" id="Fill-8"></path>
            </g>
            <g id="Group-2" transform="translate(0.000000, 34.714902)">
                <path d="M16.1411,16.2832 L2.0001,16.2832 C0.8961,16.2832 0.0001,17.1792 0.0001,18.2832 C0.0001,19.3872 0.8961,20.2832 2.0001,20.2832 L16.1411,20.2832 L18.7371,20.2832 L27.4771,20.2832 L27.4771,16.2832 L18.7371,16.2832 L16.1411,16.2832 Z" id="Fill-10"></path>
                <path d="M39.999,7.10542736e-15 L9.785,7.10542736e-15 L2,7.10542736e-15 C0.896,7.10542736e-15 3.19744231e-14,0.896 3.19744231e-14,2 C3.19744231e-14,3.104 0.896,4 2,4 L9.785,4 L39.999,4 C43.386,4 46.141,6.755 46.141,10.142 C46.141,13.528 43.386,16.283 39.999,16.283 L36.589,16.283 L36.589,20.283 L39.999,20.283 C45.591,20.283 50.141,15.733 50.141,10.142 C50.141,4.55 45.591,7.10542736e-15 39.999,7.10542736e-15" id="Fill-13"></path>
                <polygon id="Fill-16" points="6.0835 8.6348 40.2315 8.6348 40.2315 7.1348 6.0835 7.1348"></polygon>
                <polygon id="Fill-18" points="40.2319 13.1484 40.2319 11.6484 6.0839 11.6484 6.0839 13.1484 29.6889 13.1484 29.6889 26.5754 32.0989 24.7134 34.5089 26.5754 34.5089 13.1484"></polygon>
            </g>
        </g>
    </g>
</svg>