<svg xmlns="http://www.w3.org/2000/svg" xmlns:xlink="http://www.w3.org/1999/xlink" width="95" height="99" viewBox="0 0 95 99">
  <defs>
    <polygon id="editorial-illustration-a" points="0 .922 69.196 .922 69.196 92.653 0 92.653"/>
  </defs>
  <g fill="none" fill-rule="evenodd" transform="translate(0 -1)">
    <polygon fill="#D7ECED" points="1 2 1 91.732 68.133 90.82 68.196 57.003 56.871 67.246 49.572 69.151 51.959 61.995 68.196 46.486 68.196 13.327 57.483 2"/>
    <polygon fill="#69C1BD" points="85.982 30.174 90.409 34.908 56.871 67.246 51.959 61.995"/>
    <g transform="translate(0 .079)">
      <path fill="#1D1D1B" d="M73.8423 98.9996L6.6463 98.9996C6.0933 98.9996 5.6463 98.5526 5.6463 97.9996L5.6463 92.0216C5.6463 91.4696 6.0933 91.0216 6.6463 91.0216 7.1983 91.0216 7.6463 91.4696 7.6463 92.0216L7.6463 96.9996 72.8423 96.9996 72.8423 51.8736C72.8423 51.3206 73.2893 50.8736 73.8423 50.8736 74.3953 50.8736 74.8423 51.3206 74.8423 51.8736L74.8423 97.9996C74.8423 98.5526 74.3953 98.9996 73.8423 98.9996M73.8423 42.2652C73.2893 42.2652 72.8423 41.8182 72.8423 41.2652L72.8423 9.2682 63.2173 9.2682C62.6643 9.2682 62.2173 8.8212 62.2173 8.2682 62.2173 7.7152 62.6643 7.2682 63.2173 7.2682L73.8423 7.2682C74.3953 7.2682 74.8423 7.7152 74.8423 8.2682L74.8423 41.2652C74.8423 41.8182 74.3953 42.2652 73.8423 42.2652"/>
      <path fill="#1D1D1B" d="M68.1958,47.4078 C67.6428,47.4078 67.1958,46.9608 67.1958,46.4078 L67.1958,13.6038 C67.1958,13.0518 67.6428,12.6038 68.1958,12.6038 C68.7488,12.6038 69.1958,13.0518 69.1958,13.6038 L69.1958,46.4078 C69.1958,46.9608 68.7488,47.4078 68.1958,47.4078"/>
      <mask id="editorial-illustration-b" fill="#fff">
        <use xlink:href="#editorial-illustration-a"/>
      </mask>
      <path fill="#1D1D1B" d="M68.1958,92.6529 L0.9998,92.6529 C0.4468,92.6529 -0.0002,92.2059 -0.0002,91.6529 L-0.0002,1.9219 C-0.0002,1.3689 0.4468,0.9219 0.9998,0.9219 L56.5748,0.9219 C57.1278,0.9219 57.5748,1.3689 57.5748,1.9219 C57.5748,2.4739 57.1278,2.9219 56.5748,2.9219 L1.9998,2.9219 L1.9998,90.6529 L67.1958,90.6529 L67.1958,56.9239 C67.1958,56.3709 67.6428,55.9239 68.1958,55.9239 C68.7488,55.9239 69.1958,56.3709 69.1958,56.9239 L69.1958,91.6529 C69.1958,92.2059 68.7488,92.6529 68.1958,92.6529" mask="url(#editorial-illustration-b)"/>
      <path fill="#1D1D1B" d="M53.3716,61.9625 L56.9166,65.7545 L89.4786,35.2995 L85.9346,31.5085 L53.3716,61.9625 Z M56.8696,68.1675 C56.8586,68.1675 56.8476,68.1675 56.8366,68.1665 C56.5706,68.1575 56.3206,68.0445 56.1396,67.8505 L51.2276,62.5985 C50.8506,62.1945 50.8726,61.5625 51.2756,61.1855 L85.2986,29.3645 C85.6996,28.9885 86.3336,29.0085 86.7116,29.4125 L91.6226,34.6635 C91.9996,35.0665 91.9786,35.6995 91.5746,36.0765 L57.5526,67.8985 C57.3666,68.0715 57.1226,68.1675 56.8696,68.1675 L56.8696,68.1675 Z"/>
      <path fill="#1D1D1B" d="M90.4087 35.8287C90.1367 35.8287 89.8657 35.7187 89.6677 35.5007 89.2977 35.0917 89.3277 34.4587 89.7367 34.0877 90.0347 33.8127 90.8217 32.9027 90.8547 32.0277 90.8697 31.6177 90.7207 31.2587 90.3847 30.8987 90.1147 30.6117 89.8337 30.4747 89.4997 30.4687 89.4907 30.4677 89.4817 30.4677 89.4727 30.4677 88.6347 30.4677 87.6737 31.2357 87.3717 31.5347 86.9787 31.9227 86.3467 31.9217 85.9587 31.5307 85.5697 31.1417 85.5677 30.5117 85.9577 30.1207 86.1277 29.9497 87.6587 28.4677 89.4737 28.4677 89.4917 28.4677 89.5097 28.4677 89.5267 28.4687 90.4047 28.4817 91.2067 28.8497 91.8457 29.5327 92.5437 30.2797 92.8907 31.1737 92.8527 32.1157 92.7757 33.9797 91.2537 35.4127 91.0807 35.5697 90.8887 35.7427 90.6487 35.8287 90.4087 35.8287M73.0435 53.0953C72.7765 53.0953 72.5105 52.9893 72.3135 52.7783L67.4015 47.5263C67.0245 47.1223 67.0465 46.4903 67.4495 46.1133 67.8525 45.7373 68.4845 45.7563 68.8625 46.1603L73.7735 51.4123C74.1505 51.8163 74.1295 52.4493 73.7265 52.8253 73.5335 53.0063 73.2885 53.0953 73.0435 53.0953M49.5708 70.0709C49.2978 70.0709 49.0318 69.9589 48.8408 69.7539 48.5898 69.4859 48.5068 69.1019 48.6228 68.7549L51.0098 61.5989C51.1848 61.0759 51.7528 60.7909 52.2748 60.9669 52.7998 61.1419 53.0818 61.7089 52.9068 62.2319L51.1028 67.6379 56.6178 66.1999C57.1458 66.0659 57.6978 66.3809 57.8378 66.9159 57.9768 67.4499 57.6568 67.9959 57.1218 68.1349L49.8228 70.0389C49.7398 70.0599 49.6548 70.0709 49.5708 70.0709"/>
      <path fill="#1D1D1B" d="M79.8579966 52.2037C79.582 52.2037 79.307 52.0897 79.109 51.8667 78.743 51.4527 78.782 50.8207 79.195 50.4547 79.276 50.3837 86.963 43.5727 92.257 38.2697L90.162 36.0287C89.785 35.6257 89.805 34.9927 90.21 34.6157 90.612 34.2387 91.245 34.2587 91.623 34.6637L94.376 37.6067C94.742 37.9977 94.734 38.6077 94.3579966 38.9907 89.022 44.4217 80.605 51.8777 80.521 51.9527 80.331 52.1207 80.094 52.2037 79.8579966 52.2037M47.6246 16.2213L9.3866 16.2213C8.8336 16.2213 8.3866 15.7743 8.3866 15.2213 8.3866 14.6683 8.8336 14.2213 9.3866 14.2213L47.6246 14.2213C48.1776 14.2213 48.6246 14.6683 48.6246 15.2213 48.6246 15.7743 48.1776 16.2213 47.6246 16.2213M30.4107 25.981L9.3867 25.981C8.8337 25.981 8.3867 25.534 8.3867 24.981 8.3867 24.428 8.8337 23.981 9.3867 23.981L30.4107 23.981C30.9637 23.981 31.4107 24.428 31.4107 24.981 31.4107 25.534 30.9637 25.981 30.4107 25.981M53.7417 25.981L36.2867 25.981C35.7337 25.981 35.2867 25.534 35.2867 24.981 35.2867 24.428 35.7337 23.981 36.2867 23.981L53.7417 23.981C54.2947 23.981 54.7417 24.428 54.7417 24.981 54.7417 25.534 54.2947 25.981 53.7417 25.981M18.1412 31.6803L9.4132 31.6803C8.8612 31.6803 8.4132 31.2333 8.4132 30.6803 8.4132 30.1273 8.8612 29.6803 9.4132 29.6803L18.1412 29.6803C18.6942 29.6803 19.1412 30.1273 19.1412 30.6803 19.1412 31.2333 18.6942 31.6803 18.1412 31.6803M32.4957 31.6803L23.7677 31.6803C23.2157 31.6803 22.7677 31.2333 22.7677 30.6803 22.7677 30.1273 23.2157 29.6803 23.7677 29.6803L32.4957 29.6803C33.0487 29.6803 33.4957 30.1273 33.4957 30.6803 33.4957 31.2333 33.0487 31.6803 32.4957 31.6803M52.0425 31.6803L37.9865 31.6803C37.4345 31.6803 36.9865 31.2333 36.9865 30.6803 36.9865 30.1273 37.4345 29.6803 37.9865 29.6803L52.0425 29.6803C52.5955 29.6803 53.0425 30.1273 53.0425 30.6803 53.0425 31.2333 52.5955 31.6803 52.0425 31.6803M27.0484 37.3795L9.4134 37.3795C8.8614 37.3795 8.4134 36.9325 8.4134 36.3795 8.4134 35.8265 8.8614 35.3795 9.4134 35.3795L27.0484 35.3795C27.6014 35.3795 28.0484 35.8265 28.0484 36.3795 28.0484 36.9325 27.6014 37.3795 27.0484 37.3795M41.1978 37.3795L32.4698 37.3795C31.9178 37.3795 31.4698 36.9325 31.4698 36.3795 31.4698 35.8265 31.9178 35.3795 32.4698 35.3795L41.1978 35.3795C41.7508 35.3795 42.1978 35.8265 42.1978 36.3795 42.1978 36.9325 41.7508 37.3795 41.1978 37.3795M23.2681 48.7769L9.3861 48.7769C8.8331 48.7769 8.3861 48.3299 8.3861 47.7769 8.3861 47.2239 8.8331 46.7769 9.3861 46.7769L23.2681 46.7769C23.8211 46.7769 24.2681 47.2239 24.2681 47.7769 24.2681 48.3299 23.8211 48.7769 23.2681 48.7769M36.8345 48.7769L28.1065 48.7769C27.5545 48.7769 27.1065 48.3299 27.1065 47.7769 27.1065 47.2239 27.5545 46.7769 28.1065 46.7769L36.8345 46.7769C37.3875 46.7769 37.8345 47.2239 37.8345 47.7769 37.8345 48.3299 37.3875 48.7769 36.8345 48.7769M50.6265 48.7769L41.8985 48.7769C41.3465 48.7769 40.8985 48.3299 40.8985 47.7769 40.8985 47.2239 41.3465 46.7769 41.8985 46.7769L50.6265 46.7769C51.1795 46.7769 51.6265 47.2239 51.6265 47.7769 51.6265 48.3299 51.1795 48.7769 50.6265 48.7769M28.8091 54.4762L9.4131 54.4762C8.8611 54.4762 8.4131 54.0292 8.4131 53.4762 8.4131 52.9232 8.8611 52.4762 9.4131 52.4762L28.8091 52.4762C29.3621 52.4762 29.8091 52.9232 29.8091 53.4762 29.8091 54.0292 29.3621 54.4762 28.8091 54.4762M48.2261 54.4762L34.1701 54.4762C33.6181 54.4762 33.1701 54.0292 33.1701 53.4762 33.1701 52.9232 33.6181 52.4762 34.1701 52.4762L48.2261 52.4762C48.7791 52.4762 49.2261 52.9232 49.2261 53.4762 49.2261 54.0292 48.7791 54.4762 48.2261 54.4762M21.8501 70.0709L9.4131 70.0709C8.8611 70.0709 8.4131 69.6239 8.4131 69.0709 8.4131 68.5179 8.8611 68.0709 9.4131 68.0709L21.8501 68.0709C22.4031 68.0709 22.8501 68.5179 22.8501 69.0709 22.8501 69.6239 22.4031 70.0709 21.8501 70.0709M32.9898 70.0709L26.4258 70.0709C25.8728 70.0709 25.4258 69.6239 25.4258 69.0709 25.4258 68.5179 25.8728 68.0709 26.4258 68.0709L32.9898 68.0709C33.5428 68.0709 33.9898 68.5179 33.9898 69.0709 33.9898 69.6239 33.5428 70.0709 32.9898 70.0709M49.5708 70.0709L37.9868 70.0709C37.4338 70.0709 36.9868 69.6239 36.9868 69.0709 36.9868 68.5179 37.4338 68.0709 37.9868 68.0709L49.5708 68.0709C50.1238 68.0709 50.5708 68.5179 50.5708 69.0709 50.5708 69.6239 50.1238 70.0709 49.5708 70.0709M17.6802 60.1754L9.4132 60.1754C8.8612 60.1754 8.4132 59.7284 8.4132 59.1754 8.4132 58.6224 8.8612 58.1754 9.4132 58.1754L17.6802 58.1754C18.2332 58.1754 18.6802 58.6224 18.6802 59.1754 18.6802 59.7284 18.2332 60.1754 17.6802 60.1754M30.5582 60.1754L22.2912 60.1754C21.7392 60.1754 21.2912 59.7284 21.2912 59.1754 21.2912 58.6224 21.7392 58.1754 22.2912 58.1754L30.5582 58.1754C31.1112 58.1754 31.5582 58.6224 31.5582 59.1754 31.5582 59.7284 31.1112 60.1754 30.5582 60.1754M44.608 60.1754L35.88 60.1754C35.328 60.1754 34.88 59.7284 34.88 59.1754 34.88 58.6224 35.328 58.1754 35.88 58.1754L44.608 58.1754C45.161 58.1754 45.608 58.6224 45.608 59.1754 45.608 59.7284 45.161 60.1754 44.608 60.1754M57.8697 12.2467L65.7817 12.2467 57.8697 4.3357 57.8697 12.2467zM68.1957 14.2467L56.8697 14.2467C56.3167 14.2467 55.8697 13.7997 55.8697 13.2467L55.8697 1.9217C55.8697 1.5177 56.1127 1.1517 56.4867.9977 56.8617.8417 57.2907.9287 57.5767 1.2147L68.9027 12.5397C69.1887 12.8257 69.2747 13.2557 69.1197 13.6297 68.9657 14.0037 68.5997 14.2467 68.1957 14.2467L68.1957 14.2467z"/>
    </g>
  </g>
</svg>
