<?xml version="1.0" encoding="UTF-8"?>
<svg width="95px" height="46px" viewBox="0 0 95 46" version="1.1" xmlns="http://www.w3.org/2000/svg" xmlns:xlink="http://www.w3.org/1999/xlink">
    <!-- Generator: Sketch 61.2 (89653) - https://sketch.com -->
    <title>HN_logo_midlertidig</title>
    <desc>Created with Sketch.</desc>
    <g id="Symbols" stroke="none" stroke-width="1" fill="none" fill-rule="evenodd">
        <g id="HN-logo/Pos/Normal" transform="translate(0.000000, 1.000000)" fill="#000000">
            <path d="M66.8876319,34.0837057 C65.1086049,34.0837057 63.6605919,32.6017603 63.6605919,30.7804909 C63.6605919,28.9592216 65.1086049,27.4772762 66.8876319,27.4772762 C68.6666589,27.4772762 70.1146719,28.9592216 70.1146719,30.7804909 C70.1146719,32.6017603 68.6666589,34.0837057 66.8876319,34.0837057 L66.8876319,34.0837057 Z M66.9804266,37.8682064 C69.3037569,37.8682064 71.194276,39.1257825 71.194276,40.6721302 C71.194276,42.2184779 69.3037569,43.476054 66.9804266,43.476054 C64.6564038,43.476054 62.7665772,42.2184779 62.7665772,40.6721302 C62.7665772,39.1257825 64.6564038,37.8682064 66.9804266,37.8682064 L66.9804266,37.8682064 Z M66.8876319,26.1061305 C64.3523973,26.1061305 62.2901387,28.203014 62.2901387,30.7804909 C62.2901387,32.8233596 63.5712597,34.607234 65.4825538,35.2311746 C64.6827188,36.0171597 62.6010702,38.0690308 62.3676985,38.3190225 C61.7319854,39.0135978 61.396124,39.8272828 61.396124,40.6721302 C61.396124,42.973993 63.9015812,44.8465072 66.9804266,44.8465072 C70.059272,44.8465072 72.5640367,42.973993 72.5640367,40.6721302 C72.5640367,38.3702673 70.059272,36.4970607 66.9804266,36.4970607 C66.6383327,36.4970607 66.2962387,36.5212981 65.9576073,36.5690804 C66.2526114,36.2560714 66.6494126,35.8412652 67.025439,35.4513889 C69.4948863,35.3765991 71.4851251,33.3046456 71.4851251,30.7804909 C71.4851251,30.3379848 71.4221078,29.8968637 71.2967657,29.4668225 L73.4635915,27.9066249 L73.4635915,25.9558584 L70.5855704,28.0091146 C69.7178706,26.8131708 68.3536498,26.1061305 66.8876319,26.1061305 L66.8876319,26.1061305 Z M47.736604,0.143693732 L44.5469589,0.143693732 L44.5469589,13.8052912 L52.9732727,13.8052912 L52.9732727,11.156487 L47.736604,11.156487 L47.736604,0.143693732 Z M69.3584642,5.57149185 C68.305175,5.15183815 67.1805585,4.6539322 67.1805585,4.05699906 C67.1805585,3.19068425 67.6085222,2.80496295 68.5669392,2.80496295 C70.2026191,2.80496295 70.4131384,4.29729581 70.4214484,4.36100561 L70.4491483,4.57706494 L73.8333853,4.52097262 L73.8105329,4.26128592 C73.5439212,1.27315772 71.0800139,-0.0654406172 68.7552986,-0.0654406172 C66.7505173,-0.0654406172 63.7665441,1.02870598 63.7665441,4.04107161 C63.7665441,5.9426707 65.1868572,6.92463264 66.5760079,7.63444293 C66.8121496,7.75493756 67.1556286,7.88374216 67.5538148,8.03262919 C68.7636086,8.48413779 70.5924954,9.16763316 70.5924954,10.1641376 C70.5924954,10.3995868 70.4823882,10.7763057 70.1756117,11.0623073 C69.8452902,11.3718538 69.3757767,11.5075834 68.7719185,11.465341 C67.3668404,11.3670063 66.8384646,9.72994142 66.8329246,9.71332147 L66.7782172,9.53673452 L63.4590751,9.64130169 L63.4833125,9.89821839 C63.6730569,11.8919197 65.236717,14.2415649 69.0191403,14.3045822 C69.0516877,14.3052747 69.0835426,14.3052747 69.11609,14.3052747 C70.9775242,14.3052747 72.7863286,13.404335 73.5390737,12.0920516 C74.1193869,11.0803122 74.1595518,9.3165202 73.1131875,7.9024396 C72.3860648,6.91978516 71.0862463,6.25983471 69.3584642,5.57149185 L69.3584642,5.57149185 Z M87.9631114,33.2070034 L92.1492608,33.2070034 L92.1492608,30.3490648 L87.9513389,30.3490648 L87.9513389,27.7563528 L93.8320306,27.7563528 L93.8320306,25.2017283 L84.6709766,25.2017283 L84.6709766,38.8169284 L94.0003076,38.8169284 L94.0003076,36.2069041 L87.9631114,36.2069041 L87.9631114,33.2070034 Z M46.2401161,26.588109 L44.7394733,26.588109 L44.7394733,39.0939276 L46.2401161,39.0939276 L46.2401161,31.239617 L50.8708492,27.9066249 L50.8708492,25.9558584 L46.2401161,29.1745884 L46.2401161,26.588109 Z M85.1813475,7.01188737 C85.4666566,4.56875497 87.2505311,2.69139331 89.3356421,2.69139331 C91.4713054,2.69139331 92.7891288,4.26197842 92.9774883,7.01188737 L85.1813475,7.01188737 Z M94.3860289,7.70438522 C94.3860289,3.75783999 92.4511899,1.30639762 89.3356421,1.30639762 C86.2595666,1.30639762 83.7561869,4.17610869 83.7561869,7.70438522 C83.7561869,11.2319692 86.2595666,14.1023728 89.3356421,14.1023728 C91.2116187,14.1023728 92.9504808,13.0324636 93.9864576,11.2409717 L94.1083372,11.0304524 L92.908931,10.3379545 L92.7877438,10.5477814 C92.0017588,11.9064621 90.7109428,12.7173771 89.3356421,12.7173771 C87.2505311,12.7173771 85.4666566,10.8400155 85.1813475,8.39688306 L94.3860289,8.39688306 L94.3860289,7.70438522 Z M7.67075609,5.24255537 L3.24846485,5.24255537 L3.24846485,0.143693732 L0.185546875,0.143693732 L0.185546875,13.7720513 L3.34195206,13.7720513 L3.34195206,8.33871324 L7.74970085,8.33871324 L7.74970085,13.8219112 L10.8174663,13.8219112 L10.8174663,0.143693732 L7.67075609,0.143693732 L7.67075609,5.24255537 Z M31.7807611,11.1488695 L25.7435649,11.1488695 L25.7435649,8.14896883 L29.9290219,8.14896883 L29.9290219,5.29172272 L25.7310999,5.29172272 L25.7310999,2.69831829 L31.6124841,2.69831829 L31.6124841,0.143693732 L22.4500451,0.143693732 L22.4500451,13.7588939 L31.7807611,13.7588939 L31.7807611,11.1488695 Z M6.11055845,26.1774578 C4.69093786,26.1774578 3.40081437,26.895578 2.2665029,28.3145061 L2.2665029,26.588109 L0.76586007,26.588109 L0.76586007,39.0939276 L2.2665029,39.0939276 L2.2665029,32.0816944 C2.2665029,29.9993534 4.00951998,27.7535829 5.72068216,27.6330882 C6.67771418,27.5659159 7.39791194,27.7612003 7.93321278,28.2314064 C8.58762324,28.8082571 8.96018708,29.8310764 9.04120933,31.2714719 C9.15893396,33.3635079 9.11876909,38.795461 9.11876909,38.8501683 L9.1166916,39.0939276 L10.4899148,39.0939276 L10.4899148,30.9134505 C10.4899148,28.5596503 8.9858095,26.1774578 6.11055845,26.1774578 L6.11055845,26.1774578 Z M27.0302259,37.8148841 C24.7304405,37.8148841 22.8600038,35.5448761 22.8600038,32.7541098 C22.8600038,29.9633435 24.7304405,27.6933355 27.0302259,27.6933355 C29.3293187,27.6933355 31.2004479,29.9633435 31.2004479,32.7541098 C31.2004479,35.5448761 29.3293187,37.8148841 27.0302259,37.8148841 L27.0302259,37.8148841 Z M27.0302259,26.3076474 C23.9673079,26.3076474 21.4750082,29.1995184 21.4750082,32.7541098 C21.4750082,36.3080087 23.9673079,39.1998798 27.0302259,39.1998798 C30.0924514,39.1998798 32.5847511,36.3080087 32.5847511,32.7541098 C32.5847511,29.1995184 30.0924514,26.3076474 27.0302259,26.3076474 L27.0302259,26.3076474 Z" id="HN_logo_midlertidig"></path>
        </g>
    </g>
</svg>