<svg id="Layer_1" data-name="Layer 1" xmlns="http://www.w3.org/2000/svg" viewBox="0 0 260 58"><defs><style>.cls-1{fill:#d8d8d8;}.cls-2{fill-rule:evenodd;}</style></defs><title>logo_helsenorge_design</title><path d="M156.1,27.45c0-5.27,3.36-8.6,7.24-8.6a7.53,7.53,0,0,1,4.93,2l-.07-3V11.13h1.5V35.58h-1.29l-.14-2.11h-.1A7.68,7.68,0,0,1,162.86,36C158.75,36,156.1,33,156.1,27.45ZM168.2,32V22.28a6.88,6.88,0,0,0-4.76-2.1c-3.26,0-5.74,3.16-5.74,7.27,0,4.32,1.9,7.21,5.37,7.21C164.87,34.66,166.47,33.71,168.2,32Z"/><path d="M176.63,27.45c0-5.34,3.47-8.6,7.11-8.6,3.88,0,6.26,2.75,6.26,7.55a4.59,4.59,0,0,1-.11,1.22H178.17c.06,4.12,2.48,7.07,6.15,7.07a7.16,7.16,0,0,0,4.38-1.46l.62,1.16a9.16,9.16,0,0,1-5.14,1.6C180,36,176.63,32.79,176.63,27.45Zm11.94-1.05c0-4.18-1.87-6.26-4.8-6.26s-5.27,2.35-5.6,6.26Z"/><path d="M194.42,33.74l.88-1.12a7.55,7.55,0,0,0,5.2,2.07c2.55,0,3.88-1.49,3.88-3.23,0-2-2.11-2.92-4-3.6-2.48-.88-5.07-1.87-5.07-4.66,0-2.38,1.84-4.35,5.24-4.35a7.56,7.56,0,0,1,4.69,1.7l-.81,1.05a6.39,6.39,0,0,0-3.91-1.46c-2.55,0-3.71,1.46-3.71,3,0,1.87,1.8,2.58,3.74,3.3,2.55,1,5.34,1.8,5.34,5,0,2.44-2,4.59-5.51,4.59A9.47,9.47,0,0,1,194.42,33.74Z"/><path d="M211.76,13.92a1.29,1.29,0,1,1,2.58,0,1.29,1.29,0,1,1-2.58,0Zm.51,5.34h1.49V35.58h-1.49Z"/><path d="M220.73,38.91A5.16,5.16,0,0,1,223.15,35v-.13a2.91,2.91,0,0,1-1.43-2.62,3.82,3.82,0,0,1,1.77-3v-.14a6.07,6.07,0,0,1-2-4.48,5.61,5.61,0,0,1,5.74-5.75,5.68,5.68,0,0,1,2.14.41h5.55v1.26h-3.81a5.43,5.43,0,0,1,1.8,4.11,5.58,5.58,0,0,1-5.68,5.75,5.68,5.68,0,0,1-2.72-.68A2.92,2.92,0,0,0,223.15,32c0,1.19.68,2.14,3.12,2.14h3.51c3.67,0,5.37,1.16,5.37,3.74,0,2.83-3,5.51-7.72,5.51C223.32,43.43,220.73,41.66,220.73,38.91Zm12.89-.82c0-1.8-1.33-2.48-3.78-2.48h-3.5a10.37,10.37,0,0,1-2-.27,4.28,4.28,0,0,0-2.14,3.43c0,2,2,3.44,5.44,3.44C231.27,42.21,233.62,40.13,233.62,38.09ZM231.41,24.6a4.24,4.24,0,1,0-8.47,0,4.25,4.25,0,1,0,8.47,0Z"/><path d="M240.69,19.26H242l.14,2.51h.1c1.67-1.66,3.37-2.92,5.61-2.92,3.37,0,4.93,2,4.93,6.26V35.58h-1.5V25.31c0-3.47-1.08-5.1-3.74-5.1-1.93,0-3.33,1-5.33,3.06V35.58h-1.5Z"/><rect class="cls-1" x="134.29" y="4.51" width="2" height="42.36"/><path class="cls-2" d="M34.53,33c-3.31,0-6,3.13-6,7s2.7,7,6,7,6-3.13,6-7S37.84,33,34.53,33Zm0,12.45C32,45.48,30,43,30,40s2-5.48,4.51-5.48S39,37,39,40,37,45.48,34.53,45.48ZM11.9,32.89A5.31,5.31,0,0,0,7.75,35.2V33.34H6.12V46.86H7.75V39.28c0-2.25,1.88-4.68,3.73-4.81a3.06,3.06,0,0,1,2.39.64,4.58,4.58,0,0,1,1.2,3.29c.13,2.26.09,8.14.09,8.2v.26h1.48V38C16.64,35.47,15,32.89,11.9,32.89ZM39.67,16.64H33.14V13.39h4.53V10.3H33.13V7.5h6.36V4.73H29.58V19.46H39.67ZM13.59,10.25H8.81V4.73H5.49V19.47H8.91V13.6h4.77v5.93H17V4.73h-3.4Zm93.8,2.66c0-4.27-2.1-6.92-5.47-6.92s-6,3.1-6,6.92,2.71,6.92,6,6.92a5.87,5.87,0,0,0,5-3.09l.13-.23-1.29-.75-.13.23a4.38,4.38,0,0,1-3.74,2.34c-2.25,0-4.18-2-4.49-4.67h10Zm-10-.75c.31-2.64,2.24-4.67,4.49-4.67s3.74,1.7,3.94,4.67ZM55.31,33.34H53.69V46.86h1.62V38.37l5-3.61V32.65l-5,3.48Zm45.13,7.15H105V37.4h-4.54V34.6h6.36V31.84H96.88V46.56H107V43.74h-6.53ZM80.31,10.6C79.18,10.15,78,9.61,78,9c0-.94.46-1.36,1.5-1.36a1.93,1.93,0,0,1,2,1.68l0,.24,3.66-.06,0-.28C84.84,6,82.18,4.51,79.66,4.51c-2.17,0-5.39,1.18-5.39,4.44,0,2.05,1.53,3.12,3,3.88.26.14.63.27,1.06.44,1.31.48,3.29,1.22,3.29,2.3a1.4,1.4,0,0,1-.45,1,1.94,1.94,0,0,1-1.52.44c-1.52-.11-2.09-1.88-2.1-1.9l-.06-.19L73.93,15l0,.27c.21,2.16,1.9,4.7,6,4.77h.1a5.61,5.61,0,0,0,4.79-2.39,4.37,4.37,0,0,0-.46-4.54C83.59,12.06,82.18,11.35,80.31,10.6ZM56.93,4.73H53.48V19.51h9.11V16.64H56.93ZM77.64,32.81a5.07,5.07,0,0,0-1.52,9.87c-.86.85-3.11,3.07-3.37,3.34a3.82,3.82,0,0,0-1,2.55c0,2.49,2.71,4.51,6,4.51s6-2,6-4.51-2.71-4.52-6-4.52a8,8,0,0,0-1.1.08c.32-.34.74-.79,1.15-1.21a5,5,0,0,0,4.82-5.05,4.87,4.87,0,0,0-.2-1.42l2.34-1.69V32.65l-3.11,2.22A4.94,4.94,0,0,0,77.64,32.81Zm.1,12.73c2.52,0,4.56,1.36,4.56,3s-2,3-4.56,3-4.56-1.36-4.56-3S75.23,45.54,77.74,45.54Zm-.1-4.1a3.57,3.57,0,1,1,3.49-3.57A3.54,3.54,0,0,1,77.64,41.44Z"/></svg>