<svg xmlns="http://www.w3.org/2000/svg" xmlns:xlink="http://www.w3.org/1999/xlink" width="133" height="100" viewBox="0 0 133 100">
  <defs>
    <polygon id="material-illustration-a" points=".29 .248 55.133 .248 55.133 28.335 .29 28.335"/>
    <polygon id="material-illustration-c" points=".47 .248 42.133 .248 42.133 14.16 .47 14.16"/>
    <polygon id="material-illustration-e" points="0 100 132.962 100 132.962 .248 0 .248"/>
  </defs>
  <g fill="none" fill-rule="evenodd" transform="translate(0 -1)">
    <polygon fill="#69C1BD" points="35.315 40.025 42.192 40.025 42.192 33.149 35.315 33.149"/>
    <polygon fill="#69C1BD" points="105.495 31.268 111.164 31.268 111.164 25.599 105.495 25.599"/>
    <polygon fill="#D7ECED" points="37.471 28.024 37.471 13.913 89.615 13.913 90.314 44.496 82.959 44.752 82.671 21.559 45.371 21.72 45.017 27.948"/>
    <polygon fill="#D7ECED" points="47.985 47.984 62.033 47.984 62.271 83.529 90.313 84.041 90.313 99.752 38.754 99.752 37.47 99.752 37.47 57.167 46.987 56.922 47.864 55.307"/>
    <polygon fill="#69C1BD" points="45.017 93.575 67.561 93.575 67.561 87.586 45.017 87.586"/>
    <g transform="translate(0 .752)">
      <g transform="translate(23)">
        <mask id="material-illustration-b" fill="#fff">
          <use xlink:href="#material-illustration-a"/>
        </mask>
        <path fill="#1D1D1B" d="M1.2898,28.3347 C0.7368,28.3347 0.2898,27.8877 0.2898,27.3347 L0.2898,1.2477 C0.2898,0.6947 0.7368,0.2477 1.2898,0.2477 L54.1328,0.2477 C54.6858,0.2477 55.1328,0.6947 55.1328,1.2477 L55.1328,12.7987 C55.1328,13.3517 54.6858,13.7987 54.1328,13.7987 C53.5798,13.7987 53.1328,13.3517 53.1328,12.7987 L53.1328,2.2477 L2.2898,2.2477 L2.2898,27.3347 C2.2898,27.8877 1.8428,28.3347 1.2898,28.3347" mask="url(#material-illustration-b)"/>
      </g>
      <path fill="#1D1D1B" d="M37.1531,88.0876 L24.2901,88.0876 C23.7371,88.0876 23.2901,87.6406 23.2901,87.0876 L23.2901,56.4136 C23.2901,55.8606 23.7371,55.4136 24.2901,55.4136 C24.8421,55.4136 25.2901,55.8606 25.2901,56.4136 L25.2901,86.0876 L37.1531,86.0876 C37.7061,86.0876 38.1531,86.5346 38.1531,87.0876 C38.1531,87.6406 37.7061,88.0876 37.1531,88.0876"/>
      <path fill="#1D1D1B" d="M90.3133 99.9997L37.4703 99.9997C36.9173 99.9997 36.4703 99.5527 36.4703 98.9997L36.4703 56.4137C36.4703 55.8607 36.9173 55.4137 37.4703 55.4137 38.0233 55.4137 38.4703 55.8607 38.4703 56.4137L38.4703 97.9997 89.3133 97.9997 89.3133 83.2887C89.3133 82.7357 89.7603 82.2887 90.3133 82.2887 90.8663 82.2887 91.3133 82.7357 91.3133 83.2887L91.3133 98.9997C91.3133 99.5527 90.8663 99.9997 90.3133 99.9997M90.3133 44.7439C89.7603 44.7439 89.3133 44.2969 89.3133 43.7439L89.3133 14.1599 38.4703 14.1599 38.4703 27.2719C38.4703 27.8249 38.0233 28.2719 37.4703 28.2719 36.9173 28.2719 36.4703 27.8249 36.4703 27.2719L36.4703 13.1599C36.4703 12.6069 36.9173 12.1599 37.4703 12.1599L90.3133 12.1599C90.8663 12.1599 91.3133 12.6069 91.3133 13.1599L91.3133 43.7439C91.3133 44.2969 90.8663 44.7439 90.3133 44.7439"/>
      <g transform="translate(36)">
        <mask id="material-illustration-d" fill="#fff">
          <use xlink:href="#material-illustration-c"/>
        </mask>
        <path fill="#1D1D1B" d="M1.4705,14.1599 C1.0395,14.1599 0.6425,13.8809 0.5125,13.4479 C0.3545,12.9189 0.6545,12.3609 1.1825,12.2019 L40.8445,0.2899 C41.3795,0.1319 41.9315,0.4309 42.0905,0.9599 C42.2485,1.4889 41.9495,2.0469 41.4205,2.2059 L1.7585,14.1179 C1.6615,14.1459 1.5655,14.1599 1.4705,14.1599" mask="url(#material-illustration-d)"/>
      </g>
      <path fill="#1D1D1B" d="M62.033 48.2312L47.985 48.2312C47.432 48.2312 46.985 47.7842 46.985 47.2312 46.985 46.6782 47.432 46.2312 47.985 46.2312L62.033 46.2312C62.586 46.2312 63.033 46.6782 63.033 47.2312 63.033 47.7842 62.586 48.2312 62.033 48.2312M82.9588 44.9997C82.4058 44.9997 81.9588 44.5527 81.9588 43.9997L81.9588 22.0127 46.0178 22.0127 46.0178 27.1957C46.0178 27.7487 45.5698 28.1957 45.0178 28.1957 44.4648 28.1957 44.0178 27.7487 44.0178 27.1957L44.0178 21.0127C44.0178 20.4597 44.4648 20.0127 45.0178 20.0127L82.9588 20.0127C83.5118 20.0127 83.9588 20.4597 83.9588 21.0127L83.9588 43.9997C83.9588 44.5527 83.5118 44.9997 82.9588 44.9997"/>
      <mask id="material-illustration-f" fill="#fff">
        <use xlink:href="#material-illustration-e"/>
      </mask>
      <path fill="#1D1D1B" d="M46.017 91.823L66.402 91.823 66.402 88.088 46.017 88.088 46.017 91.823zM67.402 93.823L45.017 93.823C44.465 93.823 44.017 93.376 44.017 92.823L44.017 87.088C44.017 86.535 44.465 86.088 45.017 86.088L67.402 86.088C67.955 86.088 68.402 86.535 68.402 87.088L68.402 92.823C68.402 93.376 67.955 93.823 67.402 93.823L67.402 93.823zM63.271 81.777L117.355 81.777 117.355 45.168 63.271 45.168 63.271 81.777zM118.355 83.777L62.271 83.777C61.719 83.777 61.271 83.33 61.271 82.777L61.271 44.168C61.271 43.615 61.719 43.168 62.271 43.168L118.355 43.168C118.908 43.168 119.355 43.615 119.355 44.168L119.355 82.777C119.355 83.33 118.908 83.777 118.355 83.777L118.355 83.777z" mask="url(#material-illustration-f)"/>
      <path fill="#1D1D1B" d="M118.2625 51.198L62.2715 51.198C61.7185 51.198 61.2715 50.751 61.2715 50.198 61.2715 49.645 61.7185 49.198 62.2715 49.198L118.2625 49.198C118.8155 49.198 119.2625 49.645 119.2625 50.198 119.2625 50.751 118.8155 51.198 118.2625 51.198M118.2625 77.7468L62.2715 77.7468C61.7185 77.7468 61.2715 77.2998 61.2715 76.7468 61.2715 76.1938 61.7185 75.7468 62.2715 75.7468L118.2625 75.7468C118.8155 75.7468 119.2625 76.1938 119.2625 76.7468 119.2625 77.2998 118.8155 77.7468 118.2625 77.7468" mask="url(#material-illustration-f)"/>
      <path fill="#1D1D1B" d="M70.2703 51.198C69.7173 51.198 69.2703 50.751 69.2703 50.198L69.2703 44.264C69.2703 43.712 69.7173 43.264 70.2703 43.264 70.8233 43.264 71.2703 43.712 71.2703 44.264L71.2703 50.198C71.2703 50.751 70.8233 51.198 70.2703 51.198M110.2635 51.198C109.7105 51.198 109.2635 50.751 109.2635 50.198L109.2635 44.264C109.2635 43.712 109.7105 43.264 110.2635 43.264 110.8165 43.264 111.2635 43.712 111.2635 44.264L111.2635 50.198C111.2635 50.751 110.8165 51.198 110.2635 51.198M78.2683 51.1013C77.7153 51.1013 77.2683 50.6543 77.2683 50.1013L77.2683 44.1673C77.2683 43.6153 77.7153 43.1673 78.2683 43.1673 78.8213 43.1673 79.2683 43.6153 79.2683 44.1673L79.2683 50.1013C79.2683 50.6543 78.8213 51.1013 78.2683 51.1013M86.2674 51.1013C85.7144 51.1013 85.2674 50.6543 85.2674 50.1013L85.2674 44.1673C85.2674 43.6153 85.7144 43.1673 86.2674 43.1673 86.8204 43.1673 87.2674 43.6153 87.2674 44.1673L87.2674 50.1013C87.2674 50.6543 86.8204 51.1013 86.2674 51.1013M94.2664 51.1013C93.7134 51.1013 93.2664 50.6543 93.2664 50.1013L93.2664 44.1673C93.2664 43.6153 93.7134 43.1673 94.2664 43.1673 94.8194 43.1673 95.2664 43.6153 95.2664 44.1673L95.2664 50.1013C95.2664 50.6543 94.8194 51.1013 94.2664 51.1013M102.2654 51.1013C101.7124 51.1013 101.2654 50.6543 101.2654 50.1013L101.2654 44.1673C101.2654 43.6153 101.7124 43.1673 102.2654 43.1673 102.8184 43.1673 103.2654 43.6153 103.2654 44.1673L103.2654 50.1013C103.2654 50.6543 102.8184 51.1013 102.2654 51.1013M70.2703 83.7771C69.7173 83.7771 69.2703 83.3301 69.2703 82.7771L69.2703 76.8431C69.2703 76.2911 69.7173 75.8431 70.2703 75.8431 70.8233 75.8431 71.2703 76.2911 71.2703 76.8431L71.2703 82.7771C71.2703 83.3301 70.8233 83.7771 70.2703 83.7771M110.2635 83.7771C109.7105 83.7771 109.2635 83.3301 109.2635 82.7771L109.2635 76.8431C109.2635 76.2911 109.7105 75.8431 110.2635 75.8431 110.8165 75.8431 111.2635 76.2911 111.2635 76.8431L111.2635 82.7771C111.2635 83.3301 110.8165 83.7771 110.2635 83.7771M78.2683 83.6804C77.7153 83.6804 77.2683 83.2334 77.2683 82.6804L77.2683 76.7464C77.2683 76.1944 77.7153 75.7464 78.2683 75.7464 78.8213 75.7464 79.2683 76.1944 79.2683 76.7464L79.2683 82.6804C79.2683 83.2334 78.8213 83.6804 78.2683 83.6804M86.2674 83.6804C85.7144 83.6804 85.2674 83.2334 85.2674 82.6804L85.2674 76.7464C85.2674 76.1944 85.7144 75.7464 86.2674 75.7464 86.8204 75.7464 87.2674 76.1944 87.2674 76.7464L87.2674 82.6804C87.2674 83.2334 86.8204 83.6804 86.2674 83.6804M94.2664 83.6804C93.7134 83.6804 93.2664 83.2334 93.2664 82.6804L93.2664 76.7464C93.2664 76.1944 93.7134 75.7464 94.2664 75.7464 94.8194 75.7464 95.2664 76.1944 95.2664 76.7464L95.2664 82.6804C95.2664 83.2334 94.8194 83.6804 94.2664 83.6804M102.2654 83.6804C101.7124 83.6804 101.2654 83.2334 101.2654 82.6804L101.2654 76.7464C101.2654 76.1944 101.7124 75.7464 102.2654 75.7464 102.8184 75.7464 103.2654 76.1944 103.2654 76.7464L103.2654 82.6804C103.2654 83.2334 102.8184 83.6804 102.2654 83.6804" mask="url(#material-illustration-f)"/>
      <polygon fill="#1D1D1B" points="85.559 58.133 85.559 68.282 97.14 63.209" mask="url(#material-illustration-f)"/>
      <path fill="#1D1D1B" d="M86.5594 59.6638L86.5594 66.7518 94.6484 63.2078 86.5594 59.6638zM85.5594 69.2818C85.3684 69.2818 85.1774 69.2268 85.0124 69.1188 84.7294 68.9348 84.5594 68.6198 84.5594 68.2818L84.5594 58.1338C84.5594 57.7958 84.7294 57.4808 85.0124 57.2968 85.2944 57.1118 85.6504 57.0808 85.9604 57.2178L97.5414 62.2918C97.9054 62.4508 98.1404 62.8098 98.1404 63.2078 98.1404 63.6048 97.9054 63.9648 97.5414 64.1238L85.9604 69.1978C85.8314 69.2548 85.6954 69.2818 85.5594 69.2818L85.5594 69.2818zM102.139 34.835L130.961 34.835 130.961 20.479 102.139 20.479 102.139 34.835zM131.962 36.835L101.139 36.835C100.587 36.835 100.139 36.387 100.139 35.835L100.139 19.478C100.139 18.926 100.587 18.478 101.139 18.478L131.962 18.478C132.514 18.478 132.962 18.926 132.962 19.478L132.962 35.835C132.962 36.387 132.514 36.835 131.962 36.835L131.962 36.835zM2 55.08L46.581 55.08 46.581 28.656 2 28.656 2 55.08zM47.581 57.08L1 57.08C.447 57.08 0 56.633 0 56.08L0 27.656C0 27.103.447 26.656 1 26.656L47.581 26.656C48.134 26.656 48.581 27.103 48.581 27.656L48.581 56.08C48.581 56.633 48.134 57.08 47.581 57.08L47.581 57.08z" mask="url(#material-illustration-f)"/>
      <path fill="#1D1D1B" d="M127.5164 25.8474L115.5794 25.8474C115.0274 25.8474 114.5794 25.4004 114.5794 24.8474 114.5794 24.2944 115.0274 23.8474 115.5794 23.8474L127.5164 23.8474C128.0694 23.8474 128.5164 24.2944 128.5164 24.8474 128.5164 25.4004 128.0694 25.8474 127.5164 25.8474M53.4881 64.2077L45.0171 64.2077C44.4651 64.2077 44.0171 63.7607 44.0171 63.2077 44.0171 62.6547 44.4651 62.2077 45.0171 62.2077L53.4881 62.2077C54.0411 62.2077 54.4881 62.6547 54.4881 63.2077 54.4881 63.7607 54.0411 64.2077 53.4881 64.2077M62.2713 64.2077L58.0363 64.2077C57.4833 64.2077 57.0363 63.7607 57.0363 63.2077 57.0363 62.6547 57.4833 62.2077 58.0363 62.2077L62.2713 62.2077C62.8243 62.2077 63.2713 62.6547 63.2713 63.2077 63.2713 63.7607 62.8243 64.2077 62.2713 64.2077M59.1814 69.282L45.0174 69.282C44.4644 69.282 44.0174 68.835 44.0174 68.282 44.0174 67.729 44.4644 67.282 45.0174 67.282L59.1814 67.282C59.7344 67.282 60.1814 67.729 60.1814 68.282 60.1814 68.835 59.7344 69.282 59.1814 69.282M50.7107 74.3572L45.0177 74.3572C44.4647 74.3572 44.0177 73.9102 44.0177 73.3572 44.0177 72.8042 44.4647 72.3572 45.0177 72.3572L50.7107 72.3572C51.2637 72.3572 51.7107 72.8042 51.7107 73.3572 51.7107 73.9102 51.2637 74.3572 50.7107 74.3572M62.2713 74.3572L55.6263 74.3572C55.0743 74.3572 54.6263 73.9102 54.6263 73.3572 54.6263 72.8042 55.0743 72.3572 55.6263 72.3572L62.2713 72.3572C62.8243 72.3572 63.2713 72.8042 63.2713 73.3572 63.2713 73.9102 62.8243 74.3572 62.2713 74.3572M127.5164 30.8523L115.5794 30.8523C115.0274 30.8523 114.5794 30.4053 114.5794 29.8523 114.5794 29.2993 115.0274 28.8523 115.5794 28.8523L127.5164 28.8523C128.0694 28.8523 128.5164 29.2993 128.5164 29.8523 128.5164 30.4053 128.0694 30.8523 127.5164 30.8523M106.495 29.516L110.164 29.516 110.164 25.847 106.495 25.847 106.495 29.516zM111.164 31.516L105.495 31.516C104.942 31.516 104.495 31.069 104.495 30.516L104.495 24.847C104.495 24.295 104.942 23.847 105.495 23.847L111.164 23.847C111.717 23.847 112.164 24.295 112.164 24.847L112.164 30.516C112.164 31.069 111.717 31.516 111.164 31.516L111.164 31.516z" mask="url(#material-illustration-f)"/>
      <line x1="6.187" x2="12.434" y1="33.008" y2="33.008" fill="#FEFEFE" mask="url(#material-illustration-f)"/>
      <path fill="#1D1D1B" d="M12.4344,34.0085 L6.1864,34.0085 C5.6334,34.0085 5.1864,33.5615 5.1864,33.0085 C5.1864,32.4555 5.6334,32.0085 6.1864,32.0085 L12.4344,32.0085 C12.9874,32.0085 13.4344,32.4555 13.4344,33.0085 C13.4344,33.5615 12.9874,34.0085 12.4344,34.0085" mask="url(#material-illustration-f)"/>
      <line x1="17.876" x2="24.29" y1="33.008" y2="33.008" fill="#FEFEFE" mask="url(#material-illustration-f)"/>
      <path fill="#1D1D1B" d="M24.2898,34.0085 L17.8758,34.0085 C17.3228,34.0085 16.8758,33.5615 16.8758,33.0085 C16.8758,32.4555 17.3228,32.0085 17.8758,32.0085 L24.2898,32.0085 C24.8428,32.0085 25.2898,32.4555 25.2898,33.0085 C25.2898,33.5615 24.8428,34.0085 24.2898,34.0085" mask="url(#material-illustration-f)"/>
      <line x1="6.187" x2="19.891" y1="37.644" y2="37.644" fill="#FEFEFE" mask="url(#material-illustration-f)"/>
      <path fill="#1D1D1B" d="M19.8904 38.6443L6.1864 38.6443C5.6334 38.6443 5.1864 38.1973 5.1864 37.6443 5.1864 37.0913 5.6334 36.6443 6.1864 36.6443L19.8904 36.6443C20.4434 36.6443 20.8904 37.0913 20.8904 37.6443 20.8904 38.1973 20.4434 38.6443 19.8904 38.6443M36.315 38.272L41.191 38.272 41.191 33.396 36.315 33.396 36.315 38.272zM42.191 40.272L35.315 40.272C34.762 40.272 34.315 39.825 34.315 39.272L34.315 32.396C34.315 31.843 34.762 31.396 35.315 31.396L42.191 31.396C42.744 31.396 43.191 31.843 43.191 32.396L43.191 39.272C43.191 39.825 42.744 40.272 42.191 40.272L42.191 40.272z" mask="url(#material-illustration-f)"/>
    </g>
  </g>
</svg>
