<svg xmlns="http://www.w3.org/2000/svg" xmlns:xlink="http://www.w3.org/1999/xlink" viewBox="0 0 544 544"><defs><style>.cls-1{fill:none;}.cls-2{fill:#fff;}.cls-3{fill:#42adc5;}.cls-4{fill:#1d1d1b;}.cls-5{clip-path:url(#clip-path);}.cls-6{clip-path:url(#clip-path-2);}.cls-7{clip-path:url(#clip-path-3);}</style><clipPath id="clip-path"><rect class="cls-1" x="867.28" y="765.77" width="78" height="78"/></clipPath><clipPath id="clip-path-2"><rect class="cls-1" x="867.28" y="687.77" width="78" height="78"/></clipPath><clipPath id="clip-path-3"><rect class="cls-1" x="945.28" y="843.77" width="78" height="78"/></clipPath></defs><title>404_illustrasjoner</title><g id="Layer_1" data-name="Layer 1"><polygon class="cls-2" points="246.79 339.47 270.67 343.97 294.86 354.9 320.3 340.21 320.3 376.58 295.43 362.67 273.74 371.92 247.12 377.75 246.79 339.47"/><path class="cls-2" d="M207.77,343.69c-13.18,3-32.46,15.26-32.46,15.26s20.28,12.5,27.78,14.9c8.26,2.64,34.42,4.41,34.42,4.41v-39.1S215.11,342,207.77,343.69Z"/><path class="cls-3" d="M365.59,283.77a23.75,23.75,0,1,0,23.76,23.76A23.76,23.76,0,0,0,365.59,283.77Zm.72,36-13.24-13.23,13.24-13.24,13.23,13.24Z"/><path class="cls-3" d="M47.43,329.07s26.91,8.53,47.47,25.05,38.84,46,38.84,46v32.34l-19-1L86.87,409.07,65.54,385.86,53,360.47,49.19,346Z"/><polygon class="cls-3" points="363.74 459.58 497.79 459.58 496.84 501.36 363.99 501.36 363.74 459.58"/><rect class="cls-3" x="96.39" y="212.49" width="36.82" height="17.4"/><polygon class="cls-3" points="143.77 212.49 143.77 229.89 161.02 229.89 160.55 212.49 143.77 212.49"/><polygon class="cls-3" points="170.67 211.98 170.67 229.89 207.54 229.89 207.54 212.49 170.67 211.98"/><polygon class="cls-3" points="218.08 212.49 218.08 229.89 237.62 229.17 237.62 211.98 218.08 212.49"/><polygon class="cls-3" points="247.56 212.49 247.56 228.8 294.27 228.8 448.88 228.8 448.88 212.49 247.56 212.49"/><polygon class="cls-3" points="392.85 92.56 391.17 100.41 382.32 112.24 371.34 116.82 358.43 116.82 345.25 108.12 340 92.56 342.05 82.03 346.39 73.34 358.43 65.56 369.96 64.38 381.18 68.76 388.5 75.63 392.39 84.09 392.85 92.56"/><circle class="cls-4" cx="332.41" cy="405.05" r="10.4"/><path class="cls-4" d="M136.34,176.33h-.14a31.71,31.71,0,0,1-24.32-15.09,27.43,27.43,0,0,1-15,4.39c-10.37,0-19.56-5.5-23.87-14.14a20.92,20.92,0,0,1-9.16,2.1c-10.94,0-19.83-8.27-19.83-18.43s8.89-18.43,19.83-18.43a21.05,21.05,0,0,1,4.8.56c3.25-11.89,14.86-20.36,28.23-20.36A30.81,30.81,0,0,1,110.3,100c4.16-8.86,13.64-14.7,24.14-14.7a26.8,26.8,0,0,1,21.5,10.35,27.16,27.16,0,0,1,17.94-6.57c12.7,0,23.51,8.41,25.86,19.82a28.41,28.41,0,0,1,6-.65A26.65,26.65,0,0,1,228.29,120a1.5,1.5,0,1,1-2.5,1.65,23.7,23.7,0,0,0-20-10.4,25.41,25.41,0,0,0-6.83.94,1.48,1.48,0,0,1-1.23-.19,1.47,1.47,0,0,1-.66-1.06c-1.41-10.75-11.37-18.86-23.17-18.86A24.07,24.07,0,0,0,156.76,99a1.49,1.49,0,0,1-2.31-.24,23.67,23.67,0,0,0-20-10.44c-9.86,0-18.7,5.75-22,14.32a1.49,1.49,0,0,1-2.12.77,27.77,27.77,0,0,0-13.49-3.48c-12.53,0-23.32,8.21-25.66,19.52a1.53,1.53,0,0,1-.71,1,1.56,1.56,0,0,1-1.21.14,17.87,17.87,0,0,0-5.45-.85c-9.28,0-16.83,6.92-16.83,15.43s7.55,15.43,16.83,15.43a17.8,17.8,0,0,0,9.09-2.47,1.5,1.5,0,0,1,2.15.72c3.44,8.25,12.2,13.79,21.79,13.79a24.35,24.35,0,0,0,14.67-4.78,1.49,1.49,0,0,1,2.23.53c4.19,8.28,12.91,14,22.76,15a1.5,1.5,0,0,1-.15,3Z"/><path class="cls-3" d="M449.24,413.89A27.62,27.62,0,0,0,472.93,398a22.92,22.92,0,0,0,35.78-9.64,16.94,16.94,0,1,0,3.65-30.27A25.48,25.48,0,0,0,474.17,341a22.94,22.94,0,0,0-24.93-15"/><path class="cls-3" d="M133.74,432.43h9.63V480s.07,6.75-4.91,7-4.72-7-4.72-7Z"/><path class="cls-3" d="M161,432.43h9.09V480s-.13,6.79-4.83,7-4.26-7-4.26-7Z"/><path class="cls-3" d="M208.13,432.43h9.36V480c0,.15,0,6.5-4.38,6.73-5.84.29-5-6.73-5-6.73Z"/><path class="cls-3" d="M238,432.43h8.76c0,28.46-.07,47.56-.07,47.56s-.54,6.2-3.92,6c-4.88-.28-4.77-6-4.77-6Z"/><path class="cls-3" d="M296.52,101.08c-6.77-6.23-13.8-31.74-31.39-4.09s-18.95,81-18.41,88.79c.1,1.36.16,11.07.2,26.2H238v-8.44s1.22-14.18-8.91-14.18-11.63,15.45-11.63,15.45V212h-9.36v-6.86s.46-12.63-15-12.22-23,9.68-23,13.9V212H161v-4.86s-.47-9.67-9.16-9.18-8.49,9.45-8.49,9.45V212h-9.63v-4.31s-.06-41.11,12.84-53.13c20.11-18.72,68.57-2.75,76.37-21.53s21.76-66.32,60-72.26c8-1.24,23.56,6.5,30,27.07S303.29,107.31,296.52,101.08Z"/><path class="cls-4" d="M95.47,283.49A160.37,160.37,0,0,0,43.57,302L9.45,282.27v49.19L43.51,311.8a141.64,141.64,0,0,0,51.72,18.89"/><path class="cls-4" d="M277.79,213.48H247.56a1.5,1.5,0,0,1,0-3h30.23a1.5,1.5,0,0,1,0,3Z"/><path class="cls-4" d="M237.62,213.48H218.08a1.5,1.5,0,0,1,0-3h19.54a1.5,1.5,0,0,1,0,3Z"/><path class="cls-4" d="M207.55,213.48H171.27a1.5,1.5,0,0,1,0-3h36.28a1.5,1.5,0,0,1,0,3Z"/><path class="cls-4" d="M159.88,213.48H144.34a1.5,1.5,0,0,1,0-3h15.54a1.5,1.5,0,0,1,0,3Z"/><path class="cls-4" d="M96,355.62a1.5,1.5,0,0,1-1.5-1.5V212a1.5,1.5,0,0,1,1.5-1.5h37.24a1.5,1.5,0,0,1,0,3H97.47V354.12A1.5,1.5,0,0,1,96,355.62Z"/><path class="cls-4" d="M133.74,433.93H96a1.5,1.5,0,0,1-1.5-1.5V418.21a1.5,1.5,0,0,1,3,0v12.72h36.27a1.5,1.5,0,1,1,0,3Z"/><path class="cls-4" d="M160.52,433.93H144a1.5,1.5,0,1,1,0-3h16.56a1.5,1.5,0,1,1,0,3Z"/><path class="cls-4" d="M207.53,433.93h-37a1.5,1.5,0,0,1,0-3h37a1.5,1.5,0,1,1,0,3Z"/><path class="cls-4" d="M237.67,433.93H218a1.5,1.5,0,1,1,0-3h19.69a1.5,1.5,0,1,1,0,3Z"/><path class="cls-4" d="M449.24,433.93H247.12a1.5,1.5,0,1,1,0-3H447.74V213.48h-137a1.5,1.5,0,0,1,0-3H449.24a1.5,1.5,0,0,1,1.5,1.5V432.43A1.5,1.5,0,0,1,449.24,433.93Z"/><path class="cls-4" d="M449.24,231.39H306.85a1.5,1.5,0,0,1,0-3H449.24a1.5,1.5,0,0,1,0,3Z"/><path class="cls-4" d="M296.58,231.39h-49a1.5,1.5,0,0,1,0-3h49a1.5,1.5,0,1,1,0,3Z"/><path class="cls-4" d="M237.62,231.39H218.08a1.5,1.5,0,0,1,0-3h19.54a1.5,1.5,0,0,1,0,3Z"/><path class="cls-4" d="M207.55,231.39H170.67a1.5,1.5,0,1,1,0-3h36.88a1.5,1.5,0,0,1,0,3Z"/><path class="cls-4" d="M160.55,231.39H143.77a1.5,1.5,0,1,1,0-3h16.78a1.5,1.5,0,0,1,0,3Z"/><path class="cls-4" d="M133.52,231.39H96a1.5,1.5,0,0,1,0-3h37.55a1.5,1.5,0,0,1,0,3Z"/><circle class="cls-4" cx="107.55" cy="221.3" r="2.71"/><circle class="cls-4" cx="121.45" cy="221.3" r="2.71"/><rect class="cls-4" x="435.78" y="217.7" width="6.14" height="6.14"/><path class="cls-4" d="M236.59,379.76a106.75,106.75,0,0,1-19-1.7,1.5,1.5,0,1,1,.54-2.95,103.51,103.51,0,0,0,19.38,1.65h0a1.5,1.5,0,0,1,0,3Z"/><path class="cls-4" d="M217.85,378.08h-.19C199.48,375.71,186,368,174.1,360a1.53,1.53,0,0,1-.66-1.22,1.51,1.51,0,0,1,.63-1.24,119.65,119.65,0,0,1,43.49-17.71,1.5,1.5,0,0,1,.58,3,121.4,121.4,0,0,0-40.49,16c11.12,7.35,23.77,14.23,40.39,16.39a1.5,1.5,0,0,1-.19,3Z"/><path class="cls-4" d="M217.85,342.75a1.5,1.5,0,0,1-.29-3,114,114,0,0,1,19.93-2.12,1.5,1.5,0,0,1,0,3,110.71,110.71,0,0,0-19.39,2.07A1.46,1.46,0,0,1,217.85,342.75Z"/><path class="cls-4" d="M247.12,379.25a1.5,1.5,0,0,1-.15-3,121.25,121.25,0,0,0,47.1-15.07,1.5,1.5,0,0,1,1.49,0l24.06,13.89V342.34l-24,13.86a1.53,1.53,0,0,1-1.52,0A106.79,106.79,0,0,0,247.39,341a1.51,1.51,0,0,1-1.38-1.61,1.48,1.48,0,0,1,1.62-1.38,109.7,109.7,0,0,1,47.24,15.18l25.5-14.72a1.49,1.49,0,0,1,1.5,0,1.51,1.51,0,0,1,.75,1.3v37.93a1.51,1.51,0,0,1-.75,1.3,1.49,1.49,0,0,1-1.5,0L294.8,364.21a124.44,124.44,0,0,1-47.53,15Z"/><path class="cls-4" d="M464.3,283.09c-13.88,0-29.64-3.68-45.85-14.62a1.49,1.49,0,0,1,0-2.45,85.84,85.84,0,0,1,27.06-11.9,80.13,80.13,0,0,1,61.35,8.6l18.4-10.63a1.5,1.5,0,0,1,2.25,1.3v27.68a1.5,1.5,0,0,1-2.25,1.3l-18.46-10.65C498.5,276.32,483.13,283.09,464.3,283.09ZM422,267.23c36.75,23.54,70.88,8.94,84,1.46a1.47,1.47,0,0,1,1.49,0l17,9.79V256l-16.91,9.76a1.48,1.48,0,0,1-1.52,0C466.93,242.4,430.52,262,422,267.23Z"/><path class="cls-4" d="M415.4,301.28a1.52,1.52,0,0,1-.83-.25c-28-18.58-52.92-17.6-68.92-13.51a78.59,78.59,0,0,0-28.23,13.41,1.5,1.5,0,1,1-1.92-2.3c.46-.38,11.43-9.41,29.41-14,16.58-4.24,42.42-5.27,71.32,13.92a1.5,1.5,0,0,1-.83,2.75Z"/><path class="cls-4" d="M365.72,332.78a25.38,25.38,0,1,1,25.37-25.38A25.4,25.4,0,0,1,365.72,332.78Zm0-47.75a22.38,22.38,0,1,0,22.37,22.37A22.4,22.4,0,0,0,365.72,285Z"/><path class="cls-4" d="M365.93,321.69a1.5,1.5,0,0,1-1.06-.44l-12.79-12.79a1.49,1.49,0,0,1-.43-1.06,1.51,1.51,0,0,1,.43-1.06l12.79-12.78a1.49,1.49,0,0,1,2.12,0l12.79,12.78a1.52,1.52,0,0,1,.44,1.06,1.5,1.5,0,0,1-.44,1.06L367,321.25A1.5,1.5,0,0,1,365.93,321.69ZM355.27,307.4l10.66,10.67,10.66-10.67-10.66-10.66Z"/><path class="cls-4" d="M447.91,415.42a29.24,29.24,0,0,1-22.4-10.52,24.29,24.29,0,0,1-15.87,5.86,24.59,24.59,0,0,1-22.39-14.67l-.56,0a24.45,24.45,0,1,1,0-48.9,23.88,23.88,0,0,1,5.46.62,24.41,24.41,0,0,1,40.54-13.32,24.36,24.36,0,0,1,15.95-9.94,1.5,1.5,0,1,1,.48,3,21.39,21.39,0,0,0-14.9,10.12,1.53,1.53,0,0,1-1.13.71,1.49,1.49,0,0,1-1.26-.47,21.42,21.42,0,0,0-37,12,1.47,1.47,0,0,1-.67,1.08,1.53,1.53,0,0,1-1.25.18,21.45,21.45,0,1,0-6.25,42c.39,0,.77,0,1.15-.06l.29,0a1.51,1.51,0,0,1,1.5,1,21.56,21.56,0,0,0,20,13.77,21.31,21.31,0,0,0,15-6.13,1.51,1.51,0,0,1,2.26.18,26.21,26.21,0,0,0,21,10.61h.84a1.5,1.5,0,0,1,.09,3Z"/><polygon class="cls-4" points="305.88 240.87 256.92 196.3 320 176.19 305.88 240.87"/><path class="cls-4" d="M366.45,118.84a28,28,0,1,1,28-28A28,28,0,0,1,366.45,118.84Zm0-53a25,25,0,1,0,25,25A25,25,0,0,0,366.45,65.82Z"/><path class="cls-4" d="M497.78,502.81h-134a1.5,1.5,0,0,1-1.5-1.5V460a1.5,1.5,0,0,1,1.5-1.5h134a1.5,1.5,0,0,1,1.5,1.5v41.33A1.5,1.5,0,0,1,497.78,502.81Zm-132.54-3h131V461.48h-131Z"/><path class="cls-4" d="M302.89,472.84H272.61a1.5,1.5,0,0,1-1.5-1.5V405.05a1.5,1.5,0,0,1,1.5-1.5h30.28a1.5,1.5,0,0,1,1.5,1.5v66.29A1.5,1.5,0,0,1,302.89,472.84Zm-28.78-3h27.28V406.55H274.11Z"/><path class="cls-4" d="M293,293.43H263.9a1.5,1.5,0,0,1-1.5-1.5V262.8a1.5,1.5,0,0,1,1.5-1.5H293a1.5,1.5,0,0,1,1.5,1.5v29.13A1.5,1.5,0,0,1,293,293.43Zm-27.63-3h26.13V264.3H265.4Z"/><path class="cls-4" d="M116.33,433.93a1.49,1.49,0,0,1-.78-.22,197.4,197.4,0,0,1-35.5-29.36C63.93,387.43,45,360.62,46.22,329a1.49,1.49,0,0,1,1.93-1.38c.65.2,66,20.41,86.46,75.54a1.5,1.5,0,1,1-2.81,1.05c-18-48.53-71.87-69.36-82.64-73.1-.67,57.56,67.26,99.6,68,100a1.5,1.5,0,0,1-.78,2.78Z"/><path class="cls-4" d="M125.23,423.87a1.5,1.5,0,0,1-1.29-.73c-26.84-44.91-63.33-77.07-63.69-77.39a1.5,1.5,0,0,1,2-2.26c.37.33,37.22,32.8,64.3,78.11a1.5,1.5,0,0,1-.52,2A1.46,1.46,0,0,1,125.23,423.87Z"/><path class="cls-4" d="M89.87,375.57a1.49,1.49,0,0,1-1.47-1.21l-5.28-27.19a1.5,1.5,0,1,1,2.94-.57l5.28,27.19a1.49,1.49,0,0,1-1.19,1.75A1.33,1.33,0,0,1,89.87,375.57Z"/><path class="cls-4" d="M114,406.55H114a1.51,1.51,0,0,1-1.41-1.58l1.83-31a1.5,1.5,0,0,1,3,.18l-1.82,31A1.5,1.5,0,0,1,114,406.55Z"/><path class="cls-4" d="M81.53,366.29l-.22,0L52.77,362a1.5,1.5,0,0,1,.44-3l28.55,4.31a1.5,1.5,0,0,1-.23,3Z"/><path class="cls-4" d="M104.34,393.27h-.09L69.3,391.06a1.5,1.5,0,0,1,.19-3l35,2.21a1.5,1.5,0,0,1-.1,3Z"/><path class="cls-4" d="M58.83,258.93a34.58,34.58,0,1,1,0-69.16,1.5,1.5,0,0,1,.79,2.78c-.14.08-14.15,9.2-14.23,31.81-.09,22.23,14.11,31.72,14.25,31.81a1.5,1.5,0,0,1-.81,2.76ZM54.28,193.1a31.58,31.58,0,0,0,.07,62.51c-4.64-4.59-12-14.54-12-31.26C42.45,207.44,49.67,197.64,54.28,193.1Z"/><path class="cls-4" d="M332.41,417a11.9,11.9,0,1,1,11.9-11.9A11.91,11.91,0,0,1,332.41,417Zm0-20.8a8.9,8.9,0,1,0,8.9,8.9A8.91,8.91,0,0,0,332.41,396.15Z"/><path class="cls-4" d="M383.88,112.3l-.27,0a1.5,1.5,0,0,1-1.21-1.75c.52-2.88-3.33-4.85-8.82-7.32-5-2.25-10.21-4.59-10.21-9,0-6.18,3.63-7.6,6.54-8.75,2.75-1.08,4.73-1.86,4.91-6,.32-7.49-10.57-13.69-10.68-13.76a1.5,1.5,0,1,1,1.46-2.61c.52.28,12.62,7.16,12.22,16.5-.26,6.12-3.89,7.55-6.81,8.7s-4.64,1.82-4.64,6c0,2.46,4.29,4.39,8.44,6.26,5.4,2.42,11.52,5.17,10.54,10.59A1.5,1.5,0,0,1,383.88,112.3Z"/><path class="cls-4" d="M366.45,108.38a1.54,1.54,0,0,1-.46-.08c-.6-.19-14.67-4.83-15.23-13.81-.39-6.28,3.7-9.66,7-12.37,2.07-1.7,3.85-3.17,3.87-4.81.06-5.27-11.18-6.07-11.3-6.07a1.51,1.51,0,0,1-1.41-1.59,1.53,1.53,0,0,1,1.59-1.41c.58,0,14.22.92,14.12,9.11,0,3-2.43,5-5,7.08-3,2.52-6.19,5.12-5.9,9.87.36,5.78,9.63,10,13.16,11.15a1.5,1.5,0,0,1-.46,2.93Z"/><path class="cls-4" d="M389.14,106a1.5,1.5,0,0,1-1.48-1.24c-.64-3.76-3.6-4.87-7-6.15-.84-.31-1.71-.63-2.55-1a1.5,1.5,0,0,1,1.21-2.75c.76.34,1.55.63,2.39.94,3.75,1.4,8,3,8.94,8.45A1.5,1.5,0,0,1,389.4,106,1.18,1.18,0,0,1,389.14,106Z"/><path class="cls-4" d="M143.37,433.93h-9.63a1.5,1.5,0,0,1-1.5-1.5V212a1.5,1.5,0,0,1,1.5-1.5h9.63a1.5,1.5,0,0,1,1.5,1.5V432.43A1.5,1.5,0,0,1,143.37,433.93Zm-8.13-3h6.63V213.48h-6.63Z"/><path class="cls-4" d="M170.11,433.93H161a1.5,1.5,0,0,1-1.5-1.5V212a1.5,1.5,0,0,1,1.5-1.5h9.09a1.5,1.5,0,0,1,1.5,1.5V432.43A1.5,1.5,0,0,1,170.11,433.93Zm-7.59-3h6.09V213.48h-6.09Z"/><path class="cls-4" d="M217.49,433.93h-9.36a1.5,1.5,0,0,1-1.5-1.5V375.35a1.5,1.5,0,0,1,3,0v55.58H216V376.58a1.5,1.5,0,1,1,3,0v55.85A1.5,1.5,0,0,1,217.49,433.93Z"/><path class="cls-4" d="M208.13,344.38a1.51,1.51,0,0,1-1.5-1.5V212a1.5,1.5,0,0,1,1.5-1.5h9.36A1.5,1.5,0,0,1,219,212V341.25a1.5,1.5,0,0,1-3,0V213.48h-6.36v129.4A1.5,1.5,0,0,1,208.13,344.38Z"/><path class="cls-4" d="M246.79,433.93H238a1.5,1.5,0,0,1-1.5-1.5V212a1.5,1.5,0,0,1,1.5-1.5h8.88a1.51,1.51,0,0,1,1.5,1.49c.16,58.36-.07,193.89-.12,220.46A1.5,1.5,0,0,1,246.79,433.93Zm-7.26-3h5.77c0-29.55.27-159.36.11-217.45h-5.88Z"/><path class="cls-4" d="M405.53,213.08a1.47,1.47,0,0,1-1.22-.64,1.5,1.5,0,0,1,.35-2.09,72.4,72.4,0,0,0,16.39-15.75l-21.27,3a1.5,1.5,0,0,1-1.09-2.7c19.09-13.78,29.5-26.59,33.27-31.74l-18.29.63a1.5,1.5,0,0,1-1.14-2.52,224.77,224.77,0,0,0,32.34-43.92c-19.48,5.58-40.16,27.56-40.38,27.79a1.49,1.49,0,0,1-2.51-1.5l6.42-19c-15.19,11.12-33.6,40.31-33.8,40.62a1.5,1.5,0,0,1-2.74-1.12l5.27-23.63c-17.73,18-29.21,57.4-29.33,57.82a1.5,1.5,0,0,1-2.93-.24l-2.4-20.33c-4.74,7.8-7.74,19.06-8.93,33.54a1.5,1.5,0,1,1-3-.25c1.42-17.2,5.37-30.11,11.75-38.35a1.51,1.51,0,0,1,2.68.74L347,190.85c1.55-4.6,3.92-11.15,7-18.22,7.78-18,16.08-30.62,24.67-37.61a1.5,1.5,0,0,1,2.41,1.49l-4.52,20.31c7.25-10.62,21.86-30.48,33.91-37.09a1.49,1.49,0,0,1,2.14,1.79l-5.75,17c7.9-7.5,24.69-21.83,40.57-24.88a1.49,1.49,0,0,1,1.64,2.12c-.1.21-10.12,20.83-31.93,44.9l17.69-.61a1.49,1.49,0,0,1,1.33,2.28c-.39.64-9.31,14.82-31,31.49L424,191.17a1.49,1.49,0,0,1,1.45.65,1.52,1.52,0,0,1,.06,1.59c-.24.4-5.92,10.08-19.09,19.39A1.5,1.5,0,0,1,405.53,213.08Z"/><path class="cls-4" d="M361.83,213.08a1.47,1.47,0,0,1-.73-.19,1.51,1.51,0,0,1-.59-2c15.28-27.66,30.5-47.66,45.22-59.46a1.5,1.5,0,0,1,1.88,2.34c-14.42,11.55-29.38,31.26-44.47,58.57A1.49,1.49,0,0,1,361.83,213.08Z"/><path class="cls-4" d="M360.61,212.46h-.13a1.51,1.51,0,0,1-1.36-1.63l3.38-39.05a1.5,1.5,0,1,1,3,.26l-3.37,39.05A1.51,1.51,0,0,1,360.61,212.46Z"/><path class="cls-4" d="M378.2,186.38a1.5,1.5,0,0,1-.51-2.92l30.87-10.94a1.5,1.5,0,1,1,1,2.83L378.7,186.29A1.51,1.51,0,0,1,378.2,186.38Z"/></g></svg>