<svg xmlns="http://www.w3.org/2000/svg" xmlns:xlink="http://www.w3.org/1999/xlink" width="123" height="119" viewBox="0 0 123 119">
  <defs>
    <polygon id="patterns-illutration-a" points="0 118.97 122.318 118.97 122.318 0 0 0"/>
  </defs>
  <g fill="none" fill-rule="evenodd">
    <path fill="#D7ECED" d="M22.2256 9.6321C22.2256 14.3991 18.3616 18.2641 13.5936 18.2641 8.8276 18.2641 4.9626 14.3991 4.9626 9.6321 4.9626 4.8651 8.8276 1.0001 13.5936 1.0001 18.3616 1.0001 22.2256 4.8651 22.2256 9.6321M69.5215 9.6321C69.5215 14.3991 65.6575 18.2641 60.8905 18.2641 56.1235 18.2641 52.2585 14.3991 52.2585 9.6321 52.2585 4.8651 56.1235 1.0001 60.8905 1.0001 65.6575 1.0001 69.5215 4.8651 69.5215 9.6321M116.9297 9.6321C116.9297 14.3991 113.0647 18.2641 108.2977 18.2641 103.5317 18.2641 99.6657 14.3991 99.6657 9.6321 99.6657 4.8651 103.5317 1.0001 108.2977 1.0001 113.0647 1.0001 116.9297 4.8651 116.9297 9.6321M93.5615 89.2825C93.5615 94.0495 89.6975 97.9135 84.9305 97.9135 80.1635 97.9135 76.2985 94.0495 76.2985 89.2825 76.2985 84.5145 80.1635 80.6505 84.9305 80.6505 89.6975 80.6505 93.5615 84.5145 93.5615 89.2825M45.9307 89.2825C45.9307 94.0495 42.0657 97.9135 37.2987 97.9135 32.5327 97.9135 28.6667 94.0495 28.6667 89.2825 28.6667 84.5145 32.5327 80.6505 37.2987 80.6505 42.0657 80.6505 45.9307 84.5145 45.9307 89.2825"/>
    <mask id="patterns-illutration-b" fill="#fff">
      <use xlink:href="#patterns-illutration-a"/>
    </mask>
    <polygon fill="#69C1BD" points="28.666 18.264 45.93 18.264 45.93 1 28.666 1" mask="url(#patterns-illutration-b)"/>
    <polygon fill="#69C1BD" points="76.074 18.264 93.337 18.264 93.337 1 76.074 1" mask="url(#patterns-illutration-b)"/>
    <polygon fill="#69C1BD" points="6.27 73.06 55.861 73.06 55.861 57.603 6.27 57.603" mask="url(#patterns-illutration-b)"/>
    <polygon fill="#D7ECED" points="65.92 73.06 115.51 73.06 115.51 57.603 65.92 57.603" mask="url(#patterns-illutration-b)"/>
    <path fill="#1D1D1B" d="M108.4092,2.0003 C104.2012,2.0003 100.7772,5.4243 100.7772,9.6323 C100.7772,13.8403 104.2012,17.2643 108.4092,17.2643 C112.6172,17.2643 116.0402,13.8403 116.0402,9.6323 C116.0402,5.4243 112.6172,2.0003 108.4092,2.0003 M108.4092,19.2643 C103.0982,19.2643 98.7772,14.9423 98.7772,9.6323 C98.7772,4.3213 103.0982,0.0003 108.4092,0.0003 C113.7202,0.0003 118.0402,4.3213 118.0402,9.6323 C118.0402,14.9423 113.7202,19.2643 108.4092,19.2643" mask="url(#patterns-illutration-b)"/>
    <path fill="#1D1D1B" d="M111.9521 9.6321C111.9521 11.5891 110.3661 13.1751 108.4091 13.1751 106.4521 13.1751 104.8661 11.5891 104.8661 9.6321 104.8661 7.6751 106.4521 6.0891 108.4091 6.0891 110.3661 6.0891 111.9521 7.6751 111.9521 9.6321M61.002 2.0003C56.794 2.0003 53.37 5.4243 53.37 9.6323 53.37 13.8403 56.794 17.2643 61.002 17.2643 65.21 17.2643 68.633 13.8403 68.633 9.6323 68.633 5.4243 65.21 2.0003 61.002 2.0003M61.002 19.2643C55.691 19.2643 51.37 14.9423 51.37 9.6323 51.37 4.3213 55.691.0003 61.002.0003 66.313.0003 70.633 4.3213 70.633 9.6323 70.633 14.9423 66.313 19.2643 61.002 19.2643" mask="url(#patterns-illutration-b)"/>
    <path fill="#1D1D1B" d="M64.5449 9.6321C64.5449 11.5891 62.9579 13.1751 61.0019 13.1751 59.0449 13.1751 57.4579 11.5891 57.4579 9.6321 57.4579 7.6751 59.0449 6.0891 61.0019 6.0891 62.9579 6.0891 64.5449 7.6751 64.5449 9.6321M13.5937 2.0003C9.3857 2.0003 5.9627 5.4243 5.9627 9.6323 5.9627 13.8403 9.3857 17.2643 13.5937 17.2643 17.8017 17.2643 21.2257 13.8403 21.2257 9.6323 21.2257 5.4243 17.8017 2.0003 13.5937 2.0003M13.5937 19.2643C8.2827 19.2643 3.9627 14.9423 3.9627 9.6323 3.9627 4.3213 8.2827.0003 13.5937.0003 18.9047.0003 23.2257 4.3213 23.2257 9.6323 23.2257 14.9423 18.9047 19.2643 13.5937 19.2643" mask="url(#patterns-illutration-b)"/>
    <path fill="#1D1D1B" d="M17.1377 9.6321C17.1377 11.5891 15.5507 13.1751 13.5937 13.1751 11.6367 13.1751 10.0507 11.5891 10.0507 9.6321 10.0507 7.6751 11.6367 6.0891 13.5937 6.0891 15.5507 6.0891 17.1377 7.6751 17.1377 9.6321M13.5937 81.6507C9.3857 81.6507 5.9627 85.0747 5.9627 89.2827 5.9627 93.4907 9.3857 96.9137 13.5937 96.9137 17.8017 96.9137 21.2257 93.4907 21.2257 89.2827 21.2257 85.0747 17.8017 81.6507 13.5937 81.6507M13.5937 98.9137C8.2827 98.9137 3.9627 94.5927 3.9627 89.2827 3.9627 83.9717 8.2827 79.6507 13.5937 79.6507 18.9047 79.6507 23.2257 83.9717 23.2257 89.2827 23.2257 94.5927 18.9047 98.9137 13.5937 98.9137M37.4102 81.6507C33.2022 81.6507 29.7782 85.0747 29.7782 89.2827 29.7782 93.4907 33.2022 96.9137 37.4102 96.9137 41.6182 96.9137 45.0412 93.4907 45.0412 89.2827 45.0412 85.0747 41.6182 81.6507 37.4102 81.6507M37.4102 98.9137C32.0992 98.9137 27.7782 94.5927 27.7782 89.2827 27.7782 83.9717 32.0992 79.6507 37.4102 79.6507 42.7212 79.6507 47.0412 83.9717 47.0412 89.2827 47.0412 94.5927 42.7212 98.9137 37.4102 98.9137" mask="url(#patterns-illutration-b)"/>
    <path fill="#1D1D1B" d="M40.9531 89.2825C40.9531 91.2395 39.3671 92.8255 37.4101 92.8255 35.4531 92.8255 33.8661 91.2395 33.8661 89.2825 33.8661 87.3255 35.4531 85.7385 37.4101 85.7385 39.3671 85.7385 40.9531 87.3255 40.9531 89.2825M61.2256 81.6507C57.0176 81.6507 53.5946 85.0747 53.5946 89.2827 53.5946 93.4907 57.0176 96.9137 61.2256 96.9137 65.4336 96.9137 68.8576 93.4907 68.8576 89.2827 68.8576 85.0747 65.4336 81.6507 61.2256 81.6507M61.2256 98.9137C55.9146 98.9137 51.5946 94.5927 51.5946 89.2827 51.5946 83.9717 55.9146 79.6507 61.2256 79.6507 66.5366 79.6507 70.8576 83.9717 70.8576 89.2827 70.8576 94.5927 66.5366 98.9137 61.2256 98.9137M85.042 81.6507C80.834 81.6507 77.41 85.0747 77.41 89.2827 77.41 93.4907 80.834 96.9137 85.042 96.9137 89.25 96.9137 92.673 93.4907 92.673 89.2827 92.673 85.0747 89.25 81.6507 85.042 81.6507M85.042 98.9137C79.731 98.9137 75.41 94.5927 75.41 89.2827 75.41 83.9717 79.731 79.6507 85.042 79.6507 90.353 79.6507 94.673 83.9717 94.673 89.2827 94.673 94.5927 90.353 98.9137 85.042 98.9137" mask="url(#patterns-illutration-b)"/>
    <path fill="#1D1D1B" d="M88.585 89.2825C88.585 91.2395 86.999 92.8255 85.042 92.8255 83.085 92.8255 81.498 91.2395 81.498 89.2825 81.498 87.3255 83.085 85.7385 85.042 85.7385 86.999 85.7385 88.585 87.3255 88.585 89.2825M108.8574 81.6507C104.6494 81.6507 101.2264 85.0747 101.2264 89.2827 101.2264 93.4907 104.6494 96.9137 108.8574 96.9137 113.0654 96.9137 116.4894 93.4907 116.4894 89.2827 116.4894 85.0747 113.0654 81.6507 108.8574 81.6507M108.8574 98.9137C103.5464 98.9137 99.2264 94.5927 99.2264 89.2827 99.2264 83.9717 103.5464 79.6507 108.8574 79.6507 114.1684 79.6507 118.4894 83.9717 118.4894 89.2827 118.4894 94.5927 114.1684 98.9137 108.8574 98.9137M29.666 17.264L44.93 17.264 44.93 2 29.666 2 29.666 17.264zM45.93 19.264L28.666 19.264C28.113 19.264 27.666 18.817 27.666 18.264L27.666 1C27.666.448 28.113 0 28.666 0L45.93 0C46.482 0 46.93.448 46.93 1L46.93 18.264C46.93 18.817 46.482 19.264 45.93 19.264L45.93 19.264z" mask="url(#patterns-illutration-b)"/>
    <path fill="#1D1D1B" d="M36.9014 14.4124C36.6374 14.4124 36.3824 14.3084 36.1944 14.1194L33.0054 10.9314C32.6154 10.5404 32.6154 9.9074 33.0054 9.5164 33.3964 9.1264 34.0294 9.1264 34.4204 9.5164L36.6904 11.7874 40.0994 5.9354C40.3784 5.4584 40.9904 5.2984 41.4664 5.5744 41.9444 5.8524 42.1054 6.4654 41.8284 6.9414L37.7654 13.9154C37.6094 14.1834 37.3384 14.3644 37.0304 14.4034 36.9874 14.4094 36.9444 14.4124 36.9014 14.4124M77.074 17.264L92.337 17.264 92.337 2 77.074 2 77.074 17.264zM93.337 19.264L76.074 19.264C75.521 19.264 75.074 18.817 75.074 18.264L75.074 1C75.074.448 75.521 0 76.074 0L93.337 0C93.89 0 94.337.448 94.337 1L94.337 18.264C94.337 18.817 93.89 19.264 93.337 19.264L93.337 19.264z" mask="url(#patterns-illutration-b)"/>
    <path fill="#1D1D1B" d="M84.3096 14.4124C84.0456 14.4124 83.7906 14.3084 83.6026 14.1194L80.4136 10.9314C80.0226 10.5404 80.0226 9.9074 80.4136 9.5164 80.8036 9.1264 81.4366 9.1264 81.8276 9.5164L84.0986 11.7874 87.5066 5.9354C87.7846 5.4584 88.3966 5.2984 88.8736 5.5744 89.3516 5.8524 89.5126 6.4654 89.2356 6.9414L85.1736 13.9154C85.0176 14.1834 84.7466 14.3644 84.4386 14.4034 84.3956 14.4094 84.3526 14.4124 84.3096 14.4124M19.5762 41.679C19.3202 41.679 19.0642 41.581 18.8692 41.386L5.5632 28.081C5.1732 27.691 5.1732 27.058 5.5632 26.667 5.9542 26.277 6.5872 26.277 6.9772 26.667L20.2832 39.972C20.6742 40.363 20.6742 40.995 20.2832 41.386 20.0882 41.581 19.8322 41.679 19.5762 41.679" mask="url(#patterns-illutration-b)"/>
    <path fill="#1D1D1B" d="M6.2705 41.679C6.0145 41.679 5.7585 41.581 5.5635 41.386 5.1725 40.995 5.1725 40.363 5.5635 39.972L18.8695 26.667C19.2595 26.277 19.8925 26.277 20.2835 26.667 20.6735 27.058 20.6735 27.691 20.2835 28.081L6.9775 41.386C6.7825 41.581 6.5265 41.679 6.2705 41.679M43.5596 41.679C43.3036 41.679 43.0476 41.581 42.8526 41.386L29.5466 28.081C29.1566 27.691 29.1566 27.058 29.5466 26.667 29.9376 26.277 30.5706 26.277 30.9606 26.667L44.2666 39.972C44.6576 40.363 44.6576 40.995 44.2666 41.386 44.0716 41.581 43.8156 41.679 43.5596 41.679" mask="url(#patterns-illutration-b)"/>
    <path fill="#1D1D1B" d="M30.2539 41.679C29.9979 41.679 29.7419 41.581 29.5469 41.386 29.1559 40.995 29.1559 40.363 29.5469 39.972L42.8529 26.667C43.2429 26.277 43.8759 26.277 44.2669 26.667 44.6569 27.058 44.6569 27.691 44.2669 28.081L30.9609 41.386C30.7659 41.581 30.5099 41.679 30.2539 41.679M67.543 41.679C67.287 41.679 67.031 41.581 66.836 41.386L53.53 28.081C53.14 27.691 53.14 27.058 53.53 26.667 53.921 26.277 54.554 26.277 54.944 26.667L68.25 39.972C68.641 40.363 68.641 40.995 68.25 41.386 68.055 41.581 67.799 41.679 67.543 41.679" mask="url(#patterns-illutration-b)"/>
    <path fill="#1D1D1B" d="M54.2373 41.679C53.9813 41.679 53.7253 41.581 53.5303 41.386 53.1393 40.995 53.1393 40.363 53.5303 39.972L66.8363 26.667C67.2263 26.277 67.8593 26.277 68.2503 26.667 68.6403 27.058 68.6403 27.691 68.2503 28.081L54.9443 41.386C54.7493 41.581 54.4933 41.679 54.2373 41.679M91.5264 41.679C91.2704 41.679 91.0144 41.581 90.8194 41.386L77.5144 28.081C77.1244 27.691 77.1244 27.058 77.5144 26.667 77.9054 26.277 78.5384 26.277 78.9284 26.667L92.2334 39.972C92.6244 40.363 92.6244 40.995 92.2334 41.386 92.0384 41.581 91.7824 41.679 91.5264 41.679" mask="url(#patterns-illutration-b)"/>
    <path fill="#1D1D1B" d="M78.2217 41.679C77.9657 41.679 77.7097 41.581 77.5147 41.386 77.1237 40.995 77.1237 40.363 77.5147 39.972L90.8197 26.667C91.2097 26.277 91.8427 26.277 92.2337 26.667 92.6237 27.058 92.6237 27.691 92.2337 28.081L78.9287 41.386C78.7337 41.581 78.4777 41.679 78.2217 41.679M115.5098 41.679C115.2538 41.679 114.9978 41.581 114.8028 41.386L101.4978 28.081C101.1078 27.691 101.1078 27.058 101.4978 26.667 101.8888 26.277 102.5218 26.277 102.9118 26.667L116.2168 39.972C116.6078 40.363 116.6078 40.995 116.2168 41.386 116.0218 41.581 115.7658 41.679 115.5098 41.679" mask="url(#patterns-illutration-b)"/>
    <path fill="#1D1D1B" d="M102.2051 41.679C101.9491 41.679 101.6931 41.581 101.4981 41.386 101.1071 40.995 101.1071 40.363 101.4981 39.972L114.8031 26.667C115.1931 26.277 115.8261 26.277 116.2171 26.667 116.6071 27.058 116.6071 27.691 116.2171 28.081L102.9121 41.386C102.7171 41.581 102.4611 41.679 102.2051 41.679M120.7803 51.012L1.0003 51.012C.4473 51.012.0003 50.565.0003 50.012.0003 49.459.4473 49.012 1.0003 49.012L120.7803 49.012C121.3333 49.012 121.7803 49.459 121.7803 50.012 121.7803 50.565 121.3333 51.012 120.7803 51.012M7.271 72.06L54.862 72.06 54.862 58.603 7.271 58.603 7.271 72.06zM55.861 74.06L6.271 74.06C5.718 74.06 5.271 73.613 5.271 73.06L5.271 57.603C5.271 57.05 5.718 56.603 6.271 56.603L55.861 56.603C56.414 56.603 56.861 57.05 56.861 57.603L56.861 73.06C56.861 73.613 56.414 74.06 55.861 74.06L55.861 74.06z" mask="url(#patterns-illutration-b)"/>
    <path fill="#1D1D1B" d="M46.875 68.7503C46.554 68.7503 46.252 68.5963 46.063 68.3353L42.527 63.4323C42.205 62.9833 42.306 62.3583 42.754 62.0353 43.202 61.7143 43.826 61.8143 44.15 62.2623L46.875 66.0403 49.649 62.1923C49.973 61.7453 50.597 61.6443 51.046 61.9663 51.494 62.2893 51.595 62.9143 51.272 63.3623L47.687 68.3353C47.498 68.5963 47.196 68.7503 46.875 68.7503M37.3379 63.6087L12.1909 63.6087C11.6379 63.6087 11.1909 63.1617 11.1909 62.6087 11.1909 62.0557 11.6379 61.6087 12.1909 61.6087L37.3379 61.6087C37.8909 61.6087 38.3379 62.0557 38.3379 62.6087 38.3379 63.1617 37.8909 63.6087 37.3379 63.6087M37.3379 68.9192L12.1909 68.9192C11.6379 68.9192 11.1909 68.4722 11.1909 67.9192 11.1909 67.3662 11.6379 66.9192 12.1909 66.9192L37.3379 66.9192C37.8909 66.9192 38.3379 67.3662 38.3379 67.9192 38.3379 68.4722 37.8909 68.9192 37.3379 68.9192M66.92 72.06L114.51 72.06 114.51 58.603 66.92 58.603 66.92 72.06zM115.51 74.06L65.92 74.06C65.367 74.06 64.92 73.613 64.92 73.06L64.92 57.603C64.92 57.05 65.367 56.603 65.92 56.603L115.51 56.603C116.063 56.603 116.51 57.05 116.51 57.603L116.51 73.06C116.51 73.613 116.063 74.06 115.51 74.06L115.51 74.06z" mask="url(#patterns-illutration-b)"/>
    <path fill="#1D1D1B" d="M109.5898 68.9192L84.4428 68.9192C83.8898 68.9192 83.4428 68.4722 83.4428 67.9192 83.4428 67.3662 83.8898 66.9192 84.4428 66.9192L109.5898 66.9192C110.1428 66.9192 110.5898 67.3662 110.5898 67.9192 110.5898 68.4722 110.1428 68.9192 109.5898 68.9192M109.5898 63.6087L84.4428 63.6087C83.8898 63.6087 83.4428 63.1617 83.4428 62.6087 83.4428 62.0557 83.8898 61.6087 84.4428 61.6087L109.5898 61.6087C110.1428 61.6087 110.5898 62.0557 110.5898 62.6087 110.5898 63.1617 110.1428 63.6087 109.5898 63.6087M72.7422 64.1136L71.5112 64.1136C70.9582 64.1136 70.5112 63.6666 70.5112 63.1136L70.5112 61.9786C70.5112 61.4256 70.9582 60.9786 71.5112 60.9786L72.7422 60.9786C73.2952 60.9786 73.7422 61.4256 73.7422 61.9786L73.7422 63.1136C73.7422 63.6666 73.2952 64.1136 72.7422 64.1136M78.4893 64.1136L77.2593 64.1136C76.7063 64.1136 76.2593 63.6666 76.2593 63.1136L76.2593 61.9786C76.2593 61.4256 76.7063 60.9786 77.2593 60.9786L78.4893 60.9786C79.0423 60.9786 79.4893 61.4256 79.4893 61.9786L79.4893 63.1136C79.4893 63.6666 79.0423 64.1136 78.4893 64.1136M72.7422 69.6194L71.5112 69.6194C70.9582 69.6194 70.5112 69.1724 70.5112 68.6194L70.5112 67.4844C70.5112 66.9314 70.9582 66.4844 71.5112 66.4844L72.7422 66.4844C73.2952 66.4844 73.7422 66.9314 73.7422 67.4844L73.7422 68.6194C73.7422 69.1724 73.2952 69.6194 72.7422 69.6194M78.4893 69.6194L77.2593 69.6194C76.7063 69.6194 76.2593 69.1724 76.2593 68.6194L76.2593 67.4844C76.2593 66.9314 76.7063 66.4844 77.2593 66.4844L78.4893 66.4844C79.0423 66.4844 79.4893 66.9314 79.4893 67.4844L79.4893 68.6194C79.4893 69.1724 79.0423 69.6194 78.4893 69.6194M13.5937 118.97C13.0407 118.97 12.5937 118.523 12.5937 117.97L12.5937 106.253C12.5937 105.7 13.0407 105.253 13.5937 105.253 14.1467 105.253 14.5937 105.7 14.5937 106.253L14.5937 117.97C14.5937 118.523 14.1467 118.97 13.5937 118.97" mask="url(#patterns-illutration-b)"/>
    <path fill="#1D1D1B" d="M19.4521 113.1116L7.7351 113.1116C7.1821 113.1116 6.7351 112.6646 6.7351 112.1116 6.7351 111.5586 7.1821 111.1116 7.7351 111.1116L19.4521 111.1116C20.0051 111.1116 20.4521 111.5586 20.4521 112.1116 20.4521 112.6646 20.0051 113.1116 19.4521 113.1116M37.4102 118.97C36.8572 118.97 36.4102 118.523 36.4102 117.97L36.4102 106.253C36.4102 105.7 36.8572 105.253 37.4102 105.253 37.9632 105.253 38.4102 105.7 38.4102 106.253L38.4102 117.97C38.4102 118.523 37.9632 118.97 37.4102 118.97" mask="url(#patterns-illutration-b)"/>
    <path fill="#1D1D1B" d="M43.2686 113.1116L31.5516 113.1116C30.9986 113.1116 30.5516 112.6646 30.5516 112.1116 30.5516 111.5586 30.9986 111.1116 31.5516 111.1116L43.2686 111.1116C43.8216 111.1116 44.2686 111.5586 44.2686 112.1116 44.2686 112.6646 43.8216 113.1116 43.2686 113.1116M61.2256 118.97C60.6726 118.97 60.2256 118.523 60.2256 117.97L60.2256 106.253C60.2256 105.7 60.6726 105.253 61.2256 105.253 61.7786 105.253 62.2256 105.7 62.2256 106.253L62.2256 117.97C62.2256 118.523 61.7786 118.97 61.2256 118.97" mask="url(#patterns-illutration-b)"/>
    <path fill="#1D1D1B" d="M67.084 113.1116L55.367 113.1116C54.814 113.1116 54.367 112.6646 54.367 112.1116 54.367 111.5586 54.814 111.1116 55.367 111.1116L67.084 111.1116C67.637 111.1116 68.084 111.5586 68.084 112.1116 68.084 112.6646 67.637 113.1116 67.084 113.1116M85.042 118.97C84.489 118.97 84.042 118.523 84.042 117.97L84.042 106.253C84.042 105.7 84.489 105.253 85.042 105.253 85.595 105.253 86.042 105.7 86.042 106.253L86.042 117.97C86.042 118.523 85.595 118.97 85.042 118.97" mask="url(#patterns-illutration-b)"/>
    <path fill="#1D1D1B" d="M90.9004 113.1116L79.1834 113.1116C78.6304 113.1116 78.1834 112.6646 78.1834 112.1116 78.1834 111.5586 78.6304 111.1116 79.1834 111.1116L90.9004 111.1116C91.4534 111.1116 91.9004 111.5586 91.9004 112.1116 91.9004 112.6646 91.4534 113.1116 90.9004 113.1116M108.8574 118.97C108.3044 118.97 107.8574 118.523 107.8574 117.97L107.8574 106.253C107.8574 105.7 108.3044 105.253 108.8574 105.253 109.4104 105.253 109.8574 105.7 109.8574 106.253L109.8574 117.97C109.8574 118.523 109.4104 118.97 108.8574 118.97" mask="url(#patterns-illutration-b)"/>
    <path fill="#1D1D1B" d="M114.7158 113.1116L102.9988 113.1116C102.4458 113.1116 101.9988 112.6646 101.9988 112.1116 101.9988 111.5586 102.4458 111.1116 102.9988 111.1116L114.7158 111.1116C115.2688 111.1116 115.7158 111.5586 115.7158 112.1116 115.7158 112.6646 115.2688 113.1116 114.7158 113.1116M26.668 112.1116C26.668 112.7566 26.147 113.2776 25.502 113.2776 24.858 113.2776 24.336 112.7566 24.336 112.1116 24.336 111.4676 24.858 110.9456 25.502 110.9456 26.147 110.9456 26.668 111.4676 26.668 112.1116M3.333 112.1116C3.333 112.7566 2.811 113.2776 2.166 113.2776 1.522 113.2776 1 112.7566 1 112.1116 1 111.4676 1.522 110.9456 2.166 110.9456 2.811 110.9456 3.333 111.4676 3.333 112.1116M50.4844 112.1116C50.4844 112.7566 49.9624 113.2776 49.3184 113.2776 48.6734 113.2776 48.1514 112.7566 48.1514 112.1116 48.1514 111.4676 48.6734 110.9456 49.3184 110.9456 49.9624 110.9456 50.4844 111.4676 50.4844 112.1116M74.2998 112.1116C74.2998 112.7566 73.7778 113.2776 73.1338 113.2776 72.4888 113.2776 71.9678 112.7566 71.9678 112.1116 71.9678 111.4676 72.4888 110.9456 73.1338 110.9456 73.7778 110.9456 74.2998 111.4676 74.2998 112.1116M98.1162 112.1116C98.1162 112.7566 97.5942 113.2776 96.9492 113.2776 96.3052 113.2776 95.7832 112.7566 95.7832 112.1116 95.7832 111.4676 96.3052 110.9456 96.9492 110.9456 97.5942 110.9456 98.1162 111.4676 98.1162 112.1116M122.3184 112.1116C122.3184 112.7566 121.7964 113.2776 121.1524 113.2776 120.5074 113.2776 119.9854 112.7566 119.9854 112.1116 119.9854 111.4676 120.5074 110.9456 121.1524 110.9456 121.7964 110.9456 122.3184 111.4676 122.3184 112.1116" mask="url(#patterns-illutration-b)"/>
  </g>
</svg>
