<svg xmlns="http://www.w3.org/2000/svg" xmlns:xlink="http://www.w3.org/1999/xlink" width="83" height="95" viewBox="0 0 83 95">
  <defs>
    <polygon id="principle-illustration-a" points=".359 .285 19.255 .285 19.255 2.285 .359 2.285"/>
    <polygon id="principle-illustration-c" points=".815 .12 14.255 .12 14.255 2.12 .815 2.12"/>
  </defs>
  <g fill="none" fill-rule="evenodd">
    <path fill="#69C1BD" d="M20.6563,12.5644 C20.6563,17.0334 17.0333,20.6564 12.5643,20.6564 C8.0953,20.6564 4.4723,17.0334 4.4723,12.5644 C4.4723,8.0954 8.0953,4.4724 12.5643,4.4724 C17.0333,4.4724 20.6563,8.0954 20.6563,12.5644"/>
    <path fill="#1D1D1B" d="M11.7588 16.454C11.4938 16.454 11.2388 16.349 11.0518 16.161L8.4868 13.596C8.0958 13.205 8.0958 12.572 8.4868 12.182 8.8768 11.791 9.5098 11.791 9.9008 12.182L11.7588 14.04 16.1818 9.616C16.5728 9.225 17.2058 9.225 17.5958 9.616 17.9868 10.007 17.9868 10.64 17.5958 11.03L12.4658 16.161C12.2788 16.349 12.0238 16.454 11.7588 16.454M44.3457 7.0849L32.8627 7.0849C32.3107 7.0849 31.8627 6.6379 31.8627 6.0849 31.8627 5.5319 32.3107 5.0849 32.8627 5.0849L44.3457 5.0849C44.8977 5.0849 45.3457 5.5319 45.3457 6.0849 45.3457 6.6379 44.8977 7.0849 44.3457 7.0849M58.024 7.0849L49.595 7.0849C49.043 7.0849 48.595 6.6379 48.595 6.0849 48.595 5.5319 49.043 5.0849 49.595 5.0849L58.024 5.0849C58.576 5.0849 59.024 5.5319 59.024 6.0849 59.024 6.6379 58.576 7.0849 58.024 7.0849"/>
    <g transform="translate(63 4.8)">
      <mask id="principle-illustration-b" fill="#fff">
        <use xlink:href="#principle-illustration-a"/>
      </mask>
      <path fill="#1D1D1B" d="M18.2554,2.2851 L1.3594,2.2851 C0.8064,2.2851 0.3594,1.8381 0.3594,1.2851 C0.3594,0.7321 0.8064,0.2851 1.3594,0.2851 L18.2554,0.2851 C18.8084,0.2851 19.2554,0.7321 19.2554,1.2851 C19.2554,1.8381 18.8084,2.2851 18.2554,2.2851" mask="url(#principle-illustration-b)"/>
    </g>
    <path fill="#1D1D1B" d="M51.3995 13.5644L32.8625 13.5644C32.3105 13.5644 31.8625 13.1174 31.8625 12.5644 31.8625 12.0114 32.3105 11.5644 32.8625 11.5644L51.3995 11.5644C51.9515 11.5644 52.3995 12.0114 52.3995 12.5644 52.3995 13.1174 51.9515 13.5644 51.3995 13.5644M72.8067 13.5644L57.1407 13.5644C56.5887 13.5644 56.1407 13.1174 56.1407 12.5644 56.1407 12.0114 56.5887 11.5644 57.1407 11.5644L72.8067 11.5644C73.3587 11.5644 73.8067 12.0114 73.8067 12.5644 73.8067 13.1174 73.3587 13.5644 72.8067 13.5644M39.7525 20.0439L32.8625 20.0439C32.3105 20.0439 31.8625 19.5969 31.8625 19.0439 31.8625 18.4909 32.3105 18.0439 32.8625 18.0439L39.7525 18.0439C40.3045 18.0439 40.7525 18.4909 40.7525 19.0439 40.7525 19.5969 40.3045 20.0439 39.7525 20.0439M58.9454 20.0439L44.3454 20.0439C43.7934 20.0439 43.3454 19.5969 43.3454 19.0439 43.3454 18.4909 43.7934 18.0439 44.3454 18.0439L58.9454 18.0439C59.4974 18.0439 59.9454 18.4909 59.9454 19.0439 59.9454 19.5969 59.4974 20.0439 58.9454 20.0439M69.4439 20.0439L64.3589 20.0439C63.8069 20.0439 63.3589 19.5969 63.3589 19.0439 63.3589 18.4909 63.8069 18.0439 64.3589 18.0439L69.4439 18.0439C69.9959 18.0439 70.4439 18.4909 70.4439 19.0439 70.4439 19.5969 69.9959 20.0439 69.4439 20.0439M51.6456 41.9198L32.8626 41.9198C32.3106 41.9198 31.8626 41.4728 31.8626 40.9198 31.8626 40.3668 32.3106 39.9198 32.8626 39.9198L51.6456 39.9198C52.1976 39.9198 52.6456 40.3668 52.6456 40.9198 52.6456 41.4728 52.1976 41.9198 51.6456 41.9198M64.9742 41.9198L56.5452 41.9198C55.9932 41.9198 55.5452 41.4728 55.5452 40.9198 55.5452 40.3668 55.9932 39.9198 56.5452 39.9198L64.9742 39.9198C65.5262 39.9198 65.9742 40.3668 65.9742 40.9198 65.9742 41.4728 65.5262 41.9198 64.9742 41.9198"/>
    <g transform="translate(68 39.8)">
      <mask id="principle-illustration-d" fill="#fff">
        <use xlink:href="#principle-illustration-c"/>
      </mask>
      <path fill="#1D1D1B" d="M13.2554,2.12 L1.8154,2.12 C1.2624,2.12 0.8154,1.673 0.8154,1.12 C0.8154,0.567 1.2624,0.12 1.8154,0.12 L13.2554,0.12 C13.8084,0.12 14.2554,0.567 14.2554,1.12 C14.2554,1.673 13.8084,2.12 13.2554,2.12" mask="url(#principle-illustration-d)"/>
    </g>
    <path fill="#1D1D1B" d="M44.3457 48.3993L32.8627 48.3993C32.3107 48.3993 31.8627 47.9523 31.8627 47.3993 31.8627 46.8463 32.3107 46.3993 32.8627 46.3993L44.3457 46.3993C44.8977 46.3993 45.3457 46.8463 45.3457 47.3993 45.3457 47.9523 44.8977 48.3993 44.3457 48.3993M59.4361 48.3993L48.7121 48.3993C48.1601 48.3993 47.7121 47.9523 47.7121 47.3993 47.7121 46.8463 48.1601 46.3993 48.7121 46.3993L59.4361 46.3993C59.9881 46.3993 60.4361 46.8463 60.4361 47.3993 60.4361 47.9523 59.9881 48.3993 59.4361 48.3993M71.6797 48.3993L64.4527 48.3993C63.9007 48.3993 63.4527 47.9523 63.4527 47.3993 63.4527 46.8463 63.9007 46.3993 64.4527 46.3993L71.6797 46.3993C72.2317 46.3993 72.6797 46.8463 72.6797 47.3993 72.6797 47.9523 72.2317 48.3993 71.6797 48.3993M51.6456 54.8788L32.8626 54.8788C32.3106 54.8788 31.8626 54.4318 31.8626 53.8788 31.8626 53.3258 32.3106 52.8788 32.8626 52.8788L51.6456 52.8788C52.1976 52.8788 52.6456 53.3258 52.6456 53.8788 52.6456 54.4318 52.1976 54.8788 51.6456 54.8788M67.3726 54.8788L56.5446 54.8788C55.9926 54.8788 55.5446 54.4318 55.5446 53.8788 55.5446 53.3258 55.9926 52.8788 56.5446 52.8788L67.3726 52.8788C67.9246 52.8788 68.3726 53.3258 68.3726 53.8788 68.3726 54.4318 67.9246 54.8788 67.3726 54.8788M39.7818 76.7558L32.8628 76.7558C32.3108 76.7558 31.8628 76.3088 31.8628 75.7558 31.8628 75.2028 32.3108 74.7558 32.8628 74.7558L39.7818 74.7558C40.3338 74.7558 40.7818 75.2028 40.7818 75.7558 40.7818 76.3088 40.3338 76.7558 39.7818 76.7558M64.0083 76.7558L45.1953 76.7558C44.6423 76.7558 44.1953 76.3088 44.1953 75.7558 44.1953 75.2028 44.6423 74.7558 45.1953 74.7558L64.0083 74.7558C64.5603 74.7558 65.0083 75.2028 65.0083 75.7558 65.0083 76.3088 64.5603 76.7558 64.0083 76.7558M42.254 83.2353L32.863 83.2353C32.311 83.2353 31.863 82.7883 31.863 82.2353 31.863 81.6823 32.311 81.2353 32.863 81.2353L42.254 81.2353C42.806 81.2353 43.254 81.6823 43.254 82.2353 43.254 82.7883 42.806 83.2353 42.254 83.2353M55.5914 83.2353L46.7804 83.2353C46.2284 83.2353 45.7804 82.7883 45.7804 82.2353 45.7804 81.6823 46.2284 81.2353 46.7804 81.2353L55.5914 81.2353C56.1434 81.2353 56.5914 81.6823 56.5914 82.2353 56.5914 82.7883 56.1434 83.2353 55.5914 83.2353M74.4048 83.2353L60.6058 83.2353C60.0528 83.2353 59.6058 82.7883 59.6058 82.2353 59.6058 81.6823 60.0528 81.2353 60.6058 81.2353L74.4048 81.2353C74.9568 81.2353 75.4048 81.6823 75.4048 82.2353 75.4048 82.7883 74.9568 83.2353 74.4048 83.2353M38.604 89.7148L32.863 89.7148C32.311 89.7148 31.863 89.2678 31.863 88.7148 31.863 88.1618 32.311 87.7148 32.863 87.7148L38.604 87.7148C39.156 87.7148 39.604 88.1618 39.604 88.7148 39.604 89.2678 39.156 89.7148 38.604 89.7148M54.126 89.7148L43.298 89.7148C42.746 89.7148 42.298 89.2678 42.298 88.7148 42.298 88.1618 42.746 87.7148 43.298 87.7148L54.126 87.7148C54.678 87.7148 55.126 88.1618 55.126 88.7148 55.126 89.2678 54.678 89.7148 54.126 89.7148M72.7832 89.7148L58.6062 89.7148C58.0542 89.7148 57.6062 89.2678 57.6062 88.7148 57.6062 88.1618 58.0542 87.7148 58.6062 87.7148L72.7832 87.7148C73.3352 87.7148 73.7832 88.1618 73.7832 88.7148 73.7832 89.2678 73.3352 89.7148 72.7832 89.7148M12.5645 1.9999C6.7395 1.9999 2.0005 6.7389 2.0005 12.5639 2.0005 18.3899 6.7395 23.1289 12.5645 23.1289 18.3895 23.1289 23.1285 18.3899 23.1285 12.5639 23.1285 6.7389 18.3895 1.9999 12.5645 1.9999M12.5645 25.1289C5.6365 25.1289.0005 19.4919.0005 12.5639.0005 5.6369 5.6365-.0001 12.5645-.0001 19.4925-.0001 25.1285 5.6369 25.1285 12.5639 25.1285 19.4919 19.4925 25.1289 12.5645 25.1289"/>
    <path fill="#69C1BD" d="M20.6563,47.3993 C20.6563,51.8693 17.0333,55.4913 12.5643,55.4913 C8.0953,55.4913 4.4723,51.8693 4.4723,47.3993 C4.4723,42.9303 8.0953,39.3073 12.5643,39.3073 C17.0333,39.3073 20.6563,42.9303 20.6563,47.3993"/>
    <path fill="#1D1D1B" d="M11.7588,51.289 C11.4938,51.289 11.2388,51.184 11.0518,50.996 L8.4868,48.431 C8.0958,48.04 8.0958,47.407 8.4868,47.017 C8.8768,46.626 9.5098,46.626 9.9008,47.017 L11.7588,48.875 L16.1818,44.451 C16.5728,44.06 17.2058,44.06 17.5958,44.451 C17.9868,44.842 17.9868,45.475 17.5958,45.865 L12.4658,50.996 C12.2788,51.184 12.0238,51.289 11.7588,51.289"/>
    <path fill="#1D1D1B" d="M12.5645,36.8349 C6.7395,36.8349 2.0005,41.5739 2.0005,47.3989 C2.0005,53.2249 6.7395,57.9639 12.5645,57.9639 C18.3895,57.9639 23.1285,53.2249 23.1285,47.3989 C23.1285,41.5739 18.3895,36.8349 12.5645,36.8349 M12.5645,59.9639 C5.6365,59.9639 0.0005,54.3269 0.0005,47.3989 C0.0005,40.4719 5.6365,34.8349 12.5645,34.8349 C19.4925,34.8349 25.1285,40.4719 25.1285,47.3989 C25.1285,54.3269 19.4925,59.9639 12.5645,59.9639"/>
    <path fill="#69C1BD" d="M20.6563,82.2353 C20.6563,86.7043 17.0333,90.3273 12.5643,90.3273 C8.0953,90.3273 4.4723,86.7043 4.4723,82.2353 C4.4723,77.7653 8.0953,74.1433 12.5643,74.1433 C17.0333,74.1433 20.6563,77.7653 20.6563,82.2353"/>
    <path fill="#1D1D1B" d="M11.7588,86.1249 C11.4938,86.1249 11.2388,86.0199 11.0518,85.8319 L8.4868,83.2669 C8.0958,82.8759 8.0958,82.2429 8.4868,81.8529 C8.8768,81.4619 9.5098,81.4619 9.9008,81.8529 L11.7588,83.7109 L16.1818,79.2869 C16.5728,78.8959 17.2058,78.8959 17.5958,79.2869 C17.9868,79.6779 17.9868,80.3109 17.5958,80.7009 L12.4658,85.8319 C12.2788,86.0199 12.0238,86.1249 11.7588,86.1249"/>
    <path fill="#1D1D1B" d="M12.5645,71.6708 C6.7395,71.6708 2.0005,76.4098 2.0005,82.2348 C2.0005,88.0608 6.7395,92.7998 12.5645,92.7998 C18.3895,92.7998 23.1285,88.0608 23.1285,82.2348 C23.1285,76.4098 18.3895,71.6708 12.5645,71.6708 M12.5645,94.7998 C5.6365,94.7998 0.0005,89.1628 0.0005,82.2348 C0.0005,75.3078 5.6365,69.6708 12.5645,69.6708 C19.4925,69.6708 25.1285,75.3078 25.1285,82.2348 C25.1285,89.1628 19.4925,94.7998 12.5645,94.7998"/>
  </g>
</svg>
