<svg xmlns="http://www.w3.org/2000/svg" xmlns:xlink="http://www.w3.org/1999/xlink" width="92" height="101" viewBox="0 0 92 101">
  <defs>
    <polygon id="roadmap-illustration-a" points="0 .81 17.778 .81 17.778 27.599 0 27.599"/>
  </defs>
  <g fill="none" fill-rule="evenodd" transform="translate(0 -1)">
    <polygon fill="#69C1BD" points="72.128 2 89.862 2 86.753 6.775 89.862 12.493 72.128 12.738"/>
    <g transform="translate(0 .682)">
      <path fill="#69C1BD" d="M8.6343,71.2411 C6.8763,71.2411 5.4483,69.8131 5.4483,68.0551 C5.4483,66.3091 6.8763,64.8821 8.6343,64.8821 C10.3803,64.8821 11.8083,66.3091 11.8083,68.0551 C11.8083,69.8131 10.3803,71.2411 8.6343,71.2411 L8.6343,71.2411 Z M14.3573,63.0291 L10.6523,61.0121 L5.4483,61.6011 L1.8633,65.1301 L1.0013,69.2231 L8.7173,85.3161 L16.1263,71.6541 L16.6813,67.5601 L14.3573,63.0291 Z"/>
      <path fill="#1D1D1B" d="M67.2701 33.2382L44.8881 33.2382C44.3351 33.2382 43.8881 32.7912 43.8881 32.2382 43.8881 31.6852 44.3351 31.2382 44.8881 31.2382L67.2701 31.2382C67.8231 31.2382 68.2701 31.6852 68.2701 32.2382 68.2701 32.7912 67.8231 33.2382 67.2701 33.2382M35.9185 63.6601C35.7865 63.6601 35.6505 63.6341 35.5225 63.5771 29.3505 60.9011 25.3615 54.8261 25.3615 48.1001 25.3615 41.4021 29.3275 35.3361 35.4645 32.6471 35.9745 32.4251 36.5615 32.6571 36.7815 33.1621 37.0035 33.6681 36.7725 34.2581 36.2675 34.4791 30.8565 36.8491 27.3615 42.1961 27.3615 48.1001 27.3615 54.0291 30.8775 59.3841 36.3165 61.7431 36.8235 61.9621 37.0565 62.5511 36.8365 63.0571 36.6735 63.4351 36.3055 63.6601 35.9185 63.6601M67.3736 64.9618L44.8246 64.9618C44.2716 64.9618 43.8246 64.5148 43.8246 63.9618 43.8246 63.4088 44.2716 62.9618 44.8246 62.9618L67.3736 62.9618C67.9266 62.9618 68.3736 63.4088 68.3736 63.9618 68.3736 64.5148 67.9266 64.9618 67.3736 64.9618M76.3365 95.5595C75.9405 95.5595 75.5645 95.3215 75.4075 94.9305 75.2025 94.4175 75.4525 93.8355 75.9655 93.6305 81.6475 91.3615 85.3175 85.9425 85.3175 79.8235 85.3175 73.7195 81.4925 68.1455 75.8005 65.9525 75.2845 65.7525 75.0275 65.1735 75.2265 64.6595 75.4255 64.1425 76.0065 63.8895 76.5195 64.0845 82.9785 66.5745 87.3175 72.8995 87.3175 79.8235 87.3175 86.7645 83.1525 92.9135 76.7075 95.4885 76.5855 95.5375 76.4605 95.5595 76.3365 95.5595M67.0796 96.6855L44.8906 96.6855C44.3376 96.6855 43.8906 96.2385 43.8906 95.6855 43.8906 95.1325 44.3376 94.6855 44.8906 94.6855L67.0796 94.6855C67.6326 94.6855 68.0796 95.1325 68.0796 95.6855 68.0796 96.2385 67.6326 96.6855 67.0796 96.6855M35.773 96.6855L13.204 96.6855C12.651 96.6855 12.204 96.2385 12.204 95.6855 12.204 95.1325 12.651 94.6855 13.204 94.6855L35.773 94.6855C36.326 94.6855 36.773 95.1325 36.773 95.6855 36.773 96.2385 36.326 96.6855 35.773 96.6855"/>
      <g transform="translate(0 59)">
        <mask id="roadmap-illustration-b" fill="#fff">
          <use xlink:href="#roadmap-illustration-a"/>
        </mask>
        <path fill="#1D1D1B" d="M8.8892,2.8105 C5.0902,2.8105 1.9992,5.9015 1.9992,9.7005 C1.9992,12.6605 6.3952,20.5575 8.8892,24.6905 C11.3832,20.5575 15.7782,12.6605 15.7782,9.7005 C15.7782,5.9015 12.6882,2.8105 8.8892,2.8105 M8.8892,27.5995 C8.5452,27.5995 8.2262,27.4225 8.0422,27.1315 C7.2192,25.8235 -0.0008,14.2155 -0.0008,9.7005 C-0.0008,4.7985 3.9882,0.8105 8.8892,0.8105 C13.7902,0.8105 17.7782,4.7985 17.7782,9.7005 C17.7782,14.2155 10.5592,25.8235 9.7362,27.1315 C9.5522,27.4225 9.2332,27.5995 8.8892,27.5995" mask="url(#roadmap-illustration-b)"/>
      </g>
      <path fill="#1D1D1B" d="M8.7154 66.1259C7.4674 66.1259 6.4514 67.1419 6.4514 68.3899 6.4514 69.6379 7.4674 70.6529 8.7154 70.6529 9.9634 70.6529 10.9794 69.6379 10.9794 68.3899 10.9794 67.1419 9.9634 66.1259 8.7154 66.1259M8.7154 72.6529C6.3644 72.6529 4.4514 70.7399 4.4514 68.3899 4.4514 66.0389 6.3644 64.1259 8.7154 64.1259 11.0664 64.1259 12.9794 66.0389 12.9794 68.3899 12.9794 70.7399 11.0664 72.6529 8.7154 72.6529M73.1284 11.0566L88.4464 11.0566 85.6634 7.0116C85.4204 6.6586 85.4304 6.1876 85.6894 5.8436L88.3444 2.3186 73.1284 2.3186 73.1284 11.0566zM72.1284 21.8136C71.5754 21.8136 71.1284 21.3666 71.1284 20.8136L71.1284 1.3186C71.1284.7656 71.5754.3186 72.1284.3186L90.3494.3186C90.7284.3186 91.0744.5336 91.2434.8716 91.4134 1.2106 91.3764 1.6176 91.1484 1.9196L87.7204 6.4716 91.1734 11.4906C91.3834 11.7956 91.4064 12.1936 91.2334 12.5226 91.0614 12.8506 90.7204 13.0566 90.3494 13.0566L73.1284 13.0566 73.1284 20.8136C73.1284 21.3666 72.6814 21.8136 72.1284 21.8136L72.1284 21.8136zM40.3667 60.6474C38.5397 60.6474 37.0527 62.1344 37.0527 63.9614 37.0527 65.7894 38.5397 67.2764 40.3667 67.2764 42.1937 67.2764 43.6807 65.7894 43.6807 63.9614 43.6807 62.1344 42.1937 60.6474 40.3667 60.6474M40.3667 69.2764C37.4357 69.2764 35.0527 66.8924 35.0527 63.9614 35.0527 61.0314 37.4357 58.6474 40.3667 58.6474 43.2977 58.6474 45.6807 61.0314 45.6807 63.9614 45.6807 66.8924 43.2977 69.2764 40.3667 69.2764M40.3667 28.9238C38.5397 28.9238 37.0527 30.4108 37.0527 32.2378 37.0527 34.0668 38.5397 35.5538 40.3667 35.5538 42.1937 35.5538 43.6807 34.0668 43.6807 32.2378 43.6807 30.4108 42.1937 28.9238 40.3667 28.9238M40.3667 37.5538C37.4357 37.5538 35.0527 35.1688 35.0527 32.2378 35.0527 29.3078 37.4357 26.9238 40.3667 26.9238 43.2977 26.9238 45.6807 29.3078 45.6807 32.2378 45.6807 35.1688 43.2977 37.5538 40.3667 37.5538M71.8443 28.9238C70.0173 28.9238 68.5303 30.4108 68.5303 32.2378 68.5303 34.0668 70.0173 35.5538 71.8443 35.5538 73.6723 35.5538 75.1593 34.0668 75.1593 32.2378 75.1593 30.4108 73.6723 28.9238 71.8443 28.9238M71.8443 37.5538C68.9133 37.5538 66.5303 35.1688 66.5303 32.2378 66.5303 29.3078 68.9133 26.9238 71.8443 26.9238 74.7753 26.9238 77.1593 29.3078 77.1593 32.2378 77.1593 35.1688 74.7753 37.5538 71.8443 37.5538"/>
      <path fill="#D8ECEE" d="M77.9409,32.2382 C77.9409,35.6052 75.2119,38.3342 71.8449,38.3342 C68.4789,38.3342 65.7499,35.6052 65.7499,32.2382 C65.7499,28.8722 68.4789,26.1432 71.8449,26.1432 C75.2119,26.1432 77.9409,28.8722 77.9409,32.2382"/>
      <path fill="#1D1D1B" d="M71.8443 27.1425C69.0343 27.1425 66.7493 29.4285 66.7493 32.2385 66.7493 35.0475 69.0343 37.3335 71.8443 37.3335 74.6543 37.3335 76.9403 35.0475 76.9403 32.2385 76.9403 29.4285 74.6543 27.1425 71.8443 27.1425M71.8443 39.3335C67.9323 39.3335 64.7493 36.1505 64.7493 32.2385 64.7493 28.3265 67.9323 25.1425 71.8443 25.1425 75.7563 25.1425 78.9403 28.3265 78.9403 32.2385 78.9403 36.1505 75.7563 39.3335 71.8443 39.3335M71.8443 60.6474C70.0173 60.6474 68.5303 62.1344 68.5303 63.9614 68.5303 65.7894 70.0173 67.2764 71.8443 67.2764 73.6723 67.2764 75.1593 65.7894 75.1593 63.9614 75.1593 62.1344 73.6723 60.6474 71.8443 60.6474M71.8443 69.2764C68.9133 69.2764 66.5303 66.8924 66.5303 63.9614 66.5303 61.0314 68.9133 58.6474 71.8443 58.6474 74.7753 58.6474 77.1593 61.0314 77.1593 63.9614 77.1593 66.8924 74.7753 69.2764 71.8443 69.2764M71.8443 92.37C70.0173 92.37 68.5303 93.857 68.5303 95.685 68.5303 97.513 70.0173 99 71.8443 99 73.6723 99 75.1593 97.513 75.1593 95.685 75.1593 93.857 73.6723 92.37 71.8443 92.37M71.8443 101C68.9133 101 66.5303 98.616 66.5303 95.685 66.5303 92.755 68.9133 90.37 71.8443 90.37 74.7753 90.37 77.1593 92.755 77.1593 95.685 77.1593 98.616 74.7753 101 71.8443 101M40.3667 92.37C38.5397 92.37 37.0527 93.857 37.0527 95.685 37.0527 97.513 38.5397 99 40.3667 99 42.1937 99 43.6807 97.513 43.6807 95.685 43.6807 93.857 42.1937 92.37 40.3667 92.37M40.3667 101C37.4357 101 35.0527 98.616 35.0527 95.685 35.0527 92.755 37.4357 90.37 40.3667 90.37 43.2977 90.37 45.6807 92.755 45.6807 95.685 45.6807 98.616 43.2977 101 40.3667 101M8.8892 92.37C7.0612 92.37 5.5742 93.857 5.5742 95.685 5.5742 97.513 7.0612 99 8.8892 99 10.7162 99 12.2032 97.513 12.2032 95.685 12.2032 93.857 10.7162 92.37 8.8892 92.37M8.8892 101C5.9582 101 3.5742 98.616 3.5742 95.685 3.5742 92.755 5.9582 90.37 8.8892 90.37 11.8202 90.37 14.2032 92.755 14.2032 95.685 14.2032 98.616 11.8202 101 8.8892 101M39.9839 16.1591L32.7899 16.1591C32.2369 16.1591 31.7899 15.7121 31.7899 15.1591 31.7899 14.6061 32.2369 14.1591 32.7899 14.1591L39.9839 14.1591C40.5369 14.1591 40.9839 14.6061 40.9839 15.1591 40.9839 15.7121 40.5369 16.1591 39.9839 16.1591M49.5806 16.1591L43.6856 16.1591C43.1336 16.1591 42.6856 15.7121 42.6856 15.1591 42.6856 14.6061 43.1336 14.1591 43.6856 14.1591L49.5806 14.1591C50.1336 14.1591 50.5806 14.6061 50.5806 15.1591 50.5806 15.7121 50.1336 16.1591 49.5806 16.1591M37.1724 21.4745L32.7894 21.4745C32.2364 21.4745 31.7894 21.0275 31.7894 20.4745 31.7894 19.9215 32.2364 19.4745 32.7894 19.4745L37.1724 19.4745C37.7254 19.4745 38.1724 19.9215 38.1724 20.4745 38.1724 21.0275 37.7254 21.4745 37.1724 21.4745M46.065 21.4745L40.895 21.4745C40.342 21.4745 39.895 21.0275 39.895 20.4745 39.895 19.9215 40.342 19.4745 40.895 19.4745L46.065 19.4745C46.618 19.4745 47.065 19.9215 47.065 20.4745 47.065 21.0275 46.618 21.4745 46.065 21.4745M39.6929 81.0009L32.4999 81.0009C31.9469 81.0009 31.4999 80.5539 31.4999 80.0009 31.4999 79.4479 31.9469 79.0009 32.4999 79.0009L39.6929 79.0009C40.2459 79.0009 40.6929 79.4479 40.6929 80.0009 40.6929 80.5539 40.2459 81.0009 39.6929 81.0009M46.3433 81.0009L43.3963 81.0009C42.8433 81.0009 42.3963 80.5539 42.3963 80.0009 42.3963 79.4479 42.8433 79.0009 43.3963 79.0009L46.3433 79.0009C46.8963 79.0009 47.3433 79.4479 47.3433 80.0009 47.3433 80.5539 46.8963 81.0009 46.3433 81.0009M55.9849 81.0009L49.7119 81.0009C49.1589 81.0009 48.7119 80.5539 48.7119 80.0009 48.7119 79.4479 49.1589 79.0009 49.7119 79.0009L55.9849 79.0009C56.5379 79.0009 56.9849 79.4479 56.9849 80.0009 56.9849 80.5539 56.5379 81.0009 55.9849 81.0009M41.8365 86.3163L32.4995 86.3163C31.9465 86.3163 31.4995 85.8693 31.4995 85.3163 31.4995 84.7633 31.9465 84.3163 32.4995 84.3163L41.8365 84.3163C42.3895 84.3163 42.8365 84.7633 42.8365 85.3163 42.8365 85.8693 42.3895 86.3163 41.8365 86.3163M51.0572 86.3163L45.8872 86.3163C45.3342 86.3163 44.8872 85.8693 44.8872 85.3163 44.8872 84.7633 45.3342 84.3163 45.8872 84.3163L51.0572 84.3163C51.6102 84.3163 52.0572 84.7633 52.0572 85.3163 52.0572 85.8693 51.6102 86.3163 51.0572 86.3163M70.8345 49.0693L66.4515 49.0693C65.8985 49.0693 65.4515 48.6223 65.4515 48.0693 65.4515 47.5163 65.8985 47.0693 66.4515 47.0693L70.8345 47.0693C71.3875 47.0693 71.8345 47.5163 71.8345 48.0693 71.8345 48.6223 71.3875 49.0693 70.8345 49.0693M80.2954 49.0693L74.4014 49.0693C73.8494 49.0693 73.4014 48.6223 73.4014 48.0693 73.4014 47.5163 73.8494 47.0693 74.4014 47.0693L80.2954 47.0693C80.8484 47.0693 81.2954 47.5163 81.2954 48.0693 81.2954 48.6223 80.8484 49.0693 80.2954 49.0693M76.5279 54.3857L66.4519 54.3857C65.8989 54.3857 65.4519 53.9387 65.4519 53.3857 65.4519 52.8327 65.8989 52.3857 66.4519 52.3857L76.5279 52.3857C77.0809 52.3857 77.5279 52.8327 77.5279 53.3857 77.5279 53.9387 77.0809 54.3857 76.5279 54.3857M85.4654 54.3857L80.2954 54.3857C79.7424 54.3857 79.2954 53.9387 79.2954 53.3857 79.2954 52.8327 79.7424 52.3857 80.2954 52.3857L85.4654 52.3857C86.0184 52.3857 86.4654 52.8327 86.4654 53.3857 86.4654 53.9387 86.0184 54.3857 85.4654 54.3857"/>
    </g>
  </g>
</svg>
