<?xml version="1.0" encoding="utf-8"?>
<!-- Generator: Adobe Illustrator 23.0.6, SVG Export Plug-In . SVG Version: 6.00 Build 0)  -->
<svg version="1.1" id="Layer_1" focusable="false" xmlns="http://www.w3.org/2000/svg" xmlns:xlink="http://www.w3.org/1999/xlink"
	 x="0px" y="0px" viewBox="0 0 512 512" style="enable-background:new 0 0 512 512;" xml:space="preserve">
<style type="text/css">
	.st0{fill:#383838;}
</style>
<path class="st0" d="M27.5,162.2L9,187.1h90.5l6.9-130.7L27.5,162.2L27.5,162.2z M396.3,45.7L267.7,32l135.7,147.2L396.3,45.7
	L396.3,45.7z M112.2,218.3l-11.2-22H9.9L234.8,458L112.2,218.3z M114.2,187.1h284l-81.5-88.5L256.3,33L114.2,187.1z M411.5,196.2
	L277.6,458l224.8-261.7L411.5,196.2L411.5,196.2z M415.4,69L406,56.4l0.9,17.3l6.1,113.4h90.3L415.4,69z M113.5,93.5l-4.6,85.6
	L244.7,32L116.1,45.7L113.5,93.5z M401.2,196.2h-290l42.4,82.9L256.3,480L401.2,196.2L401.2,196.2z"/>
</svg>
