<?xml version="1.0" encoding="utf-8"?>
<!-- Generator: Adobe Illustrator 23.0.6, SVG Export Plug-In . SVG Version: 6.00 Build 0)  -->
<svg version="1.1" id="Capa_1" xmlns="http://www.w3.org/2000/svg" xmlns:xlink="http://www.w3.org/1999/xlink" x="0px" y="0px"
	 viewBox="0 0 512 512" style="enable-background:new 0 0 512 512;" xml:space="preserve">
<style type="text/css">
	.st0{fill:#F5C86E;}
	.st1{fill:#D22E06;}
</style>
<path class="st0" d="M410,158.8l6.4-5.1c23-18.1,55.9-16.2,76.6,4.5l8.9,8.9L458.9,225c-7.3,9.7-13.9,19.9-20,30.4L412.6,301
	c-36.5,63.3-104,102.3-177.1,102.3H10.2l73.6-53.7L410,158.8z"/>
<path class="st1" d="M151,244.7c-6.9-15-0.3-32.8,14.7-39.7c18.8-8.6,41-0.4,49.6,18.4c10.8,23.5,0.5,51.3-23,62.1
	c-29.4,13.5-64.1,0.6-77.6-28.7c-16.9-36.7-0.8-80.1,35.9-97c45.9-21.1,100.1-1,121.2,44.9c26.4,57.3,1.2,125.2-56.1,151.5
	c-71.7,32.9-156.5,1.6-189.4-70.1C-14.8,196.5,24.5,90.5,114,49.3C226-2.2,358.5,46.9,410,158.8l0,0
	c-30.2,38.3-72.3,65.3-119.7,76.7l-1.5,0.4"/>
<path d="M421.2,306l26.3-45.6c5.8-10.1,12.4-20,19.4-29.4l43.1-57.7c3-4,2.6-9.5-0.9-13.1l-8.9-8.9c-8.1-8.1-17.9-13.8-28.2-16.9
	l20.8-36.1c2.8-4.8,1.1-10.9-3.7-13.7c-4.8-2.8-10.9-1.1-13.7,3.7l-19.1,33.2l-18.6-32.2c-2.8-4.8-8.9-6.4-13.7-3.7
	c-4.8,2.8-6.4,8.9-3.7,13.7l19.3,33.4c-9.2,1.7-18.1,5.3-26.1,10.9c-26.8-51.1-70.9-89.9-125.4-110.1
	c-58.4-21.6-121.7-19.2-178.3,6.8c-45.7,21-80.6,58.6-98,105.8c-17.5,47.2-15.5,98.4,5.5,144.2c11.1,24.2,27.9,44.6,48.9,59.8
	L4.3,395.2c-3.5,2.6-5,7.1-3.6,11.2c1.3,4.1,5.2,6.9,9.5,6.9h225.3C311.9,413.2,383.1,372.1,421.2,306z M35.5,281.9
	C16.7,241,15,195.2,30.6,153s46.8-75.8,87.6-94.6c28.4-13,58.6-19.6,88.9-19.6c25,0,50,4.4,74.1,13.4c51.5,19,92.8,56.3,117,105.3
	c-28.1,33.4-66.4,57.5-108.8,68c-1.9-8.5-4.7-16.9-8.5-25c-11.3-24.6-31.5-43.3-56.9-52.7c-25.4-9.4-52.9-8.3-77.5,3
	c-41.6,19.1-59.9,68.6-40.8,110.2c15.8,34.3,56.5,49.4,90.8,33.6c13.8-6.3,24.3-17.7,29.5-31.9c5.3-14.2,4.7-29.7-1.7-43.4
	c-5.3-11.5-14.7-20.3-26.6-24.7c-11.9-4.4-24.8-3.9-36.3,1.4c-20,9.2-28.8,33-19.6,53c2.3,5,8.2,7.2,13.3,4.9
	c5-2.3,7.2-8.2,4.9-13.3c-4.6-10-0.2-21.9,9.8-26.5c6.7-3.1,14.1-3.3,21-0.8c6.9,2.5,12.3,7.6,15.4,14.3c4.1,8.9,4.5,18.9,1.1,28.1
	c-3.4,9.2-10.2,16.6-19.1,20.7c-24.3,11.2-53.1,0.5-64.3-23.8c-14.5-31.6-0.6-69.2,31-83.7c40.8-18.7,89.2-0.8,108,40
	c11.6,25.3,12.7,53.6,3,79.7c-9.7,26.1-28.9,46.9-54.2,58.5c-32.2,14.8-68.3,16.2-101.6,3.9c-7.2-2.7-14.2-5.9-20.7-9.7
	c-0.3-0.2-0.6-0.4-1-0.6C65.3,327,46.9,306.7,35.5,281.9z M84.5,361.4c6,3.2,12.2,5.9,18.6,8.3c17.3,6.4,35.2,9.6,53.1,9.6
	c21.7,0,43.4-4.7,63.7-14c30.2-13.9,53.1-38.6,64.6-69.8c6-16.3,8.5-33.3,7.6-50.1l0.4-0.1c48.9-11.8,93-40,124.4-79.3l5.5-4.4
	c19-15,46.3-13.4,63.4,3.8l2.8,2.8L450.9,219c-7.5,10-14.4,20.6-20.7,31.4L403.9,296c-34.6,60-99.2,97.3-168.4,97.3H40.8L84.5,361.4
	z"/>
<path d="M410.5,72.2c2.6,0,5.2-1.1,7.1-2.9c1.9-1.9,2.9-4.4,2.9-7.1c0-2.6-1.1-5.2-2.9-7.1c-1.9-1.9-4.4-2.9-7.1-2.9
	s-5.2,1.1-7.1,2.9c-1.9,1.9-2.9,4.4-2.9,7.1c0,2.6,1.1,5.2,2.9,7.1C405.3,71.1,407.9,72.2,410.5,72.2z"/>
<path d="M502,72.2c2.6,0,5.2-1.1,7.1-2.9c1.9-1.9,2.9-4.4,2.9-7.1c0-2.6-1.1-5.2-2.9-7.1c-1.9-1.9-4.4-2.9-7.1-2.9s-5.2,1.1-7.1,2.9
	c-1.9,1.9-2.9,4.4-2.9,7.1c0,2.6,1.1,5.2,2.9,7.1C496.8,71.1,499.4,72.2,502,72.2z"/>
<path d="M71.8,265.2l-0.1-0.3c-2.3-5-8.2-7.2-13.2-4.9c-5,2.3-7.2,8.2-4.9,13.2l0.2,0.4c1.7,3.7,5.3,5.8,9.1,5.8
	c1.4,0,2.8-0.3,4.2-0.9C71.9,276.1,74.1,270.2,71.8,265.2z"/>
<path d="M61.3,228.9C53.7,173.3,84,118.1,134.9,94.7c5-2.3,7.2-8.2,4.9-13.3s-8.2-7.2-13.3-4.9C97.1,90.1,73.4,112.4,58,140.9
	c-14.9,27.6-20.7,59.8-16.5,90.7c0.7,5,5,8.6,9.9,8.6c0.5,0,0.9,0,1.4-0.1C58.2,239.5,62,234.4,61.3,228.9z"/>
<path d="M502,393.2H372c-5.5,0-10,4.5-10,10c0,5.5,4.5,10,10,10h130c5.5,0,10-4.5,10-10C512,397.7,507.5,393.2,502,393.2z"/>
<path d="M462.2,433.2h-61c-5.5,0-10,4.5-10,10c0,5.5,4.5,10,10,10h61c5.5,0,10-4.5,10-10C472.2,437.7,467.7,433.2,462.2,433.2z"/>
<path d="M363.5,443.2c0-5.5-4.5-10-10-10H79.8c-5.5,0-10,4.5-10,10c0,5.5,4.5,10,10,10h273.6C359,453.2,363.5,448.7,363.5,443.2z"/>
<path d="M147,473.2h-31.4c-5.5,0-10,4.5-10,10c0,5.5,4.5,10,10,10H147c5.5,0,10-4.5,10-10C157,477.7,152.6,473.2,147,473.2z"/>
<path d="M428,473.2H199c-5.5,0-10,4.5-10,10c0,5.5,4.5,10,10,10H428c5.5,0,10-4.5,10-10C438,477.7,433.5,473.2,428,473.2z"/>
</svg>
