<svg xmlns="http://www.w3.org/2000/svg" width="38" height="38" viewBox="0 0 38 38">
  <path fill-rule="evenodd" d="M26.5478,14.4809 C26.5308,14.4549 26.5098,14.4319 26.4928,14.4059 C26.2868,14.0859 26.0658,13.7769 25.8218,13.4859 C25.7928,13.4519 25.7608,13.4209 25.7318,13.3869 C25.5118,13.1319 25.2768,12.8919 25.0298,12.6619 C24.9648,12.6019 24.9008,12.5429 24.8338,12.4849 C24.2518,11.9749 23.6058,11.5409 22.9068,11.1929 C22.8848,11.1819 22.8648,11.1669 22.8428,11.1559 C23.2928,10.4039 24.1008,9.9299 25.0008,9.9299 L25.0058,9.9299 C25.6848,9.9309 26.3228,10.1959 26.8028,10.6769 C27.2818,11.1579 27.5448,11.7969 27.5438028,12.4759 C27.5428,13.2719 27.1658,14.0069 26.5478,14.4809 L26.5478,14.4809 Z M18.8958,26.9119 C14.6858,26.9119 11.2608,23.4869 11.2608,19.2769 C11.2608,18.0039 11.5778,16.8049 12.1308,15.7489 C12.3318,15.3639 12.5678,15.0029 12.8278,14.6619 C12.8518,14.6299 12.8748,14.5979 12.8998,14.5659 C13.1568,14.2389 13.4418,13.9349 13.7478,13.6549 C13.7808,13.6249 13.8138,13.5939 13.8488,13.5629 C14.1628,13.2859 14.4998,13.0319 14.8578,12.8089 C14.8838,12.7929 14.9098,12.7769 14.9358,12.7619 C15.3108,12.5339 15.7048,12.3339 16.1188,12.1719 C16.9808,11.8339 17.9148,11.6419 18.8958,11.6419 C19.8768,11.6419 20.8128,11.8349 21.6758,12.1739 C22.0868,12.3349 22.4778,12.5329 22.8508,12.7589 C22.8798,12.7769 22.9098,12.7939 22.9388,12.8119 C23.2928,13.0339 23.6258,13.2849 23.9378,13.5589 C23.9758,13.5929 24.0128,13.6269 24.0498,13.6609 C24.3518,13.9379 24.6328,14.2379 24.8878,14.5609 C24.9158,14.5969 24.9428,14.6349 24.9708,14.6709 C25.2258,15.0079 25.4578,15.3639 25.6568,15.7429 C26.2118,16.7999 26.5298,18.0009 26.5298,19.2769 C26.5298,23.4869 23.1058,26.9119 18.8958,26.9119 L18.8958,26.9119 Z M10.2477941,12.4759 C10.2448,11.0739 11.3838,9.9319 12.7848,9.9299 L12.7898,9.9299 C13.6908,9.9299 14.4988,10.4039 14.9488,11.1559 C14.9288,11.1659 14.9108,11.1799 14.8898,11.1899 C14.1868,11.5399 13.5358,11.9769 12.9508,12.4899 C12.8898,12.5439 12.8298,12.5989 12.7698,12.6549 C12.5148,12.8909 12.2708,13.1389 12.0438,13.4039 C12.0218,13.4299 11.9968,13.4539 11.9748,13.4799 C11.7268,13.7749 11.5018,14.0889 11.2928,14.4139 C11.2778,14.4369 11.2588,14.4579 11.2438,14.4809 C10.6258,14.0079 10.2488,13.2719 10.2477941,12.4759 L10.2477941,12.4759 Z M28.9438073,12.4779 C28.9458,11.4249 28.5368,10.4349 27.7938,9.6889 C27.0508,8.9429 26.0618,8.5319 25.0078,8.5299 L25.0008,8.5299 C23.5198,8.5299 22.2058,9.3539 21.5348,10.6369 C20.6998,10.3809 19.8138,10.2419 18.8958,10.2419 C17.9778,10.2419 17.0918,10.3809 16.2568,10.6369 C15.5858,9.3539 14.2718,8.5299 12.7898,8.5299 L12.7828,8.5299 C10.6098,8.5339 8.8448,10.3049 8.84779618,12.4779 C8.8498,13.7959 9.5188,15.0019 10.5898,15.7249 C10.1218,16.8159 9.8608,18.0159 9.8608,19.2769 C9.8608,22.1949 11.2568,24.7859 13.4098,26.4399 L11.8858,28.0859 L12.9128,29.0379 L14.5938,27.2209 C15.8738,27.9169 17.3398,28.3129 18.8958,28.3129 C20.4518,28.3129 21.9168,27.9169 23.1968,27.2209 L24.8778,29.0379 L25.9048,28.0859 L24.3808,26.4399 C26.5338,24.7859 27.9308,22.1949 27.9308,19.2769 C27.9308,18.0159 27.6698,16.8159 27.2008,15.7249 C28.2728,15.0019 28.9418,13.7949 28.9438073,12.4779 L28.9438073,12.4779 Z M31.0508,6.8599 C30.1168,5.7649 28.8188,5.1559 27.3928,5.1479 L27.3848,6.5479 C28.6818,6.5559 29.5138,7.2159 29.9848,7.7679 C30.6038,8.4959 30.9558,9.4549 30.9498,10.3989 L32.3508,10.4069 C32.3578,9.1319 31.8838,7.8399 31.0508,6.8599 L31.0508,6.8599 Z M10.3998,5.1479 C7.3188,5.1659 5.4268,7.8919 5.4408,10.4069 L6.8408,10.3989 C6.8308,8.5569 8.1918,6.5609 10.4068,6.5479 L10.3998,5.1479 Z M18.1948,19.2149 L15.5468,19.2149 L15.5468,20.6149 L19.5958,20.6149 L19.5958,15.5519 L18.1948,15.5519 L18.1948,19.2149 Z"/>
</svg>
