<svg xmlns="http://www.w3.org/2000/svg" width="38" height="38" viewBox="0 0 38 38">
  <path fill-rule="evenodd" d="M30.6845,13.1272 L7.1075,13.1272 L7.1075,8.6222 L9.7635,8.6222 L9.7635,9.3492 C9.7635,10.4262 10.6405,11.3032 11.7175,11.3032 C12.7945,11.3032 13.6715,10.4262 13.6715,9.3492 L13.6715,8.6222 L24.0235,8.6222 L24.0235,9.3492 C24.0235,10.4262 24.9005,11.3032 25.9775,11.3032 C27.0555,11.3032 27.9325,10.4262 27.9325,9.3492 L27.9325,8.6222 L30.6845,8.6222 L30.6845,13.1272 Z M7.1075,27.1802 L30.6845,27.1802 L30.6845,14.5282 L7.1075,14.5282 L7.1075,27.1802 Z M11.1635,6.6622 C11.1635,6.3562 11.4125,6.1072 11.7175,6.1072 C12.0235,6.1072 12.2715,6.3562 12.2715,6.6622 L12.2715,9.3492 C12.2715,9.6542 12.0235,9.9022 11.7175,9.9022 C11.4125,9.9022 11.1635,9.6542 11.1635,9.3492 L11.1635,6.6622 Z M25.4235,6.6622 C25.4235,6.3562 25.6715,6.1072 25.9775,6.1072 C26.2835,6.1072 26.5325,6.3562 26.5325,6.6622 L26.5325,9.3492 C26.5325,9.6542 26.2835,9.9022 25.9775,9.9022 C25.6715,9.9022 25.4235,9.6542 25.4235,9.3492 L25.4235,6.6622 Z M27.9325,7.2212 L27.9325,6.6622 C27.9325,5.5842 27.0555,4.7072 25.9775,4.7072 C24.9005,4.7072 24.0235,5.5842 24.0235,6.6622 L24.0235,7.2212 L13.6715,7.2212 L13.6715,6.6622 C13.6715,5.5842 12.7945,4.7072 11.7175,4.7072 C10.6405,4.7072 9.7635,5.5842 9.7635,6.6622 L9.7635,7.2212 L5.7065,7.2212 L5.7065,28.5802 L32.0845,28.5802 L32.0845,7.2212 L27.9325,7.2212 Z M23.2795,21.7022 L22.3105,20.6922 L19.5955,23.2992 L19.5955,17.9872 L18.1955,17.9872 L18.1955,23.3052 L15.4765,20.7532 L14.5175,21.7732 L18.9125,25.8972 L23.2795,21.7022 Z"/>
</svg>
