<svg xmlns="http://www.w3.org/2000/svg" width="38" height="38" viewBox="0 0 38 38">
  <path fill-rule="evenodd" d="M27.7402,13.3718 C27.7402,13.5888 27.6512,13.8018 27.4972,13.9538 L20.1442,21.1858 L20.1442,27.7288 L17.6472,30.0428 L17.6472,21.1858 L16.2762,19.8378 L24.4112,11.5578 L27.7402,11.5578 L27.7402,13.3718 Z M15.5692,19.1418 L10.2942,13.9528 C10.1392,13.8008 10.0512,13.5888 10.0512,13.3718 L10.0512,11.5578 L23.0212,11.5578 L15.5692,19.1418 Z M25.7872,10.1578 L27.2762,8.6418 L26.5692,7.9468 L24.3972,10.1578 L8.6502,10.1578 L8.6502,13.3718 C8.6502,13.9628 8.8922,14.5388 9.3122,14.9518 L14.5882,20.1408 L9.1922,25.6328 L9.8992,26.3288 L15.2952,20.8368 L16.2472,21.7728 L16.2472,33.2488 L21.5452,28.3408 L21.5452,21.7728 L28.4792,14.9508 C28.8992,14.5378 29.1402,13.9618 29.1402,13.3718 L29.1402,10.1578 L25.7872,10.1578 Z"/>
</svg>
