<svg xmlns="http://www.w3.org/2000/svg" width="38" height="38" viewBox="0 0 38 38">
  <path fill-rule="evenodd" d="M34.9822,12.5647 L34.3862,13.1607 L29.8712,8.6467 L30.4672,8.0497 C31.7112,6.8047 33.7382,6.8067 34.9822,8.0497 C35.5862,8.6527 35.9182,9.4547 35.9182,10.3077 C35.9182,11.1607 35.5862,11.9617 34.9822,12.5647 L34.9822,12.5647 Z M32.5452,15.0017 L28.0302,10.4877 L29.3052,9.2117 L33.8202,13.7267 L32.5452,15.0017 Z M20.4232,27.1247 L18.4512,25.1537 L30.0902,13.6797 L31.9792,15.5677 L20.4232,27.1247 Z M14.9952,29.7217 L13.3182,28.0457 L15.1492,23.8327 L19.2022,27.8847 L14.9952,29.7217 Z M12.0272,31.0177 L12.9762,28.8347 L14.2072,30.0657 L12.0272,31.0177 Z M27.4642,11.0537 L29.5242,13.1137 L17.8852,24.5877 L15.9082,22.6097 L27.4642,11.0537 Z M35.9722,7.0597 C34.1812,5.2697 31.2682,5.2707 29.4772,7.0597 L14.4222,22.1147 C14.3612,22.1777 14.3102,22.2507 14.2762,22.3317 L10.2152,31.6767 L5.9242,31.6767 L5.9242,33.0767 L10.6752,33.0767 L10.6752,33.0717 C10.7702,33.0717 10.8662,33.0527 10.9562,33.0137 L20.7032,28.7567 C20.7832,28.7217 20.8562,28.6717 20.9182,28.6097 L35.9722,13.5547 C36.8392,12.6877 37.3182,11.5347 37.3182,10.3077 C37.3182,9.0807 36.8392,7.9277 35.9722,7.0597 L35.9722,7.0597 Z"/>
</svg>
