<svg xmlns="http://www.w3.org/2000/svg" width="38" height="38" viewBox="0 0 38 38">
  <path fill-rule="evenodd" d="M31.1956,21.523 L6.5956,21.523 L6.5956,9.947 L11.1306,9.947 L11.1306,12.883 L9.5516,12.883 L9.5516,13.783 L28.2396,13.783 L28.2396,12.883 L26.6616,12.883 L26.6616,9.947 L31.1956,9.947 L31.1956,21.523 Z M12.4296,32.031 L25.3616,32.031 L25.3616,22.923 L12.4296,22.923 L12.4296,32.031 Z M12.5306,12.883 L25.2606,12.883 L25.2606,7.86 L12.5306,7.86 L12.5306,12.883 Z M26.6616,8.546 L26.6616,6.46 L11.1306,6.46 L11.1306,8.546 L5.1956,8.546 L5.1956,22.923 L11.2306,22.923 L11.2306,33.231 L26.5606,33.231 L26.5606,22.923 L32.5956,22.923 L32.5956,8.546 L26.6616,8.546 Z M15.2176,27.402 L22.5746,27.402 L22.5746,26.502 L15.2176,26.502 L15.2176,27.402 Z M15.2176,30.029 L22.5746,30.029 L22.5746,29.129 L15.2176,29.129 L15.2176,30.029 Z M15.2176,24.777 L22.5746,24.777 L22.5746,23.877 L15.2176,23.877 L15.2176,24.777 Z M25.8316,17.968 C25.3146,17.968 24.8946,17.548 24.8946,17.032 C24.8946,16.515 25.3146,16.095 25.8316,16.095 C26.3466,16.095 26.7666,16.515 26.7666,17.032 C26.7666,17.548 26.3466,17.968 25.8316,17.968 L25.8316,17.968 Z M25.8316,15.195 C24.8186,15.195 23.9946,16.019 23.9946,17.032 C23.9946,18.044 24.8186,18.868 25.8316,18.868 C26.8436,18.868 27.6676,18.044 27.6676,17.032 C27.6676,16.019 26.8436,15.195 25.8316,15.195 L25.8316,15.195 Z"/>
</svg>
