<svg xmlns="http://www.w3.org/2000/svg" xmlns:xlink="http://www.w3.org/1999/xlink" width="38" height="38" viewBox="0 0 38 38">
  <defs>
    <path id="hover-a" d="M19,12.198989 C20.0457004,12.198989 20.9005055,11.3433392 20.9005055,10.2984835 C20.9005055,9.25278309 20.0457004,8.39797794 19,8.39797794 C17.9551443,8.39797794 17.0994945,9.25278309 17.0994945,10.2984835 C17.0994945,11.3433392 17.9551443,12.198989 19,12.198989 Z M19,20.9005055 C20.0457004,20.9005055 20.9005055,20.0448557 20.9005055,19 C20.9005055,17.9542996 20.0457004,17.0994945 19,17.0994945 C17.9551443,17.0994945 17.0994945,17.9542996 17.0994945,19 C17.0994945,20.0448557 17.9551443,20.9005055 19,20.9005055 Z M19,29.6020221 C20.0457004,29.6020221 20.9005055,28.7463722 20.9005055,27.7015165 C20.9005055,26.6558162 20.0457004,25.801011 19,25.801011 C17.9551443,25.801011 17.0994945,26.6558162 17.0994945,27.7015165 C17.0994945,28.7463722 17.9551443,29.6020221 19,29.6020221 Z"/>
  </defs>
  <use fill-rule="evenodd" xlink:href="#hover-a"/>
</svg>
