<?xml version="1.0" encoding="utf-8"?>
<!-- Generator: Adobe Illustrator 23.1.1, SVG Export Plug-In . SVG Version: 6.00 Build 0)  -->
<svg version="1.1" id="Layer_1" xmlns="http://www.w3.org/2000/svg" xmlns:xlink="http://www.w3.org/1999/xlink" x="0px" y="0px"
	 viewBox="0 0 512 512" enable-background="new 0 0 512 512" xml:space="preserve">
<path fill-rule="evenodd" clip-rule="evenodd" d="M193.7,375.2V212.5c0-4,3.2-7.2,7.2-7.2c4,0,7.2,3.2,7.2,7.2v162.8
	c0,4-3.2,7.2-7.2,7.2C196.9,382.4,193.7,379.2,193.7,375.2z M221.9,94.8v-3.1c0-19.2,15.6-34.8,34.8-34.8s34.8,15.6,34.8,34.8v3.1
	h118.4c5.5,0,10,4.5,10,10v37.9c0,5.5-4.5,10-10,10h-20v259.3c0,23.8-19.4,43.2-43.3,43.2h-181c-23.9,0-43.3-19.4-43.3-43.2V152.6
	h-20c-5.5,0-10-4.5-10-10v-37.9c0-5.5,4.5-10,10-10H221.9z M271.4,91.6c0-8.1-6.6-14.8-14.8-14.8c-8.1,0-14.8,6.6-14.8,14.8v3.1
	h29.5V91.6z M142.2,411.9c0,12.8,10.4,23.2,23.3,23.2h181c12.8,0,23.3-10.4,23.3-23.2V152.6H142.2V411.9z M399.8,132.6H112.2v-17.9
	h287.6V132.6z M303.9,375.2V212.5c0-4,3.2-7.2,7.2-7.2s7.2,3.2,7.2,7.2v162.8c0,4-3.2,7.2-7.2,7.2S303.9,379.2,303.9,375.2z
	 M248.8,375.2V212.5c0-4,3.2-7.2,7.2-7.2c4,0,7.2,3.2,7.2,7.2v162.8c0,4-3.2,7.2-7.2,7.2C252,382.4,248.8,379.2,248.8,375.2z"/>
</svg>
