<svg width="35" height="42" xmlns="http://www.w3.org/2000/svg"><path d="M11.879 7.586h11.03a1.273 1.273 0 0 0 0-2.545H11.88a1.273 1.273 0 0 0 0 2.545zM3.394 25.455h28V3.394h-28v22.06zm25.821 7.13a2.122 2.122 0 1 1 .002-4.244 2.122 2.122 0 0 1-.002 4.244zm-23.643 0a2.122 2.122 0 1 1 .002-4.244 2.122 2.122 0 0 1-.002 4.244zM33.091 0H1.697C.764 0 0 .764 0 1.697v33.618c0 .933.764 1.697 1.697 1.697h1.33v2.443a2.546 2.546 0 0 0 5.09 0v-2.443H26.67v2.443a2.546 2.546 0 0 0 5.09 0v-2.443h1.33c.934 0 1.698-.764 1.698-1.697V1.697C34.788.764 34.024 0 33.09 0z" fill="#FFF" fill-rule="evenodd"/></svg>