<svg xmlns="http://www.w3.org/2000/svg" width="38" height="38" viewBox="0 0 38 38">
  <path fill-rule="evenodd" d="M31.1482,13.1272 L7.5702,13.1272 L7.5702,8.6222 L10.2262,8.6222 L10.2262,9.3492 C10.2262,10.4262 11.1032,11.3032 12.1812,11.3032 C13.2582,11.3032 14.1352,10.4262 14.1352,9.3492 L14.1352,8.6222 L24.4872,8.6222 L24.4872,9.3492 C24.4872,10.4262 25.3642,11.3032 26.4412,11.3032 C27.5182,11.3032 28.3952,10.4262 28.3952,9.3492 L28.3952,8.6222 L31.1482,8.6222 L31.1482,13.1272 Z M7.5702,27.1802 L31.1482,27.1802 L31.1482,14.5282 L7.5702,14.5282 L7.5702,27.1802 Z M11.6272,6.6622 C11.6272,6.3562 11.8762,6.1072 12.1812,6.1072 C12.4872,6.1072 12.7352,6.3562 12.7352,6.6622 L12.7352,9.3492 C12.7352,9.6542 12.4872,9.9022 12.1812,9.9022 C11.8762,9.9022 11.6272,9.6542 11.6272,9.3492 L11.6272,6.6622 Z M25.8872,6.6622 C25.8872,6.3562 26.1352,6.1072 26.4412,6.1072 C26.7472,6.1072 26.9952,6.3562 26.9952,6.6622 L26.9952,9.3492 C26.9952,9.6542 26.7472,9.9022 26.4412,9.9022 C26.1352,9.9022 25.8872,9.6542 25.8872,9.3492 L25.8872,6.6622 Z M28.3952,7.2212 L28.3952,6.6622 C28.3952,5.5842 27.5182,4.7072 26.4412,4.7072 C25.3642,4.7072 24.4872,5.5842 24.4872,6.6622 L24.4872,7.2212 L14.1352,7.2212 L14.1352,6.6622 C14.1352,5.5842 13.2582,4.7072 12.1812,4.7072 C11.1032,4.7072 10.2262,5.5842 10.2262,6.6622 L10.2262,7.2212 L6.1692,7.2212 L6.1692,28.5802 L32.5482,28.5802 L32.5482,7.2212 L28.3952,7.2212 Z M23.7432,21.6972 L22.7742,20.6872 L20.0592,23.2932 L20.0592,17.9822 L18.6592,17.9822 L18.6592,23.3002 L15.9392,20.7482 L14.9822,21.7692 L19.3762,25.8922 L23.7432,21.6972 Z"/>
</svg>
