<svg xmlns="http://www.w3.org/2000/svg" width="38" height="38" viewBox="0 0 38 38">
  <path fill-rule="evenodd" d="M27.7409,13.3718 C27.7409,13.5888 27.6519,13.8008 27.4969,13.9538 L20.1439,21.1858 L20.1439,27.7288 L17.6469,30.0428 L17.6469,21.1858 L16.2699,19.8318 L24.3999,11.5578 L27.7409,11.5578 L27.7409,13.3718 Z M15.5629,19.1368 L10.2949,13.9538 C10.1399,13.8018 10.0519,13.5888 10.0519,13.3718 L10.0519,11.5578 L23.0099,11.5578 L15.5629,19.1368 Z M25.7759,10.1578 L28.6649,7.2168 L27.9579,6.5218 L24.3859,10.1578 L8.6509,10.1578 L8.6509,13.3718 C8.6509,13.9618 8.8919,14.5378 9.3119,14.9518 L14.5819,20.1348 L10.5799,24.2078 L11.2869,24.9038 L15.2889,20.8308 L16.2469,21.7728 L16.2469,33.2488 L21.5449,28.3408 L21.5449,21.7728 L28.4779,14.9518 C28.8989,14.5388 29.1409,13.9628 29.1409,13.3718 L29.1409,10.1578 L25.7759,10.1578 Z"/>
</svg>
