<svg xmlns="http://www.w3.org/2000/svg" width="38" height="38" viewBox="0 0 38 38">
  <path fill-rule="evenodd" d="M30.232,12.0671 L29.635,12.6641 L25.121,8.1491 L25.717,7.5521 C26.922,6.3461 29.025,6.3471 30.232,7.5521 C31.476,8.7971 31.476,10.8221 30.232,12.0671 L30.232,12.0671 Z M27.794,14.5051 L23.28,9.9901 L24.555,8.7151 L29.069,13.2301 L27.794,14.5051 Z M15.672,26.6271 L13.701,24.6561 L25.34,13.1821 L27.229,15.0701 L15.672,26.6271 Z M10.244,29.2241 L8.568,27.5471 L10.399,23.3351 L14.451,27.3871 L10.244,29.2241 Z M7.276,30.5201 L8.225,28.3371 L9.456,29.5681 L7.276,30.5201 Z M22.714,10.5561 L24.774,12.6161 L13.135,24.0901 L11.157,22.1121 L22.714,10.5561 Z M31.222,6.5631 L31.222,6.5621 C30.354,5.6951 29.201,5.2171 27.974,5.2171 C26.748,5.2171 25.594,5.6951 24.727,6.5621 L9.671,21.6171 C9.61,21.6801 9.559,21.7531 9.525,21.8341 L5.283,31.5951 C5.168,31.8591 5.226,32.1661 5.43,32.3701 C5.564,32.5041 5.743,32.5741 5.924,32.5741 C6.019,32.5741 6.115,32.5551 6.205,32.5161 L15.952,28.2591 C16.032,28.2241 16.105,28.1741 16.167,28.1121 L31.222,13.0571 C33.012,11.2671 33.012,8.3531 31.222,6.5631 L31.222,6.5631 Z"/>
</svg>
