<svg xmlns="http://www.w3.org/2000/svg" width="38" height="38" viewBox="0 0 38 38">
  <path fill-rule="evenodd" d="M25.8311,17.9683 C25.3141,17.9683 24.8941,17.5483 24.8941,17.0313 C24.8941,16.5153 25.3141,16.0953 25.8311,16.0953 C26.3481,16.0953 26.7681,16.5153 26.7681,17.0313 C26.7681,17.5483 26.3481,17.9683 25.8311,17.9683 L25.8311,17.9683 Z M25.8311,15.1953 C24.8181,15.1953 23.9941,16.0193 23.9941,17.0313 C23.9941,18.0443 24.8181,18.8673 25.8311,18.8673 C26.8441,18.8673 27.6681,18.0443 27.6681,17.0313 C27.6681,16.0193 26.8441,15.1953 25.8311,15.1953 L25.8311,15.1953 Z M15.2181,28.0283 L22.5741,28.0283 L22.5741,27.1283 L15.2181,27.1283 L15.2181,28.0283 Z M31.1951,21.5233 L6.5961,21.5233 L6.5961,9.9473 L11.1311,9.9473 L11.1311,12.8833 L9.5531,12.8833 L9.5531,13.7823 L28.2391,13.7823 L28.2391,12.8833 L26.6611,12.8833 L26.6611,9.9473 L31.1951,9.9473 L31.1951,21.5233 Z M12.4301,30.0313 L25.3611,30.0313 L25.3611,22.9233 L12.4301,22.9233 L12.4301,30.0313 Z M12.5311,12.8833 L25.2601,12.8833 L25.2601,5.8603 L12.5311,5.8603 L12.5311,12.8833 Z M26.6611,8.5463 L26.6611,4.4603 L11.1311,4.4603 L11.1311,8.5463 L5.1951,8.5463 L5.1951,22.9233 L11.2311,22.9233 L11.2311,31.2313 L26.5601,31.2313 L26.5601,22.9233 L32.5961,22.9233 L32.5961,8.5463 L26.6611,8.5463 Z M15.2181,25.4023 L22.5741,25.4023 L22.5741,24.5023 L15.2181,24.5023 L15.2181,25.4023 Z"/>
</svg>
