<svg xmlns="http://www.w3.org/2000/svg" width="38" height="38" viewBox="0 0 38 38">
  <path fill-rule="evenodd" d="M24.4365,30.7964 C23.2245,30.7964 22.2385,29.8104 22.2385,28.5974 C22.2385,27.3854 23.2245,26.3994 24.4365,26.3994 C25.6495,26.3994 26.6355,27.3854 26.6355,28.5974 C26.6355,29.8104 25.6495,30.7964 24.4365,30.7964 M13.3545,21.4074 C12.1425,21.4074 11.1565,20.4214 11.1565,19.2084 C11.1565,17.9964 12.1425,17.0094 13.3545,17.0094 C14.5675,17.0094 15.5535,17.9964 15.5535,19.2084 C15.5535,20.4214 14.5675,21.4074 13.3545,21.4074 M24.4365,7.6204 C25.6495,7.6204 26.6355,8.6074 26.6355,9.8194 C26.6355,11.0314 25.6495,12.0174 24.4365,12.0174 C23.2245,12.0174 22.2385,11.0314 22.2385,9.8194 C22.2385,8.6074 23.2245,7.6204 24.4365,7.6204 M24.4365,24.9984 C23.5915,24.9984 22.8245,25.3034 22.2095,25.7924 L16.4875,20.9454 C16.7755,20.4274 16.9545,19.8414 16.9545,19.2084 C16.9545,18.5754 16.7755,17.9894 16.4875,17.4714 L22.2095,12.6234 C22.8235,13.1134 23.5915,13.4184 24.4365,13.4184 C26.4205,13.4184 28.0365,11.8034 28.0365,9.8194 C28.0365,7.8354 26.4205,6.2204 24.4365,6.2204 C22.4525,6.2204 20.8375,7.8354 20.8375,9.8194 C20.8375,10.4524 21.0165,11.0384 21.3045,11.5564 L15.5825,16.4034 C14.9675,15.9144 14.1995,15.6094 13.3545,15.6094 C11.3705,15.6094 9.7555,17.2244 9.7555,19.2084 C9.7555,21.1924 11.3705,22.8074 13.3545,22.8074 C14.1995,22.8074 14.9675,22.5024 15.5825,22.0134 L21.3045,26.8604 C21.0165,27.3784 20.8375,27.9644 20.8375,28.5974 C20.8375,30.5824 22.4525,32.1964 24.4365,32.1964 C26.4205,32.1964 28.0365,30.5824 28.0365,28.5974 C28.0365,26.6134 26.4205,24.9984 24.4365,24.9984"/>
</svg>
