<svg xmlns="http://www.w3.org/2000/svg" xmlns:xlink="http://www.w3.org/1999/xlink" width="38" height="38" viewBox="0 0 38 38">
  <defs>
    <path id="normal-a" d="M19,14.198989 C20.0457004,14.198989 20.9005055,13.3433392 20.9005055,12.2984835 C20.9005055,11.2527831 20.0457004,10.3979779 19,10.3979779 C17.9551443,10.3979779 17.0994945,11.2527831 17.0994945,12.2984835 C17.0994945,13.3433392 17.9551443,14.198989 19,14.198989 Z M19,20.9005055 C20.0457004,20.9005055 20.9005055,20.0448557 20.9005055,19 C20.9005055,17.9542996 20.0457004,17.0994945 19,17.0994945 C17.9551443,17.0994945 17.0994945,17.9542996 17.0994945,19 C17.0994945,20.0448557 17.9551443,20.9005055 19,20.9005055 Z M19,27.6020221 C20.0457004,27.6020221 20.9005055,26.7463722 20.9005055,25.7015165 C20.9005055,24.6558162 20.0457004,23.801011 19,23.801011 C17.9551443,23.801011 17.0994945,24.6558162 17.0994945,25.7015165 C17.0994945,26.7463722 17.9551443,27.6020221 19,27.6020221 Z"/>
  </defs>
  <use fill-rule="evenodd" xlink:href="#normal-a"/>
</svg>
