<svg height="480pt" viewBox="0 0 480 480" width="480pt" xmlns="http://www.w3.org/2000/svg"><path d="m0 480v-160h74.832031c-6.640625 5.863281-10.832031 14.441406-10.832031 24 0 17.671875 14.328125 32 32 32s32-14.328125 32-32c0-9.558594-4.191406-18.136719-10.832031-24h74.832031v74.832031c5.863281-6.640625 14.441406-10.832031 24-10.832031 17.671875 0 32 14.328125 32 32s-14.328125 32-32 32c-9.558594 0-18.136719-4.191406-24-10.832031v42.832031" fill="#5789d6"/><path d="m208 446.886719v-9.71875c4.152344 4.703125 9.703125 8.089843 15.96875 9.710937 13.792969-3.558594 24.03125-15.976562 24.03125-30.878906s-10.238281-27.320312-24.03125-30.878906c-6.257812 1.621094-11.816406 5.007812-15.96875 9.710937v-9.726562c-6.273438 1.621093-11.839844 5.007812-16 9.726562v-74.832031h-58.832031c6.640625 5.863281 10.832031 14.441406 10.832031 24 0 17.671875-14.328125 32-32 32-2.777344 0-5.433594-.464844-8-1.128906-2.566406.664062-5.222656 1.128906-8 1.128906-17.671875 0-32-14.328125-32-32 0-9.558594 4.191406-18.136719 10.832031-24h-58.832031v160h176v-42.832031c4.160156 4.710937 9.726562 8.097656 16 9.71875zm0 0" fill="#699ce6"/><path d="m117.167969 240c6.640625 5.863281 10.832031 14.441406 10.832031 24 0 17.671875-14.328125 32-32 32s-32-14.328125-32-32c0-9.558594 4.191406-18.136719 10.832031-24h-74.832031v-192h192v74.832031c-5.863281-6.640625-14.441406-10.832031-24-10.832031-17.671875 0-32 14.328125-32 32s14.328125 32 32 32c9.558594 0 18.136719-4.191406 24-10.832031v74.832031zm0 0" fill="#ca5057"/><path d="m184 176c-2.769531 0-5.40625-.464844-7.96875-1.121094-2.574219.671875-5.238281 1.121094-8.03125 1.121094-17.671875 0-32-14.328125-32-32s14.328125-32 32-32c2.792969 0 5.457031.449219 8.03125 1.121094 2.5625-.65625 5.199219-1.121094 7.96875-1.121094 2.777344 0 5.433594.449219 8 1.113281v-65.113281h-176v192h74.839844c-6.65625 5.863281-10.839844 14.441406-10.839844 24 0 14.894531 10.222656 27.304688 24 30.871094 13.777344-3.566406 24-15.976563 24-30.871094 0-9.558594-4.191406-18.136719-10.832031-24h74.832031v-65.113281c-2.566406.664062-5.222656 1.113281-8 1.113281zm0 0" fill="#dc6068"/><path d="m336 240h-48v-74.832031c-5.863281 6.640625-14.441406 10.832031-24 10.832031-17.671875 0-32-14.328125-32-32s14.328125-32 32-32c9.558594 0 18.136719 4.191406 24 10.832031v-74.832031h68.28125c-2.722656-4.703125-4.28125-10.167969-4.28125-16 0-17.671875 14.328125-32 32-32s32 14.328125 32 32c0 5.832031-1.558594 11.296875-4.28125 16h68.28125v192h-112" fill="#98be61"/><path d="m411.71875 48h-16c2.722656-4.703125 4.28125-10.167969 4.28125-16 0-14.894531-10.222656-27.304688-24-30.871094-13.777344 3.566406-24 15.976563-24 30.871094 0 5.832031 1.558594 11.296875 4.28125 16h-68.28125v74.832031c-4.160156-4.710937-9.726562-8.105469-16-9.726562v9.726562c-4.152344-4.703125-9.703125-8.089843-15.96875-9.710937-13.792969 3.558594-24.03125 15.976562-24.03125 30.878906s10.238281 27.320312 24.03125 30.878906c6.257812-1.621094 11.816406-5.007812 15.96875-9.710937v9.726562c6.273438-1.621093 11.839844-5.007812 16-9.726562v74.832031h176v-192zm0 0" fill="#abd176"/><path d="m360 480v-40l-32-40-8-40 24-16-8-24v-104c0-8.839844 7.160156-16 16-16s16 7.160156 16 16v88l16-24h16l16 24h16l16 24h16l16 24v48l-32 40v40" fill="#e5c7bd"/><path d="m448 336-16-24h-16l-16-24h-16l-16 24v-88c0-8.839844-7.160156-16-16-16s-16 7.160156-16 16v96l8 24-2.183594 1.457031 2.183594 6.542969-22.59375 15.054688 6.59375 32.945312 32 40v40h88v-40l32-40v-40l-16-24zm0 0" fill="#edd5cd"/></svg>