<svg id="Layer_3" enable-background="new 0 0 64 64" height="512" viewBox="0 0 64 64" width="512" xmlns="http://www.w3.org/2000/svg"><path d="m20 20h-16c-1.105 0-2-.895-2-2v-12c0-1.105.895-2 2-2h16c1.105 0 2 .895 2 2v2l4 4-4 4v2c0 1.105-.895 2-2 2z" fill="#f8cf6a"/><circle cx="33" cy="16" fill="#bab8b9" r="2"/><path d="m24 28h8v4h-8z" fill="#8b8a8b"/><path d="m24 28h5v4h-5z" fill="#bab8b9"/><path d="m24 36h36v24h-36z" fill="#725944"/><path d="m24 36h33v24h-33z" fill="#98775a"/><path d="m22 32h40v4h-40z" fill="#98775a"/><path d="m22 32h37v4h-37z" fill="#cb9e78"/><path d="m16 62h-14v-3c0-3.866 3.134-7 7-7 3.866 0 7 3.134 7 7z" fill="#ba9b50"/><path d="m7.5 52.165c-3.144.687-5.5 3.484-5.5 6.835v3h11v-3c0-3.351-2.356-6.148-5.5-6.835z" fill="#f8cf6a"/><path d="m30 62h-14v-3c0-3.866 3.134-7 7-7 3.866 0 7 3.134 7 7z" fill="#ba9b50"/><path d="m21.5 52.165c-3.144.687-5.5 3.484-5.5 6.835v3h11v-3c0-3.351-2.356-6.148-5.5-6.835z" fill="#f8cf6a"/><path d="m44 62h-14v-3c0-3.866 3.134-7 7-7 3.866 0 7 3.134 7 7z" fill="#ba9b50"/><path d="m35.5 52.165c-3.144.687-5.5 3.484-5.5 6.835v3h11v-3c0-3.351-2.356-6.148-5.5-6.835z" fill="#f8cf6a"/><circle cx="9" cy="48" fill="#ba9b50" r="4"/><ellipse cx="7.5" cy="48" fill="#f8cf6a" rx="2.5" ry="3.703"/><circle cx="23" cy="48" fill="#ba9b50" r="4"/><ellipse cx="21.5" cy="48" fill="#f8cf6a" rx="2.5" ry="3.703"/><circle cx="37" cy="48" fill="#ba9b50" r="4"/><ellipse cx="35.5" cy="48" fill="#f8cf6a" rx="2.5" ry="3.703"/><path d="m51 18h2.172c1.811 0 3.548.719 4.828 2 1.281 1.281 2 3.017 2 4.828v7.172h-24v-7.172c0-1.811.719-3.548 2-4.828 1.281-1.281 3.017-2 4.828-2h2.172l3 4z" fill="#dc6068"/><path d="m48 22 3-4h3l-2 6z" fill="#a5484e"/><path d="m48 22-3-4h-3l2 6z" fill="#a5484e"/><path d="m55 9c0 3.866-3.134 7-7 7-3.866 0-7-3.134-7-7 2.561 0 5.017-1.017 6.828-2.828l.172-.172.172.172c1.811 1.811 4.267 2.828 6.828 2.828z" fill="#fdd089"/><path d="m48 16c-1.075 0-2.09-.25-3-.683v2.683l3 4 3-4v-2.683c-.91.433-1.925.683-3 .683z" fill="#fdd089"/><path d="m48 6 .172.172c1.811 1.811 4.267 2.828 6.828 2.828 0-3.866-3.134-7-7-7s-7 3.134-7 7c2.561 0 5.017-1.017 6.828-2.828z" fill="#5b6673"/><path d="m62 37h-40c-.552 0-1-.447-1-1v-4c0-.553.448-1 1-1h40c.552 0 1 .447 1 1v4c0 .553-.448 1-1 1zm-39-2h38v-2h-38z"/><path d="m23 36h2v8.131h-2z"/><path d="m60 61h-16v-2h15v-23h2v24c0 .553-.448 1-1 1z"/><path d="m33 32h-2v-3h-6v3h-2v-4c0-.553.448-1 1-1h8c.552 0 1 .447 1 1z"/><path d="m33 19c-1.654 0-3-1.346-3-3s1.346-3 3-3 3 1.346 3 3-1.346 3-3 3zm0-4c-.551 0-1 .448-1 1s.449 1 1 1 1-.448 1-1-.449-1-1-1z"/><path d="m29 28h-2v-1.343c0-3.915 1.524-7.596 4.293-10.364l1.414 1.414c-2.391 2.391-3.707 5.569-3.707 8.95z"/><path d="m48 23c-.315 0-.611-.148-.8-.4l-3-4c-.13-.173-.2-.383-.2-.6v-3h2v2.667l2 2.666 2-2.666v-2.667h2v3c0 .217-.07.427-.2.6l-3 4c-.189.252-.485.4-.8.4z"/><path d="m61 32h-2v-7.172c0-1.557-.606-3.021-1.707-4.121-1.101-1.101-2.565-1.707-4.122-1.707h-2.171v-2h2.171c2.091 0 4.057.814 5.536 2.293 1.479 1.478 2.293 3.443 2.293 5.535z"/><path d="m37 32h-2v-7.172c0-2.092.814-4.058 2.293-5.535 1.479-1.479 3.445-2.293 5.536-2.293h2.171v2h-2.171c-1.557 0-3.021.606-4.122 1.707s-1.707 2.564-1.707 4.121z"/><path d="m44 25c-.13 0-.26-.025-.383-.076-.268-.111-.474-.333-.566-.607l-2-6 1.897-.633 1.635 4.906 2.969-1.484.895 1.789-4 2c-.14.07-.294.105-.447.105z"/><path d="m47 22h2v10h-2z"/><path d="m52 25c-.153 0-.307-.035-.447-.105l-4-2 .895-1.789 2.969 1.484 1.635-4.906 1.897.633-2 6c-.092.274-.298.496-.566.607-.123.051-.253.076-.383.076z"/><path d="m48 17c-4.411 0-8-3.589-8-8 0-.553.448-1 1-1 2.312 0 4.486-.9 6.122-2.535l.17-.171c.375-.377 1.041-.377 1.416 0l.171.172c1.635 1.634 3.809 2.534 6.121 2.534.552 0 1 .447 1 1 0 4.411-3.589 8-8 8zm-5.925-7.053c.455 2.86 2.939 5.053 5.925 5.053s5.47-2.193 5.925-5.053c-2.199-.218-4.254-1.108-5.925-2.567-1.671 1.46-3.727 2.349-5.925 2.567z"/><path d="m39 27h2v5h-2z"/><path d="m55 27h2v5h-2z"/><path d="m56 9h-2c0-3.309-2.691-6-6-6s-6 2.691-6 6h-2c0-4.411 3.589-8 8-8s8 3.589 8 8z"/><path d="m23 53c-2.757 0-5-2.243-5-5s2.243-5 5-5 5 2.243 5 5-2.243 5-5 5zm0-8c-1.654 0-3 1.346-3 3s1.346 3 3 3 3-1.346 3-3-1.346-3-3-3z"/><path d="m30 63h-14c-.552 0-1-.447-1-1v-3c0-4.411 3.589-8 8-8s8 3.589 8 8v3c0 .553-.448 1-1 1zm-13-2h12v-2c0-3.309-2.691-6-6-6s-6 2.691-6 6z"/><path d="m37 53c-2.757 0-5-2.243-5-5s2.243-5 5-5 5 2.243 5 5-2.243 5-5 5zm0-8c-1.654 0-3 1.346-3 3s1.346 3 3 3 3-1.346 3-3-1.346-3-3-3z"/><path d="m44 63h-14c-.552 0-1-.447-1-1v-3c0-4.411 3.589-8 8-8s8 3.589 8 8v3c0 .553-.448 1-1 1zm-13-2h12v-2c0-3.309-2.691-6-6-6s-6 2.691-6 6z"/><path d="m9 53c-2.757 0-5-2.243-5-5s2.243-5 5-5 5 2.243 5 5-2.243 5-5 5zm0-8c-1.654 0-3 1.346-3 3s1.346 3 3 3 3-1.346 3-3-1.346-3-3-3z"/><path d="m16 63h-14c-.552 0-1-.447-1-1v-3c0-4.411 3.589-8 8-8s8 3.589 8 8v3c0 .553-.448 1-1 1zm-13-2h12v-2c0-3.309-2.691-6-6-6s-6 2.691-6 6z"/><path d="m20 21h-16c-1.654 0-3-1.346-3-3v-12c0-1.654 1.346-3 3-3h16c1.654 0 3 1.346 3 3v1.586l3.707 3.707c.391.391.391 1.023 0 1.414l-3.707 3.707v1.586c0 1.654-1.346 3-3 3zm-16-16c-.551 0-1 .448-1 1v12c0 .552.449 1 1 1h16c.551 0 1-.448 1-1v-2c0-.266.105-.52.293-.707l3.293-3.293-3.293-3.293c-.188-.187-.293-.441-.293-.707v-2c0-.552-.449-1-1-1z"/><path d="m5 7h14v2h-14z"/><path d="m5 15h14v2h-14z"/><path d="m7 11h10v2h-10z"/></svg>