<svg id="Layer_3" enable-background="new 0 0 64 64" height="512" viewBox="0 0 64 64" width="512" xmlns="http://www.w3.org/2000/svg"><path d="m20 20h-16c-1.105 0-2-.895-2-2v-12c0-1.105.895-2 2-2h16c1.105 0 2 .895 2 2v2l4 4-4 4v2c0 1.105-.895 2-2 2z" fill="#f8cf6a"/><circle cx="33" cy="16" fill="#bab8b9" r="2"/><path d="m24 28h8v4h-8z" fill="#8b8a8b"/><path d="m24 28h5v4h-5z" fill="#bab8b9"/><path d="m24 36h36v24h-36z" fill="#725944"/><path d="m24 36h33v24h-33z" fill="#98775a"/><path d="m22 32h40v4h-40z" fill="#98775a"/><path d="m22 32h37v4h-37z" fill="#cb9e78"/><path d="m16 62h-14v-3c0-3.866 3.134-7 7-7 3.866 0 7 3.134 7 7z" fill="#ba9b50"/><path d="m7.5 52.165c-3.144.687-5.5 3.484-5.5 6.835v3h11v-3c0-3.351-2.356-6.148-5.5-6.835z" fill="#f8cf6a"/><path d="m30 62h-14v-3c0-3.866 3.134-7 7-7 3.866 0 7 3.134 7 7z" fill="#ba9b50"/><path d="m21.5 52.165c-3.144.687-5.5 3.484-5.5 6.835v3h11v-3c0-3.351-2.356-6.148-5.5-6.835z" fill="#f8cf6a"/><path d="m44 62h-14v-3c0-3.866 3.134-7 7-7 3.866 0 7 3.134 7 7z" fill="#ba9b50"/><path d="m35.5 52.165c-3.144.687-5.5 3.484-5.5 6.835v3h11v-3c0-3.351-2.356-6.148-5.5-6.835z" fill="#f8cf6a"/><circle cx="9" cy="48" fill="#ba9b50" r="4"/><ellipse cx="7.5" cy="48" fill="#f8cf6a" rx="2.5" ry="3.703"/><circle cx="23" cy="48" fill="#ba9b50" r="4"/><ellipse cx="21.5" cy="48" fill="#f8cf6a" rx="2.5" ry="3.703"/><circle cx="37" cy="48" fill="#ba9b50" r="4"/><ellipse cx="35.5" cy="48" fill="#f8cf6a" rx="2.5" ry="3.703"/><path d="m51 18h2.172c1.811 0 3.548.719 4.828 2 1.281 1.281 2 3.017 2 4.828v7.172h-24v-7.172c0-1.811.719-3.548 2-4.828 1.281-1.281 3.017-2 4.828-2h2.172l3 4z" fill="#dc6068"/><path d="m48 22 3-4h3l-2 6z" fill="#a5484e"/><path d="m48 22-3-4h-3l2 6z" fill="#a5484e"/><path d="m55 9c0 3.866-3.134 7-7 7-3.866 0-7-3.134-7-7 2.561 0 5.017-1.017 6.828-2.828l.172-.172.172.172c1.811 1.811 4.267 2.828 6.828 2.828z" fill="#fdd089"/><path d="m48 16c-1.075 0-2.09-.25-3-.683v2.683l3 4 3-4v-2.683c-.91.433-1.925.683-3 .683z" fill="#fdd089"/><path d="m48 6 .172.172c1.811 1.811 4.267 2.828 6.828 2.828 0-3.866-3.134-7-7-7s-7 3.134-7 7c2.561 0 5.017-1.017 6.828-2.828z" fill="#5b6673"/><g fill="#bab8b9"><path d="m29 28h-2v-1.343c0-3.915 1.524-7.596 4.293-10.364l1.414 1.414c-2.391 2.391-3.707 5.569-3.707 8.95z"/><path d="m5 7h14v2h-14z"/><path d="m5 15h14v2h-14z"/><path d="m7 11h10v2h-10z"/></g></svg>