<svg height="488pt" viewBox="0 -4 488 488" width="488pt" xmlns="http://www.w3.org/2000/svg"><path d="m32 384h416v96h-416zm0 0" fill="#656665"/><path d="m32 384h384v96h-384zm0 0" fill="#999"/><path d="m176 320h128c17.671875 0 32 14.328125 32 32h-192c0-17.671875 14.328125-32 32-32zm0 0" fill="#656665"/><path d="m216 288h48v32h-48zm0 0" fill="#999"/><path d="m16 288h448c8.839844 0 16-7.160156 16-16v-256c0-8.839844-7.160156-16-16-16h-448c-8.839844 0-16 7.160156-16 16v256c0 8.839844 7.160156 16 16 16zm0 0" fill="#656665"/><path d="m32 32h416v224h-416zm0 0" fill="#efedee"/><path d="m96 128h288v128h-288zm0 0" fill="#bab8b9"/><path d="m96 64h288v64h-288zm0 0" fill="#599072"/><g fill="#efedee"><path d="m408 408h16v16h-16zm0 0"/><path d="m408 440h16v16h-16zm0 0"/><path d="m376 408h16v16h-16zm0 0"/><path d="m376 440h16v16h-16zm0 0"/><path d="m344 408h16v16h-16zm0 0"/><path d="m344 440h16v16h-16zm0 0"/><path d="m120 408h16v16h-16zm0 0"/><path d="m120 440h112v16h-112zm0 0"/><path d="m88 408h16v16h-16zm0 0"/><path d="m88 440h16v16h-16zm0 0"/><path d="m56 408h16v16h-16zm0 0"/><path d="m56 440h16v16h-16zm0 0"/><path d="m216 408h16v16h-16zm0 0"/><path d="m184 408h16v16h-16zm0 0"/><path d="m280 408h16v16h-16zm0 0"/><path d="m280 440h16v16h-16zm0 0"/><path d="m248 408h16v16h-16zm0 0"/><path d="m248 440h16v16h-16zm0 0"/><path d="m152 408h16v16h-16zm0 0"/><path d="m120 88h16v16h-16zm0 0"/><path d="m152 88h16v16h-16zm0 0"/><path d="m184 88h16v16h-16zm0 0"/><path d="m216 88h144v16h-144zm0 0"/><path d="m154.34375 229.65625-32-32c-3.128906-3.128906-3.128906-8.183594 0-11.3125l32-32 11.3125 11.3125-26.34375 26.34375 26.34375 26.34375zm0 0"/><path d="m229.65625 229.65625-11.3125-11.3125 26.34375-26.34375-26.34375-26.34375 11.3125-11.3125 32 32c3.128906 3.128906 3.128906 8.183594 0 11.3125zm0 0"/><path d="m168.566406 229.039062 32.007813-79.992187 14.859375 5.945313-32.007813 79.992187zm0 0"/><path d="m280 152h16v16h-16zm0 0"/><path d="m312 152h32v16h-32zm0 0"/><path d="m280 184h32v16h-32zm0 0"/><path d="m328 184h16v16h-16zm0 0"/><path d="m344 216h16v16h-16zm0 0"/><path d="m312 216h16v16h-16zm0 0"/><path d="m264 216h32v16h-32zm0 0"/></g><path d="m376 384h-16v-16c0-13.230469 10.769531-24 24-24h80c4.414062 0 8-3.585938 8-8s-3.585938-8-8-8h-32c-13.230469 0-24-10.769531-24-24v-16h16v16c0 4.414062 3.585938 8 8 8h32c13.230469 0 24 10.769531 24 24s-10.769531 24-24 24h-80c-4.414062 0-8 3.585938-8 8zm0 0" fill="#656665"/></svg>