<svg height="496pt" viewBox="0 0 496 496" width="496pt" xmlns="http://www.w3.org/2000/svg"><path d="m456 32h-416c-4.425781 0-8 3.585938-8 8v224c0 4.425781 3.574219 8 8 8h416c4.425781 0 8-3.574219 8-8v-224c0-4.414062-3.574219-8-8-8zm-72 96h-272v-48h272zm-272 16h272v112h-272zm336 112h-48v-184c0-4.414062-3.574219-8-8-8h-288c-4.425781 0-8 3.585938-8 8v184h-48v-208h400zm0 0"/><path d="m472 304c13.230469 0 24-10.769531 24-24v-256c0-13.230469-10.769531-24-24-24h-448c-13.230469 0-24 10.769531-24 24v256c0 13.230469 10.769531 24 24 24h192v16h-32c-22.054688 0-40 17.945312-40 40 0 4.425781 3.574219 8 8 8h192c4.425781 0 8-3.574219 8-8 0-22.054688-17.945312-40-40-40h-32v-16h136v8c0 13.230469 10.769531 24 24 24h32c4.414062 0 8 3.585938 8 8s-3.585938 8-8 8h-80c-13.230469 0-24 10.769531-24 24v8h-328c-4.425781 0-8 3.574219-8 8v96c0 4.425781 3.574219 8 8 8h416c4.425781 0 8-3.574219 8-8v-96c0-4.425781-3.574219-8-8-8h-72v-8c0-4.414062 3.585938-8 8-8h80c13.230469 0 24-10.769531 24-24s-10.769531-24-24-24h-32c-4.414062 0-8-3.585938-8-8v-8zm-24 176h-400v-80h400zm-432-200v-256c0-4.40625 3.585938-8 8-8h448c4.414062 0 8 3.59375 8 8v256c0 4.414062-3.585938 8-8 8h-448c-4.414062 0-8-3.585938-8-8zm318.632812 72h-173.265624c3.304687-9.3125 12.199218-16 22.632812-16h128c10.433594 0 19.328125 6.6875 22.632812 16zm-70.632812-32h-32v-16h32zm0 0"/><path d="m416 416h16v16h-16zm0 0"/><path d="m416 448h16v16h-16zm0 0"/><path d="m384 416h16v16h-16zm0 0"/><path d="m384 448h16v16h-16zm0 0"/><path d="m352 416h16v16h-16zm0 0"/><path d="m352 448h16v16h-16zm0 0"/><path d="m128 416h16v16h-16zm0 0"/><path d="m128 448h112v16h-112zm0 0"/><path d="m96 416h16v16h-16zm0 0"/><path d="m96 448h16v16h-16zm0 0"/><path d="m64 416h16v16h-16zm0 0"/><path d="m64 448h16v16h-16zm0 0"/><path d="m224 416h16v16h-16zm0 0"/><path d="m192 416h16v16h-16zm0 0"/><path d="m288 416h16v16h-16zm0 0"/><path d="m288 448h16v16h-16zm0 0"/><path d="m256 416h16v16h-16zm0 0"/><path d="m256 448h16v16h-16zm0 0"/><path d="m160 416h16v16h-16zm0 0"/><path d="m128 96h16v16h-16zm0 0"/><path d="m160 96h16v16h-16zm0 0"/><path d="m192 96h16v16h-16zm0 0"/><path d="m224 96h144v16h-144zm0 0"/><path d="m162.34375 162.34375-32 32c-3.128906 3.128906-3.128906 8.183594 0 11.3125l32 32 11.3125-11.3125-26.34375-26.34375 26.34375-26.34375zm0 0"/><path d="m269.65625 194.34375-32-32-11.3125 11.3125 26.34375 26.34375-26.34375 26.34375 11.3125 11.3125 32-32c3.128906-3.128906 3.128906-8.183594 0-11.3125zm0 0"/><path d="m176.566406 237.039062 32.007813-79.992187 14.859375 5.945313-32.007813 79.992187zm0 0"/><path d="m288 160h16v16h-16zm0 0"/><path d="m320 160h32v16h-32zm0 0"/><path d="m288 192h32v16h-32zm0 0"/><path d="m336 192h16v16h-16zm0 0"/><path d="m352 224h16v16h-16zm0 0"/><path d="m320 224h16v16h-16zm0 0"/><path d="m272 224h32v16h-32zm0 0"/></svg>