<svg height="496pt" viewBox="0 0 496 496" width="496pt" xmlns="http://www.w3.org/2000/svg"><path d="m40 392h416v96h-416zm0 0" fill="#d9d7d8"/><path d="m40 392h384v96h-384zm0 0" fill="#efedee"/><path d="m184 328h128c17.671875 0 32 14.328125 32 32h-192c0-17.671875 14.328125-32 32-32zm0 0" fill="#656665"/><path d="m224 296h48v32h-48zm0 0" fill="#999"/><path d="m24 296h448c8.839844 0 16-7.160156 16-16v-256c0-8.839844-7.160156-16-16-16h-448c-8.839844 0-16 7.160156-16 16v256c0 8.839844 7.160156 16 16 16zm0 0" fill="#656665"/><path d="m40 40h416v224h-416zm0 0" fill="#efedee"/><path d="m104 136h288v128h-288zm0 0" fill="#bab8b9"/><path d="m104 72h288v64h-288zm0 0" fill="#599072"/><path d="m456 272h-416c-4.425781 0-8-3.574219-8-8v-224c0-4.414062 3.574219-8 8-8h416c4.425781 0 8 3.585938 8 8v224c0 4.425781-3.574219 8-8 8zm-408-16h400v-208h-400zm0 0"/><path d="m472 304h-448c-13.230469 0-24-10.769531-24-24v-256c0-13.230469 10.769531-24 24-24h448c13.230469 0 24 10.769531 24 24v256c0 13.230469-10.769531 24-24 24zm-448-288c-4.414062 0-8 3.59375-8 8v256c0 4.414062 3.585938 8 8 8h448c4.414062 0 8-3.585938 8-8v-256c0-4.40625-3.585938-8-8-8zm0 0"/><path d="m456 496h-416c-4.425781 0-8-3.574219-8-8v-96c0-4.425781 3.574219-8 8-8h416c4.425781 0 8 3.574219 8 8v96c0 4.425781-3.574219 8-8 8zm-408-16h400v-80h-400zm0 0"/><path d="m416 416h16v16h-16zm0 0"/><path d="m416 448h16v16h-16zm0 0"/><path d="m384 416h16v16h-16zm0 0"/><path d="m384 448h16v16h-16zm0 0"/><path d="m352 416h16v16h-16zm0 0"/><path d="m352 448h16v16h-16zm0 0"/><path d="m128 416h16v16h-16zm0 0"/><path d="m128 448h112v16h-112zm0 0"/><path d="m96 416h16v16h-16zm0 0"/><path d="m96 448h16v16h-16zm0 0"/><path d="m64 416h16v16h-16zm0 0"/><path d="m64 448h16v16h-16zm0 0"/><path d="m224 416h16v16h-16zm0 0"/><path d="m192 416h16v16h-16zm0 0"/><path d="m288 416h16v16h-16zm0 0"/><path d="m288 448h16v16h-16zm0 0"/><path d="m256 416h16v16h-16zm0 0"/><path d="m256 448h16v16h-16zm0 0"/><path d="m160 416h16v16h-16zm0 0"/><path d="m344 368h-192c-4.425781 0-8-3.574219-8-8 0-22.054688 17.945312-40 40-40h128c22.054688 0 40 17.945312 40 40 0 4.425781-3.574219 8-8 8zm-182.632812-16h173.265624c-3.304687-9.3125-12.199218-16-22.632812-16h-128c-10.433594 0-19.328125 6.6875-22.632812 16zm0 0"/><path d="m216 296h16v32h-16zm0 0"/><path d="m264 296h16v32h-16zm0 0"/><path d="m400 264h-16v-184h-272v184h-16v-192c0-4.414062 3.574219-8 8-8h288c4.425781 0 8 3.585938 8 8zm0 0"/><path d="m128 96h16v16h-16zm0 0"/><path d="m160 96h16v16h-16zm0 0"/><path d="m192 96h16v16h-16zm0 0"/><path d="m224 96h144v16h-144zm0 0"/><path d="m104 128h288v16h-288zm0 0"/><path d="m162.34375 237.65625-32-32c-3.128906-3.128906-3.128906-8.183594 0-11.3125l32-32 11.3125 11.3125-26.34375 26.34375 26.34375 26.34375zm0 0"/><path d="m237.65625 237.65625-11.3125-11.3125 26.34375-26.34375-26.34375-26.34375 11.3125-11.3125 32 32c3.128906 3.128906 3.128906 8.183594 0 11.3125zm0 0"/><path d="m176.566406 237.039062 32.007813-79.992187 14.859375 5.945313-32.007813 79.992187zm0 0"/><path d="m288 160h16v16h-16zm0 0"/><path d="m320 160h32v16h-32zm0 0"/><path d="m288 192h32v16h-32zm0 0"/><path d="m336 192h16v16h-16zm0 0"/><path d="m352 224h16v16h-16zm0 0"/><path d="m320 224h16v16h-16zm0 0"/><path d="m272 224h32v16h-32zm0 0"/><path d="m384 392h-16v-16c0-13.230469 10.769531-24 24-24h80c4.414062 0 8-3.585938 8-8s-3.585938-8-8-8h-32c-13.230469 0-24-10.769531-24-24v-16h16v16c0 4.414062 3.585938 8 8 8h32c13.230469 0 24 10.769531 24 24s-10.769531 24-24 24h-80c-4.414062 0-8 3.585938-8 8zm0 0"/></svg>