<svg height="480pt" viewBox="0 0 480 480" width="480pt" xmlns="http://www.w3.org/2000/svg"><path d="m120 160h16v96h-16zm0 0" fill="#898989"/><path d="m0 288h112v48h-112zm0 0" fill="#65d1e2"/><path d="m0 288h88v48h-88zm0 0" fill="#7ce0e8"/><path d="m144 288h112v48h-112zm0 0" fill="#65d1e2"/><path d="m144 288h88v48h-88zm0 0" fill="#7ce0e8"/><path d="m0 400h112v48h-112zm0 0" fill="#65d1e2"/><path d="m0 400h88v48h-88zm0 0" fill="#7ce0e8"/><path d="m144 400h112v48h-112zm0 0" fill="#65d1e2"/><path d="m144 400h88v48h-88zm0 0" fill="#7ce0e8"/><path d="m160 128h80c8.839844 0 16-7.160156 16-16v-96c0-8.839844-7.160156-16-16-16h-224c-8.839844 0-16 7.160156-16 16v96c0 8.839844 7.160156 16 16 16h80l32 48zm0 0" fill="#c6c3ad"/><path d="m232 112v-96c0-8.839844-7.160156-16-16-16h-200c-8.839844 0-16 7.160156-16 16v96c0 8.839844 7.160156 16 16 16h80l20 30 20-30h80c8.839844 0 16-7.160156 16-16zm0 0" fill="#dddbc9"/><path d="m80 64c0 8.835938-7.164062 16-16 16s-16-7.164062-16-16 7.164062-16 16-16 16 7.164062 16 16zm0 0" fill="#db9d3d"/><path d="m144 64c0 8.835938-7.164062 16-16 16s-16-7.164062-16-16 7.164062-16 16-16 16 7.164062 16 16zm0 0" fill="#db9d3d"/><path d="m208 64c0 8.835938-7.164062 16-16 16s-16-7.164062-16-16 7.164062-16 16-16 16 7.164062 16 16zm0 0" fill="#db9d3d"/><path d="m384 168 64-72 32 32-88 88v72l32 192h-40l-32-184-24 184h-40l24-192v-80l-112 8v-48l120 8zm0 0" fill="#666"/><path d="m368 216 88-88-19.296875-19.296875-52.703125 59.296875-64 8-15.65625-1.039062-8.34375 1.039062-96-6.398438v44.6875l88-6.289062v1.710938l24-1.710938v80l-24 192h16l24-184 13.710938 78.855469 10.289062-78.855469 32 184h16l-32-192zm0 0" fill="#898989"/><path d="m392 88c0 22.089844-17.910156 40-40 40s-40-17.910156-40-40 17.910156-40 40-40 40 17.910156 40 40zm0 0" fill="#e0c090"/><path d="m368 88c0-20.96875-12.535156-37.96875-28-37.96875s-28 17-28 37.96875 12.535156 37.96875 28 37.96875 28-17 28-37.96875zm0 0" fill="#f1dcb9"/><g fill="#898989"><path d="m208 288h-16v-24h-128v24h-16v-32c0-4.414062 3.574219-8 8-8h144c4.425781 0 8 3.585938 8 8zm0 0"/><path d="m48 336h16v64h-16zm0 0"/><path d="m192 336h16v64h-16zm0 0"/></g></svg>