<svg height="496pt" viewBox="-96 0 496 496.00432" width="496pt" xmlns="http://www.w3.org/2000/svg"><path d="m184.003906 312.003906-8 112v32c0 17.671875 14.328125 32 32 32s32-14.328125 32-32v-32l-8-112" fill="#a36d56"/><path d="m176.003906 456.003906c0 14.894532 10.222656 27.296875 24 30.871094 13.773438-3.566406 24-15.976562 24-30.871094v-32l-8-112h-32l-8 112zm0 0" fill="#b47e67"/><path d="m296.003906 280.003906c0 17.671875-14.328125 32-32 32h-112c-17.671875 0-32-14.328125-32-32v-128h176zm0 0" fill="#c6a5a0"/><path d="m272.003906 280.003906v-128h-152v128c0 17.671875 14.328125 32 32 32h88c17.671875 0 32-14.328125 32-32zm0 0" fill="#d1bfbb"/><path d="m120.003906 224.003906h176v40h-176zm0 0" fill="#bfbfbf"/><path d="m120.003906 224.003906h152v40h-152zm0 0" fill="#e8e8e8"/><path d="m152.003906 152.003906v32c0 8.839844 7.160156 16 16 16s16-7.160156 16-16h16c8.839844 0 16-7.160156 16-16v-16" fill="#bd3d47"/><path d="m128.003906 8.003906v64c0 8.839844 7.160156 16 16 16s16-7.160156 16-16v-16c0-8.839844 7.160156-16 16-16s16 7.160156 16 16v32c0 8.839844 7.160156 16 16 16s16-7.160156 16-16v-16c0-8.839844 7.160156-16 16-16s16 7.160156 16 16v16c0 8.839844 7.160156 16 16 16s16-7.160156 16-16v-80" fill="#bd3d47"/><path d="m136.003906 85.789062c4.757813-2.769531 8-7.871093 8-13.785156v-16c0-8.839844 7.160156-16 16-16 2.925782 0 5.636719.847656 8 2.214844 2.359375-1.367188 5.070313-2.214844 8-2.214844 8.839844 0 16 7.160156 16 16v32c0 5.90625 3.238282 11.007813 8 13.785156 4.757813-2.769531 8-7.871093 8-13.785156v-16c0-8.839844 7.160156-16 16-16 2.925782 0 5.636719.847656 8 2.214844 2.359375-1.367188 5.070313-2.214844 8-2.214844 8.839844 0 16 7.160156 16 16v16c0 5.90625 3.238282 11.007813 8 13.785156 4.757813-2.769531 8-7.871093 8-13.785156v-80h-144v64c0 5.90625 3.238282 11.007813 8 13.785156zm0 0" fill="#d9514b"/><path d="m72.003906 136.003906v-1.464844c0-9.480468 2.804688-18.742187 8.0625-26.621093l2.566406-3.851563c3.496094-5.253906 5.371094-11.429687 5.371094-17.75v-1.054687c0-8.488281-3.371094-16.625-9.378906-22.625l-7.902344-5.839844c-14.289062-10.5625-22.71875-27.28125-22.71875-45.046875v-3.746094l-26.59375 37.222656c-8.71875 12.210938-13.40625 26.839844-13.40625 41.851563v3.125c0 14.21875 4.207032 28.113281 12.09375 39.9375l3.90625 5.863281" fill="#404040"/><path d="m72.003906 109.261719c0-8.488281-3.371094-16.625-9.378906-22.625l-7.902344-5.839844c-14.289062-10.5625-22.71875-27.28125-22.71875-45.046875v-3.746094l-16.464844 23.046875c-4.921874 9.914063-7.535156 20.859375-7.535156 32.027344v3.125c0 14.21875 4.207032 28.113281 12.09375 39.9375l3.90625 5.863281h37.75c.734375-1.382812 1.441406-2.785156 2.3125-4.09375l2.558594-3.851562c3.503906-5.246094 5.378906-11.421875 5.378906-17.742188zm0 0" fill="#4d4d4d"/><path d="m48.003906 136.003906h-24l-8 112 16 240h16" fill="#b47e67"/><path d="m48.003906 488.003906h16l16-240-8-112h-24" fill="#a36d56"/><path d="m64.003906 496.003906h-32c-4.210937 0-7.707031-3.261718-7.984375-7.472656l-16-240c-.023437-.367188-.023437-.734375 0-1.101562l8-112c.300781-4.183594 3.789063-7.425782 7.984375-7.425782h48c4.191406 0 7.679688 3.242188 7.980469 7.433594l8 112c.027344.367188.027344.734375 0 1.101562l-16 240c-.277344 4.203126-3.773437 7.464844-7.980469 7.464844zm-24.515625-16h17.035157l15.460937-231.984375-7.429687-104.015625h-33.105469l-7.429688 104.015625zm0 0"/><path d="m24.003906 160.003906h48v16h-48zm0 0"/><path d="m17.347656 140.445312-3.90625-5.855468c-8.792968-13.195313-13.43749975-28.539063-13.43749975-44.386719v-3.136719c0-16.773437 5.14843775-32.839844 14.90234375-46.492187l26.582031-37.226563c2.027344-2.832031 5.640625-4.023437 8.953125-2.96875 3.3125 1.074219 5.5625 4.144532 5.5625 7.625v3.753906c0 15.160157 7.277344 29.589844 19.476563 38.605469l7.90625 5.832031c.320312.234376.625.496094.902343.785157 7.554688 7.542969 11.714844 17.59375 11.714844 28.28125v1.054687c0 7.917969-2.328125 15.59375-6.722656 22.183594l-2.558594 3.839844c-4.390625 6.601562-6.71875 14.273437-6.71875 22.191406v1.472656h-16v-1.472656c0-11.09375 3.253906-21.832031 9.40625-31.0625l2.558594-3.839844c2.640625-3.960937 4.035156-8.5625 4.035156-13.3125v-1.054687c0-6.226563-2.355468-12.097657-6.640625-16.578125l-7.394531-5.457032c-11.40625-8.429687-19.582031-20.414062-23.453125-33.78125l-14.59375 20.429688c-7.800781 10.929688-11.917969 23.785156-11.917969 37.203125v3.132813c0 12.679687 3.71875 24.953124 10.75 35.503906l3.902344 5.859375zm0 0"/><path d="m24.003906 240.003906h48v16h-48zm0 0"/><path d="m24.003906 272.003906h48v16h-48zm0 0"/><path d="m264.003906 320.003906h-112c-22.058594 0-40-17.945312-40-40v-128c0-4.421875 3.582032-8 8-8h176c4.414063 0 8 3.578125 8 8v128c0 22.054688-17.945312 40-40 40zm-136-160v120c0 13.230469 10.765625 24 24 24h112c13.230469 0 24-10.769531 24-24v-120zm0 0"/><path d="m168.003906 208.003906c-13.234375 0-24-10.769531-24-24v-32h16v32c0 4.417969 3.589844 8 8 8 4.40625 0 8-3.582031 8-8 0-4.421875 3.582032-8 8-8h16c4.40625 0 8-3.582031 8-8v-16h16v16c0 13.230469-10.769531 24-24 24h-9.371094c-3.300781 9.3125-12.199218 16-22.628906 16zm0 0"/><path d="m120.003906 256.003906h176v16h-176zm0 0"/><path d="m120.003906 224.003906h176v16h-176zm0 0"/><path d="m208.003906 496.003906c-22.058594 0-40-17.945312-40-40v-32l8.015625-112.566406 15.957031 1.144531-8 112 .027344 31.421875c0 13.230469 10.765625 24 24 24 13.230469 0 24-10.769531 24-24v-32l-7.984375-111.429687 15.957031-1.144531 8 112 .027344 32.574218c0 22.054688-17.945312 40-40 40zm0 0"/><path d="m184.003906 336.003906h48v16h-48zm0 0"/><path d="m200.003906 448.003906h16v16h-16zm0 0"/><path d="m272.003906 112.003906c-13.234375 0-24-10.769531-24-24v-16c0-4.414062-3.59375-8-8-8-4.410156 0-8 3.585938-8 8v16c0 13.230469-10.769531 24-24 24-13.234375 0-24-10.769531-24-24v-32c0-4.414062-3.59375-8-8-8-4.410156 0-8 3.585938-8 8v16c0 13.230469-10.769531 24-24 24-13.234375 0-24-10.769531-24-24v-71.99999975h16v71.99999975c0 4.417969 3.589844 8 8 8 4.40625 0 8-3.582031 8-8v-16c0-13.230468 10.765625-24 24-24 13.230469 0 24 10.769532 24 24v32c0 4.417969 3.589844 8 8 8 4.40625 0 8-3.582031 8-8v-16c0-13.230468 10.765625-24 24-24 13.230469 0 24 10.769532 24 24v16c0 4.417969 3.589844 8 8 8 4.40625 0 8-3.582031 8-8v-87.99999975h16v87.99999975c0 13.230469-10.769531 24-24 24zm0 0"/><path d="m40.003906 96.003906h16v40h-16zm0 0"/></svg>