<svg height="480pt" viewBox="-96 0 480 480" width="480pt" xmlns="http://www.w3.org/2000/svg"><path d="m176 304-8 112v32c0 17.671875 14.328125 32 32 32s32-14.328125 32-32v-32l-8-112" fill="#a36d56"/><path d="m168 448c0 14.894531 10.222656 27.296875 24 30.871094 13.777344-3.566406 24-15.976563 24-30.871094v-32l-8-112h-32l-8 112zm0 0" fill="#b47e67"/><path d="m288 272c0 17.671875-14.328125 32-32 32h-112c-17.671875 0-32-14.328125-32-32v-128h176zm0 0" fill="#c6a5a0"/><path d="m264 272v-128h-152v128c0 17.671875 14.328125 32 32 32h88c17.671875 0 32-14.328125 32-32zm0 0" fill="#d1bfbb"/><path d="m112 216h176v40h-176zm0 0" fill="#bfbfbf"/><path d="m112 216h152v40h-152zm0 0" fill="#e8e8e8"/><path d="m144 144v32c0 8.839844 7.160156 16 16 16s16-7.160156 16-16h16c8.839844 0 16-7.160156 16-16v-16" fill="#bd3d47"/><path d="m120 0v64c0 8.839844 7.160156 16 16 16s16-7.160156 16-16v-16c0-8.839844 7.160156-16 16-16s16 7.160156 16 16v32c0 8.839844 7.160156 16 16 16s16-7.160156 16-16v-16c0-8.839844 7.160156-16 16-16s16 7.160156 16 16v16c0 8.839844 7.160156 16 16 16s16-7.160156 16-16v-80" fill="#bd3d47"/><path d="m128 77.785156c4.761719-2.769531 8-7.875 8-13.785156v-16c0-8.839844 7.160156-16 16-16 2.929688 0 5.640625.847656 8 2.214844 2.359375-1.367188 5.070312-2.214844 8-2.214844 8.839844 0 16 7.160156 16 16v32c0 5.902344 3.238281 11.007812 8 13.785156 4.761719-2.769531 8-7.875 8-13.785156v-16c0-8.839844 7.160156-16 16-16 2.929688 0 5.640625.847656 8 2.214844 2.359375-1.367188 5.070312-2.214844 8-2.214844 8.839844 0 16 7.160156 16 16v16c0 5.902344 3.238281 11.007812 8 13.785156 4.761719-2.769531 8-7.875 8-13.785156v-80h-144v64c0 5.902344 3.238281 11.007812 8 13.785156zm0 0" fill="#d9514b"/><path d="m64 128v-1.464844c0-9.480468 2.808594-18.742187 8.0625-26.625l2.570312-3.847656c3.496094-5.253906 5.367188-11.429688 5.367188-17.75v-1.054688c0-8.488281-3.367188-16.625-9.375-22.625l-7.90625-5.839843c-14.285156-10.5625-22.71875-27.28125-22.71875-45.050781v-3.742188l-26.59375 37.222656c-8.71875 12.210938-13.40625 26.839844-13.40625 41.847656v3.128907c0 14.214843 4.207031 28.113281 12.097656 39.9375l3.902344 5.863281" fill="#404040"/><path d="m64 101.257812c0-8.488281-3.367188-16.625-9.375-22.625l-7.90625-5.839843c-14.285156-10.5625-22.71875-27.28125-22.71875-45.050781v-3.742188l-16.464844 23.046875c-4.917968 9.914063-7.535156 20.855469-7.535156 32.023437v3.128907c0 14.214843 4.207031 28.113281 12.097656 39.9375l3.902344 5.863281h37.753906c.734375-1.382812 1.4375-2.785156 2.308594-4.097656l2.5625-3.847656c3.503906-5.246094 5.375-11.421876 5.375-17.742188zm0 0" fill="#4d4d4d"/><path d="m40 128h-24l-8 112 16 240h16" fill="#b47e67"/><path d="m40 480h16l16-240-8-112h-24" fill="#a36d56"/><path d="m192 440h16v16h-16zm0 0" fill="#4d4d4d"/></svg>