<svg height="480pt" viewBox="0 0 480 480" width="480pt" xmlns="http://www.w3.org/2000/svg"><path d="m480 384c0-28.425781-24.710938-51.078125-53.824219-47.65625-24.480469 2.878906-42.175781 25.015625-42.175781 49.671875v.183594c0 14.214843 4.207031 28.113281 12.097656 39.9375l35.902344 53.863281 35.902344-53.863281c7.890625-11.824219 12.097656-25.722657 12.097656-39.9375zm0 0" fill="#ca5057"/><path d="m448 384c0 8.835938-7.164062 16-16 16s-16-7.164062-16-16 7.164062-16 16-16 16 7.164062 16 16zm0 0" fill="#fff"/><path d="m192 96c0 53.019531-42.980469 96-96 96s-96-42.980469-96-96 42.980469-96 96-96 96 42.980469 96 96zm0 0" fill="#599072"/><path d="m160 96c0 35.347656-28.652344 64-64 64s-64-28.652344-64-64 28.652344-64 64-64 64 28.652344 64 64zm0 0" fill="#fff"/><path d="m360 416h-232c-35.34375 0-64-28.65625-64-64s28.65625-64 64-64h240c61.855469 0 112-50.144531 112-112s-50.144531-112-112-112h-144v64h144c26.511719 0 48 21.488281 48 48s-21.488281 48-48 48h-240c-70.695312 0-128 57.304688-128 128s57.304688 128 128 128h232zm0 0" fill="#5b6673"/><path d="m360 432h-232c-44.183594 0-80-35.816406-80-80s35.816406-80 80-80h240c53.015625 0 96-42.984375 96-96s-42.984375-96-96-96h-144v32h144c35.34375 0 64 28.65625 64 64s-28.65625 64-64 64h-240c-61.855469 0-112 50.144531-112 112s50.144531 112 112 112h232zm0 0" fill="#bab8b9"/><path d="m120 112h-24c-4.425781 0-8-3.585938-8-8v-48h16v40h16zm0 0" fill="#599072"/><g fill="#f8cf6a"><path d="m336 440h24v16h-24zm0 0"/><path d="m272 440h32v16h-32zm0 0"/><path d="m208 440h32v16h-32zm0 0"/><path d="m144 440h32v16h-32zm0 0"/><path d="m110.671875 454.558594c-12.265625-2.0625-23.929687-6.253906-34.679687-12.488282l8.015624-13.839843c9.089844 5.257812 18.945313 8.808593 29.320313 10.546875zm0 0"/><path d="m43.519531 412.671875c-7.550781-10.496094-13.023437-22.167969-16.246093-34.671875l15.503906-4c2.726562 10.585938 7.34375 20.457031 13.734375 29.328125zm0 0"/><path d="m40.304688 344.65625-15.953126-1.3125c1-12.054688 4.054688-23.726562 9.082032-34.679688l14.542968 6.671876c-4.25 9.257812-6.832031 19.128906-7.671874 29.320312zm0 0"/><path d="m69.800781 286-10.601562-12c10.058593-8.871094 21.535156-15.632812 34.136719-20.078125l5.328124 15.078125c-10.648437 3.769531-20.359374 9.488281-28.863281 17zm0 0"/><path d="m128 248h32v16h-32zm0 0"/><path d="m192 248h32v16h-32zm0 0"/><path d="m256 248h32v16h-32zm0 0"/><path d="m320 248h32v16h-32zm0 0"/><path d="m385.585938 262.238281-3.171876-15.679687c10.496094-2.125 20.179688-6.488282 28.792969-12.949219l9.609375 12.789063c-10.527344 7.90625-22.375 13.234374-35.230468 15.839843zm0 0"/><path d="m448.671875 211.207031-14.65625-6.40625c3.96875-9.097656 5.984375-18.785156 5.984375-28.800781h16c0 12.230469-2.464844 24.078125-7.328125 35.207031zm0 0"/><path d="m434.015625 147.199219c-4.96875-11.367188-12.855469-21.335938-22.816406-28.816407l9.609375-12.789062c12.160156 9.132812 21.792968 21.300781 27.855468 35.191406zm0 0"/><path d="m382.40625 105.441406c-4.703125-.953125-9.558594-1.441406-14.40625-1.441406h-16v-16h16c5.921875 0 11.832031.59375 17.59375 1.761719zm0 0"/><path d="m288 88h32v16h-32zm0 0"/><path d="m224 88h32v16h-32zm0 0"/></g></svg>