<svg height="496pt" viewBox="0 0 496 496" width="496pt" xmlns="http://www.w3.org/2000/svg"><path d="m488 392c0-28.425781-24.710938-51.078125-53.824219-47.65625-24.480469 2.878906-42.175781 25.015625-42.175781 49.671875v.183594c0 14.214843 4.207031 28.113281 12.097656 39.9375l35.902344 53.863281 35.902344-53.863281c7.890625-11.824219 12.097656-25.722657 12.097656-39.9375zm0 0" fill="#ca5057"/><path d="m456 392c0 8.835938-7.164062 16-16 16s-16-7.164062-16-16 7.164062-16 16-16 16 7.164062 16 16zm0 0" fill="#fff"/><path d="m200 104c0 53.019531-42.980469 96-96 96s-96-42.980469-96-96 42.980469-96 96-96 96 42.980469 96 96zm0 0" fill="#599072"/><path d="m168 104c0 35.347656-28.652344 64-64 64s-64-28.652344-64-64 28.652344-64 64-64 64 28.652344 64 64zm0 0" fill="#fff"/><path d="m368 424h-232c-35.34375 0-64-28.65625-64-64s28.65625-64 64-64h240c61.855469 0 112-50.144531 112-112s-50.144531-112-112-112h-144v64h144c26.511719 0 48 21.488281 48 48s-21.488281 48-48 48h-240c-70.695312 0-128 57.304688-128 128s57.304688 128 128 128h232zm0 0" fill="#5b6673"/><path d="m368 440h-232c-44.183594 0-80-35.816406-80-80s35.816406-80 80-80h240c53.015625 0 96-42.984375 96-96s-42.984375-96-96-96h-144v32h144c35.34375 0 64 28.65625 64 64s-28.65625 64-64 64h-240c-61.855469 0-112 50.144531-112 112s50.144531 112 112 112h232zm0 0" fill="#bab8b9"/><path d="m104 208c-57.34375 0-104-46.65625-104-104s46.65625-104 104-104 104 46.65625 104 104-46.65625 104-104 104zm0-192c-48.519531 0-88 39.480469-88 88s39.480469 88 88 88 88-39.480469 88-88-39.480469-88-88-88zm0 0"/><path d="m104 176c-39.703125 0-72-32.304688-72-72s32.296875-72 72-72 72 32.304688 72 72-32.296875 72-72 72zm0-128c-30.871094 0-56 25.121094-56 56s25.128906 56 56 56 56-25.121094 56-56-25.128906-56-56-56zm0 0"/><path d="m128 120h-24c-4.425781 0-8-3.585938-8-8v-48h16v40h16zm0 0"/><path d="m368 496h-232c-74.992188 0-136-61.007812-136-136s61.007812-136 136-136h240c22.054688 0 40-17.945312 40-40s-17.945312-40-40-40h-144v-16h144c30.871094 0 56 25.121094 56 56s-25.128906 56-56 56h-240c-66.167969 0-120 53.832031-120 120s53.832031 120 120 120h232zm0 0"/><path d="m368 432h-232c-39.703125 0-72-32.296875-72-72s32.296875-72 72-72h240c57.34375 0 104-46.65625 104-104s-46.65625-104-104-104h-144v-16h144c66.167969 0 120 53.832031 120 120s-53.832031 120-120 120h-240c-30.871094 0-56 25.128906-56 56s25.128906 56 56 56h232zm0 0"/><path d="m440 496c-2.671875 0-5.167969-1.335938-6.65625-3.558594l-35.902344-53.855468c-8.792968-13.195313-13.441406-28.539063-13.441406-44.386719 0-29.726563 21.167969-54.496094 49.230469-57.808594 16.027343-1.863281 32.027343 3.128906 43.960937 13.738281 11.960938 10.632813 18.808594 25.886719 18.808594 41.871094v2.199219c0 15.839843-4.648438 31.183593-13.441406 44.375l-35.902344 53.859375c-1.488281 2.230468-3.984375 3.566406-6.65625 3.566406zm.046875-144c-1.632813 0-3.277344.097656-4.933594.289062-19.6875 2.320313-35.113281 20.648438-35.113281 41.726563 0 12.855469 3.71875 25.136719 10.753906 35.6875l29.246094 43.871094 29.246094-43.871094c7.035156-10.550781 10.753906-22.832031 10.753906-35.503906v-2.199219c0-11.414062-4.894531-22.3125-13.441406-29.902344-7.40625-6.59375-16.6875-10.097656-26.511719-10.097656zm0 0"/><path d="m440 416c-13.230469 0-24-10.769531-24-24s10.769531-24 24-24 24 10.769531 24 24-10.769531 24-24 24zm0-32c-4.414062 0-8 3.585938-8 8s3.585938 8 8 8 8-3.585938 8-8-3.585938-8-8-8zm0 0"/><path d="m344 448h24v16h-24zm0 0"/><path d="m280 448h32v16h-32zm0 0"/><path d="m216 448h32v16h-32zm0 0"/><path d="m152 448h32v16h-32zm0 0"/><path d="m118.671875 462.558594c-12.265625-2.0625-23.929687-6.253906-34.679687-12.488282l8.015624-13.839843c9.089844 5.257812 18.945313 8.808593 29.320313 10.546875zm0 0"/><path d="m51.519531 420.671875c-7.550781-10.496094-13.023437-22.167969-16.246093-34.671875l15.503906-4c2.726562 10.585938 7.34375 20.457031 13.734375 29.328125zm0 0"/><path d="m48.304688 352.65625-15.953126-1.3125c1-12.054688 4.054688-23.726562 9.082032-34.679688l14.542968 6.671876c-4.25 9.257812-6.832031 19.128906-7.671874 29.320312zm0 0"/><path d="m77.800781 294-10.601562-12c10.058593-8.871094 21.535156-15.632812 34.136719-20.078125l5.328124 15.078125c-10.648437 3.769531-20.359374 9.488281-28.863281 17zm0 0"/><path d="m136 256h32v16h-32zm0 0"/><path d="m200 256h32v16h-32zm0 0"/><path d="m264 256h32v16h-32zm0 0"/><path d="m328 256h32v16h-32zm0 0"/><path d="m393.585938 270.238281-3.171876-15.679687c10.496094-2.125 20.179688-6.488282 28.792969-12.949219l9.609375 12.789063c-10.527344 7.90625-22.375 13.234374-35.230468 15.839843zm0 0"/><path d="m456.671875 219.207031-14.65625-6.40625c3.96875-9.097656 5.984375-18.785156 5.984375-28.800781h16c0 12.230469-2.464844 24.078125-7.328125 35.207031zm0 0"/><path d="m442.015625 155.199219c-4.96875-11.367188-12.855469-21.335938-22.816406-28.816407l9.609375-12.789062c12.160156 9.132812 21.792968 21.300781 27.855468 35.191406zm0 0"/><path d="m390.40625 113.441406c-4.703125-.953125-9.558594-1.441406-14.40625-1.441406h-16v-16h16c5.921875 0 11.832031.59375 17.59375 1.761719zm0 0"/><path d="m296 96h32v16h-32zm0 0"/><path d="m232 96h32v16h-32zm0 0"/></svg>