<svg xmlns="http://www.w3.org/2000/svg" xmlns:xlink="http://www.w3.org/1999/xlink" width="126" height="126" viewBox="0 0 126 126">
  <defs>
    <polygon id="brand-illustration-a" points="0 125.496 125.496 125.496 125.496 0 0 0"/>
  </defs>
  <g fill="none" fill-rule="evenodd">
    <path fill="#69C1BD" d="M62.748,72.2314 C57.508,72.2314 53.268,67.9814 53.268,62.7514 C53.268,57.5104 57.508,53.2604 62.748,53.2604 C67.988,53.2604 72.228,57.5104 72.228,62.7514 C72.228,67.9814 67.988,72.2314 62.748,72.2314 M62.748,46.9014 C53.998,46.9014 46.898,53.9914 46.898,62.7514 C46.898,71.5014 53.998,78.5904 62.748,78.5904 C71.498,78.5904 78.598,71.5014 78.598,62.7514 C78.598,53.9914 71.498,46.9014 62.748,46.9014"/>
    <path fill="#1D1D1B" d="M62.748,54.2606 C58.072,54.2606 54.268,58.0696 54.268,62.7506 C54.268,67.4266 58.072,71.2316 62.748,71.2316 C67.424,71.2316 71.228,67.4266 71.228,62.7506 C71.228,58.0696 67.424,54.2606 62.748,54.2606 M62.748,73.2316 C56.969,73.2316 52.268,68.5306 52.268,62.7506 C52.268,56.9666 56.969,52.2606 62.748,52.2606 C68.527,52.2606 73.228,56.9666 73.228,62.7506 C73.228,68.5306 68.527,73.2316 62.748,73.2316 M62.748,47.9016 C54.56,47.9016 47.898,54.5626 47.898,62.7506 C47.898,70.9336 54.56,77.5906 62.748,77.5906 C70.936,77.5906 77.598,70.9336 77.598,62.7506 C77.598,54.5626 70.936,47.9016 62.748,47.9016 M62.748,79.5906 C53.457,79.5906 45.898,72.0356 45.898,62.7506 C45.898,53.4596 53.457,45.9016 62.748,45.9016 C72.039,45.9016 79.598,53.4596 79.598,62.7506 C79.598,72.0356 72.039,79.5906 62.748,79.5906"/>
    <path fill="#1D1D1B" d="M65.9204,62.748 C65.9204,64.5 64.5004,65.92 62.7484,65.92 C60.9954,65.92 59.5754,64.5 59.5754,62.748 C59.5754,60.995 60.9954,59.575 62.7484,59.575 C64.5004,59.575 65.9204,60.995 65.9204,62.748"/>
    <mask id="brand-illustration-b" fill="#fff">
      <use xlink:href="#brand-illustration-a"/>
    </mask>
    <polygon fill="#D7ECED" points="57.085 39.808 69.536 39.808 69.536 32.665 57.085 32.665" mask="url(#brand-illustration-b)"/>
    <path fill="#1D1D1B" d="M58.085,38.808 L68.536,38.808 L68.536,33.665 L58.085,33.665 L58.085,38.808 Z M69.536,40.808 L57.085,40.808 C56.533,40.808 56.085,40.36 56.085,39.808 L56.085,32.665 C56.085,32.112 56.533,31.665 57.085,31.665 L69.536,31.665 C70.088,31.665 70.536,32.112 70.536,32.665 L70.536,39.808 C70.536,40.36 70.088,40.808 69.536,40.808 L69.536,40.808 Z" mask="url(#brand-illustration-b)"/>
    <polygon fill="#D7ECED" points="51.327 41.727 42.523 50.532 37.472 45.48 46.276 36.675" mask="url(#brand-illustration-b)"/>
    <path fill="#1D1D1B" d="M38.8857,45.4794 L42.5227,49.1174 L49.9127,41.7264 L46.2757,38.0894 L38.8857,45.4794 Z M42.5227,51.5314 L42.5227,51.5314 C42.2577,51.5314 42.0037,51.4254 41.8157,51.2384 L36.7647,46.1864 C36.3737,45.7954 36.3737,45.1634 36.7647,44.7724 L45.5687,35.9684 C45.9597,35.5784 46.5927,35.5784 46.9827,35.9684 L52.0337,41.0194 C52.2217,41.2074 52.3267,41.4604 52.3267,41.7264 C52.3267,41.9924 52.2217,42.2464 52.0337,42.4334 L43.2297,51.2384 C43.0427,51.4254 42.7877,51.5314 42.5227,51.5314 L42.5227,51.5314 Z" mask="url(#brand-illustration-b)"/>
    <polygon fill="#D7ECED" points="32.665 68.41 39.808 68.41 39.808 55.96 32.665 55.96" mask="url(#brand-illustration-b)"/>
    <path fill="#1D1D1B" d="M33.665,67.41 L38.808,67.41 L38.808,56.96 L33.665,56.96 L33.665,67.41 Z M39.808,69.41 L32.665,69.41 C32.113,69.41 31.665,68.963 31.665,68.41 L31.665,55.96 C31.665,55.407 32.113,54.96 32.665,54.96 L39.808,54.96 C40.36,54.96 40.808,55.407 40.808,55.96 L40.808,68.41 C40.808,68.963 40.36,69.41 39.808,69.41 L39.808,69.41 Z" mask="url(#brand-illustration-b)"/>
    <polygon fill="#D7ECED" points="41.727 74.169 50.531 82.973 45.48 88.023 36.676 79.22" mask="url(#brand-illustration-b)"/>
    <path fill="#1D1D1B" d="M38.0903,79.2196 L45.4803,86.6096 L49.1173,82.9726 L41.7273,75.5826 L38.0903,79.2196 Z M45.4803,89.0236 C45.2243,89.0236 44.9683,88.9256 44.7733,88.7306 L35.9693,79.9266 C35.5783,79.5356 35.5783,78.9036 35.9693,78.5126 L41.0203,73.4616 C41.4103,73.0716 42.0433,73.0716 42.4343,73.4616 L51.2383,82.2656 C51.4253,82.4526 51.5313,82.7066 51.5313,82.9726 C51.5313,83.2386 51.4253,83.4916 51.2383,83.6796 L46.1873,88.7306 C45.9913,88.9256 45.7363,89.0236 45.4803,89.0236 L45.4803,89.0236 Z" mask="url(#brand-illustration-b)"/>
    <polygon fill="#D7ECED" points="55.96 92.831 68.411 92.831 68.411 85.687 55.96 85.687" mask="url(#brand-illustration-b)"/>
    <path fill="#1D1D1B" d="M56.96,91.831 L67.411,91.831 L67.411,86.687 L56.96,86.687 L56.96,91.831 Z M68.411,93.831 L55.96,93.831 C55.408,93.831 54.96,93.384 54.96,92.831 L54.96,85.687 C54.96,85.135 55.408,84.687 55.96,84.687 L68.411,84.687 C68.963,84.687 69.411,85.135 69.411,85.687 L69.411,92.831 C69.411,93.384 68.963,93.831 68.411,93.831 L68.411,93.831 Z" mask="url(#brand-illustration-b)"/>
    <polygon fill="#D7ECED" points="74.169 83.769 82.973 74.965 88.024 80.016 79.22 88.82" mask="url(#brand-illustration-b)"/>
    <path fill="#1D1D1B" d="M75.583,83.7685 L79.22,87.4055 L86.61,80.0155 L82.973,76.3785 L75.583,83.7685 Z M79.22,89.8195 C78.964,89.8195 78.708,89.7215 78.513,89.5265 L73.462,84.4755 C73.274,84.2885 73.169,84.0345 73.169,83.7685 C73.169,83.5025 73.274,83.2485 73.462,83.0615 L82.266,74.2575 C82.657,73.8675 83.29,73.8675 83.68,74.2575 L88.731,79.3085 C89.122,79.6995 89.122,80.3315 88.731,80.7225 L79.927,89.5265 C79.732,89.7215 79.476,89.8195 79.22,89.8195 L79.22,89.8195 Z" mask="url(#brand-illustration-b)"/>
    <polygon fill="#D7ECED" points="85.688 69.536 92.831 69.536 92.831 57.085 85.688 57.085" mask="url(#brand-illustration-b)"/>
    <path fill="#1D1D1B" d="M86.688,68.536 L91.831,68.536 L91.831,58.085 L86.688,58.085 L86.688,68.536 Z M92.831,70.536 L85.688,70.536 C85.136,70.536 84.688,70.089 84.688,69.536 L84.688,57.085 C84.688,56.532 85.136,56.085 85.688,56.085 L92.831,56.085 C93.383,56.085 93.831,56.532 93.831,57.085 L93.831,69.536 C93.831,70.089 93.383,70.536 92.831,70.536 L92.831,70.536 Z" mask="url(#brand-illustration-b)"/>
    <polygon fill="#D7ECED" points="83.769 51.327 74.965 42.522 80.016 37.472 88.82 46.275" mask="url(#brand-illustration-b)"/>
    <path fill="#1D1D1B" d="M76.3789,42.5224 L83.7689,49.9134 L87.4059,46.2754 L80.0159,38.8854 L76.3789,42.5224 Z M83.7689,52.3274 C83.5039,52.3274 83.2499,52.2214 83.0619,52.0344 L74.2579,43.2294 C73.8669,42.8384 73.8669,42.2064 74.2579,41.8154 L79.3089,36.7644 C79.6989,36.3744 80.3319,36.3744 80.7229,36.7644 L89.5269,45.5684 C89.9179,45.9594 89.9179,46.5914 89.5269,46.9824 L84.4759,52.0344 C84.2889,52.2214 84.0339,52.3274 83.7689,52.3274 L83.7689,52.3274 Z" mask="url(#brand-illustration-b)"/>
    <polygon fill="#69C1BD" points="85.352 8.6 69.958 24.721 84.714 30.881" mask="url(#brand-illustration-b)"/>
    <path fill="#1D1D1B" d="M71.687,24.3593 L83.756,29.3983 L84.278,11.1723 L71.687,24.3593 Z M84.714,31.8813 C84.583,31.8813 84.453,31.8563 84.329,31.8043 L69.573,25.6443 C69.269,25.5173 69.047,25.2493 68.98,24.9263 C68.912,24.6043 69.008,24.2693 69.235,24.0313 L84.629,7.9093 C84.915,7.6083 85.356,7.5183 85.737,7.6763 C86.119,7.8363 86.363,8.2143 86.352,8.6283 L85.713,30.9103 C85.704,31.2393 85.533,31.5433 85.256,31.7213 C85.092,31.8283 84.904,31.8813 84.714,31.8813 L84.714,31.8813 Z" mask="url(#brand-illustration-b)"/>
    <polygon fill="#69C1BD" points="40.443 8.476 40.958 30.761 55.748 24.683" mask="url(#brand-illustration-b)"/>
    <path fill="#1D1D1B" d="M41.5029,11.0546 L41.9239,29.2826 L54.0209,24.3106 L41.5029,11.0546 Z M40.9579,31.7606 C40.7669,31.7606 40.5759,31.7056 40.4109,31.5976 C40.1349,31.4176 39.9659,31.1136 39.9589,30.7836 L39.4429,8.4986 C39.4339,8.0846 39.6799,7.7076 40.0629,7.5506 C40.4459,7.3946 40.8859,7.4886 41.1699,7.7886 L56.4749,23.9956 C56.7009,24.2356 56.7949,24.5716 56.7249,24.8936 C56.6559,25.2146 56.4319,25.4826 56.1279,25.6076 L41.3379,31.6856 C41.2159,31.7366 41.0859,31.7606 40.9579,31.7606 L40.9579,31.7606 Z" mask="url(#brand-illustration-b)"/>
    <polygon fill="#69C1BD" points="8.6 40.144 24.723 55.538 30.882 40.782" mask="url(#brand-illustration-b)"/>
    <path fill="#1D1D1B" d="M11.1729,41.2177 L24.3599,53.8087 L29.3989,41.7397 L11.1729,41.2177 Z M24.7219,56.5367 C24.4679,56.5367 24.2199,56.4397 24.0319,56.2607 L7.9089,40.8667 C7.6099,40.5807 7.5179,40.1407 7.6769,39.7587 C7.8359,39.3767 8.1969,39.1457 8.6289,39.1437 L30.9109,39.7817 C31.2399,39.7917 31.5439,39.9627 31.7219,40.2397 C31.9009,40.5167 31.9319,40.8637 31.8049,41.1667 L25.6449,55.9217 C25.5179,56.2267 25.2499,56.4477 24.9269,56.5157 C24.8589,56.5307 24.7909,56.5367 24.7219,56.5367 L24.7219,56.5367 Z" mask="url(#brand-illustration-b)"/>
    <polygon fill="#69C1BD" points="8.476 85.053 30.762 84.538 24.684 69.748" mask="url(#brand-illustration-b)"/>
    <path fill="#1D1D1B" d="M24.3115,71.4745 L11.0545,83.9935 L29.2835,83.5725 L24.3115,71.4745 Z M8.4755,86.0525 C8.0705,86.0525 7.7055,85.8085 7.5505,85.4325 C7.3935,85.0495 7.4885,84.6095 7.7895,84.3255 L23.9965,69.0205 C24.2365,68.7945 24.5755,68.7045 24.8935,68.7705 C25.2155,68.8395 25.4825,69.0635 25.6075,69.3685 L31.6865,84.1585 C31.8115,84.4625 31.7785,84.8095 31.5985,85.0845 C31.4175,85.3615 31.1135,85.5305 30.7845,85.5375 L8.4985,86.0525 L8.4755,86.0525 Z" mask="url(#brand-illustration-b)"/>
    <polygon fill="#69C1BD" points="40.144 116.896 55.538 100.773 40.783 94.614" mask="url(#brand-illustration-b)"/>
    <path fill="#1D1D1B" d="M41.7402,96.0976 L41.2182,114.3236 L53.8092,101.1356 L41.7402,96.0976 Z M40.1432,117.8966 C40.0132,117.8966 39.8832,117.8706 39.7582,117.8196 C39.3762,117.6596 39.1322,117.2816 39.1442,116.8686 L39.7822,94.5856 C39.7922,94.2566 39.9632,93.9526 40.2402,93.7746 C40.5172,93.5946 40.8632,93.5656 41.1672,93.6916 L55.9232,99.8506 C56.2262,99.9776 56.4482,100.2456 56.5162,100.5686 C56.5842,100.8906 56.4882,101.2256 56.2612,101.4636 L40.8662,117.5866 C40.6742,117.7886 40.4112,117.8966 40.1432,117.8966 L40.1432,117.8966 Z" mask="url(#brand-illustration-b)"/>
    <polygon fill="#69C1BD" points="85.053 117.02 84.538 94.734 69.748 100.812" mask="url(#brand-illustration-b)"/>
    <path fill="#1D1D1B" d="M71.4751,101.1845 L83.9931,114.4415 L83.5721,96.2125 L71.4751,101.1845 Z M85.0531,118.0205 C84.7841,118.0205 84.5191,117.9115 84.3261,117.7065 L69.0211,101.4985 C68.7951,101.2595 68.7021,100.9235 68.7711,100.6015 C68.8401,100.2805 69.0641,100.0125 69.3691,99.8875 L84.1581,93.8095 C84.4631,93.6835 84.8091,93.7165 85.0851,93.8975 C85.3611,94.0775 85.5301,94.3815 85.5381,94.7105 L86.0531,116.9975 C86.0621,117.4115 85.8161,117.7885 85.4331,117.9455 C85.3101,117.9965 85.1811,118.0205 85.0531,118.0205 L85.0531,118.0205 Z" mask="url(#brand-illustration-b)"/>
    <polygon fill="#69C1BD" points="116.897 85.352 100.773 69.957 94.615 84.713" mask="url(#brand-illustration-b)"/>
    <path fill="#1D1D1B" d="M96.0977,83.7558 L114.3237,84.2768 L101.1367,71.6868 L96.0977,83.7558 Z M116.8967,86.3518 L116.8677,86.3518 L94.5857,85.7138 C94.2567,85.7038 93.9527,85.5328 93.7747,85.2558 C93.5957,84.9798 93.5647,84.6328 93.6917,84.3288 L99.8507,69.5728 C99.9777,69.2688 100.2467,69.0468 100.5687,68.9798 C100.8897,68.9098 101.2257,69.0068 101.4647,69.2348 L117.5867,84.6278 C117.8867,84.9138 117.9787,85.3548 117.8197,85.7358 C117.6637,86.1098 117.2987,86.3518 116.8967,86.3518 L116.8967,86.3518 Z" mask="url(#brand-illustration-b)"/>
    <polygon fill="#69C1BD" points="117.02 40.442 94.734 40.958 100.813 55.747" mask="url(#brand-illustration-b)"/>
    <path fill="#1D1D1B" d="M96.2129 41.9237L101.1849 54.0207 114.4419 41.5017 96.2129 41.9237zM100.8129 56.7467C100.7429 56.7467 100.6719 56.7387 100.6029 56.7247 100.2799 56.6547 100.0129 56.4317 99.8879 56.1267L93.8099 41.3377C93.6849 41.0327 93.7179 40.6867 93.8979 40.4107 94.0779 40.1347 94.3819 39.9657 94.7119 39.9577L116.9979 39.4427C117.4199 39.4277 117.7879 39.6797 117.9449 40.0627 118.1029 40.4447 118.0079 40.8857 117.7069 41.1697L101.4999 56.4747C101.3119 56.6517 101.0659 56.7467 100.8129 56.7467L100.8129 56.7467zM64.7969 22.4618C64.7969 23.5938 63.8799 24.5108 62.7479 24.5108 61.6159 24.5108 60.6989 23.5938 60.6989 22.4618 60.6989 21.3298 61.6159 20.4128 62.7479 20.4128 63.8799 20.4128 64.7969 21.3298 64.7969 22.4618M35.7104 32.8124C36.5104 33.6124 36.5104 34.9104 35.7104 35.7094 34.9104 36.5104 33.6124 36.5104 32.8124 35.7094 32.0124 34.9104 32.0124 33.6124 32.8124 32.8124 33.6124 32.0114 34.9104 32.0114 35.7104 32.8124M22.4619 60.6981C23.5939 60.6981 24.5109 61.6161 24.5109 62.7481 24.5109 63.8801 23.5939 64.7971 22.4619 64.7971 21.3309 64.7971 20.4129 63.8801 20.4129 62.7481 20.4129 61.6161 21.3309 60.6981 22.4619 60.6981M32.8125 89.7851C33.6125 88.9851 34.9105 88.9851 35.7105 89.7851 36.5105 90.5861 36.5105 91.8831 35.7105 92.6831 34.9105 93.4831 33.6125 93.4831 32.8125 92.6831 32.0125 91.8831 32.0125 90.5861 32.8125 89.7851M60.6987 103.0331C60.6987 101.9021 61.6157 100.9841 62.7477 100.9841 63.8797 100.9841 64.7967 101.9021 64.7967 103.0331 64.7967 104.1651 63.8797 105.0831 62.7477 105.0831 61.6157 105.0831 60.6987 104.1651 60.6987 103.0331M89.7856 92.6835C88.9856 91.8825 88.9856 90.5855 89.7856 89.7855 90.5856 88.9855 91.8836 88.9855 92.6836 89.7855 93.4836 90.5855 93.4836 91.8825 92.6836 92.6835 91.8836 93.4835 90.5856 93.4835 89.7856 92.6835M103.0337 64.7968C101.9027 64.7968 100.9847 63.8798 100.9847 62.7478 100.9847 61.6158 101.9027 60.6978 103.0337 60.6978 104.1657 60.6978 105.0827 61.6158 105.0827 62.7478 105.0827 63.8798 104.1657 64.7968 103.0337 64.7968M92.6836 35.7099C91.8836 36.5109 90.5856 36.5109 89.7856 35.7099 88.9856 34.9099 88.9856 33.6119 89.7856 32.8129 90.5856 32.0119 91.8836 32.0119 92.6836 32.8129 93.4836 33.6119 93.4836 34.9099 92.6836 35.7099M63.3105 1.9999C59.7065 1.9999 56.7735 4.9329 56.7735 8.5369 56.7735 12.1429 59.7065 15.0749 63.3105 15.0749 66.9155 15.0749 69.8485 12.1429 69.8485 8.5369 69.8485 4.9329 66.9155 1.9999 63.3105 1.9999M63.3105 17.0749C58.6025 17.0749 54.7735 13.2449 54.7735 8.5369 54.7735 3.8299 58.6025-.0001 63.3105-.0001 68.0185-.0001 71.8485 3.8299 71.8485 8.5369 71.8485 13.2449 68.0185 17.0749 63.3105 17.0749M24.8135 17.4833C23.1395 17.4833 21.4655 18.1203 20.1905 19.3943 18.9565 20.6293 18.2755 22.2703 18.2755 24.0163 18.2755 25.7633 18.9565 27.4053 20.1905 28.6393 21.4255 29.8753 23.0675 30.5543 24.8135 30.5543 26.5595 30.5543 28.2015 29.8753 29.4365 28.6393 31.9845 26.0903 31.9845 21.9433 29.4365 19.3943 28.1615 18.1203 26.4875 17.4833 24.8135 17.4833M24.8135 32.5543C22.5325 32.5543 20.3885 31.6673 18.7765 30.0533 15.4475 26.7253 15.4475 21.3083 18.7765 17.9803 22.1045 14.6523 27.5215 14.6523 30.8505 17.9803 34.1785 21.3083 34.1785 26.7253 30.8505 30.0533 29.2375 31.6673 27.0935 32.5543 24.8135 32.5543M8.5376 55.6474C4.9326 55.6474 1.9996 58.5804 1.9996 62.1844 1.9996 65.7904 4.9326 68.7224 8.5376 68.7224 12.1426 68.7224 15.0756 65.7904 15.0756 62.1844 15.0756 58.5804 12.1426 55.6474 8.5376 55.6474M8.5376 70.7224C3.8296 70.7224-.0004 66.8924-.0004 62.1844-.0004 57.4774 3.8296 53.6474 8.5376 53.6474 13.2456 53.6474 17.0756 57.4774 17.0756 62.1844 17.0756 66.8924 13.2456 70.7224 8.5376 70.7224M19.3945 96.0595C16.8455 98.6085 16.8465 102.7555 19.3945 105.3055 21.9435 107.8545 26.0915 107.8535 28.6405 105.3055 29.8745 104.0705 30.5555 102.4285 30.5555 100.6825 30.5555 98.9355 29.8745 97.2935 28.6405 96.0595 26.0915 93.5105 21.9445 93.5115 19.3945 96.0595M24.0175 109.2155C21.8315 109.2155 19.6445 108.3835 17.9805 106.7195 14.6515 103.3905 14.6515 97.9735 17.9805 94.6455 21.3085 91.3175 26.7255 91.3175 30.0545 94.6455 31.6665 96.2575 32.5555 98.4015 32.5555 100.6825 32.5555 102.9625 31.6665 105.1065 30.0545 106.7195 28.3905 108.3835 26.2035 109.2155 24.0175 109.2155M62.1851 110.4208C58.5811 110.4208 55.6481 113.3538 55.6481 116.9578 55.6481 120.5638 58.5811 123.4958 62.1851 123.4958 65.7901 123.4958 68.7231 120.5638 68.7231 116.9578 68.7231 113.3538 65.7901 110.4208 62.1851 110.4208M62.1851 125.4958C57.4771 125.4958 53.6481 121.6658 53.6481 116.9578 53.6481 112.2508 57.4771 108.4208 62.1851 108.4208 66.8931 108.4208 70.7231 112.2508 70.7231 116.9578 70.7231 121.6658 66.8931 125.4958 62.1851 125.4958M100.6826 94.9442C99.0086 94.9442 97.3346 95.5812 96.0596 96.8552 94.8256 98.0902 94.1446 99.7312 94.1446 101.4772 94.1446 103.2242 94.8256 104.8662 96.0596 106.1002 97.2946 107.3362 98.9366 108.0152 100.6826 108.0152 102.4286 108.0152 104.0706 107.3362 105.3056 106.1002 106.5396 104.8662 107.2206 103.2242 107.2206 101.4772 107.2206 99.7312 106.5396 98.0902 105.3056 96.8552 104.0316 95.5812 102.3566 94.9442 100.6826 94.9442M100.6826 110.0152C98.4026 110.0152 96.2586 109.1282 94.6456 107.5142 93.0336 105.9022 92.1446 103.7582 92.1446 101.4772 92.1446 99.1972 93.0336 97.0532 94.6456 95.4412 97.9746 92.1132 103.3906 92.1132 106.7196 95.4412 110.0486 98.7692 110.0486 104.1862 106.7196 107.5142 105.1076 109.1282 102.9636 110.0152 100.6826 110.0152M116.9585 56.7733C113.3535 56.7733 110.4205 59.7063 110.4205 63.3103 110.4205 66.9153 113.3535 69.8473 116.9585 69.8473 120.5635 69.8473 123.4965 66.9153 123.4965 63.3103 123.4965 59.7063 120.5635 56.7733 116.9585 56.7733M116.9585 71.8473C112.2505 71.8473 108.4205 68.0173 108.4205 63.3103 108.4205 58.6033 112.2505 54.7733 116.9585 54.7733 121.6665 54.7733 125.4965 58.6033 125.4965 63.3103 125.4965 68.0173 121.6665 71.8473 116.9585 71.8473M101.4785 18.2792C99.8045 18.2792 98.1305 18.9162 96.8555 20.1902 95.6215 21.4252 94.9405 23.0662 94.9405 24.8132 94.9405 26.5592 95.6215 28.2012 96.8555 29.4352 98.0905 30.6702 99.7325 31.3502 101.4785 31.3502 103.2245 31.3502 104.8665 30.6702 106.1015 29.4352 107.3355 28.2012 108.0165 26.5592 108.0165 24.8132 108.0165 23.0662 107.3355 21.4252 106.1015 20.1902 104.8265 18.9162 103.1525 18.2792 101.4785 18.2792M101.4785 33.3452C99.2925 33.3452 97.1055 32.5132 95.4415 30.8492 93.8295 29.2372 92.9405 27.0932 92.9405 24.8132 92.9405 22.5322 93.8295 20.3882 95.4415 18.7762 98.7705 15.4472 104.1865 15.4472 107.5155 18.7762 109.1275 20.3882 110.0165 22.5322 110.0165 24.8132 110.0165 27.0932 109.1275 29.2372 107.5155 30.8492 105.8515 32.5132 103.6645 33.3452 101.4785 33.3452" mask="url(#brand-illustration-b)"/>
  </g>
</svg>
