<svg xmlns="http://www.w3.org/2000/svg" xmlns:xlink="http://www.w3.org/1999/xlink" width="147" height="120" viewBox="0 0 147 120">
  <defs>
    <polygon id="components-illustration-a" points="0 120 146.217 120 146.217 .607 0 .607"/>
    <polygon id="components-illustration-c" points="0 120 146.217 120 146.217 .607 0 .607"/>
  </defs>
  <g fill="none" fill-rule="evenodd" transform="translate(0 -1)">
    <g transform="translate(0 .393)">
      <path fill="#D7ECED" d="M135.4404,23.3652 C135.4404,31.4502 128.8864,38.0042 120.8014,38.0042 C112.7164,38.0042 106.1624,31.4502 106.1624,23.3652 C106.1624,15.2802 112.7164,8.7252 120.8014,8.7252 C128.8864,8.7252 135.4404,15.2802 135.4404,23.3652"/>
      <mask id="components-illustration-b" fill="#fff">
        <use xlink:href="#components-illustration-a"/>
      </mask>
      <polygon fill="#D7ECED" points="70.786 81.185 95.357 81.185 95.357 56.614 70.786 56.614" mask="url(#components-illustration-b)"/>
      <path fill="#69C1BD" d="M140.665 76.334C140.665 78.335 139.044 79.956 137.043 79.956 135.043 79.956 133.421 78.335 133.421 76.334 133.421 74.334 135.043 72.712 137.043 72.712 139.044 72.712 140.665 74.334 140.665 76.334M67.376 43.4277C67.376 47.5137 64.064 50.8247 59.98 50.8247 55.895 50.8247 52.583 47.5137 52.583 43.4277 52.583 39.3427 55.895 36.0317 59.98 36.0317 64.064 36.0317 67.376 39.3427 67.376 43.4277" mask="url(#components-illustration-b)"/>
      <polygon fill="#69C1BD" points="26.563 107.253 74.414 107.253 74.414 95.506 26.563 95.506" mask="url(#components-illustration-b)"/>
      <polygon fill="#D7ECED" points="27.867 30.44 38.863 44.261 21.607 57.991 12.449 57.997 5 48.634" mask="url(#components-illustration-b)"/>
    </g>
    <g transform="translate(0 .393)">
      <path fill="#1D1D1B" d="M12.4502,58.9971 C12.1552,58.9971 11.8642,58.8681 11.6672,58.6201 L4.2182,49.2581 C4.0532,49.0501 3.9762,48.7851 4.0072,48.5211 C4.0362,48.2581 4.1702,48.0181 4.3772,47.8521 L27.2442,29.6581 C27.4532,29.4921 27.7182,29.4141 27.9802,29.4471 C28.2442,29.4761 28.4842,29.6101 28.6492,29.8171 L39.6452,43.6391 C39.9892,44.0711 39.9182,44.7001 39.4862,45.0441 L22.2302,58.7731 C21.7962,59.1171 21.1672,59.0451 20.8252,58.6141 C20.4812,58.1821 20.5532,57.5531 20.9842,57.2091 L37.4582,44.1011 L27.7072,31.8461 L6.4052,48.7951 L13.2312,57.3741 C13.5752,57.8071 13.5042,58.4351 13.0722,58.7791 C12.8872,58.9261 12.6682,58.9971 12.4502,58.9971"/>
      <path fill="#1D1D1B" d="M4.999,49.6348 C4.464,49.6348 4.02,49.2108 4.001,48.6718 C3.98,48.1198 4.411,47.6558 4.963,47.6358 L22.357,46.9848 L26.901,30.1798 C27.046,29.6458 27.601,29.3318 28.128,29.4748 C28.661,29.6188 28.977,30.1678 28.832,30.7008 L24.097,48.2168 C23.981,48.6398 23.605,48.9398 23.168,48.9548 L5.037,49.6338 C5.024,49.6348 5.012,49.6348 4.999,49.6348"/>
      <polygon fill="#1D1D1B" points="56.572 82.627 3.98 82.627 3.98 79.766 53.592 79.186 54.02 61.72 56.572 61.72"/>
      <path fill="#1D1D1B" d="M4.9805,81.627 L55.5725,81.627 L55.5725,62.72 L54.9965,62.72 L54.5915,79.21 C54.5785,79.748 54.1415,80.179 53.6035,80.186 L4.9805,80.754 L4.9805,81.627 Z M56.5725,83.627 L3.9805,83.627 C3.4275,83.627 2.9805,83.18 2.9805,82.627 L2.9805,79.766 C2.9805,79.218 3.4205,78.773 3.9685,78.766 L52.6165,78.197 L53.0205,61.695 C53.0345,61.152 53.4775,60.72 54.0205,60.72 L56.5725,60.72 C57.1255,60.72 57.5725,61.167 57.5725,61.72 L57.5725,82.627 C57.5725,83.18 57.1255,83.627 56.5725,83.627 L56.5725,83.627 Z"/>
      <mask id="components-illustration-d" fill="#fff">
        <use xlink:href="#components-illustration-c"/>
      </mask>
      <path fill="#1D1D1B" d="M2 78.186L52.592 78.186 52.592 59.279 2 59.279 2 78.186zM53.592 80.186L1 80.186C.447 80.186 0 79.738 0 79.186L0 58.278C0 57.726.447 57.278 1 57.278L53.592 57.278C54.145 57.278 54.592 57.726 54.592 58.278L54.592 79.186C54.592 79.738 54.145 80.186 53.592 80.186L53.592 80.186zM27.563 118L73.414 118 73.414 96.506 27.563 96.506 27.563 118zM74.414 120L26.563 120C26.011 120 25.563 119.553 25.563 119L25.563 95.506C25.563 94.953 26.011 94.506 26.563 94.506L74.414 94.506C74.967 94.506 75.414 94.953 75.414 95.506L75.414 119C75.414 119.553 74.967 120 74.414 120L74.414 120z" mask="url(#components-illustration-d)"/>
      <path fill="#1D1D1B" d="M74.4141 108.2529L26.5631 108.2529C26.0111 108.2529 25.5631 107.8059 25.5631 107.2529 25.5631 106.6999 26.0111 106.2529 26.5631 106.2529L74.4141 106.2529C74.9671 106.2529 75.4141 106.6999 75.4141 107.2529 75.4141 107.8059 74.9671 108.2529 74.4141 108.2529M11.6064 74.2373C11.0534 74.2373 10.6064 73.7903 10.6064 73.2373L10.6064 64.2263C10.6064 63.6743 11.0534 63.2263 11.6064 63.2263 12.1594 63.2263 12.6064 63.6743 12.6064 64.2263L12.6064 73.2373C12.6064 73.7903 12.1594 74.2373 11.6064 74.2373" mask="url(#components-illustration-d)"/>
      <path fill="#1D1D1B" d="M16.1123 69.7314L7.1013 69.7314C6.5493 69.7314 6.1013 69.2844 6.1013 68.7314 6.1013 68.1784 6.5493 67.7314 7.1013 67.7314L16.1123 67.7314C16.6653 67.7314 17.1123 68.1784 17.1123 68.7314 17.1123 69.2844 16.6653 69.7314 16.1123 69.7314M30.127 66.0937L22.011 66.0937C21.458 66.0937 21.011 65.6467 21.011 65.0937 21.011 64.5407 21.458 64.0937 22.011 64.0937L30.127 64.0937C30.68 64.0937 31.127 64.5407 31.127 65.0937 31.127 65.6467 30.68 66.0937 30.127 66.0937M45.5225 66.0937L35.3985 66.0937C34.8455 66.0937 34.3985 65.6467 34.3985 65.0937 34.3985 64.5407 34.8455 64.0937 35.3985 64.0937L45.5225 64.0937C46.0755 64.0937 46.5225 64.5407 46.5225 65.0937 46.5225 65.6467 46.0755 66.0937 45.5225 66.0937M28.4531 72.2012L22.0111 72.2012C21.4581 72.2012 21.0111 71.7542 21.0111 71.2012 21.0111 70.6482 21.4581 70.2012 22.0111 70.2012L28.4531 70.2012C29.0061 70.2012 29.4531 70.6482 29.4531 71.2012 29.4531 71.7542 29.0061 72.2012 28.4531 72.2012M42.4268 72.2012L32.8878 72.2012C32.3348 72.2012 31.8878 71.7542 31.8878 71.2012 31.8878 70.6482 32.3348 70.2012 32.8878 70.2012L42.4268 70.2012C42.9798 70.2012 43.4268 70.6482 43.4268 71.2012 43.4268 71.7542 42.9798 72.2012 42.4268 72.2012M87.7559 40.917L96.4579 45.315 95.9159 35.58 87.7559 40.917zM97.5529 47.989C97.3989 47.989 97.2439 47.954 97.1019 47.882L85.3079 41.921C84.9889 41.76 84.7799 41.44 84.7609 41.084 84.7399 40.728 84.9119 40.387 85.2119 40.191L96.2719 32.958C96.5689 32.763 96.9499 32.741 97.2699 32.902 97.5879 33.063 97.7969 33.383 97.8169 33.739L98.5509 46.934C98.5709 47.29 98.3999 47.631 98.1009 47.826 97.9349 47.935 97.7439 47.989 97.5529 47.989L97.5529 47.989zM59.9717 37.0312C56.4447 37.0312 53.5757 39.9002 53.5757 43.4272 53.5757 46.9552 56.4447 49.8252 59.9717 49.8252 63.4987 49.8252 66.3677 46.9552 66.3677 43.4272 66.3677 39.9002 63.4987 37.0312 59.9717 37.0312M59.9717 51.8252C55.3417 51.8252 51.5757 48.0582 51.5757 43.4272 51.5757 38.7982 55.3417 35.0312 59.9717 35.0312 64.6017 35.0312 68.3677 38.7982 68.3677 43.4272 68.3677 48.0582 64.6017 51.8252 59.9717 51.8252" mask="url(#components-illustration-d)"/>
      <path fill="#1D1D1B" d="M63.0078 43.4277C63.0078 45.1057 61.6488 46.4647 59.9718 46.4647 58.2948 46.4647 56.9358 45.1057 56.9358 43.4277 56.9358 41.7507 58.2948 40.3917 59.9718 40.3917 61.6488 40.3917 63.0078 41.7507 63.0078 43.4277M137.043 73.7119C135.597 73.7119 134.421 74.8879 134.421 76.3339 134.421 77.7799 135.597 78.9559 137.043 78.9559 138.489 78.9559 139.665 77.7799 139.665 76.3339 139.665 74.8879 138.489 73.7119 137.043 73.7119M137.043 80.9559C134.494 80.9559 132.421 78.8829 132.421 76.3339 132.421 73.7849 134.494 71.7119 137.043 71.7119 139.592 71.7119 141.665 73.7849 141.665 76.3339 141.665 78.8829 139.592 80.9559 137.043 80.9559M11.5547 95.9717C9.8037 95.9717 8.3797 97.3957 8.3797 99.1467 8.3797 100.8977 9.8037 102.3217 11.5547 102.3217 13.3057 102.3217 14.7297 100.8977 14.7297 99.1467 14.7297 97.3957 13.3057 95.9717 11.5547 95.9717M11.5547 104.3217C8.7007 104.3217 6.3797 101.9997 6.3797 99.1467 6.3797 96.2927 8.7007 93.9717 11.5547 93.9717 14.4087 93.9717 16.7297 96.2927 16.7297 99.1467 16.7297 101.9997 14.4087 104.3217 11.5547 104.3217M112.1797 72.7285L95.8537 72.7285C95.3007 72.7285 94.8537 72.2815 94.8537 71.7285 94.8537 71.1755 95.3007 70.7285 95.8537 70.7285L112.1797 70.7285C112.7327 70.7285 113.1797 71.1755 113.1797 71.7285 113.1797 72.2815 112.7327 72.7285 112.1797 72.7285M122.2607 118.8105L85.7587 118.8105C85.2057 118.8105 84.7587 118.3635 84.7587 117.8105L84.7587 81.5305C84.7587 80.9775 85.2057 80.5305 85.7587 80.5305 86.3117 80.5305 86.7587 80.9775 86.7587 81.5305L86.7587 116.8105 121.2607 116.8105 121.2607 81.8235C121.2607 81.2705 121.7077 80.8235 122.2607 80.8235 122.8137 80.8235 123.2607 81.2705 123.2607 81.8235L123.2607 117.8105C123.2607 118.3635 122.8137 118.8105 122.2607 118.8105" mask="url(#components-illustration-d)"/>
      <path fill="#1D1D1B" d="M71.786,80.186 L94.357,80.186 L94.357,57.615 L71.786,57.615 L71.786,80.186 Z M95.357,82.186 L70.786,82.186 C70.233,82.186 69.786,81.738 69.786,81.186 L69.786,56.614 C69.786,56.062 70.233,55.614 70.786,55.614 L95.357,55.614 C95.91,55.614 96.357,56.062 96.357,56.614 L96.357,81.186 C96.357,81.738 95.91,82.186 95.357,82.186 L95.357,82.186 Z" mask="url(#components-illustration-d)"/>
      <path fill="#1D1D1B" d="M82.3115,73.5215 C82.0555,73.5215 81.7995,73.4235 81.6045,73.2285 L76.8575,68.4815 C76.4665,68.0905 76.4665,67.4585 76.8575,67.0675 C77.2485,66.6765 77.8805,66.6765 78.2715,67.0675 L82.3115,71.1075 L88.8485,64.5705 C89.2395,64.1795 89.8725,64.1795 90.2625,64.5705 C90.6535,64.9605 90.6535,65.5935 90.2625,65.9845 L83.0185,73.2285 C82.8235,73.4235 82.5675,73.5215 82.3115,73.5215" mask="url(#components-illustration-d)"/>
      <polygon fill="#1D1D1B" points="107.781 51.393 145.217 51.393 145.217 47.2 107.781 47.2" mask="url(#components-illustration-d)"/>
      <path fill="#1D1D1B" d="M108.781,50.393 L144.217,50.393 L144.217,48.2 L108.781,48.2 L108.781,50.393 Z M145.217,52.393 L107.781,52.393 C107.229,52.393 106.781,51.945 106.781,51.393 L106.781,47.199 C106.781,46.646 107.229,46.199 107.781,46.199 L145.217,46.199 C145.77,46.199 146.217,46.646 146.217,47.199 L146.217,51.393 C146.217,51.945 145.77,52.393 145.217,52.393 L145.217,52.393 Z" mask="url(#components-illustration-d)"/>
      <polygon fill="#1D1D1B" points="107.781 62.532 129.582 62.532 129.582 58.34 107.781 58.34" mask="url(#components-illustration-d)"/>
      <path fill="#1D1D1B" d="M108.781 61.532L128.582 61.532 128.582 59.34 108.781 59.34 108.781 61.532zM129.582 63.532L107.781 63.532C107.229 63.532 106.781 63.085 106.781 62.532L106.781 58.34C106.781 57.787 107.229 57.34 107.781 57.34L129.582 57.34C130.135 57.34 130.582 57.787 130.582 58.34L130.582 62.532C130.582 63.085 130.135 63.532 129.582 63.532L129.582 63.532zM120.8018 9.7256C113.2808 9.7256 107.1618 15.8446 107.1618 23.3656 107.1618 30.8856 113.2808 37.0036 120.8018 37.0036 128.3228 37.0036 134.4408 30.8856 134.4408 23.3656 134.4408 15.8446 128.3228 9.7256 120.8018 9.7256M120.8018 39.0036C112.1778 39.0036 105.1618 31.9886 105.1618 23.3656 105.1618 14.7416 112.1778 7.7256 120.8018 7.7256 129.4248 7.7256 136.4408 14.7416 136.4408 23.3656 136.4408 31.9886 129.4248 39.0036 120.8018 39.0036" mask="url(#components-illustration-d)"/>
      <path fill="#1D1D1B" d="M123.6621 14.8184C123.5671 14.8184 123.4721 14.8044 123.3761 14.7764 122.5441 14.5284 121.6781 14.4024 120.8021 14.4024 120.2491 14.4024 119.7861 13.9554 119.7861 13.4024 119.7861 12.8494 120.2181 12.4024 120.7701 12.4024L120.8021 12.4024C121.8721 12.4024 122.9311 12.5564 123.9481 12.8604 124.4771 13.0184 124.7781 13.5754 124.6201 14.1044 124.4911 14.5384 124.0931 14.8184 123.6621 14.8184M113.7381 17.3394C113.4831 17.3394 113.2281 17.2424 113.0331 17.0474 112.6411 16.6584 112.6401 16.0254 113.0291 15.6334 113.7911 14.8684 114.6571 14.2204 115.6051 13.7104 116.0931 13.4454 116.6981 13.6294 116.9601 14.1154 117.2231 14.6014 117.0411 15.2084 116.5551 15.4694 115.7791 15.8874 115.0701 16.4174 114.4471 17.0444 114.2521 17.2404 113.9951 17.3394 113.7381 17.3394M129.5731 19.6344C129.2181 19.6344 128.8731 19.4454 128.6921 19.1104 128.2731 18.3354 127.7431 17.6264 127.1161 17.0054 126.7241 16.6164 126.7221 15.9834 127.1101 15.5904 127.5001 15.1984 128.1331 15.1974 128.5241 15.5854 129.2911 16.3444 129.9391 17.2114 130.4521 18.1594 130.7151 18.6444 130.5331 19.2524 130.0481 19.5144 129.8961 19.5954 129.7331 19.6344 129.5731 19.6344M110.8391 24.3764C110.2861 24.3764 109.8391 23.9394 109.8391 23.3864L109.8391 23.3654C109.8391 22.2894 109.9941 21.2264 110.3011 20.2064 110.4611 19.6784 111.0151 19.3794 111.5471 19.5364 112.0751 19.6954 112.3751 20.2534 112.2171 20.7824 111.9661 21.6154 111.8391 22.4844 111.8391 23.3654 111.8391 23.9184 111.3911 24.3764 110.8391 24.3764M130.3391 27.2564C130.2431 27.2564 130.1451 27.2424 130.0491 27.2134 129.5201 27.0524 129.2221 26.4944 129.3821 25.9654 129.6361 25.1284 129.7651 24.2534 129.7651 23.3654 129.7651 22.8124 130.2121 22.3434 130.7651 22.3434 131.3171 22.3434 131.7651 22.7704 131.7651 23.3234L131.7651 23.3654C131.7651 24.4494 131.6061 25.5194 131.2961 26.5464 131.1651 26.9774 130.7681 27.2564 130.3391 27.2564M113.7681 31.4214C113.5131 31.4214 113.2581 31.3234 113.0621 31.1294 112.2981 30.3674 111.6511 29.4994 111.1411 28.5504 110.8801 28.0644 111.0621 27.4584 111.5491 27.1964 112.0341 26.9354 112.6411 27.1164 112.9031 27.6034 113.3201 28.3794 113.8491 29.0894 114.4741 29.7134 114.8661 30.1024 114.8661 30.7364 114.4761 31.1274 114.2811 31.3234 114.0251 31.4214 113.7681 31.4214M125.5061 33.1504C125.1491 33.1504 124.8051 32.9604 124.6241 32.6244 124.3621 32.1374 124.5451 31.5314 125.0311 31.2694 125.8081 30.8514 126.5191 30.3234 127.1431 29.6994 127.5341 29.3084 128.1671 29.3084 128.5581 29.6994 128.9481 30.0894 128.9481 30.7224 128.5581 31.1134 127.7961 31.8754 126.9281 32.5204 125.9781 33.0314 125.8281 33.1124 125.6661 33.1504 125.5061 33.1504M120.8111 34.3284L120.8021 34.3284C119.7221 34.3284 118.6551 34.1724 117.6321 33.8624 117.1031 33.7034 116.8041 33.1444 116.9641 32.6164 117.1231 32.0874 117.6801 31.7884 118.2101 31.9484 119.0461 32.2004 119.9171 32.3284 120.8021 32.3284 121.3541 32.3284 121.8071 32.7754 121.8071 33.3284 121.8071 33.8804 121.3641 34.3284 120.8111 34.3284M125.999 21.8496L115.603 21.8496C115.051 21.8496 114.603 21.4026 114.603 20.8496 114.603 20.2966 115.051 19.8496 115.603 19.8496L125.999 19.8496C126.552 19.8496 126.999 20.2966 126.999 20.8496 126.999 21.4026 126.552 21.8496 125.999 21.8496M125.999 26.8799L115.603 26.8799C115.051 26.8799 114.603 26.4329 114.603 25.8799 114.603 25.3269 115.051 24.8799 115.603 24.8799L125.999 24.8799C126.552 24.8799 126.999 25.3269 126.999 25.8799 126.999 26.4329 126.552 26.8799 125.999 26.8799M113.3965 80.5303L119.8465 80.5303 113.4415 74.1263 113.3965 80.5303zM122.2605 82.5303L112.3895 82.5303C112.1235 82.5303 111.8685 82.4243 111.6795 82.2353 111.4925 82.0463 111.3875 81.7903 111.389472 81.5233L111.4585 71.7213C111.4605 71.3183 111.7055 70.9563 112.0785 70.8033 112.4525 70.6503 112.8795 70.7363 113.1655 71.0213L122.9675 80.8233C123.2535 81.1093 123.3395 81.5393 123.1845 81.9133 123.0305 82.2873 122.6655 82.5303 122.2605 82.5303L122.2605 82.5303zM34.4316 101.5605C34.4316 102.5645 33.6176 103.3785 32.6136 103.3785 31.6096 103.3785 30.7946 102.5645 30.7946 101.5605 30.7946 100.5565 31.6096 99.7425 32.6136 99.7425 33.6176 99.7425 34.4316 100.5565 34.4316 101.5605M34.4316 112.9443C34.4316 113.9493 33.6176 114.7623 32.6136 114.7623 31.6096 114.7623 30.7946 113.9493 30.7946 112.9443 30.7946 111.9403 31.6096 111.1273 32.6136 111.1273 33.6176 111.1273 34.4316 111.9403 34.4316 112.9443M66.6396 102.5605L39.3266 102.5605C38.7736 102.5605 38.3266 102.1135 38.3266 101.5605 38.3266 101.0075 38.7736 100.5605 39.3266 100.5605L66.6396 100.5605C67.1926 100.5605 67.6396 101.0075 67.6396 101.5605 67.6396 102.1135 67.1926 102.5605 66.6396 102.5605M66.6396 113.9443L39.3266 113.9443C38.7736 113.9443 38.3266 113.4973 38.3266 112.9443 38.3266 112.3913 38.7736 111.9443 39.3266 111.9443L66.6396 111.9443C67.1926 111.9443 67.6396 112.3913 67.6396 112.9443 67.6396 113.4973 67.1926 113.9443 66.6396 113.9443M43.5469 2.6074C39.9239 2.6074 36.9769 5.5544 36.9769 9.1764L36.9769 18.6664C36.9769 22.2884 39.9239 25.2354 43.5469 25.2354L72.5079 25.2354C72.8649 25.2354 73.1949 25.4254 73.3739 25.7354L76.6029 31.3284 79.8309 25.7354C80.0099 25.4254 80.3399 25.2354 80.6969 25.2354L87.7879 25.2354C91.4099 25.2354 94.3579 22.2884 94.3579 18.6664L94.3579 9.1764C94.3579 5.5544 91.4099 2.6074 87.7879 2.6074L43.5469 2.6074zM76.6029 34.3284C76.2449 34.3284 75.9149 34.1374 75.7359 33.8284L71.9309 27.2354 43.5469 27.2354C38.8209 27.2354 34.9769 23.3914 34.9769 18.6664L34.9769 9.1764C34.9769 4.4514 38.8209.6074 43.5469.6074L87.7879.6074C92.5139.6074 96.3579 4.4514 96.3579 9.1764L96.3579 18.6664C96.3579 23.3914 92.5139 27.2354 87.7879 27.2354L81.2749 27.2354 77.4689 33.8284C77.2899 34.1374 76.9599 34.3284 76.6029 34.3284L76.6029 34.3284z" mask="url(#components-illustration-d)"/>
      <path fill="#1D1D1B" d="M58.1895 10.6689L43.8605 10.6689C43.3075 10.6689 42.8605 10.2219 42.8605 9.6689 42.8605 9.1159 43.3075 8.6689 43.8605 8.6689L58.1895 8.6689C58.7425 8.6689 59.1895 9.1159 59.1895 9.6689 59.1895 10.2219 58.7425 10.6689 58.1895 10.6689M84.4004 10.6689L64.4894 10.6689C63.9364 10.6689 63.4894 10.2219 63.4894 9.6689 63.4894 9.1159 63.9364 8.6689 64.4894 8.6689L84.4004 8.6689C84.9534 8.6689 85.4004 9.1159 85.4004 9.6689 85.4004 10.2219 84.9534 10.6689 84.4004 10.6689M52.4414 17.4092L43.8604 17.4092C43.3074 17.4092 42.8604 16.9622 42.8604 16.4092 42.8604 15.8562 43.3074 15.4092 43.8604 15.4092L52.4414 15.4092C52.9944 15.4092 53.4414 15.8562 53.4414 16.4092 53.4414 16.9622 52.9944 17.4092 52.4414 17.4092M68.5479 17.4092L57.6419 17.4092C57.0889 17.4092 56.6419 16.9622 56.6419 16.4092 56.6419 15.8562 57.0889 15.4092 57.6419 15.4092L68.5479 15.4092C69.1009 15.4092 69.5479 15.8562 69.5479 16.4092 69.5479 16.9622 69.1009 17.4092 68.5479 17.4092M80.3418 17.4092L74.1018 17.4092C73.5488 17.4092 73.1018 16.9622 73.1018 16.4092 73.1018 15.8562 73.5488 15.4092 74.1018 15.4092L80.3418 15.4092C80.8948 15.4092 81.3418 15.8562 81.3418 16.4092 81.3418 16.9622 80.8948 17.4092 80.3418 17.4092" mask="url(#components-illustration-d)"/>
    </g>
  </g>
</svg>
