<?xml version="1.0" encoding="UTF-8"?>
<svg width="88px" height="88px" viewBox="0 0 88 88" version="1.1" xmlns="http://www.w3.org/2000/svg" xmlns:xlink="http://www.w3.org/1999/xlink">
    <!-- Generator: Sketch 61.2 (89653) - https://sketch.com -->
    <title>Icon_tools Copy</title>
    <desc>Created with Sketch.</desc>
    <g id="Icon_tools-Copy" stroke="none" stroke-width="1" fill="none" fill-rule="evenodd">
        <path d="M52.9110775,37.3276571 C53.7389907,38.119574 54.2069416,39.1894618 54.230939,40.3353415 C54.2529367,41.4812213 53.8289812,42.5671073 53.0390641,43.3910209 L44.6339461,52.0841087 L36.2328276,43.3930207 C34.5949995,41.6871997 34.6509936,38.9654853 36.3588144,37.3276571 C37.1887273,36.5317406 38.258615,36.1337824 39.3285028,36.1337824 C40.4563844,36.1337824 41.5842661,36.575736 42.4241779,37.4516441 L44.6339461,39.7554024 L46.845714,37.4516441 C48.4835421,35.7458231 51.2032567,35.689829 52.9110775,37.3276571 L52.9110775,37.3276571 Z M45.4018655,36.0677893 L44.6339461,36.8677054 L43.8680264,36.0677893 C42.7041486,34.8559165 41.1383129,34.1679887 39.4584891,34.1339922 C37.7806652,34.0999958 36.1848327,34.7219305 34.9729598,35.8838086 C32.4712223,38.2855566 32.3892309,42.2771378 34.7929787,44.780875 L44.6339461,54.9598069 L54.478913,44.7788752 C55.6427909,43.5670024 56.2647256,41.9731697 56.2287294,40.2933459 C56.194733,38.615522 55.508805,37.0476865 54.2949323,35.8838086 C51.791195,33.4840604 47.8036135,33.5660518 45.4018655,36.0677893 L45.4018655,36.0677893 Z M79.6402728,69.4822831 L8.59972721,69.4822831 L8.59972721,17.5997272 L68.4454475,17.5997272 L68.4454475,28.7945525 L79.6402728,28.7945525 L79.6402728,69.4822831 Z M71.0451747,19.4375344 L77.8024656,26.1948253 L71.0451747,26.1948253 L71.0451747,19.4375344 Z M70.2852544,15 L6,15 L6,72.0820103 L82.24,72.0820103 L82.24,26.9547456 L70.2852544,15 Z M30.5534236,36.8097115 L29.9794838,34.8939125 L25.2799769,36.3037646 C28.2456657,28.5845745 35.7388794,23.3351254 44.12,23.3351254 C53.1330542,23.3351254 61.1262155,29.4004889 63.5599601,38.0855776 L65.4857581,37.547634 C62.8120386,28.0026356 54.0249607,21.3353352 44.12,21.3353352 C35.1829378,21.3353352 27.1717784,26.7727647 23.7241402,34.8459175 L22.2742923,30.7223502 L20.3884902,31.3862806 L23.0822075,39.0474767 L30.5534236,36.8097115 Z M57.6865764,50.2722988 L58.2605162,52.1880978 L62.9600231,50.7802455 C59.9943343,58.4974357 52.5011206,63.7468849 44.12,63.7468849 C35.1069458,63.7468849 27.1137845,57.6815214 24.6800399,48.9944329 L22.7542419,49.5343762 C25.4299612,59.0793747 34.2150393,65.7466751 44.12,65.7466751 C53.059062,65.7466751 61.0682216,60.3092456 64.5158598,52.234093 L65.9657077,56.3576603 L67.8515098,55.6937299 L65.1577925,48.0325338 L57.6865764,50.2722988 Z" id="Fill-3" fill="#000000"></path>
    </g>
</svg>