<?xml version="1.0" encoding="UTF-8"?>
<svg width="122px" height="139px" viewBox="0 0 122 139" version="1.1" xmlns="http://www.w3.org/2000/svg" xmlns:xlink="http://www.w3.org/1999/xlink">
    <!-- Generator: Sketch 61.2 (89653) - https://sketch.com -->
    <title>Group 3</title>
    <desc>Created with Sketch.</desc>
    <g id="Symbols" stroke="none" stroke-width="1" fill="none" fill-rule="evenodd">
        <g id="illustration1" transform="translate(-9.000000, 0.000000)">
            <g id="Group-3" transform="translate(10.500000, 1.500000)">
                <line x1="87.6196721" y1="0.22295082" x2="83.6065574" y2="17.1672131" id="Line-3" stroke="#000000" stroke-width="3" stroke-linecap="round"></line>
                <line x1="110.806557" y1="8.69508197" x2="101.442623" y2="22.9639344" id="Line" stroke="#000000" stroke-width="3" stroke-linecap="round"></line>
                <line x1="59.0819672" y1="3.79016393" x2="62.6491803" y2="20.2885246" id="Line-8" stroke="#000000" stroke-width="3" stroke-linecap="round"></line>
                <g id="Group-62" transform="translate(0.000000, 31.659016)">
                    <polygon id="Fill-1" fill="#A79DE6" points="66.9991292 40.2738807 73.7260013 42.8061561 77.7034439 43.7443331 81.6612669 46.6805954 83.3396407 49.5031528 90.8446111 36.5920708 93.157057 40.2738807 97.3177652 30.5157692 74.4046636 21.6432184"></polygon>
                    <polygon id="Fill-2" fill="#1D1D1B" points="83.1164669 0.667024262 78.0086636 23.0731357 74.4048866 21.6431292 70.9174898 30.4309587 69.5641784 26.7932931 48.9688734 33.7756669 33.8046505 28.4203882 26.8793521 46.1115357 23.3054505 46.8298833 20.6888997 49.5030636 19.9544997 52.7367423 20.4271554 56.4751816 15.6421849 54.4191292 22.0194702 14.6817128"></polygon>
                    <polygon id="Fill-3" fill="#FEFEFE" points="64.191777 47.4915121 70.3024131 61.6417548 83.4596328 57.7445744 84.2011672 54.5666334 83.3396852 49.5034203 80.2495869 45.506358 76.7769049 43.3691515 72.5145311 42.8059777 68.3622951 43.9033416"></polygon>
                    <polygon id="Fill-4" fill="#FEFEFE" points="33.43152 49.5032866 59.2545757 53.4446111 57.5690675 64.7656079 53.0204249 66.3820013 52.398838 63.0216866 50.4382085 60.8251751 47.5683856 60.0666964 44.2250151 60.4488341 41.7417889 63.6009128 41.6463659 65.6070243 34.696543 63.0216866 27.9478216 59.8798636 31.6171462 58.5885325 32.8879659 56.4754046 33.8047397 53.4446111"></polygon>
                    <polygon id="Fill-5" fill="#FEFEFE" points="78.0138361 30.51568 80.6464393 34.3959161 77.0448918 37.1689784 73.7260459 33.2722439"></polygon>
                    <polygon id="Fill-6" fill="#FEFEFE" points="97.3178098 7.8639659 100.190308 9.51023475 101.53158 11.7571331 101.059816 14.3603069 100.190308 16.9175528 96.8487213 18.0291856 93.862518 17.19312 91.6535213 15.2338282 91.3663607 11.7571331 92.8677115 9.03980852 95.0111607 7.8639659"></polygon>
                    <polygon id="Fill-7" fill="#1D1D1B" points="97.3178098 47.1914649 100.190308 52.9957666 105.1144 51.448042"></polygon>
                    <polygon id="Fill-8" fill="#A79DE6" points="36.3146308 40.2738807 38.3907489 41.224543 38.3907489 42.8061561 37.9238898 44.7097102 35.2850439 44.9910741 33.8046505 43.6694216 33.8046505 42.2153364"></polygon>
                    <path d="M47.5684302,60.0668748 C47.5684302,60.0668748 51.2515777,60.2617338 51.8254531,61.6417993 C52.3988826,63.0218649 53.0204695,66.3817338 53.0204695,66.3817338 L46.4536761,68.2027961 L41.6464105,65.6072026 L41.7418334,63.6010911 L44.2250597,60.4485666 L47.5684302,60.0668748 Z" id="Fill-9" fill="#A79DE6"></path>
                    <polyline id="Stroke-11" stroke="#1D1D1B" stroke-width="3" stroke-linecap="round" stroke-linejoin="round" points="78.5154754 22.981503 83.4596328 0.589214426 22.0982164 14.5477193 15.5550557 54.5343948 46.3811279 68.2030636 106.288013 51.7720341 96.6761574 46.8635489"></polyline>
                    <g id="Group-32" transform="translate(0.000000, 0.300538)">
                        <path d="M106.288102,51.4714518 L103.030791,84.2817862 L46.526581,103.671819 L17.299958,88.2592289 L15.5551449,54.2338125 C15.5551449,54.2338125 -1.51842885,46.3529469 0.368626885,26.6204616 C2.25612852,6.88753049 22.0978597,14.247583 22.0978597,14.247583" id="Stroke-12" stroke="#1D1D1B" stroke-width="3" stroke-linecap="round" stroke-linejoin="round"></path>
                        <line x1="46.3809495" y1="67.902303" x2="46.5263134" y2="103.672087" id="Stroke-14" stroke="#1D1D1B" stroke-width="3" stroke-linecap="round" stroke-linejoin="round"></line>
                        <polygon id="Stroke-16" stroke="#1D1D1B" stroke-width="3" stroke-linecap="round" stroke-linejoin="round" points="72.5145311 64.5467148 82.8915541 61.9065311 82.796577 71.1491803 72.7183082 73.897718"></polygon>
                        <polyline id="Stroke-18" stroke="#1D1D1B" stroke-width="3" stroke-linecap="round" stroke-linejoin="round" points="11.1054925 13.1580669 65.7311187 0.965332459 83.459722 0.28845377"></polyline>
                        <path d="M78.9474649,66.3590374 C78.9474649,67.0466177 78.3905338,67.6035489 77.7033993,67.6035489 C77.015819,67.6035489 76.4588879,67.0466177 76.4588879,66.3590374 C76.4588879,65.671903 77.015819,65.1149718 77.7033993,65.1149718 C78.3905338,65.1149718 78.9474649,65.671903 78.9474649,66.3590374" id="Fill-20" fill="#1D1D1B"></path>
                        <polygon id="Fill-22" fill="#1D1D1B" points="77.2927239 67.1071711 76.6845141 70.6855318 79.332278 70.1847843 78.0083961 66.9283646"></polygon>
                    </g>
                    <g id="Group-61" transform="translate(19.619672, 7.434964)" stroke="#1D1D1B" stroke-linecap="round" stroke-linejoin="round" stroke-width="3">
                        <path d="M81.9119974,5.51179016 C81.9119974,8.31874098 79.6365613,10.594177 76.8296105,10.594177 C74.0226597,10.594177 71.7467777,8.31874098 71.7467777,5.51179016 C71.7467777,2.70483934 74.0226597,0.428957377 76.8296105,0.428957377 C79.6365613,0.428957377 81.9119974,2.70483934 81.9119974,5.51179016 Z" id="Stroke-33"></path>
                        <path d="M92.0140328,9.48267803 C92.0140328,10.412383 91.260459,11.1664026 90.3307541,11.1664026 C89.4006033,11.1664026 88.6465836,10.412383 88.6465836,9.48267803 C88.6465836,8.55297311 89.4006033,7.79895344 90.3307541,7.79895344 C91.260459,7.79895344 92.0140328,8.55297311 92.0140328,9.48267803 Z" id="Stroke-35"></path>
                        <path d="M1.62054033,49.6225207 C0.811228852,48.4885928 0.33456,47.1009469 0.33456,45.6013797 C0.33456,41.7768813 3.4349141,38.6765272 7.25941246,38.6765272 C11.0843567,38.6765272 14.1851567,41.7768813 14.1851567,45.6013797 C14.1851567,49.0629141 11.645301,51.9313993 8.32823869,52.445078" id="Stroke-37"></path>
                        <path d="M21.9281941,58.3637534 C21.9259646,58.3035567 21.9250728,58.2429141 21.9250728,58.1827174 C21.9250728,55.0136944 24.4939121,52.445301 27.6624892,52.445301 C30.8315121,52.445301 33.4007974,55.0136944 33.4007974,58.1827174 C33.4007974,58.3668748 33.3918793,58.5492485 33.3749351,58.7289469" id="Stroke-39"></path>
                        <polygon id="Stroke-41" points="91.7675384 37.6210334 82.0352892 33.0706072 89.1385023 17.8765089 98.8711974 22.4264892"></polygon>
                        <polyline id="Stroke-43" points="13.2161679 42.0683226 39.6349482 45.9980538 37.94944 57.3306439"></polyline>
                        <polyline id="Stroke-45" points="30.818358 44.686657 40.6455843 31.648939 50.6828302 54.207103"></polyline>
                        <polyline id="Stroke-47" points="51.2976393 22.9962177 49.9447738 19.3585521 21.1002885 29.7939882 26.2896918 44.0128997"></polyline>
                        <polyline id="Stroke-49" points="29.3491567 26.8096577 14.1849338 20.7913233 7.25963541 38.676438"></polyline>
                        <path d="M19.2053403,35.3492984 C19.2053403,36.7351607 18.0812223,37.8592787 16.6949141,37.8592787 C15.3090518,37.8592787 14.1849338,36.7351607 14.1849338,35.3492984 C14.1849338,33.9629902 15.3090518,32.8388721 16.6949141,32.8388721 C18.0812223,32.8388721 19.2053403,33.9629902 19.2053403,35.3492984 Z" id="Stroke-51"></path>
                        <polygon id="Stroke-53" points="61.2511449 26.7881207 57.3615449 29.7827961 54.3668695 25.8931961 58.2564695 22.8980748"></polygon>
                        <polyline id="Stroke-55" points="80.5708144 46.009558 71.411103 28.8575056 63.4967948 41.5737285"></polyline>
                        <polyline id="Stroke-57" points="73.7860643 33.304438 77.6979593 23.3010807 54.7853036 14.2082544 47.3793233 32.8687921 53.5907331 35.349343"></polyline>
                        <path d="M44.5721049,40.0565482 C46.5581508,37.2108039 49.857377,35.3491646 53.5909115,35.3491646 C59.6605246,35.3491646 64.5814951,40.2701351 64.5814951,46.3397482 C64.5814951,47.8571515 64.273823,49.3027646 63.7177836,50.6181744" id="Stroke-59"></path>
                    </g>
                </g>
            </g>
        </g>
    </g>
</svg>