<?xml version="1.0" encoding="utf-8"?>
<!-- Generator: Adobe Illustrator 23.0.6, SVG Export Plug-In . SVG Version: 6.00 Build 0)  -->
<svg version="1.1" id="Layer_1" focusable="false" xmlns="http://www.w3.org/2000/svg" xmlns:xlink="http://www.w3.org/1999/xlink"
	 x="0px" y="0px" viewBox="0 0 448 512" style="enable-background:new 0 0 448 512;" xml:space="preserve">
<style type="text/css">
	.st0{fill:#D3DBD3;}
</style>
<path class="st0" d="M94.1,315.1c0,25.9-21.2,47.1-47.1,47.1S0,341,0,315.1S21.2,268,47.1,268h47.1V315.1z M117.8,315.1
	c0-25.9,21.2-47.1,47.1-47.1s47.1,21.2,47.1,47.1v117.8c0,25.9-21.2,47.1-47.1,47.1s-47.1-21.2-47.1-47.1
	C117.8,432.9,117.8,315.1,117.8,315.1z M164.9,126.1c-25.9,0-47.1-21.2-47.1-47.1S139,32,164.9,32S212,53.2,212,79.1v47.1
	L164.9,126.1L164.9,126.1z M164.9,149.8c25.9,0,47.1,21.2,47.1,47.1S190.8,244,164.9,244H47.1C21.2,244,0,222.8,0,196.9
	s21.2-47.1,47.1-47.1L164.9,149.8L164.9,149.8z M353.9,196.9c0-25.9,21.2-47.1,47.1-47.1S448,171,448,196.9S426.8,244,400.9,244
	h-47.1V196.9L353.9,196.9z M330.2,196.9c0,25.9-21.2,47.1-47.1,47.1S236,222.8,236,196.9V79.1c0-25.9,21.2-47.1,47.1-47.1
	s47.1,21.2,47.1,47.1V196.9L330.2,196.9z M283.1,385.9c25.9,0,47.1,21.2,47.1,47.1S309,480,283.1,480S236,458.8,236,432.9v-47.1
	H283.1z M283.1,362.2c-25.9,0-47.1-21.2-47.1-47.1s21.2-47.1,47.1-47.1h117.8c25.9,0,47.1,21.2,47.1,47.1s-21.2,47.1-47.1,47.1
	H283.1z"/>
</svg>
