<?xml version="1.0" encoding="utf-8"?>
<!-- Generator: Adobe Illustrator 24.0.2, SVG Export Plug-In . SVG Version: 6.00 Build 0)  -->
<svg version="1.1" id="Layer_1" xmlns="http://www.w3.org/2000/svg" xmlns:xlink="http://www.w3.org/1999/xlink" x="0px" y="0px"
	 viewBox="0 0 440.4 117.4" enable-background="new 0 0 440.4 117.4" xml:space="preserve">
<g>
	<g>
		<polygon fill="#191716" points="25.6,15.5 25.6,26.3 16.4,26.3 16.4,15.5 10,15.5 10,43.6 16.4,43.6 16.4,32.1 25.6,32.1 
			25.6,43.6 32,43.6 32,15.5 		"/>
		<polygon fill="#191716" points="110.1,38.1 110.1,15.5 103.7,15.5 103.7,43.6 121.2,43.6 121.2,38.1 		"/>
		<path fill="#191716" d="M67,63.7c-6.5,0-11,5.5-11,13.3s4.5,13.3,11,13.3S78,84.9,78,77S73.4,63.7,67,63.7z M74.6,77
			c0,4.8-2,10.4-7.6,10.4c-5.6,0-7.6-5.6-7.6-10.4s2-10.4,7.6-10.4C72.6,66.6,74.6,72.2,74.6,77z"/>
		<path fill="#191716" d="M210.8,30.6c0-7.7-4.5-13-10.8-13c-6.6,0-11,5.3-11,13.3c0,7.8,4.6,13.3,11.2,13.3c4.9,0,8.6-2.4,9.9-6.5
			l0.2-0.7H207l-0.1,0.3c-1.1,2.5-3.5,3.9-6.7,3.9c-5.2,0-7.4-4.6-7.8-9.1h18.4V30.6z M207.5,29.3h-15.1c0.4-4.4,2.6-8.8,7.6-8.8
			C205.2,20.5,207.3,25.6,207.5,29.3z"/>
		<path fill="#191716" d="M21.8,63.7c-4.3,0-6.7,2.7-7.8,4.7v-4h-3.1v25.1h3.3V76.9c0-3.4,1.8-10.3,7.3-10.3c5.6,0,6.4,4.8,6.4,10
			v12.9h3.3V76.7C31.1,70.2,30,63.7,21.8,63.7z"/>
		<polygon fill="#191716" points="63.5,38.2 63.5,31.8 72.6,31.8 72.6,26.6 63.5,26.6 63.5,20.9 75.8,20.9 75.8,15.5 57.2,15.5 
			57.2,43.6 76.2,43.6 76.2,38.2 		"/>
		<polygon fill="#191716" points="197,84.2 197,77.8 206.1,77.8 206.1,72.5 197,72.5 197,66.9 209.3,66.9 209.3,61.5 190.7,61.5 
			190.7,89.6 209.7,89.6 209.7,84.2 		"/>
		<polygon fill="#191716" points="108.7,71 108.7,64.4 105.6,64.4 105.6,89.6 108.9,89.6 108.9,74.4 119.8,66.6 119.8,63 		"/>
		<path fill="#191716" d="M167.6,63l-5.9,4.2c-1.8-2.2-4.5-3.5-7.5-3.5c-5.5,0-9.5,3.9-9.5,9.4c0,4.3,2.5,7.7,6.4,8.9l-6.4,7
			c-1.6,1.9-2.3,3.3-2.3,5.1c0,5.1,4.4,8.3,11.3,8.3c6.8,0,11.4-3.3,11.4-8.3c0-5-4.5-8.3-11.4-8.3c-0.7,0-1.6,0.1-2.3,0.2l3.2-3.6
			c5.2-0.3,8.9-4.2,8.9-9.4c0-1.1-0.2-2.2-0.5-3.1c0,0,0-0.1,0-0.1l4.5-3.3V63z M153.8,88.7c4.9,0,8,2.1,8,5.4c0,3.3-3.1,5.4-8,5.4
			c-4.8,0-8-2.1-8-5.4C145.8,91,149.2,88.7,153.8,88.7z M154.2,79.5c-3.5,0-6.1-2.7-6.1-6.4c0-3.7,2.6-6.4,6.1-6.4s6.1,2.7,6.1,6.4
			C160.3,76.8,157.7,79.5,154.2,79.5z"/>
		<path fill="#191716" d="M156.9,26.7c-2.6-0.9-5.4-1.9-5.4-3.7c0-1.9,1.7-2.8,3.7-2.8c2.2,0,3.6,1.8,3.6,3.4v0.3l6.5,0v-0.2
			c0-5.2-4.1-8.7-10.2-8.7c-6.2,0-10,3.1-10,8.2c0,5.9,5.3,7.4,9.2,8.8c2.6,0.9,5.5,1.7,5.5,3.5c0,1.8-1.4,3.2-4.3,3.2
			c-2.6,0-4.4-1.5-4.4-3.8v-0.3h-6.7v0.3c0,5.8,4.1,9.3,11,9.3c6.6,0,10.4-3.1,10.4-8.6C165.9,29.8,160.9,28.1,156.9,26.7z"/>
	</g>
	<line fill="none" stroke="#D8D8D8" stroke-width="3" stroke-miterlimit="10" x1="245.8" y1="15.7" x2="245.8" y2="94.7"/>
	<text transform="matrix(1 0 0 1 275.2661 68.5165)" font-family="'SourceSansPro-Light'" font-size="57.8801px">design</text>
</g>
</svg>
